<?xml version="1.0" encoding="utf-8"?>
<!-- Generator: Adobe Illustrator 22.0.1, SVG Export Plug-In . SVG Version: 6.00 Build 0)  -->
<svg version="1.1"
	 id="Layer_1" xmlns:cc="http://creativecommons.org/ns#" xmlns:dc="http://purl.org/dc/elements/1.1/" xmlns:rdf="http://www.w3.org/1999/02/22-rdf-syntax-ns#"
	 xmlns="http://www.w3.org/2000/svg" xmlns:xlink="http://www.w3.org/1999/xlink" x="0px" y="0px" viewBox="0 0 64 64"
	 style="enable-background:new 0 0 64 64;" xml:space="preserve">
<style type="text/css">
	.st0{fill:#F7931A;}
	.st1{fill:#FFFFFF;}
</style>
<g transform="translate(0.00630876,-0.00301984)">
	<path class="st0" d="M63.1,24.6c4.1,17.2-6.5,34.4-23.7,38.5C22.2,67.2,5,56.6,0.9,39.4C-3.2,22.2,7.4,5,24.6,0.9
		C41.8-3.2,59,7.4,63.1,24.6z"/>
	<path class="st1" d="M42.4,21.5c-1.4-4.1-5.3-4.6-10-3.9l-1.4-5.8l-3.5,0.8l1.3,5.6c-0.9,0.2-1.9,0.5-2.8,0.7l-1.4-5.7l-3.5,0.8
		l1.4,5.8c-0.8,0.2-1.5,0.4-2.2,0.6l0,0l-4.9,1.2l0.9,3.8c0,0,2.6-0.7,2.6-0.6c1.4-0.3,2.1,0.4,2.4,1.1l1.6,6.6c0.1,0,0.2,0,0.4-0.1
		c-0.1,0-0.2,0.1-0.4,0.1l2.2,9.2c0,0.5,0,1.2-1,1.5c0.1,0-2.6,0.6-2.6,0.6l0.3,4.4l4.6-1.1c0.9-0.2,1.7-0.4,2.5-0.6l1.4,5.8
		l3.5-0.8l-1.4-5.8c1-0.2,1.9-0.4,2.8-0.6l1.4,5.8l3.5-0.8l-1.4-5.8c5.8-1.8,9.6-4.2,8.8-9.9c-0.7-4.6-3.2-6.1-6.8-6.1
		C42.6,26.6,43.4,24.4,42.4,21.5z M40.5,35.1c1,4.4-6.6,5.7-8.9,6.2l-1.8-7.7C32.1,33.1,39.4,30.6,40.5,35.1z M36.2,24.6
		c0.9,4-5.4,5-7.4,5.5l-1.7-7C29.2,22.6,35.2,20.4,36.2,24.6z"/>
</g>
</svg>
