<?xml version="1.0" encoding="utf-8"?>
<!-- Generator: Adobe Illustrator 22.0.1, SVG Export Plug-In . SVG Version: 6.00 Build 0)  -->
<svg version="1.1" id="Layer_1" xmlns="http://www.w3.org/2000/svg" xmlns:xlink="http://www.w3.org/1999/xlink" x="0px" y="0px"
	 viewBox="0 0 254 254" style="enable-background:new 0 0 254 254;" xml:space="preserve">
<style type="text/css">
	.st0{fill:#3F51B5;}
	.st1{opacity:0.1;}
	.st2{fill:#FFFFFF;}
</style>
<g>
	
		<image style="overflow:visible;opacity:0.64;enable-background:new    ;" width="250" height="250" xlink:href="384699F5.png"  transform="matrix(1 0 0 1 0.333 4.667)">
	</image>
	<path class="st0" d="M240.7,126.5c0,63.8-51.7,115.5-115.5,115.5c-1,0-2.1,0-3.1,0c-5.9-0.1-11.7-0.7-17.4-1.8
		c-54-9.7-95-56.9-95-113.7C9.7,62.7,61.4,11,125.2,11c57.1,0,104.6,41.5,113.9,96c0.2,1.3,0.4,2.6,0.6,3.9
		C240.3,116,240.7,121.3,240.7,126.5z"/>
	<path class="st1" d="M240.7,126.5c0,63.8-51.7,115.5-115.5,115.5c-1,0-2.1,0-3.1,0l-66.7-66.7l-2.8-2.8l60.3-60.3l23.8,23.8
		l39.7-39.7l-18.6-18.6h48.8l33.2,33.2C240.3,116,240.7,121.3,240.7,126.5z"/>
	<polygon class="st2" points="206.5,77.7 206.5,126.5 187.9,107.9 136.7,159 104.2,126.5 55.4,175.3 43.9,163.8 104.2,103.5 
		112.9,112.2 136.7,136 176.3,96.3 157.7,77.7 	"/>
</g>
</svg>
