<svg width="24" height="24" viewBox="0 0 24 24" fill="none" xmlns="http://www.w3.org/2000/svg">
<path fill-rule="evenodd" clip-rule="evenodd" d="M0 5.96985C0 3.77736 1.77587 2 3.96653 2H20.0335C22.2241 2 24 3.77736 24 5.96985V9.98995C24 10.5173 23.5729 10.9447 23.046 10.9447C22.5192 10.9447 22.092 10.5173 22.092 9.98995V5.96985C22.092 4.83198 21.1704 3.90955 20.0335 3.90955H3.96653C2.82961 3.90955 1.90795 4.83198 1.90795 5.96985V18.0301C1.90795 19.168 2.82961 20.0905 3.96653 20.0905H20.0335C21.1704 20.0905 22.092 19.168 22.092 18.0301V17.0251C22.092 16.4978 22.5192 16.0704 23.046 16.0704C23.5729 16.0704 24 16.4978 24 17.0251V18.0301C24 20.2226 22.2241 22 20.0335 22H3.96653C1.77587 22 0 20.2226 0 18.0301V5.96985Z" fill="#182337"/>
<path fill-rule="evenodd" clip-rule="evenodd" d="M5.24213 8.37384C5.57942 7.96875 6.18097 7.91402 6.58571 8.25159L12.0001 12.7674L17.4145 8.25159C17.8192 7.91402 18.4208 7.96875 18.7581 8.37384C19.0954 8.77893 19.0407 9.38098 18.6359 9.71855L12.6108 14.7437C12.257 15.0387 11.7432 15.0387 11.3894 14.7437L5.36428 9.71855C4.95953 9.38098 4.90484 8.77893 5.24213 8.37384Z" fill="#182337"/>
<path fill-rule="evenodd" clip-rule="evenodd" d="M9.66209 11.3246C10.0346 11.6974 10.0346 12.302 9.66209 12.6748L6.64953 15.6899C6.27698 16.0628 5.67296 16.0628 5.30041 15.6899C4.92786 15.317 4.92786 14.7125 5.30041 14.3396L8.31296 11.3246C8.68551 10.9517 9.28953 10.9517 9.66209 11.3246Z" fill="#182337"/>
<path fill-rule="evenodd" clip-rule="evenodd" d="M14.338 11.3246C14.7106 10.9517 15.3146 10.9517 15.6871 11.3246L18.6997 14.3396C19.0722 14.7125 19.0722 15.317 18.6997 15.6899C18.3271 16.0628 17.7231 16.0628 17.3506 15.6899L14.338 12.6748C13.9655 12.302 13.9655 11.6974 14.338 11.3246Z" fill="#182337"/>
</svg>
