<svg width="24" height="24" viewBox="0 0 24 24" fill="none" xmlns="http://www.w3.org/2000/svg">
<path fill-rule="evenodd" clip-rule="evenodd" d="M1 7.41662C1 5.3916 2.6416 3.75 4.66662 3.75H13.8332C15.8582 3.75 17.4998 5.3916 17.4998 7.41662V16.5832C17.4998 18.6082 15.8582 20.2498 13.8332 20.2498H4.66662C2.6416 20.2498 1 18.6082 1 16.5832V15.2591C1 14.7529 1.4104 14.3425 1.91666 14.3425C2.42291 14.3425 2.83331 14.7529 2.83331 15.2591V16.5832C2.83331 17.5957 3.65411 18.4165 4.66662 18.4165H13.8332C14.8457 18.4165 15.6665 17.5957 15.6665 16.5832V7.41662C15.6665 6.40411 14.8457 5.58331 13.8332 5.58331H4.66662C3.65411 5.58331 2.83331 6.40411 2.83331 7.41662V11.1851C2.83331 11.6913 2.42291 12.1017 1.91666 12.1017C1.4104 12.1017 1 11.6913 1 11.1851V7.41662Z" fill="#182337"/>
<path fill-rule="evenodd" clip-rule="evenodd" d="M21.1676 16.3034V7.69517L18.0943 9.78401C17.7922 9.9422 17.6028 10.2551 17.6028 10.5961V13.4024C17.6028 13.7435 17.7922 14.0563 18.0943 14.2145L21.1676 16.3034ZM23.0009 7.69517V16.3034C23.0009 17.6812 21.538 18.5666 20.3173 17.9276L17.244 15.8387C16.3376 15.3642 15.7695 14.4256 15.7695 13.4024V10.5961C15.7695 9.57295 16.3376 8.63438 17.244 8.15982L20.3173 6.07098C21.538 5.43193 23.0009 6.31734 23.0009 7.69517Z" fill="#182337"/>
<path fill-rule="evenodd" clip-rule="evenodd" d="M6.39799 10.3702C7.07299 10.3702 7.6202 9.82299 7.6202 9.14799C7.6202 8.47298 7.07299 7.92578 6.39799 7.92578C5.72298 7.92578 5.17578 8.47298 5.17578 9.14799C5.17578 9.82299 5.72298 10.3702 6.39799 10.3702Z" fill="#182337"/>
<path fill-rule="evenodd" clip-rule="evenodd" d="M5.99059 13.6299C5.54058 13.6299 5.17578 13.9947 5.17578 14.4447C5.17578 14.8947 5.54058 15.2595 5.99059 15.2595H12.509C12.959 15.2595 13.3238 14.8947 13.3238 14.4447C13.3238 13.9947 12.959 13.6299 12.509 13.6299H5.99059Z" fill="#182337"/>
</svg>
