<svg width="24" height="24" viewBox="0 0 24 24" fill="none" xmlns="http://www.w3.org/2000/svg">
<path fill-rule="evenodd" clip-rule="evenodd" d="M1 7.41662C1 5.3916 2.6416 3.75 4.66662 3.75H13.8332C15.8582 3.75 17.4998 5.3916 17.4998 7.41662V16.5832C17.4998 18.6082 15.8582 20.2498 13.8332 20.2498H4.66662C2.6416 20.2498 1 18.6082 1 16.5832V15.2591C1 14.7529 1.4104 14.3425 1.91666 14.3425C2.42291 14.3425 2.83331 14.7529 2.83331 15.2591V16.5832C2.83331 17.5957 3.65411 18.4165 4.66662 18.4165H13.8332C14.8457 18.4165 15.6665 17.5957 15.6665 16.5832V7.41662C15.6665 6.40411 14.8457 5.58331 13.8332 5.58331H4.66662C3.65411 5.58331 2.83331 6.40411 2.83331 7.41662V11.1851C2.83331 11.6913 2.42291 12.1017 1.91666 12.1017C1.4104 12.1017 1 11.6913 1 11.1851V7.41662Z" fill="white"/>
<path fill-rule="evenodd" clip-rule="evenodd" d="M21.1668 16.3034V7.69517L18.0935 9.78401C17.7913 9.9422 17.602 10.2551 17.602 10.5961V13.4024C17.602 13.7435 17.7913 14.0563 18.0935 14.2145L21.1668 16.3034ZM23.0001 7.69517V16.3034C23.0001 17.6812 21.5371 18.5666 20.3164 17.9276L17.2432 15.8387C16.3367 15.3642 15.7687 14.4256 15.7687 13.4024V10.5961C15.7687 9.57295 16.3367 8.63438 17.2432 8.15982L20.3164 6.07098C21.5371 5.43193 23.0001 6.31734 23.0001 7.69517Z" fill="white"/>
<path fill-rule="evenodd" clip-rule="evenodd" d="M6.39774 10.3702C7.07275 10.3702 7.61995 9.82299 7.61995 9.14799C7.61995 8.47298 7.07275 7.92578 6.39774 7.92578C5.72274 7.92578 5.17554 8.47298 5.17554 9.14799C5.17554 9.82299 5.72274 10.3702 6.39774 10.3702Z" fill="white"/>
<path fill-rule="evenodd" clip-rule="evenodd" d="M5.99034 13.6299C5.54034 13.6299 5.17554 13.9947 5.17554 14.4447C5.17554 14.8947 5.54034 15.2595 5.99034 15.2595H12.5088C12.9588 15.2595 13.3236 14.8947 13.3236 14.4447C13.3236 13.9947 12.9588 13.6299 12.5088 13.6299H5.99034Z" fill="white"/>
</svg>
