<svg width="24" height="24" viewBox="0 0 24 24" fill="none" xmlns="http://www.w3.org/2000/svg">
<path fill-rule="evenodd" clip-rule="evenodd" d="M18.7465 8.48153L19.2514 9.70686C19.2514 9.70686 22.0009 10.7042 22 10.8565V13.0517C22 13.1993 19.2551 14.2808 19.2551 14.2808L18.7511 15.5043C18.7511 15.5043 19.9897 18.1546 19.8813 18.2634L18.3268 19.8162C18.2221 19.9193 15.5208 18.7441 15.5208 18.7441L14.2961 19.2503C14.2961 19.2503 13.2956 22 13.1436 22H10.949C10.7999 22 9.71967 19.2579 9.71967 19.2579L8.4959 18.7517C8.4959 18.7517 5.84362 19.9874 5.73801 19.8824L4.18352 18.3278C4.08069 18.2237 5.25536 15.5185 5.25536 15.5185L4.75047 14.2969C4.75047 14.2969 2 13.2968 2 13.1435V10.9464C2 10.8007 4.74399 9.72106 4.74399 9.72106L5.24888 8.49761C5.24888 8.49761 4.01306 5.84539 4.12052 5.73847L5.67317 4.18574C5.77692 4.08071 8.48386 5.2559 8.48386 5.2559L9.70485 4.74968C9.70485 4.74968 10.7044 2 10.8573 2H13.0519C13.2001 2 14.2803 4.744 14.2803 4.744L15.5032 5.24833C15.5032 5.24833 18.1545 4.01258 18.262 4.11951L19.8174 5.67034C19.9212 5.77442 18.7465 8.48153 18.7465 8.48153ZM16.375 12C16.375 14.4162 14.4162 16.375 12 16.375C9.58375 16.375 7.625 14.4162 7.625 12C7.625 9.58375 9.58375 7.625 12 7.625C14.4162 7.625 16.375 9.58375 16.375 12ZM14.5 12C14.5 13.3807 13.3807 14.5 12 14.5C10.6193 14.5 9.5 13.3807 9.5 12C9.5 10.6193 10.6193 9.5 12 9.5C13.3807 9.5 14.5 10.6193 14.5 12Z" fill="#182337"/>
</svg>
