<svg width="124" height="103" viewBox="0 0 124 103" fill="none" xmlns="http://www.w3.org/2000/svg">
    <path fill-rule="evenodd" clip-rule="evenodd" d="M17 51C17 25.5949 37.5949 5 63 5C88.4051 5 109 25.5949 109 51C109 76.4051 88.4051 97 63 97C37.5949 97 17 76.4051 17 51Z" fill="white" fill-opacity="0.1"/>
    <g filter="url(#filter0_d_37959_28646)">
        <path fill-rule="evenodd" clip-rule="evenodd" d="M33 51C33 34.4315 46.4315 21 63 21C79.5685 21 93 34.4315 93 51C93 67.5685 79.5685 81 63 81C46.4315 81 33 67.5685 33 51Z" fill="white"/>
    </g>
    <path d="M63 41V51M63 61V51M63 51H73H53" stroke="url(#paint0_linear_37959_28646)" stroke-width="3" stroke-linecap="round" stroke-linejoin="round"/>
    <path opacity="0.4" d="M4 1V4M4 7V4M4 4H7H1" stroke="white" stroke-width="1.5" stroke-linecap="round" stroke-linejoin="round"/>
    <path opacity="0.4" d="M115 96V99M115 102V99M115 99H118H112" stroke="white" stroke-width="1.5" stroke-linecap="round" stroke-linejoin="round"/>
    <path opacity="0.4" d="M119 5V9M119 13V9M119 9H123H115" stroke="white" stroke-width="1.5" stroke-linecap="round" stroke-linejoin="round"/>
    <path opacity="0.4" d="M11 85V89M11 93V89M11 89H15H7" stroke="white" stroke-width="1.5" stroke-linecap="round" stroke-linejoin="round"/>
    <defs>
        <filter id="filter0_d_37959_28646" x="17" y="7" width="92" height="92" filterUnits="userSpaceOnUse" color-interpolation-filters="sRGB">
            <feFlood flood-opacity="0" result="BackgroundImageFix"/>
            <feColorMatrix in="SourceAlpha" type="matrix" values="0 0 0 0 0 0 0 0 0 0 0 0 0 0 0 0 0 0 127 0" result="hardAlpha"/>
            <feOffset dy="2"/>
            <feGaussianBlur stdDeviation="8"/>
            <feColorMatrix type="matrix" values="0 0 0 0 0 0 0 0 0 0 0 0 0 0 0 0 0 0 0.18 0"/>
            <feBlend mode="normal" in2="BackgroundImageFix" result="effect1_dropShadow_37959_28646"/>
            <feBlend mode="normal" in="SourceGraphic" in2="effect1_dropShadow_37959_28646" result="shape"/>
        </filter>
        <linearGradient id="paint0_linear_37959_28646" x1="60.2727" y1="41" x2="72.2923" y2="71.7075" gradientUnits="userSpaceOnUse">
            <stop stop-color="#1CA5FC"/>
            <stop offset="1" stop-color="#D2456D"/>
        </linearGradient>
    </defs>
</svg>
