<svg width="114" height="86" viewBox="0 0 114 86" fill="none" xmlns="http://www.w3.org/2000/svg"><path fill="#F7F9FB" d="M0 0h114v86H0z"/><mask id="a" style="mask-type:alpha" maskUnits="userSpaceOnUse" x="0" y="0" width="114" height="86"><path fill="#F7F9FB" d="M0 0h114v86H0z"/></mask><g mask="url(#a)"><path d="M39.718 46.296c1.047-5.35-3.929-8.28-4.68-13.75-1.292-9.482 7.843-18.68 14.677-20.855 9.194-2.926 21.022 1.285 27.767 9.99 2.633 3.396 4.036 8.258 2.677 12.364-1.026 3.108-3.475 5.438-4.336 8.612-1.252 2.86 1.153 5.994 3.59 10.1 2.435 4.105 5.152 8.632 4.563 13.427-.441 3.678-2.856 6.745-5.783 8.45-2.942 1.692-6.335 2.17-9.681 2.216-10.572.1-21.245-4.165-29.485-11.815-2.693-2.504-5.352-5.996-4.812-9.8.6-4.127 4.714-4.846 5.503-8.939z" fill="#E5EBF1"/><path d="M60.404 59.905s-1.987-13.69.507-14.627c1.623-.601 5.034 2.627 6.801 1.351.538-.38 1.385-4.465 2.11-7.123.19-.666 1.5.244 1.678-.506.206-.867-1.462-4.885-1.012-5.74 6.984-13.135-15.722-22.282-20.477-11.763-2.976 6.59-2.359 14.658 2.544 20.825l-3.426 8.357 11.275 9.226z" fill="#fff"/><path d="M46.014 60.324c.018 6.232 38.276 61.563 38.276 61.563l8.32-4.8s-6.98-11.629-7.743-16.384c-.762-4.756-1.3-6.444-6.13-9.381-4.83-2.938-11.03-22.424-15.267-27.817-4.224-5.41-17.465-7.502-17.456-3.18z" fill="#D5DCE6"/><path d="M42.467 51.735s3.073-2.25 10.921.184c1.958.599 18.403 14.36 19.079 17.5.675 3.14-2.383 14.69-2.383 14.69l5.465 41.802-36.34-6.825 2.976-25.647s-1.983-20.324.282-41.704z" fill="#D5DCE6"/><path d="M61.642 58.183l.547-5.132L48.4 46.333l-1.169 6.55 14.41 5.3z" fill="#D5DCE6"/><path d="M73.79 26.332a81.509 81.509 0 01-10.08 10.482c-2.807 2.445-5.793 4.7-9.129 6.326-1.467.71-3.075 1.31-4.678 1.038-3.238-.568-4.801-4.31-5.194-7.585-.593-5.005.285-10.335 3.198-14.449 2.912-4.113 8.043-6.79 13.04-6.07 5.595.83 9.825 5.483 12.843 10.258z" fill="#E5EBF1"/><path d="M42.469 51.735c-4.5 4.311-18.111 70.195-18.111 70.195l9.21 2.707s3.596-13.071 6.514-16.914c2.917-3.844 3.766-5.39 2.566-10.918-1.215-5.527 11.917-23.834 12.898-30.632 1-6.772-9.953-17.422-13.077-14.438z" fill="#D5DCE6"/><path d="M46.965 84.485a.397.397 0 00.335-.284c.847-2.601 2.65-4.851 4.391-7.022 2-2.502 4.088-5.101 4.775-8.296.5-2.288.252-4.867-.714-7.472-.945-2.55-2.465-4.8-3.674-6.49a.4.4 0 00-.567-.087.4.4 0 00-.086.567c1.187 1.636 2.659 3.835 3.563 6.29.904 2.456 1.147 4.865.685 7.005-.654 3.005-2.58 5.413-4.617 7.963-1.777 2.232-3.63 4.53-4.53 7.282a.393.393 0 00.263.509c.047.037.12.042.175.035zM72.323 101.22a.411.411 0 00.356-.458l-2.19-16.704a.41.41 0 00-.814.102l2.19 16.703a.41.41 0 00.458.357z" fill="#E5EBF1"/></g></svg>
