<svg width="40" height="32" viewBox="0 0 40 32" fill="none" xmlns="http://www.w3.org/2000/svg">
<path d="M12.8643 26.8888C12.8643 26.8888 14.7561 27.8654 15.8755 29.4342C16.9948 31.0031 17.0579 31.5954 17.1525 31.7075C17.2943 31.8675 17.3574 31.8195 17.5466 31.8195C17.6097 31.8195 17.657 31.7715 17.6885 31.6914C17.72 31.6274 17.7515 31.5314 17.7673 31.4353C17.8146 31.2752 18.0196 30.2827 18.9813 29.3702C19.9429 28.4417 21.2988 28.3136 21.2988 28.3136L16.0646 26.3926L12.8643 26.8888Z" fill="#00A3FF"/>
<path d="M39.9811 1.22733C39.9023 1.00321 39.2716 0.891148 37.8528 0.827114C36.7807 0.779088 35.3618 0.763079 34.3213 0.74707C35.5668 1.86768 36.4339 3.42052 36.6703 5.18147C37.4429 4.38103 38.5149 3.29245 38.846 2.94026C39.9338 1.83566 40.0599 1.45145 39.9811 1.22733Z" fill="#00A3FF"/>
<path d="M25.3984 20.7093C24.7994 20.0049 21.1575 21.1575 15.3874 20.8213C9.61724 20.4852 2.04983 18.1159 1.78182 18.5161C1.49804 18.9163 2.39667 19.4446 3.31106 19.9889C4.22546 20.5332 9.00239 22.6303 14.3784 22.9185C23.1755 23.3987 26.0133 21.4297 25.3984 20.7093Z" fill="#F84F7F"/>
<path d="M34.8416 7.32619C34.8416 3.40407 31.7673 0.202335 27.9363 0.0742661H27.9206C22.8756 -0.32595 14.9771 1.01878 14.5988 1.08281C14.0312 1.14685 13.9839 1.25891 13.9366 1.41899C13.8893 1.56307 14.1416 1.75517 14.2519 1.81921C14.3623 1.88324 16.5695 3.42007 16.5695 3.42007C16.5695 3.42007 14.7564 3.62819 14.5515 3.62819C14.3465 3.6442 14.1258 3.67621 14.0627 3.78827C13.9997 3.91634 14.0155 4.04441 14.2677 4.25252C14.5042 4.46064 16.8059 6.46172 16.8059 6.46172C16.8848 6.81391 17.0739 7.98254 16.9478 9.31126C16.7429 11.3444 15.8758 12.7691 14.3623 13.5696C10.484 15.6027 1.08779 13.1854 0.961665 13.1533C0.961665 13.1533 0.204924 12.9932 0.0315038 13.2654C-0.141916 13.5375 0.457171 14.1139 0.457171 14.1139C0.551764 14.1939 8.13494 21.734 14.2519 22.5984C20.3689 23.4629 26.013 22.5504 27.8417 19.2526C29.3868 16.4351 24.4049 14.37 22.9072 13.8257C23.7112 14.0818 25.5558 14.5941 27.6999 14.5941C31.6412 14.5941 34.8416 11.3444 34.8416 7.32619ZM26.3756 7.19812C26.3756 6.02949 27.3215 5.06897 28.4724 5.06897C29.6232 5.06897 30.5692 6.02949 30.5692 7.19812C30.5692 8.36675 29.6232 9.32727 28.4724 9.32727C27.3215 9.32727 26.3756 8.36675 26.3756 7.19812Z" fill="#F84F7F"/>
<path d="M34.5103 14.5938C34.463 14.5778 34.4157 14.6099 34.3527 14.6899C33.5644 15.5063 32.5869 16.1467 31.4834 16.5309C31.373 16.5629 31.3572 16.5629 31.373 16.691C31.4518 17.4114 31.641 21.1254 27.2425 23.8308C24.2943 25.3837 21.0782 25.3517 19.4701 25.3997C17.862 25.4477 17.3575 25.4317 15.9859 25.3357C15.8125 25.3196 15.6549 25.3196 15.4814 25.3036C15.4184 25.3036 15.3553 25.2876 15.308 25.2876C15.1977 25.2716 15.1031 25.2716 14.9927 25.2556C14.9139 25.2556 14.8508 25.2396 14.772 25.2396C14.6774 25.2236 14.5828 25.2236 14.4882 25.2076C14.4094 25.1916 14.3306 25.1916 14.236 25.1756C14.1571 25.1596 14.0783 25.1596 13.9995 25.1436C13.9049 25.1275 13.8103 25.1115 13.7315 25.1115C13.6684 25.0955 13.5896 25.0955 13.5265 25.0795C13.4319 25.0635 13.3373 25.0475 13.2427 25.0315C13.1797 25.0155 13.1166 25.0155 13.0536 24.9995C12.959 24.9835 12.8486 24.9675 12.754 24.9514C12.6909 24.9354 12.6437 24.9354 12.5806 24.9194C12.4702 24.9034 12.3599 24.8714 12.2653 24.8554C12.218 24.8394 12.1707 24.8394 12.1234 24.8234C12.013 24.8074 11.9027 24.7754 11.7923 24.7593C11.7608 24.7593 11.7135 24.7433 11.682 24.7433C11.5716 24.7113 11.4455 24.6953 11.3351 24.6633C11.3036 24.6633 11.2721 24.6473 11.2405 24.6473C11.1144 24.6153 11.004 24.5832 10.8779 24.5672C10.8464 24.5672 10.8306 24.5512 10.7991 24.5512C10.673 24.5192 10.5626 24.4872 10.4365 24.4552C10.4207 24.4552 10.405 24.4392 10.3734 24.4392C10.2473 24.4072 10.1212 24.3751 9.99506 24.3431C9.97929 24.3431 9.96353 24.3431 9.96353 24.3271C9.83741 24.2951 9.71128 24.2631 9.58516 24.2151H9.56939C9.5221 24.199 9.41174 24.167 9.30138 24.135C9.22255 24.119 9.09643 24.071 9.0649 24.135C9.03337 24.199 9.12796 24.2791 9.17526 24.3431C9.38021 24.5352 9.58516 24.7113 9.56939 24.7113C12.218 27.0326 15.6864 28.4413 19.4543 28.4413C27.2425 28.4413 33.659 22.4701 34.5103 14.7859C34.5261 14.7379 34.5419 14.6099 34.5103 14.5938Z" fill="#00A3FF"/>
<path d="M17.5313 30.6826C18.0043 30.7306 20.4329 31.9793 20.4329 31.9793C20.4329 31.9793 17.9728 32.0113 17.4839 31.9953C17.0109 31.9793 16.8216 30.6826 17.5313 30.6826Z" fill="#00A3FF"/>
</svg>
