<svg xmlns="http://www.w3.org/2000/svg" viewBox="0 0 4000 3000"><defs><clipPath id="a"><rect width="4000" height="3000" fill="none"/></clipPath><clipPath id="b"><polygon fill="#fff" stroke="#304063" stroke-linejoin="round" stroke-width="2" points="2401.131 2728.27 733.372 2728.27 862.135 1608.297 2272.368 1608.297 2401.131 2728.27"/></clipPath><clipPath id="c"><polygon fill="#fff" stroke="#304063" stroke-linejoin="round" stroke-width="2" points="2811.529 2728.27 1391.988 2728.27 1501.587 1774.986 2701.93 1774.986 2811.529 2728.27"/></clipPath><clipPath id="d"><rect width="1468.481" height="978.987" x="1906.673" y="1793.013" fill="#fff" stroke="#304063" stroke-linejoin="round" stroke-width="2" rx="112.525"/></clipPath><clipPath id="e"><path fill="#fff" stroke="#304063" stroke-linejoin="round" stroke-width="2" d="M2442.2479,828.6544c-6.93-.95,4.998,60.2785,4.998,60.2785s-19.1093-64.4839-35.9616-60.6774,14.37,45.2193,17.2662,52.6621-2.37,28.6261-6.583,24.0459-11.7187-29.3286-16.9186-28.1186-19.8329-3.5911-5.6138,19.9318,5.53,65.2668,32.2751,92.3475c0,0,98.2375,285.4448,167.7326,279.9632s346.5245-77.29,346.5245-77.29l-79.45-125.6223-253.9086,52.422s-111.6651-89.7057-133.7837-154.9733c0,0,3.442-51.0027,5.0219-62.99S2460.4167,831.1456,2442.2479,828.6544Z"/></clipPath><clipPath id="f"><polygon fill="#5b80e3" stroke="#304063" stroke-linejoin="round" stroke-width="2" points="2695.023 1085.276 2758.407 1237.899 2945.967 1191.797 2888.162 1048.629 2695.023 1085.276"/></clipPath><clipPath id="g"><path fill="#0b1753" stroke="#304063" stroke-linejoin="round" stroke-width="2" d="M2294.4246,844.0542l68.3743,4.1976,157.3668,9.6612c-7.2484,6.8013-12.1735,20.1009-12.1735,35.3979s4.9251,28.5966,12.1735,35.3978L2362.7989,938.37l-68.3743,4.1977c-6.5389-13.2518-10.4966-30.4477-10.4966-49.2568S2287.8857,857.3058,2294.4246,844.0542Z"/></clipPath><clipPath id="h"><path fill="#fff" stroke="#304063" stroke-linejoin="round" stroke-width="2" d="M2895.3527,967.2647c3.7394,25.3919-61.7885,125.5013-61.7885,125.5013l153.4857-11.2s-43.2217-133.8376-17.5628-169.916c12.7712-17.9572-74.1344,55.6146-74.1344,55.6146Z"/></clipPath><clipPath id="i"><path fill="#fff" stroke="#304063" stroke-linejoin="round" stroke-width="2" d="M2710.5624,828.6538c-21.33-9.828-26.8583,62.7763-26.8583,62.7763s-17.7928-39.7161-37.5415-25.2337c0,0-19.7963-4.2931-26.3792-.2854,0,0,30.2162,11.0316,11.5207,34.8785s-42.02,26.5573-39.9132,56.0892-76.2093,314.706,8.0519,322.7213,325.4592-76.7179,325.4592-76.7179l-112.7-93.8936-13.4944-11.45s-137.1226,82.4432-140.2824,79.0081-29.4914-183.8737-18.9588-204.1512,54.8964-32.686,64.2493-71.6054C2710.1109,874.1794,2710.5624,828.6538,2710.5624,828.6538Z"/></clipPath><clipPath id="j"><path fill="#fff" stroke="#304063" stroke-linejoin="round" stroke-width="2" d="M2490.9624,2075.2894c8.4261,35.5115,11.8159,84.3121,45.2845,110.1822,40.0241,30.9373-24.2251,46.3437-63.196,105.3266s-126.3919,61.0894-82.1547,25.2784,67.409-113.7528,53.7166-161.15S2490.9624,2075.2894,2490.9624,2075.2894Z"/></clipPath><clipPath id="k"><path fill="#bebdff" stroke="#304063" stroke-linejoin="round" stroke-width="2" d="M2421.9128,2162.5023l103.059-35.6737s-27.6958-292.0945-89.3118-374.2493c0,0,500.8279,135.8713,567.1837,18.9588s37.9175-205.3868,37.9175-205.3868-774.15-56.8764-824.7071,47.3969S2421.9128,2162.5023,2421.9128,2162.5023Z"/></clipPath><clipPath id="l"><path fill="#fff" stroke="#304063" stroke-linejoin="round" stroke-width="2" d="M2613.8632,1573.617c-5.7458,42.1241-58.3684,148.4963-35.0136,189.2305,27.9292,48.7127-42.9912,42.0255-105.9088,92.5207s-151.8563,20.6735-92.9216-2.42,113.5324-100.2321,118.7363-157.354S2613.8632,1573.617,2613.8632,1573.617Z"/></clipPath><clipPath id="m"><path fill="#bebdff" stroke="#304063" stroke-linejoin="round" stroke-width="2" d="M2463.8019,1673.5844l128.2681,36.8643s58.8132-133.3725,63.0263-219.74c0,0,73.6772,317.639,253.8258,325.0669,229.9025,9.4794,278.039-307.6019,278.039-307.6019l-285.231-21.0171-2.1065,44.2372S2693.7691,1165.91,2604.7092,1180.656,2463.8019,1673.5844,2463.8019,1673.5844Z"/></clipPath><clipPath id="n"><path fill="#5b80e3" stroke="#304063" stroke-linejoin="round" stroke-width="2" d="M2722.261,1128.0463l56.8764,147.3438,58.1745-9.1242s-.383,118.6321,18.585,209.6875c0,0,161.9851,189.15,342.9669,141.7528,0,0,42.9879-497.339-224.5416-583.7068l-102.0835,21.3179Z"/></clipPath><clipPath id="o"><ellipse cx="1643.572" cy="857.845" fill="#e9effd" stroke="#304063" stroke-linejoin="round" stroke-width="2" rx="123.67" ry="235.046" transform="rotate(-29.433 1643.573 857.845)"/></clipPath><clipPath id="p"><path fill="#fdfefe" stroke="#304063" stroke-linejoin="round" stroke-width="2" d="M1539.6351,707.9907c33.2537-46.23,108.5551-19.7838,168.1762,59.0631,59.6436,78.8766,81.0216,180.2858,47.7679,226.5155-33.2661,46.247-108.5667,19.802-168.21-59.0747C1527.7477,855.6477,1506.3691,754.2377,1539.6351,707.9907Z"/></clipPath><clipPath id="q"><path fill="#fff" stroke="#304063" stroke-linejoin="round" stroke-width="2" d="M1657.3047,1113.1872c.8077-.0837,1.6229-.1459,2.4221-.2532.9686-.1309,1.9179-.3132,2.8726-.4795.7745-.1351,1.5576-.2478,2.3224-.4065.9654-.2017,1.9094-.457,2.86-.6973.7283-.1834,1.4685-.3411,2.1872-.5481.9965-.2864,1.9673-.6307,2.9445-.96.6479-.2188,1.3087-.4087,1.9491-.6457,1.0823-.4033,2.1367-.8689,3.1955-1.328.5117-.221,1.0362-.4108,1.5414-.6458q2.3266-1.078,4.57-2.3406l74.8454-42.23q-2.2413,1.2648-4.57,2.3417c-.5095.236-1.0384.4269-1.5533.65-1.0533.4569-2.1046.9214-3.1837,1.3226-.6425.2392-1.3065.43-1.9587.649-.974.3293-1.9426.6725-2.9349.9579-.7144.2048-1.45.3615-2.1732.5449-.9558.2413-1.9051.4977-2.877.7-.7594.1588-1.5371.2693-2.3062.4034-.959.1684-1.9126.3507-2.8856.4816-.7991.1084-1.6154.1706-2.4221.2532-.9675.1-1.9287.2113-2.9069.2756-.83.0548-1.6767.0666-2.5155.0955-.9783.0343-1.9512.0794-2.9413.0794-.8571,0-1.7281-.04-2.5937-.0654-.9923-.029-1.9834-.0483-2.9864-.1116-.8764-.0536-1.7656-.1459-2.6506-.2253-1.01-.0911-2.0188-.1759-3.04-.2992-.9-.11-1.8107-.2543-2.7171-.3884-1.0223-.1512-2.0435-.2982-3.0743-.4816-.9236-.1641-1.8547-.3615-2.7847-.5513-1.0319-.2114-2.0628-.4184-3.1033-.6608-.94-.2188-1.8879-.4688-2.834-.7134-1.048-.27-2.095-.54-3.1505-.842-.9514-.2714-1.91-.5718-2.8673-.8689-1.0608-.3293-2.1217-.66-3.189-1.02-.9676-.3261-1.9395-.679-2.9124-1.03-1.0705-.3872-2.1421-.7766-3.2191-1.1939-.9837-.3819-1.97-.7863-2.9585-1.1928-1.0737-.442-2.1486-.8882-3.2266-1.3591-.9987-.4366-2.0006-.8935-3.0035-1.3548q-1.4964-.6887-2.9982-1.4117c-1.82-.88-3.6471-1.8085-5.4771-2.77-.6307-.3315-1.2572-.64-1.8879-.9805q-3.6623-1.9758-7.35-4.163c-.5395-.3208-1.0812-.67-1.6219-.9987-1.9383-1.1757-3.88-2.3867-5.8257-3.65-.83-.54-1.6616-1.0973-2.4929-1.653q-2.5632-1.712-5.1317-3.5248c-.885-.6243-1.7689-1.2465-2.6549-1.8879-1.3055-.9483-2.612-1.9266-3.9175-2.9124-.9622-.7262-1.9244-1.4459-2.8876-2.1925-1.35-1.048-2.6978-2.1336-4.0462-3.2213-.92-.7423-1.8407-1.4707-2.7611-2.2323-1.4406-1.1917-2.8791-2.43-4.3176-3.6675-.8238-.71-1.6487-1.3966-2.4725-2.1207-1.7892-1.5736-3.5742-3.2019-5.358-4.8453-.4667-.43-.9354-.8377-1.402-1.2733q-3.4047-3.1746-6.7923-6.5219c-.62-.6114-1.2357-1.2561-1.8536-1.8761-1.6326-1.6369-3.2652-3.2824-4.89-4.9783-.8378-.8753-1.6713-1.7839-2.5069-2.6742-1.4-1.4911-2.8-2.9842-4.1921-4.5182-.9085-1.0008-1.8117-2.0295-2.716-3.0485-1.313-1.4771-2.6238-2.9606-3.9282-4.4774-.8109-.9418-1.6176-1.9051-2.4264-2.863q-2.7257-3.2294-5.4278-6.5734c-.7315-.9064-1.4652-1.8054-2.1947-2.7236-2.45-3.085-4.8882-6.2162-7.3007-9.4374q-3.95-5.2776-7.7126-10.6625c-.8045-1.1457-1.5789-2.3041-2.3717-3.4551-1.6959-2.4651-3.3757-4.9387-5.0158-7.43-.7112-1.0791-1.4052-2.1658-2.1046-3.25-3.1827-4.9279-6.287-9.89-9.2476-14.8995-.1781-.3015-.3433-.6072-.5214-.9086q-4.296-7.31-8.2532-14.7151c-.457-.8485-.9257-1.6959-1.3752-2.5465q-3.9405-7.4434-7.541-14.9468c-.4816-1-.9525-2.0016-1.4245-3.0025-2.4028-5.0909-4.72-10.1894-6.89-15.2921-.192-.4506-.3658-.9-.5557-1.3506q-3.0974-7.3579-5.8547-14.71c-.3057-.81-.6254-1.6219-.9246-2.4307q-2.7789-7.5189-5.1929-14.994c-.3282-1.0093-.6468-2.0166-.9644-3.0249-1.5875-5.0277-3.0818-10.0382-4.4237-15.0122-.148-.5493-.2757-1.0931-.42-1.64q-1.8874-7.1247-3.4251-14.1465c-.1727-.7885-.3647-1.5822-.532-2.3674-.7874-3.7105-1.5189-7.4016-2.16-11.0573-.0408-.2381-.0708-.4709-.1126-.709q-.8867-5.1264-1.5715-10.1648c-.1609-1.1649-.2886-2.3138-.4323-3.47-.3047-2.44-.5825-4.8689-.8163-7.2739-.1255-1.2872-.236-2.5669-.3411-3.8423q-.2849-3.4755-.4656-6.8952c-.07-1.2937-.148-2.5927-.1974-3.8735-.0514-1.3806-.0772-2.745-.1029-4.1095-.0311-1.5779-.0558-3.1515-.0526-4.709.0032-1.3538.0279-2.6925.0569-4.0312.0321-1.5286.075-3.0518.1415-4.5589.059-1.3258.1374-2.6388.2221-3.9475q.1447-2.2221.3357-4.4119.1738-1.9308.3884-3.8317.2476-2.2107.547-4.3829.2349-1.6928.5-3.3618c.236-1.4685.4988-2.9145.7734-4.353.207-1.08.413-2.1614.6415-3.2245.3078-1.4374.6522-2.8458,1.0008-4.251.2521-1.01.4934-2.0295.7659-3.0228.3969-1.446.8367-2.8555,1.2775-4.2629.2822-.901.5471-1.8171.8475-2.7021.4526-1.3323.9579-2.6184,1.4524-3.9131.3668-.9622.7112-1.9437,1.1016-2.8845.5492-1.3237,1.1564-2.5937,1.7517-3.8745.3958-.8517.7638-1.7292,1.1789-2.5605.6962-1.3913,1.4567-2.7214,2.21-4.058.3755-.664.7177-1.358,1.107-2.0091q1.7571-2.938,3.7062-5.6852c1.0394-1.46,2.1614-2.7751,3.2641-4.1224.7016-.856,1.3784-1.756,2.1046-2.568,1.032-1.1542,2.124-2.2011,3.2052-3.2652.71-.6983,1.39-1.4481,2.12-2.1068,1.2326-1.1123,2.5251-2.1057,3.8145-3.1086.6383-.4977,1.2465-1.0545,1.9-1.5254a64.943,64.943,0,0,1,6.0768-3.9l-74.8455,42.2294a64.7777,64.7777,0,0,0-6.0778,3.9024c-.65.4677-1.255,1.0212-1.89,1.5168-1.2915,1.004-2.5873,2-3.8209,3.1151-.73.66-1.4127,1.4095-2.1228,2.1089-1.0824,1.0641-2.1722,2.111-3.2052,3.2652-.7241.8088-1.3988,1.7056-2.0971,2.5594-.7938.9687-1.62,1.8772-2.38,2.9038q-.4489.6066-.8892,1.225-1.9534,2.7417-3.7072,5.6852c-.3905.6533-.7348,1.3516-1.1113,2.0188-.7509,1.3334-1.5093,2.6592-2.2033,4.0472-.4162.8324-.7852,1.71-1.181,2.5616-.5954,1.2819-1.2025,2.553-1.7517,3.8767-.3894.9375-.7316,1.9147-1.0974,2.8726-.4216,1.1028-.8721,2.1776-1.2636,3.3071-.07.2006-.1244.4152-.1931.6168-.2993.8828-.5632,1.7978-.8453,2.6967-.4419,1.4117-.8828,2.8223-1.28,4.2715-.2714.9879-.5127,2-.7616,3.0056-.3518,1.4106-.6962,2.8255-1.0062,4.2693-.2274,1.062-.4333,2.14-.6393,3.2191-.2746,1.4353-.5363,2.88-.7723,4.3455q-.27,1.6766-.502,3.3789c-.1019.7295-.2317,1.4374-.324,2.1744-.09.7219-.1416,1.4706-.222,2.199-.1416,1.2668-.2725,2.539-.3873,3.8252-.1319,1.4631-.2413,2.94-.3379,4.428-.0847,1.3044-.163,2.6131-.2209,3.9357-.0676,1.5082-.11,3.0314-.1427,4.561-.0279,1.3388-.0536,2.6785-.0569,4.0333-.0032,1.5544.0215,3.1248.0526,4.7005.0257,1.3677.0515,2.7332.104,4.1159.0194.516.0161,1.0191.0387,1.5372.0343.77.1169,1.5682.1576,2.3427q.1851,3.4192.4667,6.8909c.104,1.2733.2145,2.5487.3389,3.8317.2339,2.4071.5128,4.8346.8163,7.2749.1459,1.1628.2736,2.317.4345,3.4862q.687,5.0106,1.5629,10.1026c.044.2574.0772.5106.1223.7691.6414,3.6568,1.373,7.3479,2.16,11.06.0622.29.1072.5718.1694.8614.1052.49.2511.9922.3583,1.4825q1.5464,7.0281,3.4283,14.1605c.1448.5492.2725,1.0909.42,1.64,1.343,4.9751,2.8362,9.9856,4.4238,15.0154.3175,1.0073.635,2.0113.9632,3.02q2.4264,7.4772,5.194,14.9983c.2982.8077.6178,1.6155.9225,2.4253q2.7739,7.3614,5.8654,14.7355c.1856.44.3561.8785.5428,1.3183,2.17,5.106,4.4881,10.2066,6.892,15.3.4741,1.003.9439,2.0038,1.4267,3.0068q3.609,7.4964,7.5377,14.9414c.4527.8549.9225,1.7034,1.3806,2.5551,2.6484,4.9258,5.3838,9.8312,8.2446,14.7.18.3057.3486.6157.53.9214,2.9585,5.0073,6.0607,9.9642,9.2412,14.89.3529.5471.67,1.1092,1.0265,1.6552.353.5406.73,1.07,1.0856,1.6079,1.6358,2.4844,3.31,4.9494,5.0019,7.408.796,1.1585,1.5758,2.3234,2.3846,3.4755q3.7731,5.3742,7.71,10.6582c2.41,3.2191,4.8463,6.3481,7.2953,9.4321.7337.9236,1.4717,1.8268,2.2076,2.7386q2.6967,3.3371,5.4181,6.5626c.458.5428.9086,1.1178,1.3687,1.6563.3508.4119.708.8,1.0609,1.2089,1.3,1.5114,2.6066,2.9906,3.9153,4.4645.9107,1.0255,1.8193,2.06,2.7332,3.0668,1.3827,1.5243,2.7729,3.0067,4.1631,4.4881.8453.9011,1.6873,1.8193,2.5358,2.7032,1.608,1.6787,3.2234,3.3071,4.8389,4.9279.6361.6372,1.2679,1.2979,1.904,1.9265q3.3805,3.3372,6.7772,6.508c.0354.0333.0719.07.1084.103.472.4408.9482.8506,1.4213,1.2861,1.7431,1.6048,3.4873,3.1955,5.2347,4.7327.8367.7359,1.6744,1.4342,2.5111,2.154,1.4256,1.226,2.8512,2.4532,4.2779,3.6342.93.7691,1.859,1.505,2.789,2.2548,1.34,1.08,2.6785,2.1582,4.0183,3.1987.97.752,1.9372,1.476,2.9059,2.2065,1.3022.9826,2.6034,1.9577,3.9045,2.9017.384.2789.7691.5814,1.1521.857.5031.3605,1.004.679,1.506,1.0341q2.5665,1.81,5.1264,3.5205c.8324.5568,1.6648,1.1167,2.4972,1.6573q2.9333,1.9035,5.8547,3.6686c.5278.32,1.0577.6608,1.5844.974q3.6927,2.1948,7.3607,4.1706c.6286.339,1.2529.6458,1.88.9762,1.8322.9611,3.659,1.8911,5.4793,2.7718.354.17.7112.369,1.0641.5374.6511.3089,1.2958.5792,1.9459.8785.9965.4581,1.993.9129,2.9852,1.3473,1.0824.472,2.1594.92,3.2363,1.3634.99.4065,1.9791.812,2.9639,1.1939,1.0716.4151,2.1367.8024,3.2019,1.1875.9783.3539,1.9566.7079,2.9285,1.0362,1.0608.3572,2.1131.6854,3.1676,1.0126.9654.2993,1.9319.6028,2.8919.8774,1.05.2993,2.0907.5675,3.1334.8367.95.2457,1.9.4956,2.8426.7155,1.0405.2424,2.07.4495,3.1022.6608.9311.19,1.8643.3872,2.7879.5513,1.0255.1824,2.04.3283,3.0571.4795.915.1363,1.8311.2821,2.7386.3916,1.0115.1222,2.01.2059,3.0121.296.8935.0805,1.7914.1738,2.6774.2285,1.0019.0622,1.9909.0815,2.9821.1105.8646.0257,1.7334.0654,2.5894.0654.9933,0,1.9716-.045,2.9542-.0794.8367-.0289,1.6787-.0407,2.5058-.0954C1655.377,1113.3974,1656.3382,1113.2859,1657.3047,1113.1872Z"/></clipPath><clipPath id="r"><ellipse cx="2661.803" cy="533.982" fill="#e9effd" stroke="#304063" stroke-linejoin="round" stroke-width="2" rx="296.47" ry="155.988" transform="rotate(-38.384 2661.805 533.982)"/></clipPath><clipPath id="s"><path fill="#fff" stroke="#304063" stroke-linejoin="round" stroke-width="2" d="M2346.35,601.2023c.2627.99.5,1.9935.7907,2.9682.3532,1.1812.7667,2.3283,1.1612,3.4851.32.9385.6144,1.892.9623,2.8138.4407,1.1633.9441,2.2894,1.43,3.4264.3715.8715.7132,1.7628,1.1122,2.6176.5524,1.1854,1.1719,2.3274,1.774,3.48.4.7643.7661,1.55,1.1871,2.3017.715,1.2694,1.5019,2.4919,2.2818,3.7209.3757.5942.7152,1.2105,1.1071,1.7939q1.8,2.6874,3.813,5.2343l67.3061,84.9673q-2.0156-2.5444-3.8144-5.2341c-.394-.5885-.7357-1.21-1.1147-1.8077-.7761-1.2228-1.5612-2.4414-2.2728-3.7073-.4241-.7536-.7923-1.5434-1.193-2.3131-.6014-1.1489-1.2192-2.2885-1.7695-3.4688-.3954-.85-.735-1.736-1.1054-2.6008-.4883-1.1435-.994-2.276-1.4374-3.4471-.3468-.9151-.6371-1.8624-.9551-2.7944-.398-1.1618-.8124-2.3142-1.1664-3.5008-.2918-.9744-.53-1.9793-.7907-2.9682-.3142-1.1859-.6418-2.3616-.914-3.5679-.2311-1.0237-.4119-2.0759-.6126-3.1154-.2348-1.2122-.4818-2.4155-.6761-3.6492-.1682-1.0679-.29-2.1609-.4275-3.2445-.1587-1.242-.3291-2.4807-.4471-3.7428-.1052-1.1025-.1647-2.2286-.24-3.3468-.0847-1.2769-.177-2.55-.2237-3.8465-.04-1.1428-.0386-2.3059-.0494-3.4616-.0122-1.3034-.03-2.6046-.0032-3.925.0232-1.183.0864-2.3818.14-3.5778.0607-1.3272.1164-2.6523.2142-3.9963.0883-1.2137.2136-2.4443.3327-3.6711.1311-1.3588.2611-2.7161.4309-4.0906.1514-1.2388.3374-2.4926.52-3.7431.2022-1.3864.4056-2.7731.6452-4.1737.2165-1.2695.4655-2.55.7116-3.8307.2724-1.41.5472-2.8215.8558-4.2453.2827-1.3.5929-2.6095.9056-3.92.34-1.4246.685-2.8514,1.06-4.287.3479-1.33.7207-2.668,1.0986-4.0082q.5643-2,1.17-4.0126c.7387-2.4407,1.5376-4.8991,2.376-7.3679.2892-.8509.5512-1.692.8511-2.5447q1.7432-4.9506,3.7446-9.9749c.2938-.7352.6232-1.4787.926-2.2168,1.0845-2.6458,2.2124-5.3026,3.405-7.975.5093-1.14,1.0411-2.2857,1.57-3.4305q1.63-3.53,3.3848-7.0857c.6042-1.2252,1.2059-2.4486,1.8312-3.6784.9253-1.8127,1.8878-3.6326,2.86-5.4526.716-1.3414,1.424-2.6815,2.1652-4.0282,1.041-1.887,2.1289-3.78,3.22-5.6736.7443-1.2924,1.4712-2.5821,2.2395-3.8783,1.2022-2.0288,2.4622-4.064,3.7223-6.0992.7231-1.1658,1.4166-2.3284,2.1571-3.4969,1.61-2.5382,3.2881-5.0817,4.9856-7.6269.4443-.6658.86-1.33,1.3113-1.9967q3.2872-4.8651,6.7931-9.7428c.64-.8925,1.3226-1.7862,1.9738-2.6777,1.7192-2.3555,3.449-4.7126,5.2431-7.07.9262-1.2156,1.8947-2.4324,2.84-3.6483,1.5831-2.0368,3.1688-4.074,4.8068-6.11,1.0687-1.3285,2.1732-2.6557,3.2654-3.9824,1.5828-1.9258,3.1739-3.85,4.8078-5.7731,1.0143-1.1952,2.0562-2.3893,3.091-3.585q3.4887-4.03,7.1251-8.0529c.9858-1.0894,1.9618-2.18,2.9627-3.269,3.3631-3.6581,6.7859-7.31,10.3261-10.9485q5.8005-5.9576,11.7715-11.7022c1.2695-1.2272,2.561-2.4195,3.8395-3.6331,2.7385-2.5968,5.4909-5.1752,8.2738-7.7078,1.205-1.0979,2.4227-2.1759,3.6366-3.26,5.5155-4.9326,11.089-9.7744,16.75-14.4463.3406-.281.6891-.5468,1.03-.8278q8.2647-6.7874,16.7149-13.1711c.9675-.7359,1.9313-1.4862,2.903-2.2132q8.5008-6.3705,17.1433-12.3291c1.1511-.7963,2.307-1.58,3.4614-2.3641,5.8716-3.9929,11.7694-7.88,17.7014-11.5856.5237-.3276,1.05-.6324,1.5737-.9573q8.56-5.3032,17.1788-10.1816c.9491-.54,1.8981-1.0975,2.8471-1.6291q8.8231-4.9379,17.6629-9.4127c1.1933-.607,2.3858-1.2016,3.58-1.7951,5.9528-2.9648,11.9024-5.81,17.8366-8.458.6552-.2922,1.3078-.558,1.961-.8458q8.5068-3.75,16.954-7.0438c.9485-.37,1.9-.7649,2.8453-1.1275,4.4685-1.7092,8.924-3.345,13.353-4.8617.2887-.0975.5728-.1806.8613-.2795q6.2133-2.1107,12.3566-3.9528c1.42-.4291,2.8262-.8136,4.2388-1.22,2.9808-.8584,5.9522-1.6812,8.9028-2.4445,1.5792-.409,3.152-.7978,4.72-1.1791q4.2746-1.0369,8.5-1.9332c1.5981-.3408,3.2013-.6933,4.7874-1.0061,1.71-.3351,3.4051-.6349,5.1-.9348,1.96-.3484,3.9157-.688,5.857-.99,1.6873-.2617,3.36-.4937,5.0338-.72,1.9109-.26,3.8172-.5053,5.7081-.7183,1.6635-.1866,3.3148-.3467,4.962-.498,1.8647-.17,3.7212-.3231,5.563-.4475q2.44-.1623,4.85-.2681,2.8032-.1251,5.5684-.1785,2.1552-.04,4.2868-.037c1.876.0059,3.7292.05,5.5754.1094,1.3865.046,2.7742.09,4.1435.1665,1.8514.1015,3.6738.2541,5.4931.4127,1.3085.1158,2.6255.2165,3.9166.3611,1.88.2107,3.7221.4821,5.5621.7552,1.1781.1747,2.3715.325,3.533.5256,1.7488.3025,3.45.68,5.1607,1.0417,1.2709.2682,2.5614.5046,3.81.8065,1.757.4246,3.4586.9318,5.1713,1.4222,1.1388.326,2.3043.6123,3.4216.9664,1.87.5943,3.6767,1.2809,5.49,1.9568.901.3375,1.8328.6277,2.7205.9851q4.0056,1.6125,7.811,3.5019c2.023,1.0086,3.8817,2.1486,5.7768,3.2581,1.2042.7061,2.4584,1.3728,3.6127,2.1183,1.6406,1.0592,3.1594,2.2144,4.6974,3.3528,1.0094.7477,2.0771,1.4479,3.0409,2.2275,1.6279,1.3174,3.1192,2.7329,4.6219,4.1426.7454.6976,1.5584,1.3461,2.2733,2.0677a81.9334,81.9334,0,0,1,6.0522,6.806l-67.3048-84.9676a81.73,81.73,0,0,0-6.055-6.8069c-.71-.7181-1.5187-1.3633-2.2608-2.0573-1.5044-1.4121-2.999-2.8313-4.6311-4.1494-.9653-.7807-2.0335-1.4836-3.0442-2.2311-1.5383-1.14-3.0566-2.2922-4.6974-3.3528-1.15-.7434-2.4-1.4081-3.6006-2.1106-1.3626-.7989-2.6568-1.65-4.0851-2.3959q-.8439-.44-1.7008-.8676-3.8-1.8957-7.8111-3.5033c-.8906-.3583-1.8283-.65-2.7335-.9885-1.8086-.6739-3.6094-1.3586-5.4751-1.9509-1.1188-.3552-2.2845-.6428-3.4234-.9688-1.714-.49-3.4169-.9973-5.174-1.4218-1.2445-.3012-2.5292-.5357-3.7946-.8035-1.4566-.3089-2.8843-.6593-4.3685-.9254-.2636-.0475-.5416-.0736-.8064-.12-1.1586-.2-2.3505-.3488-3.5259-.5239-1.8456-.2736-3.69-.5461-5.5732-.7562-1.2842-.1443-2.5932-.2463-3.8944-.3591-1.8266-.1616-3.657-.3129-5.5168-.4159-1.3678-.0749-2.7515-.12-4.1364-.1648-1.8422-.06-3.6939-.103-5.5659-.1095-1.428-.0052-2.8638.01-4.3086.0376-.9288.0162-1.8364-.0066-2.7727.0231-.9171.0294-1.86.1122-2.7834.1549-1.6063.0722-3.2171.1588-4.8421.2682-1.8489.1227-3.7108.2763-5.5835.448-1.6418.15-3.2878.31-4.9471.497-1.8924.2118-3.7985.4586-5.7109.7174-1.6735.2279-3.3479.4588-5.0365.7206-1.9373.3011-3.8891.64-5.8464.988-1.699.3-3.3953.6005-5.1078.9374-.6391.1253-1.2666.22-1.9077.35-.9529.1939-1.931.4534-2.888.6562q-4.2238.9015-8.4943,1.9337c-1.566.38-3.1335.7675-4.7076,1.1743-2.9532.7638-5.9231,1.5876-8.9041,2.4448-1.42.41-2.8332.7955-4.2585,1.2255q-6.108,1.8393-12.2807,3.93c-.3121.1053-.621.1964-.9343.3033-4.43,1.5169-8.8858,3.1527-13.357,4.8623-.3486.1344-.6913.2459-1.04.38-.59.2271-1.1871.5074-1.7768.7373q-8.4535,3.3058-16.9707,7.05c-.6559.2882-1.3058.5536-1.9611.8458-5.9352,2.65-11.8851,5.4934-17.8405,8.4586-1.1927.5933-2.3814,1.1859-3.5733,1.7928q-8.84,4.4905-17.6681,9.4148c-.9479.53-1.8915,1.0869-2.8408,1.6254q-8.6275,4.9009-17.2089,10.2c-.5115.3175-1.0247.6161-1.536.935-5.936,3.7058-11.8363,7.595-17.71,11.59-1.1566.7876-2.3114,1.5694-3.4663,2.3677q-8.632,5.9679-17.1373,12.324c-.9763.7318-1.9413,1.4837-2.9127,2.2215q-8.4263,6.4-16.6978,13.1574c-.3455.2846-.6987.5553-1.044.8411-5.6584,4.6688-11.2257,9.5069-16.7388,14.4363-.6124.5471-1.25,1.053-1.8608,1.6039-.6044.5458-1.1892,1.12-1.7905,1.6681q-4.1615,3.7887-8.2484,7.6861c-1.2873,1.219-2.5857,2.4193-3.8624,3.6531q-5.9556,5.756-11.7666,11.6987c-3.5379,3.6349-6.9585,7.2842-10.32,10.9407-1.0068,1.0955-1.9873,2.1922-2.9789,3.288q-3.6288,4.015-7.1136,8.0388c-.5864.6772-1.2144,1.3514-1.795,2.03-.4444.5179-.8581,1.0392-1.2981,1.5591-1.628,1.9165-3.2147,3.8347-4.7942,5.7545-1.099,1.3359-2.2091,2.6709-3.2848,4.0073-1.6278,2.0219-3.2021,4.045-4.775,6.0678-.9568,1.23-1.9356,2.4594-2.87,3.69-1.7761,2.3329-3.488,4.6653-5.19,6.9962-.6691.9176-1.3684,1.8345-2.0268,2.75q-3.4944,4.8669-6.7787,9.7214c-.0345.0506-.0727.1032-.107.1552-.4567.6745-.8738,1.3484-1.3236,2.0233-1.6574,2.4867-3.2971,4.9721-4.87,7.451-.7526,1.1869-1.4583,2.3678-2.1909,3.5515-1.2479,2.0169-2.4971,4.034-3.6886,6.0433-.7758,1.31-1.51,2.6116-2.2621,3.9175-1.0829,1.8813-2.1634,3.7609-3.1969,5.6344-.7466,1.3558-1.4589,2.7034-2.179,4.0537-.9687,1.8153-1.9283,3.6279-2.8491,5.4344-.2721.5332-.5734,1.0723-.8418,1.6036-.35.6976-.6489,1.3842-.9928,2.0794q-1.7517,3.5529-3.38,7.0782c-.53,1.1464-1.0646,2.2934-1.5748,3.4367q-1.7961,4.0282-3.422,8.0147c-.2947.72-.6157,1.4475-.9026,2.1652q-2.01,5.0318-3.7519,9.99c-.299.85-.5587,1.6878-.8472,2.5345-.838,2.4714-1.6383,4.93-2.3783,7.371-.1431.4745-.32.9585-.4608,1.4313-.2571.8719-.4674,1.7282-.7127,2.5969-.3752,1.3315-.7463,2.6624-1.0929,3.9839-.3756,1.4412-.7229,2.8711-1.0636,4.3-.3122,1.3134-.6233,2.6252-.9059,3.9271-.3069,1.4167-.58,2.82-.8512,4.2226-.249,1.2884-.4981,2.5768-.7163,3.8521-.2369,1.3919-.4394,2.7675-.64,4.1455-.1834,1.2616-.372,2.5254-.5257,3.7755-.1668,1.3672-.2968,2.7162-.4276,4.0682-.12,1.2323-.2447,2.4642-.3336,3.6822-.0979,1.344-.1537,2.6677-.2145,3.9949-.0539,1.1974-.1166,2.3989-.14,3.5818-.0259,1.3135-.0086,2.6065.0026,3.9032.01,1.1668.0078,2.3369.05,3.489.0461,1.2844.1379,2.5451.2222,3.8111.0751,1.1291.135,2.2661.2408,3.3808.1191,1.2606.2891,2.4966.4475,3.7373.1376,1.0823.2587,2.1726.4267,3.2392.1949,1.2376.443,2.4477.6786,3.6652.2,1.0368.38,2.0837.6107,3.1034C2345.7094,598.8418,2346.037,600.0175,2346.35,601.2023Z"/></clipPath></defs><g clip-path="url(#a)"><path fill="#fff" stroke="#304063" stroke-linejoin="round" stroke-width="2" d="M1736.634,1761.2845h-21.5213V1138.9419c0-141.37-115.0151-256.3854-256.3855-256.3854-141.3808,0-256.3959,115.0151-256.3959,256.3854v622.3426H1180.81V1138.9419c0-153.2344,124.6723-277.9068,277.9172-277.9068,153.2344,0,277.9068,124.6724,277.9068,277.9068Z"/><polygon fill="#fff" stroke="#304063" stroke-linejoin="round" stroke-width="2" points="2292.604 2728.27 624.845 2728.27 753.608 1608.297 2163.841 1608.297 2292.604 2728.27"/><polygon fill="#fff" points="2401.131 2728.27 733.372 2728.27 862.135 1608.297 2272.368 1608.297 2401.131 2728.27"/><g clip-path="url(#b)"><path fill="#fff" d="M2272.3679,1608.297C2679.2465,2969.7753,733.3721,2728.27,733.3721,2728.27L2139.1,3261.9166l602.4932-120.5741L2483.3819,1477.9106l-190.7779-70.4213"/></g><polygon fill="none" stroke="#304063" stroke-linejoin="round" stroke-width="2" points="2401.131 2728.27 733.372 2728.27 862.135 1608.297 2272.368 1608.297 2401.131 2728.27"/><circle cx="1300.102" cy="1761.28" r="22.833" fill="#fff"/><circle cx="1834.401" cy="1761.28" r="22.833" fill="#fff"/><path fill="#fff" stroke="#304063" stroke-linejoin="round" stroke-width="2" d="M1845.1654,1761.2845h-21.5213V1138.9419c0-141.37-115.0151-256.3854-256.396-256.3854-141.37,0-256.3854,115.0151-256.3854,256.3854v622.3426h-21.5214V1138.9419c0-153.2344,124.6724-277.9068,277.9068-277.9068,153.2449,0,277.9173,124.6724,277.9173,277.9068Z"/><polygon fill="#fff" stroke="#304063" stroke-linejoin="round" stroke-width="2" points="1560.979 2109.305 1403.209 2445.774 1773.485 2414.172 1560.979 2109.305"/><circle cx="1277.268" cy="2068.325" r="137.435" fill="#0b1753" stroke="#304063" stroke-linejoin="round" stroke-width="2"/><rect width="199.917" height="199.917" x="1711.609" y="1968.366" fill="#fff"/><path fill="none" stroke="#304063" stroke-linejoin="round" stroke-width="2" d="M1059.2088,1714.53l-39.1229,46.9475"/><path fill="none" stroke="#304063" stroke-linejoin="round" stroke-width="2" d="M2099.879,2356.1458a623.8421,623.8421,0,0,1-78.2459,117.3688"/><path fill="#fff" stroke="#304063" stroke-linejoin="round" stroke-width="2" d="M2245.9315,1905.2042h-18.3182V1375.4869c0-120.33-97.8971-218.2267-218.2268-218.2267-120.3386,0-218.2357,97.897-218.2357,218.2267v529.7173h-18.3182V1375.4869c0-130.428,106.117-236.545,236.5539-236.545,130.428,0,236.545,106.117,236.545,236.545Z"/><polygon fill="#fff" stroke="#304063" stroke-linejoin="round" stroke-width="2" points="2719.155 2728.27 1299.614 2728.27 1409.213 1774.986 2609.556 1774.986 2719.155 2728.27"/><polygon fill="#fff" points="2811.529 2728.27 1391.988 2728.27 1501.587 1774.986 2701.93 1774.986 2811.529 2728.27"/><g clip-path="url(#c)"><path fill="#fff" d="M2609.5561,1774.9863c274.1074,1141.1048-1309.942,953.284-1309.942,953.284l904.7265,351.5933,945.724-43.8919L3010.204,1498.0277,2701.93,1774.9863"/></g><polygon fill="none" stroke="#304063" stroke-linejoin="round" stroke-width="2" points="2811.529 2728.27 1391.988 2728.27 1501.587 1774.986 2701.93 1774.986 2811.529 2728.27"/><circle cx="1874.37" cy="1905.2" r="19.435" fill="#fff"/><circle cx="2329.148" cy="1905.2" r="19.435" fill="#fff"/><path fill="#fff" stroke="#304063" stroke-linejoin="round" stroke-width="2" d="M2338.31,1905.2042h-18.3182V1375.4869c0-120.33-97.897-218.2267-218.2357-218.2267-120.33,0-218.2268,97.897-218.2268,218.2267v529.7173h-18.3182V1375.4869c0-130.428,106.117-236.545,236.545-236.545,130.4369,0,236.5539,106.117,236.5539,236.545Z"/><polygon fill="#fff" stroke="#304063" stroke-linejoin="round" stroke-width="2" points="2051.184 2142.898 1916.895 2429.289 2232.062 2402.391 2051.184 2142.898"/><circle cx="1809.699" cy="2108.017" r="116.98" fill="#0b1753" stroke="#304063" stroke-linejoin="round" stroke-width="2"/><rect width="170.163" height="170.163" x="2179.395" y="2022.936" fill="#fff"/><path fill="none" stroke="#304063" stroke-linejoin="round" stroke-width="2" d="M1691.4348,1858.7479l-46.62,33.3"/><path fill="none" stroke="#304063" stroke-linejoin="round" stroke-width="2" d="M2504.0415,2498.169a151.9937,151.9937,0,0,1-66.7114,53.1533"/><rect width="1468.481" height="978.987" x="1906.673" y="1793.013" fill="#fff" rx="112.525"/><g clip-path="url(#d)"><rect width="1917.743" height="174.34" x="1604.931" y="1953.942" fill="#0b1753" stroke="#304063" stroke-linejoin="round" stroke-width="2"/><rect width="533.079" height="92.199" x="2438.076" y="2384.801" fill="#dbdbf2" stroke="#304063" stroke-linejoin="round" stroke-width="2" rx="46.099"/><rect width="198.896" height="92.199" x="3053.296" y="2384.801" fill="#dbdbf2" stroke="#304063" stroke-linejoin="round" stroke-width="2" rx="46.099"/><path fill="#dbdbf2" d="M1785.41,2697.2334c1534.1758,15.3035,1525.5676,96.6034,1551.3922-55.4752s38.3526-427.5415,38.3526-427.5415l153.8976,479.1909-153.8976,140.6009-1468.4812,57.3881-196.8247-157.8174"/></g><rect width="1468.481" height="978.987" x="1906.673" y="1793.013" fill="none" stroke="#304063" stroke-linejoin="round" stroke-width="2" rx="112.525"/><path fill="none" stroke="#304063" stroke-linejoin="round" stroke-width="2" d="M2277.9926,2324.7918l-23.1582,22.7487"/><path fill="none" stroke="#304063" stroke-linejoin="round" stroke-width="2" d="M3092.6891,1857.8678l-49.97,41.8049"/><path fill="#fff" d="M2442.2479,828.6544c-6.93-.95,4.998,60.2785,4.998,60.2785s-19.1093-64.4839-35.9616-60.6774,14.37,45.2193,17.2662,52.6621-2.37,28.6261-6.583,24.0459-11.7187-29.3286-16.9186-28.1186-19.8329-3.5911-5.6138,19.9318,5.53,65.2668,32.2751,92.3475c0,0,98.2375,285.4448,167.7326,279.9632s346.5245-77.29,346.5245-77.29l-79.45-125.6223-253.9086,52.422s-111.6651-89.7057-133.7837-154.9733c0,0,3.442-51.0027,5.0219-62.99S2460.4167,831.1456,2442.2479,828.6544Z"/><g clip-path="url(#e)"><path fill="#fdfefe" d="M2706.8533,1092.766c-11.8459,14.124,15.4077,71.1075-75.304,82.5731-34.6346,4.3777,138.6793,25.7255,138.6793,25.7255l-33.7607-95.3592"/><path fill="#fdfefe" d="M2575.336,1053.9369c-19.0079,61.3686-32.0384,125.4286-8.3467,161.8084s83.8161-81.9495,83.8161-81.9495l-6.255-46.8548-60.9769-16.65"/></g><path fill="none" stroke="#304063" stroke-linejoin="round" stroke-width="2" d="M2442.2479,828.6544c-6.93-.95,4.998,60.2785,4.998,60.2785s-19.1093-64.4839-35.9616-60.6774,14.37,45.2193,17.2662,52.6621-2.37,28.6261-6.583,24.0459-11.7187-29.3286-16.9186-28.1186-19.8329-3.5911-5.6138,19.9318,5.53,65.2668,32.2751,92.3475c0,0,98.2375,285.4448,167.7326,279.9632s346.5245-77.29,346.5245-77.29l-79.45-125.6223-253.9086,52.422s-111.6651-89.7057-133.7837-154.9733c0,0,3.442-51.0027,5.0219-62.99S2460.4167,831.1456,2442.2479,828.6544Z"/><polygon fill="#5b80e3" points="2695.023 1085.276 2758.407 1237.899 2945.967 1191.797 2888.162 1048.629 2695.023 1085.276"/><g clip-path="url(#f)"><polygon fill="#e9effd" stroke="#304063" stroke-linejoin="round" stroke-width="2" points="2722.261 1054.394 2820.495 1316.93 2685.022 1300.716 2668.443 1053.937 2722.261 1054.394"/><path fill="#5b83e4" d="M2695.023,1107.0134c44.0275,36.87,131.754-37.0213,156.0785-42.2764s-8.2791,69.7619-8.2791,69.7619l-72.6765,31.1515-64.8965,6.0636"/></g><polygon fill="none" stroke="#304063" stroke-linejoin="round" stroke-width="2" points="2695.023 1085.276 2758.407 1237.899 2945.967 1191.797 2888.162 1048.629 2695.023 1085.276"/><ellipse cx="2292.281" cy="893.311" fill="#0b1753" stroke="#304063" stroke-linejoin="round" stroke-width="2" rx="16.361" ry="49.257"/><ellipse cx="2517.245" cy="893.311" fill="#0b1753" stroke="#304063" stroke-linejoin="round" stroke-width="2" rx="8.197" ry="37.49"/><ellipse cx="2692.396" cy="893.311" fill="#0b1753" stroke="#304063" stroke-linejoin="round" stroke-width="2" rx="7.373" ry="25.343"/><ellipse cx="2783.185" cy="893.311" fill="#0b1753" stroke="#304063" stroke-linejoin="round" stroke-width="2" rx="7.27" ry="14.359"/><path fill="#0b1753" stroke="#304063" stroke-linejoin="round" stroke-width="2" d="M2669.5357,874.4455l34.8478,1.6077,80.204,3.7c-3.6943,2.6049-6.2044,7.6986-6.2044,13.5574s2.51,10.9526,6.2044,13.5574l-80.204,3.7-34.8478,1.6078a35.9389,35.9389,0,0,1,0-37.7309Z"/><ellipse cx="2668.443" cy="893.311" fill="#0b1753" stroke="#304063" stroke-linejoin="round" stroke-width="2" rx="8.339" ry="18.865"/><path fill="#0b1753" stroke="#304063" stroke-linejoin="round" stroke-width="2" d="M2491.9584,860.0137l61.5059,2.8376,141.5587,6.5309c-6.52,4.5976-10.9506,13.588-10.9506,23.9287s4.43,19.3311,10.9506,23.9287l-141.5587,6.5309-61.5059,2.8376a63.4311,63.4311,0,0,1,0-66.5944Z"/><path fill="#0b1753" d="M2294.4246,844.0542l68.3743,4.1976,157.3668,9.6612c-7.2484,6.8013-12.1735,20.1009-12.1735,35.3979s4.9251,28.5966,12.1735,35.3978L2362.7989,938.37l-68.3743,4.1977c-6.5389-13.2518-10.4966-30.4477-10.4966-49.2568S2287.8857,857.3058,2294.4246,844.0542Z"/><g clip-path="url(#g)"><path fill="#0b1753" d="M2517.2451,939.5649c-22.9244,1.7769-50.798-65.1194-50.798-65.1194s-88.0678,64.0175-132.49,68.1222,97.7529,46.5565,97.7529,46.5565L2492.1,976.8794"/></g><path fill="none" stroke="#304063" stroke-linejoin="round" stroke-width="2" d="M2294.4246,844.0542l68.3743,4.1976,157.3668,9.6612c-7.2484,6.8013-12.1735,20.1009-12.1735,35.3979s4.9251,28.5966,12.1735,35.3978L2362.7989,938.37l-68.3743,4.1977c-6.5389-13.2518-10.4966-30.4477-10.4966-49.2568S2287.8857,857.3058,2294.4246,844.0542Z"/><path fill="#fff" d="M2895.3527,967.2647c3.7394,25.3919-61.7885,125.5013-61.7885,125.5013l153.4857-11.2s-43.2217-133.8376-17.5628-169.916c12.7712-17.9572-74.1344,55.6146-74.1344,55.6146Z"/><g clip-path="url(#h)"><path fill="#fdfefe" d="M2924.902,963.6415s-10.68,71.7948-113.4033,72.0271,38.2474-81.2128,38.2474-81.2128Z"/></g><path fill="none" stroke="#304063" stroke-linejoin="round" stroke-width="2" d="M2895.3527,967.2647c3.7394,25.3919-61.7885,125.5013-61.7885,125.5013l153.4857-11.2s-43.2217-133.8376-17.5628-169.916c12.7712-17.9572-74.1344,55.6146-74.1344,55.6146Z"/><path fill="#fff" d="M2966.6162,936.4731c51.143-93.8472-55.0043-143.8776-82.8158-135.809-33.4693,9.71-86.3856,95.07-58.4189,159.85,9.1171,21.1183,55.4467,41.3068,97.1382,20.7725"/><path fill="none" stroke="#304063" stroke-linejoin="round" stroke-width="2" d="M2966.6162,936.4731c51.143-93.8472-55.0043-143.8776-82.8158-135.809-33.4693,9.71-86.3856,95.07-58.4189,159.85,9.1171,21.1183,55.4467,41.3068,97.1382,20.7725"/><path fill="#0b1753" d="M2921.9649,822.8142s-78.2319,11.5191-76.9128-41.7226c1.44-58.1262,53.7829-55.4419,78.0333-40.1133,37.398,23.64,63.1713-25.6421,108.0785,12.8616,57.15,49.001-27.2772,100.3893.5618,109.4126s54.5086,43.4622-31.503,70.6113c-.6913,7.44,15.7117,13.3919,29.7144,12.3045,0,0-92.7667,40.4235-86.4733-14.44,4.0787-35.5573-7.858-46.8105-24.3821-37.5395S2878.2733,839.9241,2921.9649,822.8142Z"/><path fill="none" stroke="#304063" stroke-linejoin="round" stroke-width="2" d="M2921.9649,822.8142s-78.2319,11.5191-76.9128-41.7226c1.44-58.1262,53.7829-55.4419,78.0333-40.1133,37.398,23.64,63.1713-25.6421,108.0785,12.8616,57.15,49.001-27.2772,100.3893.5618,109.4126s54.5086,43.4622-31.503,70.6113c-.6913,7.44,15.7117,13.3919,29.7144,12.3045,0,0-92.7667,40.4235-86.4733-14.44,4.0787-35.5573-7.858-46.8105-24.3821-37.5395S2878.2733,839.9241,2921.9649,822.8142Z"/><path fill="#fff" stroke="#304063" stroke-linejoin="round" stroke-width="2" d="M2935.7521,942.7517c10.8593-1.2828,22.1688-8.95,29.1392-20.9589,10.17-17.5208,7.2521-37.6481-6.5167-44.9557s-33.1748.9718-43.3446,18.4926a45.9448,45.9448,0,0,0-4.7542,11.46"/><path fill="#fff" d="M2710.5624,828.6538c-21.33-9.828-26.8583,62.7763-26.8583,62.7763s-17.7928-39.7161-37.5415-25.2337c0,0-19.7963-4.2931-26.3792-.2854,0,0,30.2162,11.0316,11.5207,34.8785s-42.02,26.5573-39.9132,56.0892-76.2093,314.706,8.0519,322.7213,325.4592-76.7179,325.4592-76.7179l-112.7-93.8936-13.4944-11.45s-137.1226,82.4432-140.2824,79.0081-29.4914-183.8737-18.9588-204.1512,54.8964-32.686,64.2493-71.6054C2710.1109,874.1794,2710.5624,828.6538,2710.5624,828.6538Z"/><g clip-path="url(#i)"><path fill="#fdfefe" d="M2730.545,1133.5432c-14.8073,18.3611,30.2069,116.0636,1.1846,135.6222s66.9291-20.125,66.9291-20.125l-11.2536-86.4748"/></g><path fill="none" stroke="#304063" stroke-linejoin="round" stroke-width="2" d="M2710.5624,828.6538c-21.33-9.828-26.8583,62.7763-26.8583,62.7763s-17.7928-39.7161-37.5415-25.2337c0,0-19.7963-4.2931-26.3792-.2854,0,0,30.2162,11.0316,11.5207,34.8785s-42.02,26.5573-39.9132,56.0892-76.2093,314.706,8.0519,322.7213,325.4592-76.7179,325.4592-76.7179l-112.7-93.8936-13.4944-11.45s-137.1226,82.4432-140.2824,79.0081-29.4914-183.8737-18.9588-204.1512,54.8964-32.686,64.2493-71.6054C2710.1109,874.1794,2710.5624,828.6538,2710.5624,828.6538Z"/><path fill="#fff" stroke="#304063" stroke-linejoin="round" stroke-width="2" d="M2480.3011,974.3028s17.4285-63.7053-3.7473-86.268c-8.7443-9.317-6.8132-44.6208-14.7127-47.1971-9.8363-3.208-14.2191,20.6107-6.32,52.3857,4.8412,19.4736-4.2625,41.85-9.6731,59.0249"/><path fill="#fff" d="M2490.9624,2075.2894c8.4261,35.5115,11.8159,84.3121,45.2845,110.1822,40.0241,30.9373-24.2251,46.3437-63.196,105.3266s-126.3919,61.0894-82.1547,25.2784,67.409-113.7528,53.7166-161.15S2490.9624,2075.2894,2490.9624,2075.2894Z"/><g clip-path="url(#j)"><path fill="#fdfefe" d="M2416.63,2170.0563c62.1908,17.7688,88.2672-33.7607,101.586-18.3611s-2.0964-42.0528-2.0964-42.0528l-56.8445,5.3306-21.9149,19.5457"/></g><path fill="none" stroke="#304063" stroke-linejoin="round" stroke-width="2" d="M2490.9624,2075.2894c8.4261,35.5115,11.8159,84.3121,45.2845,110.1822,40.0241,30.9373-24.2251,46.3437-63.196,105.3266s-126.3919,61.0894-82.1547,25.2784,67.409-113.7528,53.7166-161.15S2490.9624,2075.2894,2490.9624,2075.2894Z"/><path fill="#bebdff" d="M2421.9128,2162.5023l103.059-35.6737s-27.6958-292.0945-89.3118-374.2493c0,0,500.8279,135.8713,567.1837,18.9588s37.9175-205.3868,37.9175-205.3868-774.15-56.8764-824.7071,47.3969S2421.9128,2162.5023,2421.9128,2162.5023Z"/><g clip-path="url(#k)"><path fill="none" stroke="#304063" stroke-linejoin="round" stroke-width="2" d="M2487.2846,2225.7626c66.71-78.66-125.1934-535.91-70.7024-519.326s326.9609,60.31,416.982,21.8627"/><circle cx="2176.111" cy="1615.223" r="79.367" fill="#9598ed"/><path fill="#9598ed" d="M2548.9035,1529.9107c115.0035-35.5082,96.64,308.9046,391.7126,285.053s-120.121-313.0691-120.121-313.0691l-181.8383-57.2741"/></g><path fill="none" stroke="#304063" stroke-linejoin="round" stroke-width="2" d="M2421.9128,2162.5023l103.059-35.6737s-27.6958-292.0945-89.3118-374.2493c0,0,500.8279,135.8713,567.1837,18.9588s37.9175-205.3868,37.9175-205.3868-774.15-56.8764-824.7071,47.3969S2421.9128,2162.5023,2421.9128,2162.5023Z"/><path fill="#fff" d="M2613.8632,1573.617c-5.7458,42.1241-58.3684,148.4963-35.0136,189.2305,27.9292,48.7127-42.9912,42.0255-105.9088,92.5207s-151.8563,20.6735-92.9216-2.42,113.5324-100.2321,118.7363-157.354S2613.8632,1573.617,2613.8632,1573.617Z"/><g clip-path="url(#l)"><path fill="#fdfefe" d="M2495.4046,1677.2684c-16.7236.5923,71.5134,39.1,77.5134,57.4568s21.9918-50.9416,21.9918-50.9416"/></g><path fill="none" stroke="#304063" stroke-linejoin="round" stroke-width="2" d="M2613.8632,1573.617c-5.7458,42.1241-58.3684,148.4963-35.0136,189.2305,27.9292,48.7127-42.9912,42.0255-105.9088,92.5207s-151.8563,20.6735-92.9216-2.42,113.5324-100.2321,118.7363-157.354S2613.8632,1573.617,2613.8632,1573.617Z"/><path fill="#bebdff" d="M2463.8019,1673.5844l128.2681,36.8643s58.8132-133.3725,63.0263-219.74c0,0,73.6772,317.639,253.8258,325.0669,229.9025,9.4794,278.039-307.6019,278.039-307.6019l-285.231-21.0171-2.1065,44.2372S2693.7691,1165.91,2604.7092,1180.656,2463.8019,1673.5844,2463.8019,1673.5844Z"/><g clip-path="url(#m)"><path fill="#9598ed" d="M2899.6236,1531.3935c270.6991,127.2783,178.8686,415.4956-21.5463,295.2561s-11.2413,91.7564-11.2413,91.7564l406.8419-190.1067-108.982-185.4732"/><path fill="none" stroke="#304063" stroke-linejoin="round" stroke-width="2" d="M2560.2965,1661.1961c68.0366-110.5122,35.3384-329.6247,99.8083-252.3586s216.44,474.54,386.7143,292.8607"/><path fill="none" stroke="#304063" stroke-linejoin="round" stroke-width="2" d="M3014.206,1645.43c-82.921,29.6146-52.3722,91.2131-52.3722,91.2131"/><ellipse cx="2599.024" cy="1190.582" fill="#9598ed" rx="81.778" ry="47.318"/></g><path fill="none" stroke="#304063" stroke-linejoin="round" stroke-width="2" d="M2463.8019,1673.5844l128.2681,36.8643s58.8132-133.3725,63.0263-219.74c0,0,73.6772,317.639,253.8258,325.0669,229.9025,9.4794,278.039-307.6019,278.039-307.6019l-285.231-21.0171-2.1065,44.2372S2693.7691,1165.91,2604.7092,1180.656,2463.8019,1673.5844,2463.8019,1673.5844Z"/><path fill="#e9effd" stroke="#304063" stroke-linejoin="round" stroke-width="2" d="M2866.836,1064.737l8.498-23.4063s103.3862-47.0671,102.8651-45.2716-2.6276,41.293-2.6276,41.293Z"/><path fill="#5b80e3" d="M2722.261,1128.0463l56.8764,147.3438,58.1745-9.1242s-.383,118.6321,18.585,209.6875c0,0,161.9851,189.15,342.9669,141.7528,0,0,42.9879-497.339-224.5416-583.7068l-102.0835,21.3179Z"/><g clip-path="url(#n)"><path fill="#5b83e4" d="M2742.5992,1329.6638l94.7127-63.3979,104.1427-17.4557s-107.89,234.7783,105.2188,376.518c163.5769,108.7956-310.72-173.516-310.72-173.516Z"/><polyline fill="#e9effd" stroke="#304063" stroke-linejoin="round" stroke-width="2" points="2755.078 1100.817 2817.503 1285.612 2745.689 1296.054 2692.396 1107.924"/></g><path fill="none" stroke="#304063" stroke-linejoin="round" stroke-width="2" d="M2722.261,1128.0463l56.8764,147.3438,58.1745-9.1242s-.383,118.6321,18.585,209.6875c0,0,161.9851,189.15,342.9669,141.7528,0,0,42.9879-497.339-224.5416-583.7068l-102.0835,21.3179Z"/><line x1="2924.902" x2="2802.477" y1="1252.977" y2="1271.729" fill="#fff" stroke="#304063" stroke-linejoin="round" stroke-width="2"/><path fill="#e9effd" stroke="#304063" stroke-linejoin="round" stroke-width="2" d="M2925.226,1388.9674l14.5949-7.1075s29.4824,76.9981,76.8659,73.4443l-14.7179,18.9534S2940.3779,1458.858,2925.226,1388.9674Z"/><circle cx="2860.58" cy="1316.93" r="5.109" fill="#5b80e3" stroke="#304063" stroke-linejoin="round" stroke-width="2"/><circle cx="2868.798" cy="1408.838" r="5.109" fill="#5b80e3" stroke="#304063" stroke-linejoin="round" stroke-width="2"/><path fill="#fff" stroke="#304063" stroke-linejoin="round" stroke-width="2" d="M2463.8019,1605.1544c-9.3129,14.2151-6.3515,69.8906-6.3515,69.8906s110.7588,45.0143,141.5581,42.0528c0,0,20.5668-58.6952,19.4639-74.0657C2618.4724,1643.0321,2535.898,1638.9151,2463.8019,1605.1544Z"/><path fill="#fff" stroke="#304063" stroke-linejoin="round" stroke-width="2" d="M2382.231,2112.8179c2.5656,16.2166,39.6447,57.8307,39.6447,57.8307s96.14-23.5148,115.3852-42.9194c0,0-4.5223-60.0436-14.9544-71.3737C2522.3065,2056.3555,2452.8988,2099.0125,2382.231,2112.8179Z"/><path fill="#fff" stroke="#304063" stroke-linejoin="round" stroke-width="2" d="M2833.1929,865.5955c-33.2557,13.0083-28.5543,46.2327-6.6292,42.94"/><ellipse cx="2880.325" cy="892.673" fill="#fdfefe" opacity=".49" rx="18.602" ry="13.717"/><path fill="none" stroke="#304063" stroke-linejoin="round" stroke-width="2" d="M2860.0817,912.48a20.3844,20.3844,0,0,1-9.0191,8.027"/><path fill="none" stroke="#304063" stroke-linejoin="round" stroke-width="2" d="M2933.395,905.1821a7.8547,7.8547,0,1,1,11.4627,10.2746"/><path fill="none" stroke="#304063" stroke-linejoin="round" stroke-width="2" d="M2961.5117,796.6606a17.0212,17.0212,0,0,0,16.5435,6.999"/><path fill="none" stroke="#304063" stroke-linejoin="round" stroke-width="2" d="M3056.2781,1540.5049a221.3679,221.3679,0,0,0,42.6247,4.8971"/><path fill="none" stroke="#304063" stroke-linejoin="round" stroke-width="2" d="M2654.594,1492.6389q-2.5993-11.5645-5.1986-23.129"/><path fill="none" stroke="#304063" stroke-linejoin="round" stroke-width="2" d="M2306.4218,1684.5225A20.0968,20.0968,0,0,0,2310,1698.7151"/><path fill="none" stroke="#304063" stroke-linejoin="round" stroke-width="2" d="M2878.0773,1601.1108l3.6857,17.7415"/><path fill="none" stroke="#304063" stroke-linejoin="round" stroke-width="2" d="M2475.8115,2206.332l2.3692,2.3692"/><path fill="none" stroke="#304063" stroke-linejoin="round" stroke-width="2" d="M3065.4579,1186.2a22.876,22.876,0,0,0,25.5874-10.8605"/><path fill="none" stroke="#304063" stroke-linejoin="round" stroke-width="2" d="M2685.111,893.8705l-1.7321,5.3452"/><path fill="none" stroke="#304063" stroke-linejoin="round" stroke-width="2" d="M2434.1818,987.5621l5.3287-1.7825"/><ellipse cx="1643.572" cy="857.845" fill="#e9effd" rx="123.67" ry="235.046" transform="rotate(-29.433 1643.573 857.845)"/><g clip-path="url(#o)"><path fill="#e9effd" d="M1454.3674,827.4612c60.49-241.4067,192.8829-173.41,247.0437-135.9461s-87.2591-97.7895-87.2591-97.7895H1448.6608l-21.7426,50.5424"/></g><ellipse cx="1643.572" cy="857.845" fill="none" stroke="#304063" stroke-linejoin="round" stroke-width="2" rx="123.67" ry="235.046" transform="rotate(-29.433 1643.573 857.845)"/><path fill="#fdfefe" d="M1539.6351,707.9907c33.2537-46.23,108.5551-19.7838,168.1762,59.0631,59.6436,78.8766,81.0216,180.2858,47.7679,226.5155-33.2661,46.247-108.5667,19.802-168.21-59.0747C1527.7477,855.6477,1506.3691,754.2377,1539.6351,707.9907Z"/><g clip-path="url(#p)"><path fill="#fff" d="M1528.7921,740.5423c33.2536-46.23,108.555-19.7838,168.1761,59.0631,59.6436,78.8766,81.0216,180.2858,47.768,226.5155-33.2661,46.247-108.5668,19.802-168.21-59.0747C1516.9047,888.1993,1495.526,786.7893,1528.7921,740.5423Z"/></g><path fill="none" stroke="#304063" stroke-linejoin="round" stroke-width="2" d="M1539.6351,707.9907c33.2537-46.23,108.5551-19.7838,168.1762,59.0631,59.6436,78.8766,81.0216,180.2858,47.7679,226.5155-33.2661,46.247-108.5667,19.802-168.21-59.0747C1527.7477,855.6477,1506.3691,754.2377,1539.6351,707.9907Z"/><path fill="#fff" d="M1657.3047,1113.1872c.8077-.0837,1.6229-.1459,2.4221-.2532.9686-.1309,1.9179-.3132,2.8726-.4795.7745-.1351,1.5576-.2478,2.3224-.4065.9654-.2017,1.9094-.457,2.86-.6973.7283-.1834,1.4685-.3411,2.1872-.5481.9965-.2864,1.9673-.6307,2.9445-.96.6479-.2188,1.3087-.4087,1.9491-.6457,1.0823-.4033,2.1367-.8689,3.1955-1.328.5117-.221,1.0362-.4108,1.5414-.6458q2.3266-1.078,4.57-2.3406l74.8454-42.23q-2.2413,1.2648-4.57,2.3417c-.5095.236-1.0384.4269-1.5533.65-1.0533.4569-2.1046.9214-3.1837,1.3226-.6425.2392-1.3065.43-1.9587.649-.974.3293-1.9426.6725-2.9349.9579-.7144.2048-1.45.3615-2.1732.5449-.9558.2413-1.9051.4977-2.877.7-.7594.1588-1.5371.2693-2.3062.4034-.959.1684-1.9126.3507-2.8856.4816-.7991.1084-1.6154.1706-2.4221.2532-.9675.1-1.9287.2113-2.9069.2756-.83.0548-1.6767.0666-2.5155.0955-.9783.0343-1.9512.0794-2.9413.0794-.8571,0-1.7281-.04-2.5937-.0654-.9923-.029-1.9834-.0483-2.9864-.1116-.8764-.0536-1.7656-.1459-2.6506-.2253-1.01-.0911-2.0188-.1759-3.04-.2992-.9-.11-1.8107-.2543-2.7171-.3884-1.0223-.1512-2.0435-.2982-3.0743-.4816-.9236-.1641-1.8547-.3615-2.7847-.5513-1.0319-.2114-2.0628-.4184-3.1033-.6608-.94-.2188-1.8879-.4688-2.834-.7134-1.048-.27-2.095-.54-3.1505-.842-.9514-.2714-1.91-.5718-2.8673-.8689-1.0608-.3293-2.1217-.66-3.189-1.02-.9676-.3261-1.9395-.679-2.9124-1.03-1.0705-.3872-2.1421-.7766-3.2191-1.1939-.9837-.3819-1.97-.7863-2.9585-1.1928-1.0737-.442-2.1486-.8882-3.2266-1.3591-.9987-.4366-2.0006-.8935-3.0035-1.3548q-1.4964-.6887-2.9982-1.4117c-1.82-.88-3.6471-1.8085-5.4771-2.77-.6307-.3315-1.2572-.64-1.8879-.9805q-3.6623-1.9758-7.35-4.163c-.5395-.3208-1.0812-.67-1.6219-.9987-1.9383-1.1757-3.88-2.3867-5.8257-3.65-.83-.54-1.6616-1.0973-2.4929-1.653q-2.5632-1.712-5.1317-3.5248c-.885-.6243-1.7689-1.2465-2.6549-1.8879-1.3055-.9483-2.612-1.9266-3.9175-2.9124-.9622-.7262-1.9244-1.4459-2.8876-2.1925-1.35-1.048-2.6978-2.1336-4.0462-3.2213-.92-.7423-1.8407-1.4707-2.7611-2.2323-1.4406-1.1917-2.8791-2.43-4.3176-3.6675-.8238-.71-1.6487-1.3966-2.4725-2.1207-1.7892-1.5736-3.5742-3.2019-5.358-4.8453-.4667-.43-.9354-.8377-1.402-1.2733q-3.4047-3.1746-6.7923-6.5219c-.62-.6114-1.2357-1.2561-1.8536-1.8761-1.6326-1.6369-3.2652-3.2824-4.89-4.9783-.8378-.8753-1.6713-1.7839-2.5069-2.6742-1.4-1.4911-2.8-2.9842-4.1921-4.5182-.9085-1.0008-1.8117-2.0295-2.716-3.0485-1.313-1.4771-2.6238-2.9606-3.9282-4.4774-.8109-.9418-1.6176-1.9051-2.4264-2.863q-2.7257-3.2294-5.4278-6.5734c-.7315-.9064-1.4652-1.8054-2.1947-2.7236-2.45-3.085-4.8882-6.2162-7.3007-9.4374q-3.95-5.2776-7.7126-10.6625c-.8045-1.1457-1.5789-2.3041-2.3717-3.4551-1.6959-2.4651-3.3757-4.9387-5.0158-7.43-.7112-1.0791-1.4052-2.1658-2.1046-3.25-3.1827-4.9279-6.287-9.89-9.2476-14.8995-.1781-.3015-.3433-.6072-.5214-.9086q-4.296-7.31-8.2532-14.7151c-.457-.8485-.9257-1.6959-1.3752-2.5465q-3.9405-7.4434-7.541-14.9468c-.4816-1-.9525-2.0016-1.4245-3.0025-2.4028-5.0909-4.72-10.1894-6.89-15.2921-.192-.4506-.3658-.9-.5557-1.3506q-3.0974-7.3579-5.8547-14.71c-.3057-.81-.6254-1.6219-.9246-2.4307q-2.7789-7.5189-5.1929-14.994c-.3282-1.0093-.6468-2.0166-.9644-3.0249-1.5875-5.0277-3.0818-10.0382-4.4237-15.0122-.148-.5493-.2757-1.0931-.42-1.64q-1.8874-7.1247-3.4251-14.1465c-.1727-.7885-.3647-1.5822-.532-2.3674-.7874-3.7105-1.5189-7.4016-2.16-11.0573-.0408-.2381-.0708-.4709-.1126-.709q-.8867-5.1264-1.5715-10.1648c-.1609-1.1649-.2886-2.3138-.4323-3.47-.3047-2.44-.5825-4.8689-.8163-7.2739-.1255-1.2872-.236-2.5669-.3411-3.8423q-.2849-3.4755-.4656-6.8952c-.07-1.2937-.148-2.5927-.1974-3.8735-.0514-1.3806-.0772-2.745-.1029-4.1095-.0311-1.5779-.0558-3.1515-.0526-4.709.0032-1.3538.0279-2.6925.0569-4.0312.0321-1.5286.075-3.0518.1415-4.5589.059-1.3258.1374-2.6388.2221-3.9475q.1447-2.2221.3357-4.4119.1738-1.9308.3884-3.8317.2476-2.2107.547-4.3829.2349-1.6928.5-3.3618c.236-1.4685.4988-2.9145.7734-4.353.207-1.08.413-2.1614.6415-3.2245.3078-1.4374.6522-2.8458,1.0008-4.251.2521-1.01.4934-2.0295.7659-3.0228.3969-1.446.8367-2.8555,1.2775-4.2629.2822-.901.5471-1.8171.8475-2.7021.4526-1.3323.9579-2.6184,1.4524-3.9131.3668-.9622.7112-1.9437,1.1016-2.8845.5492-1.3237,1.1564-2.5937,1.7517-3.8745.3958-.8517.7638-1.7292,1.1789-2.5605.6962-1.3913,1.4567-2.7214,2.21-4.058.3755-.664.7177-1.358,1.107-2.0091q1.7571-2.938,3.7062-5.6852c1.0394-1.46,2.1614-2.7751,3.2641-4.1224.7016-.856,1.3784-1.756,2.1046-2.568,1.032-1.1542,2.124-2.2011,3.2052-3.2652.71-.6983,1.39-1.4481,2.12-2.1068,1.2326-1.1123,2.5251-2.1057,3.8145-3.1086.6383-.4977,1.2465-1.0545,1.9-1.5254a64.943,64.943,0,0,1,6.0768-3.9l-74.8455,42.2294a64.7777,64.7777,0,0,0-6.0778,3.9024c-.65.4677-1.255,1.0212-1.89,1.5168-1.2915,1.004-2.5873,2-3.8209,3.1151-.73.66-1.4127,1.4095-2.1228,2.1089-1.0824,1.0641-2.1722,2.111-3.2052,3.2652-.7241.8088-1.3988,1.7056-2.0971,2.5594-.7938.9687-1.62,1.8772-2.38,2.9038q-.4489.6066-.8892,1.225-1.9534,2.7417-3.7072,5.6852c-.3905.6533-.7348,1.3516-1.1113,2.0188-.7509,1.3334-1.5093,2.6592-2.2033,4.0472-.4162.8324-.7852,1.71-1.181,2.5616-.5954,1.2819-1.2025,2.553-1.7517,3.8767-.3894.9375-.7316,1.9147-1.0974,2.8726-.4216,1.1028-.8721,2.1776-1.2636,3.3071-.07.2006-.1244.4152-.1931.6168-.2993.8828-.5632,1.7978-.8453,2.6967-.4419,1.4117-.8828,2.8223-1.28,4.2715-.2714.9879-.5127,2-.7616,3.0056-.3518,1.4106-.6962,2.8255-1.0062,4.2693-.2274,1.062-.4333,2.14-.6393,3.2191-.2746,1.4353-.5363,2.88-.7723,4.3455q-.27,1.6766-.502,3.3789c-.1019.7295-.2317,1.4374-.324,2.1744-.09.7219-.1416,1.4706-.222,2.199-.1416,1.2668-.2725,2.539-.3873,3.8252-.1319,1.4631-.2413,2.94-.3379,4.428-.0847,1.3044-.163,2.6131-.2209,3.9357-.0676,1.5082-.11,3.0314-.1427,4.561-.0279,1.3388-.0536,2.6785-.0569,4.0333-.0032,1.5544.0215,3.1248.0526,4.7005.0257,1.3677.0515,2.7332.104,4.1159.0194.516.0161,1.0191.0387,1.5372.0343.77.1169,1.5682.1576,2.3427q.1851,3.4192.4667,6.8909c.104,1.2733.2145,2.5487.3389,3.8317.2339,2.4071.5128,4.8346.8163,7.2749.1459,1.1628.2736,2.317.4345,3.4862q.687,5.0106,1.5629,10.1026c.044.2574.0772.5106.1223.7691.6414,3.6568,1.373,7.3479,2.16,11.06.0622.29.1072.5718.1694.8614.1052.49.2511.9922.3583,1.4825q1.5464,7.0281,3.4283,14.1605c.1448.5492.2725,1.0909.42,1.64,1.343,4.9751,2.8362,9.9856,4.4238,15.0154.3175,1.0073.635,2.0113.9632,3.02q2.4264,7.4772,5.194,14.9983c.2982.8077.6178,1.6155.9225,2.4253q2.7739,7.3614,5.8654,14.7355c.1856.44.3561.8785.5428,1.3183,2.17,5.106,4.4881,10.2066,6.892,15.3.4741,1.003.9439,2.0038,1.4267,3.0068q3.609,7.4964,7.5377,14.9414c.4527.8549.9225,1.7034,1.3806,2.5551,2.6484,4.9258,5.3838,9.8312,8.2446,14.7.18.3057.3486.6157.53.9214,2.9585,5.0073,6.0607,9.9642,9.2412,14.89.3529.5471.67,1.1092,1.0265,1.6552.353.5406.73,1.07,1.0856,1.6079,1.6358,2.4844,3.31,4.9494,5.0019,7.408.796,1.1585,1.5758,2.3234,2.3846,3.4755q3.7731,5.3742,7.71,10.6582c2.41,3.2191,4.8463,6.3481,7.2953,9.4321.7337.9236,1.4717,1.8268,2.2076,2.7386q2.6967,3.3371,5.4181,6.5626c.458.5428.9086,1.1178,1.3687,1.6563.3508.4119.708.8,1.0609,1.2089,1.3,1.5114,2.6066,2.9906,3.9153,4.4645.9107,1.0255,1.8193,2.06,2.7332,3.0668,1.3827,1.5243,2.7729,3.0067,4.1631,4.4881.8453.9011,1.6873,1.8193,2.5358,2.7032,1.608,1.6787,3.2234,3.3071,4.8389,4.9279.6361.6372,1.2679,1.2979,1.904,1.9265q3.3805,3.3372,6.7772,6.508c.0354.0333.0719.07.1084.103.472.4408.9482.8506,1.4213,1.2861,1.7431,1.6048,3.4873,3.1955,5.2347,4.7327.8367.7359,1.6744,1.4342,2.5111,2.154,1.4256,1.226,2.8512,2.4532,4.2779,3.6342.93.7691,1.859,1.505,2.789,2.2548,1.34,1.08,2.6785,2.1582,4.0183,3.1987.97.752,1.9372,1.476,2.9059,2.2065,1.3022.9826,2.6034,1.9577,3.9045,2.9017.384.2789.7691.5814,1.1521.857.5031.3605,1.004.679,1.506,1.0341q2.5665,1.81,5.1264,3.5205c.8324.5568,1.6648,1.1167,2.4972,1.6573q2.9333,1.9035,5.8547,3.6686c.5278.32,1.0577.6608,1.5844.974q3.6927,2.1948,7.3607,4.1706c.6286.339,1.2529.6458,1.88.9762,1.8322.9611,3.659,1.8911,5.4793,2.7718.354.17.7112.369,1.0641.5374.6511.3089,1.2958.5792,1.9459.8785.9965.4581,1.993.9129,2.9852,1.3473,1.0824.472,2.1594.92,3.2363,1.3634.99.4065,1.9791.812,2.9639,1.1939,1.0716.4151,2.1367.8024,3.2019,1.1875.9783.3539,1.9566.7079,2.9285,1.0362,1.0608.3572,2.1131.6854,3.1676,1.0126.9654.2993,1.9319.6028,2.8919.8774,1.05.2993,2.0907.5675,3.1334.8367.95.2457,1.9.4956,2.8426.7155,1.0405.2424,2.07.4495,3.1022.6608.9311.19,1.8643.3872,2.7879.5513,1.0255.1824,2.04.3283,3.0571.4795.915.1363,1.8311.2821,2.7386.3916,1.0115.1222,2.01.2059,3.0121.296.8935.0805,1.7914.1738,2.6774.2285,1.0019.0622,1.9909.0815,2.9821.1105.8646.0257,1.7334.0654,2.5894.0654.9933,0,1.9716-.045,2.9542-.0794.8367-.0289,1.6787-.0407,2.5058-.0954C1655.377,1113.3974,1656.3382,1113.2859,1657.3047,1113.1872Z"/><g clip-path="url(#q)"><path fill="#fdfefe" d="M1411.9528,814.612c48.7437,356.68,405.3021,256.81,405.3021,256.81L1699.9066,1167.17,1438.13,1106.6l-27.3354-186.5538"/></g><path fill="none" stroke="#304063" stroke-linejoin="round" stroke-width="2" d="M1657.3047,1113.1872c.8077-.0837,1.6229-.1459,2.4221-.2532.9686-.1309,1.9179-.3132,2.8726-.4795.7745-.1351,1.5576-.2478,2.3224-.4065.9654-.2017,1.9094-.457,2.86-.6973.7283-.1834,1.4685-.3411,2.1872-.5481.9965-.2864,1.9673-.6307,2.9445-.96.6479-.2188,1.3087-.4087,1.9491-.6457,1.0823-.4033,2.1367-.8689,3.1955-1.328.5117-.221,1.0362-.4108,1.5414-.6458q2.3266-1.078,4.57-2.3406l74.8454-42.23q-2.2413,1.2648-4.57,2.3417c-.5095.236-1.0384.4269-1.5533.65-1.0533.4569-2.1046.9214-3.1837,1.3226-.6425.2392-1.3065.43-1.9587.649-.974.3293-1.9426.6725-2.9349.9579-.7144.2048-1.45.3615-2.1732.5449-.9558.2413-1.9051.4977-2.877.7-.7594.1588-1.5371.2693-2.3062.4034-.959.1684-1.9126.3507-2.8856.4816-.7991.1084-1.6154.1706-2.4221.2532-.9675.1-1.9287.2113-2.9069.2756-.83.0548-1.6767.0666-2.5155.0955-.9783.0343-1.9512.0794-2.9413.0794-.8571,0-1.7281-.04-2.5937-.0654-.9923-.029-1.9834-.0483-2.9864-.1116-.8764-.0536-1.7656-.1459-2.6506-.2253-1.01-.0911-2.0188-.1759-3.04-.2992-.9-.11-1.8107-.2543-2.7171-.3884-1.0223-.1512-2.0435-.2982-3.0743-.4816-.9236-.1641-1.8547-.3615-2.7847-.5513-1.0319-.2114-2.0628-.4184-3.1033-.6608-.94-.2188-1.8879-.4688-2.834-.7134-1.048-.27-2.095-.54-3.1505-.842-.9514-.2714-1.91-.5718-2.8673-.8689-1.0608-.3293-2.1217-.66-3.189-1.02-.9676-.3261-1.9395-.679-2.9124-1.03-1.0705-.3872-2.1421-.7766-3.2191-1.1939-.9837-.3819-1.97-.7863-2.9585-1.1928-1.0737-.442-2.1486-.8882-3.2266-1.3591-.9987-.4366-2.0006-.8935-3.0035-1.3548q-1.4964-.6887-2.9982-1.4117c-1.82-.88-3.6471-1.8085-5.4771-2.77-.6307-.3315-1.2572-.64-1.8879-.9805q-3.6623-1.9758-7.35-4.163c-.5395-.3208-1.0812-.67-1.6219-.9987-1.9383-1.1757-3.88-2.3867-5.8257-3.65-.83-.54-1.6616-1.0973-2.4929-1.653q-2.5632-1.712-5.1317-3.5248c-.885-.6243-1.7689-1.2465-2.6549-1.8879-1.3055-.9483-2.612-1.9266-3.9175-2.9124-.9622-.7262-1.9244-1.4459-2.8876-2.1925-1.35-1.048-2.6978-2.1336-4.0462-3.2213-.92-.7423-1.8407-1.4707-2.7611-2.2323-1.4406-1.1917-2.8791-2.43-4.3176-3.6675-.8238-.71-1.6487-1.3966-2.4725-2.1207-1.7892-1.5736-3.5742-3.2019-5.358-4.8453-.4667-.43-.9354-.8377-1.402-1.2733q-3.4047-3.1746-6.7923-6.5219c-.62-.6114-1.2357-1.2561-1.8536-1.8761-1.6326-1.6369-3.2652-3.2824-4.89-4.9783-.8378-.8753-1.6713-1.7839-2.5069-2.6742-1.4-1.4911-2.8-2.9842-4.1921-4.5182-.9085-1.0008-1.8117-2.0295-2.716-3.0485-1.313-1.4771-2.6238-2.9606-3.9282-4.4774-.8109-.9418-1.6176-1.9051-2.4264-2.863q-2.7257-3.2294-5.4278-6.5734c-.7315-.9064-1.4652-1.8054-2.1947-2.7236-2.45-3.085-4.8882-6.2162-7.3007-9.4374q-3.95-5.2776-7.7126-10.6625c-.8045-1.1457-1.5789-2.3041-2.3717-3.4551-1.6959-2.4651-3.3757-4.9387-5.0158-7.43-.7112-1.0791-1.4052-2.1658-2.1046-3.25-3.1827-4.9279-6.287-9.89-9.2476-14.8995-.1781-.3015-.3433-.6072-.5214-.9086q-4.296-7.31-8.2532-14.7151c-.457-.8485-.9257-1.6959-1.3752-2.5465q-3.9405-7.4434-7.541-14.9468c-.4816-1-.9525-2.0016-1.4245-3.0025-2.4028-5.0909-4.72-10.1894-6.89-15.2921-.192-.4506-.3658-.9-.5557-1.3506q-3.0974-7.3579-5.8547-14.71c-.3057-.81-.6254-1.6219-.9246-2.4307q-2.7789-7.5189-5.1929-14.994c-.3282-1.0093-.6468-2.0166-.9644-3.0249-1.5875-5.0277-3.0818-10.0382-4.4237-15.0122-.148-.5493-.2757-1.0931-.42-1.64q-1.8874-7.1247-3.4251-14.1465c-.1727-.7885-.3647-1.5822-.532-2.3674-.7874-3.7105-1.5189-7.4016-2.16-11.0573-.0408-.2381-.0708-.4709-.1126-.709q-.8867-5.1264-1.5715-10.1648c-.1609-1.1649-.2886-2.3138-.4323-3.47-.3047-2.44-.5825-4.8689-.8163-7.2739-.1255-1.2872-.236-2.5669-.3411-3.8423q-.2849-3.4755-.4656-6.8952c-.07-1.2937-.148-2.5927-.1974-3.8735-.0514-1.3806-.0772-2.745-.1029-4.1095-.0311-1.5779-.0558-3.1515-.0526-4.709.0032-1.3538.0279-2.6925.0569-4.0312.0321-1.5286.075-3.0518.1415-4.5589.059-1.3258.1374-2.6388.2221-3.9475q.1447-2.2221.3357-4.4119.1738-1.9308.3884-3.8317.2476-2.2107.547-4.3829.2349-1.6928.5-3.3618c.236-1.4685.4988-2.9145.7734-4.353.207-1.08.413-2.1614.6415-3.2245.3078-1.4374.6522-2.8458,1.0008-4.251.2521-1.01.4934-2.0295.7659-3.0228.3969-1.446.8367-2.8555,1.2775-4.2629.2822-.901.5471-1.8171.8475-2.7021.4526-1.3323.9579-2.6184,1.4524-3.9131.3668-.9622.7112-1.9437,1.1016-2.8845.5492-1.3237,1.1564-2.5937,1.7517-3.8745.3958-.8517.7638-1.7292,1.1789-2.5605.6962-1.3913,1.4567-2.7214,2.21-4.058.3755-.664.7177-1.358,1.107-2.0091q1.7571-2.938,3.7062-5.6852c1.0394-1.46,2.1614-2.7751,3.2641-4.1224.7016-.856,1.3784-1.756,2.1046-2.568,1.032-1.1542,2.124-2.2011,3.2052-3.2652.71-.6983,1.39-1.4481,2.12-2.1068,1.2326-1.1123,2.5251-2.1057,3.8145-3.1086.6383-.4977,1.2465-1.0545,1.9-1.5254a64.943,64.943,0,0,1,6.0768-3.9l-74.8455,42.2294a64.7777,64.7777,0,0,0-6.0778,3.9024c-.65.4677-1.255,1.0212-1.89,1.5168-1.2915,1.004-2.5873,2-3.8209,3.1151-.73.66-1.4127,1.4095-2.1228,2.1089-1.0824,1.0641-2.1722,2.111-3.2052,3.2652-.7241.8088-1.3988,1.7056-2.0971,2.5594-.7938.9687-1.62,1.8772-2.38,2.9038q-.4489.6066-.8892,1.225-1.9534,2.7417-3.7072,5.6852c-.3905.6533-.7348,1.3516-1.1113,2.0188-.7509,1.3334-1.5093,2.6592-2.2033,4.0472-.4162.8324-.7852,1.71-1.181,2.5616-.5954,1.2819-1.2025,2.553-1.7517,3.8767-.3894.9375-.7316,1.9147-1.0974,2.8726-.4216,1.1028-.8721,2.1776-1.2636,3.3071-.07.2006-.1244.4152-.1931.6168-.2993.8828-.5632,1.7978-.8453,2.6967-.4419,1.4117-.8828,2.8223-1.28,4.2715-.2714.9879-.5127,2-.7616,3.0056-.3518,1.4106-.6962,2.8255-1.0062,4.2693-.2274,1.062-.4333,2.14-.6393,3.2191-.2746,1.4353-.5363,2.88-.7723,4.3455q-.27,1.6766-.502,3.3789c-.1019.7295-.2317,1.4374-.324,2.1744-.09.7219-.1416,1.4706-.222,2.199-.1416,1.2668-.2725,2.539-.3873,3.8252-.1319,1.4631-.2413,2.94-.3379,4.428-.0847,1.3044-.163,2.6131-.2209,3.9357-.0676,1.5082-.11,3.0314-.1427,4.561-.0279,1.3388-.0536,2.6785-.0569,4.0333-.0032,1.5544.0215,3.1248.0526,4.7005.0257,1.3677.0515,2.7332.104,4.1159.0194.516.0161,1.0191.0387,1.5372.0343.77.1169,1.5682.1576,2.3427q.1851,3.4192.4667,6.8909c.104,1.2733.2145,2.5487.3389,3.8317.2339,2.4071.5128,4.8346.8163,7.2749.1459,1.1628.2736,2.317.4345,3.4862q.687,5.0106,1.5629,10.1026c.044.2574.0772.5106.1223.7691.6414,3.6568,1.373,7.3479,2.16,11.06.0622.29.1072.5718.1694.8614.1052.49.2511.9922.3583,1.4825q1.5464,7.0281,3.4283,14.1605c.1448.5492.2725,1.0909.42,1.64,1.343,4.9751,2.8362,9.9856,4.4238,15.0154.3175,1.0073.635,2.0113.9632,3.02q2.4264,7.4772,5.194,14.9983c.2982.8077.6178,1.6155.9225,2.4253q2.7739,7.3614,5.8654,14.7355c.1856.44.3561.8785.5428,1.3183,2.17,5.106,4.4881,10.2066,6.892,15.3.4741,1.003.9439,2.0038,1.4267,3.0068q3.609,7.4964,7.5377,14.9414c.4527.8549.9225,1.7034,1.3806,2.5551,2.6484,4.9258,5.3838,9.8312,8.2446,14.7.18.3057.3486.6157.53.9214,2.9585,5.0073,6.0607,9.9642,9.2412,14.89.3529.5471.67,1.1092,1.0265,1.6552.353.5406.73,1.07,1.0856,1.6079,1.6358,2.4844,3.31,4.9494,5.0019,7.408.796,1.1585,1.5758,2.3234,2.3846,3.4755q3.7731,5.3742,7.71,10.6582c2.41,3.2191,4.8463,6.3481,7.2953,9.4321.7337.9236,1.4717,1.8268,2.2076,2.7386q2.6967,3.3371,5.4181,6.5626c.458.5428.9086,1.1178,1.3687,1.6563.3508.4119.708.8,1.0609,1.2089,1.3,1.5114,2.6066,2.9906,3.9153,4.4645.9107,1.0255,1.8193,2.06,2.7332,3.0668,1.3827,1.5243,2.7729,3.0067,4.1631,4.4881.8453.9011,1.6873,1.8193,2.5358,2.7032,1.608,1.6787,3.2234,3.3071,4.8389,4.9279.6361.6372,1.2679,1.2979,1.904,1.9265q3.3805,3.3372,6.7772,6.508c.0354.0333.0719.07.1084.103.472.4408.9482.8506,1.4213,1.2861,1.7431,1.6048,3.4873,3.1955,5.2347,4.7327.8367.7359,1.6744,1.4342,2.5111,2.154,1.4256,1.226,2.8512,2.4532,4.2779,3.6342.93.7691,1.859,1.505,2.789,2.2548,1.34,1.08,2.6785,2.1582,4.0183,3.1987.97.752,1.9372,1.476,2.9059,2.2065,1.3022.9826,2.6034,1.9577,3.9045,2.9017.384.2789.7691.5814,1.1521.857.5031.3605,1.004.679,1.506,1.0341q2.5665,1.81,5.1264,3.5205c.8324.5568,1.6648,1.1167,2.4972,1.6573q2.9333,1.9035,5.8547,3.6686c.5278.32,1.0577.6608,1.5844.974q3.6927,2.1948,7.3607,4.1706c.6286.339,1.2529.6458,1.88.9762,1.8322.9611,3.659,1.8911,5.4793,2.7718.354.17.7112.369,1.0641.5374.6511.3089,1.2958.5792,1.9459.8785.9965.4581,1.993.9129,2.9852,1.3473,1.0824.472,2.1594.92,3.2363,1.3634.99.4065,1.9791.812,2.9639,1.1939,1.0716.4151,2.1367.8024,3.2019,1.1875.9783.3539,1.9566.7079,2.9285,1.0362,1.0608.3572,2.1131.6854,3.1676,1.0126.9654.2993,1.9319.6028,2.8919.8774,1.05.2993,2.0907.5675,3.1334.8367.95.2457,1.9.4956,2.8426.7155,1.0405.2424,2.07.4495,3.1022.6608.9311.19,1.8643.3872,2.7879.5513,1.0255.1824,2.04.3283,3.0571.4795.915.1363,1.8311.2821,2.7386.3916,1.0115.1222,2.01.2059,3.0121.296.8935.0805,1.7914.1738,2.6774.2285,1.0019.0622,1.9909.0815,2.9821.1105.8646.0257,1.7334.0654,2.5894.0654.9933,0,1.9716-.045,2.9542-.0794.8367-.0289,1.6787-.0407,2.5058-.0954C1655.377,1113.3974,1656.3382,1113.2859,1657.3047,1113.1872Z"/><path fill="none" stroke="#304063" stroke-linejoin="round" stroke-width="2" d="M1654.8253,832.772a41.5785,41.5785,0,0,1-3.0607,30.1047"/><path fill="none" stroke="#304063" stroke-linejoin="round" stroke-width="2" d="M1468.0655,859.8711a46.7127,46.7127,0,0,0,15.1988,33.0936"/><ellipse cx="2661.803" cy="533.982" fill="#e9effd" rx="296.47" ry="155.988" transform="rotate(-38.384 2661.805 533.982)"/><g clip-path="url(#r)"><path fill="#e9effd" d="M2941.84,466.4326c-67.4644-233.1446-283.6709-139.2387-370.1609-84.9314S2817.9837,184.384,2817.9837,184.384l153.6124,189.7028"/></g><ellipse cx="2661.803" cy="533.982" fill="none" stroke="#304063" stroke-linejoin="round" stroke-width="2" rx="296.47" ry="155.988" transform="rotate(-38.384 2661.805 533.982)"/><path fill="#fff" stroke="#304063" stroke-linejoin="round" stroke-width="2" d="M2828.1188,375.0709c64.1267,32.3605,45.9536,131.3735-40.5865,221.133-86.5728,89.7934-208.73,136.331-272.8565,103.9705-64.1507-32.3726-45.9786-131.3845,40.5941-221.1779C2641.81,389.237,2763.9681,342.6984,2828.1188,375.0709Z"/><path fill="#fff" d="M2346.35,601.2023c.2627.99.5,1.9935.7907,2.9682.3532,1.1812.7667,2.3283,1.1612,3.4851.32.9385.6144,1.892.9623,2.8138.4407,1.1633.9441,2.2894,1.43,3.4264.3715.8715.7132,1.7628,1.1122,2.6176.5524,1.1854,1.1719,2.3274,1.774,3.48.4.7643.7661,1.55,1.1871,2.3017.715,1.2694,1.5019,2.4919,2.2818,3.7209.3757.5942.7152,1.2105,1.1071,1.7939q1.8,2.6874,3.813,5.2343l67.3061,84.9673q-2.0156-2.5444-3.8144-5.2341c-.394-.5885-.7357-1.21-1.1147-1.8077-.7761-1.2228-1.5612-2.4414-2.2728-3.7073-.4241-.7536-.7923-1.5434-1.193-2.3131-.6014-1.1489-1.2192-2.2885-1.7695-3.4688-.3954-.85-.735-1.736-1.1054-2.6008-.4883-1.1435-.994-2.276-1.4374-3.4471-.3468-.9151-.6371-1.8624-.9551-2.7944-.398-1.1618-.8124-2.3142-1.1664-3.5008-.2918-.9744-.53-1.9793-.7907-2.9682-.3142-1.1859-.6418-2.3616-.914-3.5679-.2311-1.0237-.4119-2.0759-.6126-3.1154-.2348-1.2122-.4818-2.4155-.6761-3.6492-.1682-1.0679-.29-2.1609-.4275-3.2445-.1587-1.242-.3291-2.4807-.4471-3.7428-.1052-1.1025-.1647-2.2286-.24-3.3468-.0847-1.2769-.177-2.55-.2237-3.8465-.04-1.1428-.0386-2.3059-.0494-3.4616-.0122-1.3034-.03-2.6046-.0032-3.925.0232-1.183.0864-2.3818.14-3.5778.0607-1.3272.1164-2.6523.2142-3.9963.0883-1.2137.2136-2.4443.3327-3.6711.1311-1.3588.2611-2.7161.4309-4.0906.1514-1.2388.3374-2.4926.52-3.7431.2022-1.3864.4056-2.7731.6452-4.1737.2165-1.2695.4655-2.55.7116-3.8307.2724-1.41.5472-2.8215.8558-4.2453.2827-1.3.5929-2.6095.9056-3.92.34-1.4246.685-2.8514,1.06-4.287.3479-1.33.7207-2.668,1.0986-4.0082q.5643-2,1.17-4.0126c.7387-2.4407,1.5376-4.8991,2.376-7.3679.2892-.8509.5512-1.692.8511-2.5447q1.7432-4.9506,3.7446-9.9749c.2938-.7352.6232-1.4787.926-2.2168,1.0845-2.6458,2.2124-5.3026,3.405-7.975.5093-1.14,1.0411-2.2857,1.57-3.4305q1.63-3.53,3.3848-7.0857c.6042-1.2252,1.2059-2.4486,1.8312-3.6784.9253-1.8127,1.8878-3.6326,2.86-5.4526.716-1.3414,1.424-2.6815,2.1652-4.0282,1.041-1.887,2.1289-3.78,3.22-5.6736.7443-1.2924,1.4712-2.5821,2.2395-3.8783,1.2022-2.0288,2.4622-4.064,3.7223-6.0992.7231-1.1658,1.4166-2.3284,2.1571-3.4969,1.61-2.5382,3.2881-5.0817,4.9856-7.6269.4443-.6658.86-1.33,1.3113-1.9967q3.2872-4.8651,6.7931-9.7428c.64-.8925,1.3226-1.7862,1.9738-2.6777,1.7192-2.3555,3.449-4.7126,5.2431-7.07.9262-1.2156,1.8947-2.4324,2.84-3.6483,1.5831-2.0368,3.1688-4.074,4.8068-6.11,1.0687-1.3285,2.1732-2.6557,3.2654-3.9824,1.5828-1.9258,3.1739-3.85,4.8078-5.7731,1.0143-1.1952,2.0562-2.3893,3.091-3.585q3.4887-4.03,7.1251-8.0529c.9858-1.0894,1.9618-2.18,2.9627-3.269,3.3631-3.6581,6.7859-7.31,10.3261-10.9485q5.8005-5.9576,11.7715-11.7022c1.2695-1.2272,2.561-2.4195,3.8395-3.6331,2.7385-2.5968,5.4909-5.1752,8.2738-7.7078,1.205-1.0979,2.4227-2.1759,3.6366-3.26,5.5155-4.9326,11.089-9.7744,16.75-14.4463.3406-.281.6891-.5468,1.03-.8278q8.2647-6.7874,16.7149-13.1711c.9675-.7359,1.9313-1.4862,2.903-2.2132q8.5008-6.3705,17.1433-12.3291c1.1511-.7963,2.307-1.58,3.4614-2.3641,5.8716-3.9929,11.7694-7.88,17.7014-11.5856.5237-.3276,1.05-.6324,1.5737-.9573q8.56-5.3032,17.1788-10.1816c.9491-.54,1.8981-1.0975,2.8471-1.6291q8.8231-4.9379,17.6629-9.4127c1.1933-.607,2.3858-1.2016,3.58-1.7951,5.9528-2.9648,11.9024-5.81,17.8366-8.458.6552-.2922,1.3078-.558,1.961-.8458q8.5068-3.75,16.954-7.0438c.9485-.37,1.9-.7649,2.8453-1.1275,4.4685-1.7092,8.924-3.345,13.353-4.8617.2887-.0975.5728-.1806.8613-.2795q6.2133-2.1107,12.3566-3.9528c1.42-.4291,2.8262-.8136,4.2388-1.22,2.9808-.8584,5.9522-1.6812,8.9028-2.4445,1.5792-.409,3.152-.7978,4.72-1.1791q4.2746-1.0369,8.5-1.9332c1.5981-.3408,3.2013-.6933,4.7874-1.0061,1.71-.3351,3.4051-.6349,5.1-.9348,1.96-.3484,3.9157-.688,5.857-.99,1.6873-.2617,3.36-.4937,5.0338-.72,1.9109-.26,3.8172-.5053,5.7081-.7183,1.6635-.1866,3.3148-.3467,4.962-.498,1.8647-.17,3.7212-.3231,5.563-.4475q2.44-.1623,4.85-.2681,2.8032-.1251,5.5684-.1785,2.1552-.04,4.2868-.037c1.876.0059,3.7292.05,5.5754.1094,1.3865.046,2.7742.09,4.1435.1665,1.8514.1015,3.6738.2541,5.4931.4127,1.3085.1158,2.6255.2165,3.9166.3611,1.88.2107,3.7221.4821,5.5621.7552,1.1781.1747,2.3715.325,3.533.5256,1.7488.3025,3.45.68,5.1607,1.0417,1.2709.2682,2.5614.5046,3.81.8065,1.757.4246,3.4586.9318,5.1713,1.4222,1.1388.326,2.3043.6123,3.4216.9664,1.87.5943,3.6767,1.2809,5.49,1.9568.901.3375,1.8328.6277,2.7205.9851q4.0056,1.6125,7.811,3.5019c2.023,1.0086,3.8817,2.1486,5.7768,3.2581,1.2042.7061,2.4584,1.3728,3.6127,2.1183,1.6406,1.0592,3.1594,2.2144,4.6974,3.3528,1.0094.7477,2.0771,1.4479,3.0409,2.2275,1.6279,1.3174,3.1192,2.7329,4.6219,4.1426.7454.6976,1.5584,1.3461,2.2733,2.0677a81.9334,81.9334,0,0,1,6.0522,6.806l-67.3048-84.9676a81.73,81.73,0,0,0-6.055-6.8069c-.71-.7181-1.5187-1.3633-2.2608-2.0573-1.5044-1.4121-2.999-2.8313-4.6311-4.1494-.9653-.7807-2.0335-1.4836-3.0442-2.2311-1.5383-1.14-3.0566-2.2922-4.6974-3.3528-1.15-.7434-2.4-1.4081-3.6006-2.1106-1.3626-.7989-2.6568-1.65-4.0851-2.3959q-.8439-.44-1.7008-.8676-3.8-1.8957-7.8111-3.5033c-.8906-.3583-1.8283-.65-2.7335-.9885-1.8086-.6739-3.6094-1.3586-5.4751-1.9509-1.1188-.3552-2.2845-.6428-3.4234-.9688-1.714-.49-3.4169-.9973-5.174-1.4218-1.2445-.3012-2.5292-.5357-3.7946-.8035-1.4566-.3089-2.8843-.6593-4.3685-.9254-.2636-.0475-.5416-.0736-.8064-.12-1.1586-.2-2.3505-.3488-3.5259-.5239-1.8456-.2736-3.69-.5461-5.5732-.7562-1.2842-.1443-2.5932-.2463-3.8944-.3591-1.8266-.1616-3.657-.3129-5.5168-.4159-1.3678-.0749-2.7515-.12-4.1364-.1648-1.8422-.06-3.6939-.103-5.5659-.1095-1.428-.0052-2.8638.01-4.3086.0376-.9288.0162-1.8364-.0066-2.7727.0231-.9171.0294-1.86.1122-2.7834.1549-1.6063.0722-3.2171.1588-4.8421.2682-1.8489.1227-3.7108.2763-5.5835.448-1.6418.15-3.2878.31-4.9471.497-1.8924.2118-3.7985.4586-5.7109.7174-1.6735.2279-3.3479.4588-5.0365.7206-1.9373.3011-3.8891.64-5.8464.988-1.699.3-3.3953.6005-5.1078.9374-.6391.1253-1.2666.22-1.9077.35-.9529.1939-1.931.4534-2.888.6562q-4.2238.9015-8.4943,1.9337c-1.566.38-3.1335.7675-4.7076,1.1743-2.9532.7638-5.9231,1.5876-8.9041,2.4448-1.42.41-2.8332.7955-4.2585,1.2255q-6.108,1.8393-12.2807,3.93c-.3121.1053-.621.1964-.9343.3033-4.43,1.5169-8.8858,3.1527-13.357,4.8623-.3486.1344-.6913.2459-1.04.38-.59.2271-1.1871.5074-1.7768.7373q-8.4535,3.3058-16.9707,7.05c-.6559.2882-1.3058.5536-1.9611.8458-5.9352,2.65-11.8851,5.4934-17.8405,8.4586-1.1927.5933-2.3814,1.1859-3.5733,1.7928q-8.84,4.4905-17.6681,9.4148c-.9479.53-1.8915,1.0869-2.8408,1.6254q-8.6275,4.9009-17.2089,10.2c-.5115.3175-1.0247.6161-1.536.935-5.936,3.7058-11.8363,7.595-17.71,11.59-1.1566.7876-2.3114,1.5694-3.4663,2.3677q-8.632,5.9679-17.1373,12.324c-.9763.7318-1.9413,1.4837-2.9127,2.2215q-8.4263,6.4-16.6978,13.1574c-.3455.2846-.6987.5553-1.044.8411-5.6584,4.6688-11.2257,9.5069-16.7388,14.4363-.6124.5471-1.25,1.053-1.8608,1.6039-.6044.5458-1.1892,1.12-1.7905,1.6681q-4.1615,3.7887-8.2484,7.6861c-1.2873,1.219-2.5857,2.4193-3.8624,3.6531q-5.9556,5.756-11.7666,11.6987c-3.5379,3.6349-6.9585,7.2842-10.32,10.9407-1.0068,1.0955-1.9873,2.1922-2.9789,3.288q-3.6288,4.015-7.1136,8.0388c-.5864.6772-1.2144,1.3514-1.795,2.03-.4444.5179-.8581,1.0392-1.2981,1.5591-1.628,1.9165-3.2147,3.8347-4.7942,5.7545-1.099,1.3359-2.2091,2.6709-3.2848,4.0073-1.6278,2.0219-3.2021,4.045-4.775,6.0678-.9568,1.23-1.9356,2.4594-2.87,3.69-1.7761,2.3329-3.488,4.6653-5.19,6.9962-.6691.9176-1.3684,1.8345-2.0268,2.75q-3.4944,4.8669-6.7787,9.7214c-.0345.0506-.0727.1032-.107.1552-.4567.6745-.8738,1.3484-1.3236,2.0233-1.6574,2.4867-3.2971,4.9721-4.87,7.451-.7526,1.1869-1.4583,2.3678-2.1909,3.5515-1.2479,2.0169-2.4971,4.034-3.6886,6.0433-.7758,1.31-1.51,2.6116-2.2621,3.9175-1.0829,1.8813-2.1634,3.7609-3.1969,5.6344-.7466,1.3558-1.4589,2.7034-2.179,4.0537-.9687,1.8153-1.9283,3.6279-2.8491,5.4344-.2721.5332-.5734,1.0723-.8418,1.6036-.35.6976-.6489,1.3842-.9928,2.0794q-1.7517,3.5529-3.38,7.0782c-.53,1.1464-1.0646,2.2934-1.5748,3.4367q-1.7961,4.0282-3.422,8.0147c-.2947.72-.6157,1.4475-.9026,2.1652q-2.01,5.0318-3.7519,9.99c-.299.85-.5587,1.6878-.8472,2.5345-.838,2.4714-1.6383,4.93-2.3783,7.371-.1431.4745-.32.9585-.4608,1.4313-.2571.8719-.4674,1.7282-.7127,2.5969-.3752,1.3315-.7463,2.6624-1.0929,3.9839-.3756,1.4412-.7229,2.8711-1.0636,4.3-.3122,1.3134-.6233,2.6252-.9059,3.9271-.3069,1.4167-.58,2.82-.8512,4.2226-.249,1.2884-.4981,2.5768-.7163,3.8521-.2369,1.3919-.4394,2.7675-.64,4.1455-.1834,1.2616-.372,2.5254-.5257,3.7755-.1668,1.3672-.2968,2.7162-.4276,4.0682-.12,1.2323-.2447,2.4642-.3336,3.6822-.0979,1.344-.1537,2.6677-.2145,3.9949-.0539,1.1974-.1166,2.3989-.14,3.5818-.0259,1.3135-.0086,2.6065.0026,3.9032.01,1.1668.0078,2.3369.05,3.489.0461,1.2844.1379,2.5451.2222,3.8111.0751,1.1291.135,2.2661.2408,3.3808.1191,1.2606.2891,2.4966.4475,3.7373.1376,1.0823.2587,2.1726.4267,3.2392.1949,1.2376.443,2.4477.6786,3.6652.2,1.0368.38,2.0837.6107,3.1034C2345.7094,598.8418,2346.037,600.0175,2346.35,601.2023Z"/><g clip-path="url(#s)"><path fill="#fdfefe" d="M2784.3361,196.5615C2322.7976,367.193,2365.75,728.0175,2365.75,728.0175S2210.9325,539.51,2215.6494,529.342,2497.341,11.1412,2497.341,11.1412L2652.7535,78.28"/></g><path fill="none" stroke="#304063" stroke-linejoin="round" stroke-width="2" d="M2346.35,601.2023c.2627.99.5,1.9935.7907,2.9682.3532,1.1812.7667,2.3283,1.1612,3.4851.32.9385.6144,1.892.9623,2.8138.4407,1.1633.9441,2.2894,1.43,3.4264.3715.8715.7132,1.7628,1.1122,2.6176.5524,1.1854,1.1719,2.3274,1.774,3.48.4.7643.7661,1.55,1.1871,2.3017.715,1.2694,1.5019,2.4919,2.2818,3.7209.3757.5942.7152,1.2105,1.1071,1.7939q1.8,2.6874,3.813,5.2343l67.3061,84.9673q-2.0156-2.5444-3.8144-5.2341c-.394-.5885-.7357-1.21-1.1147-1.8077-.7761-1.2228-1.5612-2.4414-2.2728-3.7073-.4241-.7536-.7923-1.5434-1.193-2.3131-.6014-1.1489-1.2192-2.2885-1.7695-3.4688-.3954-.85-.735-1.736-1.1054-2.6008-.4883-1.1435-.994-2.276-1.4374-3.4471-.3468-.9151-.6371-1.8624-.9551-2.7944-.398-1.1618-.8124-2.3142-1.1664-3.5008-.2918-.9744-.53-1.9793-.7907-2.9682-.3142-1.1859-.6418-2.3616-.914-3.5679-.2311-1.0237-.4119-2.0759-.6126-3.1154-.2348-1.2122-.4818-2.4155-.6761-3.6492-.1682-1.0679-.29-2.1609-.4275-3.2445-.1587-1.242-.3291-2.4807-.4471-3.7428-.1052-1.1025-.1647-2.2286-.24-3.3468-.0847-1.2769-.177-2.55-.2237-3.8465-.04-1.1428-.0386-2.3059-.0494-3.4616-.0122-1.3034-.03-2.6046-.0032-3.925.0232-1.183.0864-2.3818.14-3.5778.0607-1.3272.1164-2.6523.2142-3.9963.0883-1.2137.2136-2.4443.3327-3.6711.1311-1.3588.2611-2.7161.4309-4.0906.1514-1.2388.3374-2.4926.52-3.7431.2022-1.3864.4056-2.7731.6452-4.1737.2165-1.2695.4655-2.55.7116-3.8307.2724-1.41.5472-2.8215.8558-4.2453.2827-1.3.5929-2.6095.9056-3.92.34-1.4246.685-2.8514,1.06-4.287.3479-1.33.7207-2.668,1.0986-4.0082q.5643-2,1.17-4.0126c.7387-2.4407,1.5376-4.8991,2.376-7.3679.2892-.8509.5512-1.692.8511-2.5447q1.7432-4.9506,3.7446-9.9749c.2938-.7352.6232-1.4787.926-2.2168,1.0845-2.6458,2.2124-5.3026,3.405-7.975.5093-1.14,1.0411-2.2857,1.57-3.4305q1.63-3.53,3.3848-7.0857c.6042-1.2252,1.2059-2.4486,1.8312-3.6784.9253-1.8127,1.8878-3.6326,2.86-5.4526.716-1.3414,1.424-2.6815,2.1652-4.0282,1.041-1.887,2.1289-3.78,3.22-5.6736.7443-1.2924,1.4712-2.5821,2.2395-3.8783,1.2022-2.0288,2.4622-4.064,3.7223-6.0992.7231-1.1658,1.4166-2.3284,2.1571-3.4969,1.61-2.5382,3.2881-5.0817,4.9856-7.6269.4443-.6658.86-1.33,1.3113-1.9967q3.2872-4.8651,6.7931-9.7428c.64-.8925,1.3226-1.7862,1.9738-2.6777,1.7192-2.3555,3.449-4.7126,5.2431-7.07.9262-1.2156,1.8947-2.4324,2.84-3.6483,1.5831-2.0368,3.1688-4.074,4.8068-6.11,1.0687-1.3285,2.1732-2.6557,3.2654-3.9824,1.5828-1.9258,3.1739-3.85,4.8078-5.7731,1.0143-1.1952,2.0562-2.3893,3.091-3.585q3.4887-4.03,7.1251-8.0529c.9858-1.0894,1.9618-2.18,2.9627-3.269,3.3631-3.6581,6.7859-7.31,10.3261-10.9485q5.8005-5.9576,11.7715-11.7022c1.2695-1.2272,2.561-2.4195,3.8395-3.6331,2.7385-2.5968,5.4909-5.1752,8.2738-7.7078,1.205-1.0979,2.4227-2.1759,3.6366-3.26,5.5155-4.9326,11.089-9.7744,16.75-14.4463.3406-.281.6891-.5468,1.03-.8278q8.2647-6.7874,16.7149-13.1711c.9675-.7359,1.9313-1.4862,2.903-2.2132q8.5008-6.3705,17.1433-12.3291c1.1511-.7963,2.307-1.58,3.4614-2.3641,5.8716-3.9929,11.7694-7.88,17.7014-11.5856.5237-.3276,1.05-.6324,1.5737-.9573q8.56-5.3032,17.1788-10.1816c.9491-.54,1.8981-1.0975,2.8471-1.6291q8.8231-4.9379,17.6629-9.4127c1.1933-.607,2.3858-1.2016,3.58-1.7951,5.9528-2.9648,11.9024-5.81,17.8366-8.458.6552-.2922,1.3078-.558,1.961-.8458q8.5068-3.75,16.954-7.0438c.9485-.37,1.9-.7649,2.8453-1.1275,4.4685-1.7092,8.924-3.345,13.353-4.8617.2887-.0975.5728-.1806.8613-.2795q6.2133-2.1107,12.3566-3.9528c1.42-.4291,2.8262-.8136,4.2388-1.22,2.9808-.8584,5.9522-1.6812,8.9028-2.4445,1.5792-.409,3.152-.7978,4.72-1.1791q4.2746-1.0369,8.5-1.9332c1.5981-.3408,3.2013-.6933,4.7874-1.0061,1.71-.3351,3.4051-.6349,5.1-.9348,1.96-.3484,3.9157-.688,5.857-.99,1.6873-.2617,3.36-.4937,5.0338-.72,1.9109-.26,3.8172-.5053,5.7081-.7183,1.6635-.1866,3.3148-.3467,4.962-.498,1.8647-.17,3.7212-.3231,5.563-.4475q2.44-.1623,4.85-.2681,2.8032-.1251,5.5684-.1785,2.1552-.04,4.2868-.037c1.876.0059,3.7292.05,5.5754.1094,1.3865.046,2.7742.09,4.1435.1665,1.8514.1015,3.6738.2541,5.4931.4127,1.3085.1158,2.6255.2165,3.9166.3611,1.88.2107,3.7221.4821,5.5621.7552,1.1781.1747,2.3715.325,3.533.5256,1.7488.3025,3.45.68,5.1607,1.0417,1.2709.2682,2.5614.5046,3.81.8065,1.757.4246,3.4586.9318,5.1713,1.4222,1.1388.326,2.3043.6123,3.4216.9664,1.87.5943,3.6767,1.2809,5.49,1.9568.901.3375,1.8328.6277,2.7205.9851q4.0056,1.6125,7.811,3.5019c2.023,1.0086,3.8817,2.1486,5.7768,3.2581,1.2042.7061,2.4584,1.3728,3.6127,2.1183,1.6406,1.0592,3.1594,2.2144,4.6974,3.3528,1.0094.7477,2.0771,1.4479,3.0409,2.2275,1.6279,1.3174,3.1192,2.7329,4.6219,4.1426.7454.6976,1.5584,1.3461,2.2733,2.0677a81.9334,81.9334,0,0,1,6.0522,6.806l-67.3048-84.9676a81.73,81.73,0,0,0-6.055-6.8069c-.71-.7181-1.5187-1.3633-2.2608-2.0573-1.5044-1.4121-2.999-2.8313-4.6311-4.1494-.9653-.7807-2.0335-1.4836-3.0442-2.2311-1.5383-1.14-3.0566-2.2922-4.6974-3.3528-1.15-.7434-2.4-1.4081-3.6006-2.1106-1.3626-.7989-2.6568-1.65-4.0851-2.3959q-.8439-.44-1.7008-.8676-3.8-1.8957-7.8111-3.5033c-.8906-.3583-1.8283-.65-2.7335-.9885-1.8086-.6739-3.6094-1.3586-5.4751-1.9509-1.1188-.3552-2.2845-.6428-3.4234-.9688-1.714-.49-3.4169-.9973-5.174-1.4218-1.2445-.3012-2.5292-.5357-3.7946-.8035-1.4566-.3089-2.8843-.6593-4.3685-.9254-.2636-.0475-.5416-.0736-.8064-.12-1.1586-.2-2.3505-.3488-3.5259-.5239-1.8456-.2736-3.69-.5461-5.5732-.7562-1.2842-.1443-2.5932-.2463-3.8944-.3591-1.8266-.1616-3.657-.3129-5.5168-.4159-1.3678-.0749-2.7515-.12-4.1364-.1648-1.8422-.06-3.6939-.103-5.5659-.1095-1.428-.0052-2.8638.01-4.3086.0376-.9288.0162-1.8364-.0066-2.7727.0231-.9171.0294-1.86.1122-2.7834.1549-1.6063.0722-3.2171.1588-4.8421.2682-1.8489.1227-3.7108.2763-5.5835.448-1.6418.15-3.2878.31-4.9471.497-1.8924.2118-3.7985.4586-5.7109.7174-1.6735.2279-3.3479.4588-5.0365.7206-1.9373.3011-3.8891.64-5.8464.988-1.699.3-3.3953.6005-5.1078.9374-.6391.1253-1.2666.22-1.9077.35-.9529.1939-1.931.4534-2.888.6562q-4.2238.9015-8.4943,1.9337c-1.566.38-3.1335.7675-4.7076,1.1743-2.9532.7638-5.9231,1.5876-8.9041,2.4448-1.42.41-2.8332.7955-4.2585,1.2255q-6.108,1.8393-12.2807,3.93c-.3121.1053-.621.1964-.9343.3033-4.43,1.5169-8.8858,3.1527-13.357,4.8623-.3486.1344-.6913.2459-1.04.38-.59.2271-1.1871.5074-1.7768.7373q-8.4535,3.3058-16.9707,7.05c-.6559.2882-1.3058.5536-1.9611.8458-5.9352,2.65-11.8851,5.4934-17.8405,8.4586-1.1927.5933-2.3814,1.1859-3.5733,1.7928q-8.84,4.4905-17.6681,9.4148c-.9479.53-1.8915,1.0869-2.8408,1.6254q-8.6275,4.9009-17.2089,10.2c-.5115.3175-1.0247.6161-1.536.935-5.936,3.7058-11.8363,7.595-17.71,11.59-1.1566.7876-2.3114,1.5694-3.4663,2.3677q-8.632,5.9679-17.1373,12.324c-.9763.7318-1.9413,1.4837-2.9127,2.2215q-8.4263,6.4-16.6978,13.1574c-.3455.2846-.6987.5553-1.044.8411-5.6584,4.6688-11.2257,9.5069-16.7388,14.4363-.6124.5471-1.25,1.053-1.8608,1.6039-.6044.5458-1.1892,1.12-1.7905,1.6681q-4.1615,3.7887-8.2484,7.6861c-1.2873,1.219-2.5857,2.4193-3.8624,3.6531q-5.9556,5.756-11.7666,11.6987c-3.5379,3.6349-6.9585,7.2842-10.32,10.9407-1.0068,1.0955-1.9873,2.1922-2.9789,3.288q-3.6288,4.015-7.1136,8.0388c-.5864.6772-1.2144,1.3514-1.795,2.03-.4444.5179-.8581,1.0392-1.2981,1.5591-1.628,1.9165-3.2147,3.8347-4.7942,5.7545-1.099,1.3359-2.2091,2.6709-3.2848,4.0073-1.6278,2.0219-3.2021,4.045-4.775,6.0678-.9568,1.23-1.9356,2.4594-2.87,3.69-1.7761,2.3329-3.488,4.6653-5.19,6.9962-.6691.9176-1.3684,1.8345-2.0268,2.75q-3.4944,4.8669-6.7787,9.7214c-.0345.0506-.0727.1032-.107.1552-.4567.6745-.8738,1.3484-1.3236,2.0233-1.6574,2.4867-3.2971,4.9721-4.87,7.451-.7526,1.1869-1.4583,2.3678-2.1909,3.5515-1.2479,2.0169-2.4971,4.034-3.6886,6.0433-.7758,1.31-1.51,2.6116-2.2621,3.9175-1.0829,1.8813-2.1634,3.7609-3.1969,5.6344-.7466,1.3558-1.4589,2.7034-2.179,4.0537-.9687,1.8153-1.9283,3.6279-2.8491,5.4344-.2721.5332-.5734,1.0723-.8418,1.6036-.35.6976-.6489,1.3842-.9928,2.0794q-1.7517,3.5529-3.38,7.0782c-.53,1.1464-1.0646,2.2934-1.5748,3.4367q-1.7961,4.0282-3.422,8.0147c-.2947.72-.6157,1.4475-.9026,2.1652q-2.01,5.0318-3.7519,9.99c-.299.85-.5587,1.6878-.8472,2.5345-.838,2.4714-1.6383,4.93-2.3783,7.371-.1431.4745-.32.9585-.4608,1.4313-.2571.8719-.4674,1.7282-.7127,2.5969-.3752,1.3315-.7463,2.6624-1.0929,3.9839-.3756,1.4412-.7229,2.8711-1.0636,4.3-.3122,1.3134-.6233,2.6252-.9059,3.9271-.3069,1.4167-.58,2.82-.8512,4.2226-.249,1.2884-.4981,2.5768-.7163,3.8521-.2369,1.3919-.4394,2.7675-.64,4.1455-.1834,1.2616-.372,2.5254-.5257,3.7755-.1668,1.3672-.2968,2.7162-.4276,4.0682-.12,1.2323-.2447,2.4642-.3336,3.6822-.0979,1.344-.1537,2.6677-.2145,3.9949-.0539,1.1974-.1166,2.3989-.14,3.5818-.0259,1.3135-.0086,2.6065.0026,3.9032.01,1.1668.0078,2.3369.05,3.489.0461,1.2844.1379,2.5451.2222,3.8111.0751,1.1291.135,2.2661.2408,3.3808.1191,1.2606.2891,2.4966.4475,3.7373.1376,1.0823.2587,2.1726.4267,3.2392.1949,1.2376.443,2.4477.6786,3.6652.2,1.0368.38,2.0837.6107,3.1034C2345.7094,598.8418,2346.037,600.0175,2346.35,601.2023Z"/><path fill="none" stroke="#304063" stroke-linejoin="round" stroke-width="2" d="M2575.0367,343.0487a102.7138,102.7138,0,0,0-51.61,54.5951"/><path fill="none" stroke="#304063" stroke-linejoin="round" stroke-width="2" d="M2628.2862,661.0132a62.734,62.734,0,0,0-22.842,9.69"/></g></svg>