<svg xmlns="http://www.w3.org/2000/svg" viewBox="0 0 4000 3000"><defs><clipPath id="a"><rect width="4000" height="3000" fill="none"/></clipPath><clipPath id="b"><rect width="2094.083" height="1523.064" x="1154.193" y="1087.753" fill="#fff" stroke="#304063" stroke-linejoin="round" stroke-width="2" rx="70.491"/></clipPath><clipPath id="c"><rect width="2330.427" height="270.327" x="1053.644" y="1031.709" fill="#5b80e3" stroke="#304063" stroke-linejoin="round" stroke-width="2"/></clipPath><clipPath id="d"><rect width="1857.666" height="1085.916" x="1272.401" y="1408.379" fill="#fff" stroke="#304063" stroke-linejoin="round" stroke-width="2" rx="93.867"/></clipPath><clipPath id="e"><ellipse cx="887.245" cy="1151.315" fill="#e9effd" stroke="#304063" stroke-linejoin="round" stroke-width="2" rx="232.39" ry="441.679" transform="rotate(-29.433 887.245 1151.316)"/></clipPath><clipPath id="f"><path fill="#fff" stroke="#304063" stroke-linejoin="round" stroke-width="2" d="M913.05,1631.1339c1.5178-.1572,3.05-.2741,4.5515-.4757,1.82-.2459,3.604-.5886,5.398-.901,1.4553-.254,2.9268-.4657,4.364-.764,1.8141-.3789,3.588-.8587,5.3739-1.31,1.3686-.3447,2.76-.641,4.11-1.03,1.8726-.5382,3.6968-1.1853,5.5331-1.8041,1.2175-.4112,2.4591-.768,3.6625-1.2134,2.0339-.7579,4.0153-1.6327,6.0048-2.4955.9615-.4152,1.9472-.772,2.8966-1.2134q4.3721-2.0258,8.5868-4.3983l140.6436-79.3562q-4.2117,2.3766-8.5869,4.4c-.9574.4435-1.9512.8023-2.9187,1.2215-1.9794.8587-3.9548,1.7315-5.9826,2.4854-1.2074.45-2.4551.8083-3.6807,1.22-1.83.6188-3.65,1.2638-5.5149,1.8-1.3425.385-2.7253.6793-4.0838,1.024-1.796.4535-3.58.9353-5.4061,1.3163-1.4272.2983-2.8886.5059-4.3338.7579-1.802.3164-3.594.6591-5.4222.905-1.5017.2036-3.0357.3205-4.5515.4757-1.8182.1875-3.6242.3971-5.4626.518-1.56.1028-3.15.125-4.7268.1794-1.8383.0645-3.6665.1492-5.527.1492-1.6106,0-3.2473-.0746-4.874-.123-1.8645-.0544-3.727-.0907-5.6117-.21-1.6468-.1008-3.3179-.2741-4.9808-.4233-1.8988-.1713-3.7936-.3306-5.7125-.5624-1.6912-.2056-3.4025-.4777-5.1058-.73-1.921-.2843-3.84-.56-5.777-.9051-1.7355-.3084-3.4851-.6793-5.2328-1.0361-1.9391-.3971-3.8761-.7861-5.8314-1.2416-1.7657-.4112-3.5476-.8809-5.3255-1.3405-1.9693-.5079-3.9366-1.0139-5.92-1.5823-1.7879-.51-3.59-1.0744-5.388-1.6327-1.9935-.6188-3.987-1.24-5.9926-1.917-1.8182-.6127-3.6444-1.2759-5.4727-1.935-2.0116-.7277-4.0253-1.4594-6.0491-2.2435-1.8484-.7176-3.7028-1.4775-5.5593-2.2415-2.0177-.83-4.0374-1.669-6.0632-2.5539-1.8766-.82-3.7593-1.679-5.644-2.5458q-2.8119-1.294-5.6339-2.6527c-3.4206-1.6528-6.8534-3.3984-10.2922-5.2045-1.1852-.6229-2.3624-1.2034-3.5476-1.8424q-6.8815-3.7128-13.8116-7.8229c-1.0139-.6027-2.0318-1.26-3.0477-1.8766-3.6424-2.2092-7.2908-4.485-10.9473-6.8594-1.56-1.0139-3.1223-2.0621-4.6845-3.1062q-4.8165-3.2172-9.6431-6.6236c-1.663-1.1732-3.3239-2.3423-4.9889-3.5477-2.4531-1.7819-4.9082-3.62-7.3613-5.4726-1.8081-1.3646-3.6162-2.7172-5.4263-4.12-2.5357-1.9693-5.0695-4.0092-7.6032-6.0532-1.73-1.3948-3.459-2.7635-5.1884-4.1946-2.7071-2.2395-5.41-4.5656-8.1132-6.8917-1.5481-1.3344-3.0982-2.6245-4.6462-3.9851-3.3622-2.957-6.7163-6.0168-10.0685-9.1049-.8768-.8083-1.7576-1.5743-2.6345-2.3926q-6.3978-5.9655-12.7634-12.2555c-1.1651-1.1489-2.3221-2.36-3.4831-3.5255-3.0679-3.0759-6.1358-6.168-9.19-9.3548-1.5743-1.6448-3.14-3.3521-4.7107-5.0252-2.6305-2.8018-5.261-5.6077-7.8774-8.49-1.7073-1.8807-3.4045-3.8137-5.1037-5.7286-2.4673-2.7757-4.93-5.5634-7.3815-8.4136-1.5239-1.77-3.04-3.58-4.56-5.38q-5.1219-6.0683-10.1994-12.3522c-1.3747-1.7033-2.7535-3.3924-4.1241-5.1179-4.6039-5.7971-9.1856-11.681-13.7189-17.7341q-7.4229-9.9172-14.4929-20.0361c-1.5118-2.1528-2.9671-4.33-4.4567-6.4926-3.1868-4.6321-6.3434-9.28-9.4254-13.9627-1.3365-2.0278-2.6406-4.07-3.9549-6.1076-5.9805-9.26-11.814-18.5848-17.3773-27.9981-.3346-.5664-.645-1.1409-.98-1.7073q-8.073-13.7361-15.5089-27.6514c-.8587-1.5944-1.74-3.1869-2.5841-4.7853q-7.4046-13.9869-14.17-28.0868c-.905-1.8786-1.79-3.7613-2.6768-5.6419-4.5152-9.5666-8.8691-19.1472-12.9469-28.7359-.3608-.8466-.6873-1.6912-1.0441-2.5378q-5.82-13.8267-11.0017-27.6413c-.5745-1.5218-1.1752-3.0477-1.7376-4.5676q-5.2217-14.129-9.758-28.1754c-.6168-1.8968-1.2154-3.79-1.8121-5.6843-2.9832-9.4476-5.7911-18.863-8.3127-28.21-.2782-1.032-.5181-2.054-.79-3.082q-3.5466-13.3882-6.4361-26.5831c-.3246-1.4815-.6854-2.9731-1-4.4486-1.4795-6.9723-2.8543-13.9084-4.06-20.7779-.0766-.4475-.1331-.8849-.2117-1.3324q-1.6659-9.633-2.953-19.1008c-.3024-2.189-.5422-4.3478-.8123-6.5207-.5725-4.5858-1.0945-9.1493-1.534-13.6685-.2358-2.4189-.4434-4.8236-.641-7.22q-.5351-6.5309-.8748-12.9569c-.131-2.4309-.2781-4.872-.3709-7.2787-.0967-2.5942-.1451-5.1582-.1935-7.7222-.0584-2.9651-.1048-5.9221-.0987-8.8489.006-2.5438.0524-5.0594.1068-7.575.0605-2.8724.1411-5.7347.2661-8.5667.1108-2.4914.258-4.9587.4172-7.4178q.2721-4.1755.6309-8.2906.3265-3.6282.73-7.2.4656-4.1544,1.028-8.2361.4415-3.1809.9393-6.3173c.4435-2.7594.9373-5.4766,1.4534-8.18.389-2.03.776-4.0616,1.2053-6.0592.5786-2.701,1.2256-5.3476,1.8807-7.9882.4737-1.8988.9272-3.8137,1.4392-5.68.7458-2.7172,1.5723-5.3658,2.4007-8.01.53-1.6932,1.028-3.4146,1.5924-5.0776.8506-2.5035,1.8-4.92,2.7293-7.3533.6893-1.8081,1.3364-3.6524,2.07-5.42,1.032-2.4874,2.1729-4.874,3.2916-7.2807.7438-1.6005,1.4352-3.2493,2.2153-4.8115,1.3082-2.6144,2.7373-5.1138,4.1523-7.6254.7055-1.2477,1.3485-2.5519,2.08-3.7754q3.3018-5.5211,6.9643-10.6832c1.9532-2.7434,4.0616-5.2147,6.1338-7.7464,1.3182-1.6085,2.59-3.3,3.9548-4.8256,1.9391-2.1689,3.9911-4.1362,6.0229-6.1358,1.3344-1.3122,2.6124-2.7212,3.983-3.9588,2.3161-2.09,4.745-3.9568,7.1679-5.8415,1.1993-.9353,2.3422-1.9814,3.57-2.8663a122.0578,122.0578,0,0,1,11.4189-7.3291L529.6715,845.8123a121.7441,121.7441,0,0,0-11.4209,7.3332c-1.2216.8788-2.3584,1.9189-3.5517,2.85-2.4269,1.8867-4.8619,3.7572-7.18,5.8536-1.3727,1.24-2.6547,2.6486-3.9891,3.9628-2.0339,2-4.0818,3.9669-6.0229,6.1358-1.3606,1.52-2.6285,3.205-3.9407,4.8095-1.4916,1.82-3.0437,3.5275-4.4729,5.4565q-.8434,1.14-1.671,2.3019-3.6705,5.1522-6.9662,10.6832c-.7338,1.2276-1.3808,2.54-2.0883,3.7936-1.411,2.5055-2.8361,4.9969-4.14,7.6052-.7821,1.5642-1.4755,3.2131-2.2193,4.8135-1.1187,2.4088-2.26,4.7974-3.2916,7.2848-.7317,1.7617-1.3747,3.598-2.0621,5.398-.7921,2.0722-1.6387,4.0919-2.3745,6.2144-.131.377-.2338.78-.3628,1.1591-.5624,1.6589-1.0582,3.3783-1.5884,5.0674-.83,2.6527-1.6589,5.3034-2.4047,8.0266-.51,1.8564-.9635,3.7593-1.4311,5.648-.6612,2.6506-1.3082,5.3093-1.8908,8.0225-.4273,1.9955-.8143,4.0213-1.2013,6.0491-.516,2.697-1.0079,5.4121-1.4513,8.1656-.3387,2.1-.6491,4.2168-.9434,6.3495-.1915,1.3706-.4354,2.701-.6087,4.0858-.1693,1.3566-.2661,2.7635-.4173,4.1322-.266,2.38-.512,4.7711-.7276,7.188-.248,2.7494-.4536,5.525-.635,8.3208-.1592,2.4511-.3064,4.91-.4152,7.3956-.127,2.8341-.2056,5.6964-.2681,8.5708-.0524,2.5156-.1008,5.0332-.1068,7.579-.0061,2.9208.04,5.8717.0987,8.8328.0484,2.57.0968,5.136.1956,7.7343.0362.9695.03,1.9149.0725,2.8885.0645,1.4472.22,2.9469.2963,4.4023q.3477,6.425.8769,12.9488c.1955,2.3927.4031,4.7893.6369,7.2.4394,4.5232.9635,9.0848,1.534,13.67.2741,2.185.514,4.3539.8163,6.551q1.291,9.4153,2.9369,18.9839c.0826.4838.1451.9595.23,1.4453,1.2054,6.8715,2.58,13.8075,4.06,20.7839.1169.5442.2016,1.0743.3185,1.6186.1975.9212.4717,1.8645.6732,2.7857q2.9057,13.2069,6.4422,26.6093c.2721,1.032.512,2.05.79,3.082,2.5236,9.3488,5.3295,18.7641,8.3127,28.2158.5967,1.8927,1.1933,3.7794,1.81,5.6742q4.56,14.05,9.76,28.1835c.56,1.5178,1.161,3.0357,1.7335,4.5575q5.2125,13.8329,11.0218,27.69c.3487.8265.6692,1.6509,1.02,2.4773,4.0777,9.5948,8.4337,19.1794,12.9509,28.75.8909,1.8847,1.7738,3.7653,2.6808,5.65q6.782,14.0868,14.1644,28.0767c.8506,1.6065,1.7335,3.2009,2.5942,4.8014,4.9768,9.2561,10.1168,18.4739,15.4927,27.6232.3386.5745.6551,1.157.9957,1.7315,5.5593,9.4093,11.3887,18.7238,17.3653,27.98.6632,1.028,1.26,2.0843,1.929,3.11.6632,1.0159,1.3727,2.01,2.04,3.0215,3.074,4.6684,6.2205,9.3005,9.3992,13.92,1.4957,2.177,2.9611,4.3661,4.4809,6.5309q7.09,10.0987,14.4889,20.028c4.5293,6.0492,9.107,11.929,13.7088,17.7241,1.3787,1.7355,2.7655,3.4327,4.1483,5.1461q5.0675,6.2709,10.1813,12.3321c.8607,1.02,1.7073,2.1,2.5721,3.1122.6591.774,1.33,1.5037,1.9935,2.2717,2.443,2.84,4.8982,5.62,7.3573,8.3893,1.7113,1.9271,3.4186,3.87,5.136,5.7629,2.5983,2.8644,5.2106,5.65,7.823,8.4337,1.5883,1.6932,3.1707,3.4187,4.7651,5.08,3.0215,3.1546,6.0572,6.2144,9.0928,9.26,1.1953,1.1974,2.3826,2.439,3.5779,3.62q6.3525,6.2709,12.7352,12.2293c.0665.0625.135.131.2036.1935.8869.8285,1.7819,1.5985,2.6708,2.4168,3.2755,3.0155,6.553,6.0048,9.8366,8.8933,1.5722,1.3828,3.1465,2.695,4.7188,4.0475,2.6788,2.304,5.3577,4.61,8.0386,6.8292,1.7476,1.4453,3.4932,2.8281,5.2408,4.2371,2.5176,2.03,5.0332,4.0555,7.5508,6.0108,1.8222,1.413,3.64,2.7736,5.4606,4.1463,2.447,1.8464,4.8921,3.6786,7.3371,5.4525.7216.524,1.4453,1.0925,2.1649,1.6105.9453.6773,1.8867,1.2759,2.83,1.9431q4.8227,3.4016,9.6331,6.6156c1.5642,1.0461,3.1283,2.0983,4.6925,3.1142q5.5119,3.5769,11.0017,6.8937c.9917.6007,1.9875,1.2417,2.9772,1.83q6.9392,4.1241,13.8318,7.837c1.1812.637,2.3543,1.2135,3.5335,1.8343,3.4428,1.8061,6.8755,3.5537,10.2962,5.2086.6652.32,1.3364.6934,2,1.01,1.2235.58,2.4349,1.0884,3.6565,1.6508,1.8725.8607,3.7451,1.7154,5.61,2.5317,2.0338.887,4.0576,1.7295,6.0813,2.562,1.8605.764,3.719,1.5259,5.5694,2.2435,2.0137.78,4.0153,1.5077,6.0169,2.2314,1.8383.6651,3.6766,1.33,5.5028,1.9471,1.9936.6713,3.971,1.2881,5.9524,1.9029,1.8141.5623,3.63,1.1328,5.4344,1.6488,1.9733.5624,3.9286,1.0663,5.8878,1.5722,1.7859.4616,3.57.9313,5.3416,1.3445,1.9553.4556,3.89.8446,5.8294,1.2417,1.75.3568,3.5033.7277,5.2388,1.0361,1.9271.3426,3.8339.6168,5.7448.901,1.7194.256,3.4408.53,5.1461.7357,1.9008.23,3.7774.387,5.66.5563,1.6791.1512,3.3662.3266,5.0312.4294,1.8826.1169,3.7411.1532,5.6036.2076,1.6247.0484,3.2574.123,4.8659.123,1.8666,0,3.7049-.0847,5.5513-.1492,1.5722-.0544,3.1545-.0766,4.7086-.1794C909.4278,1631.529,911.2339,1631.3193,913.05,1631.1339Z"/></clipPath><clipPath id="g"><ellipse cx="2517.783" cy="723.651" fill="#e9effd" stroke="#304063" stroke-linejoin="round" stroke-width="2" rx="448.212" ry="235.828" transform="rotate(-61.084 2517.784 723.65)"/></clipPath><clipPath id="h"><path fill="#fdfefe" stroke="#304063" stroke-linejoin="round" stroke-width="2" d="M2657.0314,404.98c108.3189,7.7194,140.741,156.4172,72.4116,332.0973-68.3551,175.7464-211.5775,311.9247-319.8964,304.2053-108.36-7.7224-140.7823-156.4182-72.4272-332.1646C2405.4488,533.4379,2548.6719,397.2575,2657.0314,404.98Z"/></clipPath><clipPath id="i"><path fill="#fff" stroke="#304063" stroke-linejoin="round" stroke-width="2" d="M2117.0351,1001.4531c.9441,1.2274,1.8608,2.4885,2.8346,3.6784,1.1817,1.4414,2.4277,2.8,3.6529,4.1833.9944,1.1219,1.9608,2.28,2.9839,3.363,1.2934,1.3653,2.6524,2.6422,3.9934,3.9445,1.0266.9987,2.0232,2.0424,3.0785,3.0019,1.4621,1.331,2.9924,2.5623,4.5048,3.8191,1.0036.8327,1.973,1.7153,2.9986,2.5176,1.7378,1.3534,3.5487,2.5992,5.3533,3.8584.8708.6094,1.7038,1.2709,2.5907,1.856q4.0782,2.698,8.3721,5.0756l143.4464,79.236q-4.2959-2.3727-8.3738-5.0745c-.893-.5909-1.7321-1.2583-2.61-1.8709-1.7959-1.2526-3.6017-2.4943-5.3328-3.8445-1.0313-.8037-2.0056-1.69-3.0135-2.53-1.5092-1.2516-3.0357-2.48-4.4917-3.8056-1.0475-.9546-2.0381-1.9924-3.0593-2.9825-1.3481-1.31-2.7143-2.5944-4.0159-3.9691-1.0176-1.074-1.9752-2.2258-2.9625-3.34-1.2329-1.3882-2.4832-2.7537-3.6692-4.202-.9755-1.1889-1.8934-2.4517-2.8347-3.6785-1.13-1.4708-2.2729-2.9193-3.3564-4.4429-.92-1.293-1.7856-2.6551-2.672-3.9877-1.0347-1.5537-2.0814-3.0879-3.0721-4.6951-.8577-1.3913-1.6648-2.8449-2.4893-4.2759-.9458-1.64-1.9063-3.2678-2.8072-4.9592-.79-1.4763-1.53-3.0121-2.2867-4.5281-.8631-1.7315-1.7345-3.4531-2.5562-5.2342-.7229-1.57-1.3992-3.1936-2.0885-4.7992-.7775-1.8107-1.5608-3.6155-2.2946-5.4724-.6577-1.6634-1.269-3.3723-1.8915-5.072-.6895-1.8865-1.385-3.767-2.0327-5.6987-.5851-1.7443-1.1282-3.5336-1.6779-5.3142-.61-1.9717-1.22-3.9405-1.7857-5.9566-.5116-1.8161-.9836-3.6733-1.4588-5.5239-.527-2.0516-1.0523-4.1043-1.5352-6.1975-.4389-1.8969-.8385-3.8277-1.2427-5.758-.4426-2.1253-.8829-4.2544-1.2832-6.42-.3644-1.9788-.6955-3.9855-1.0241-5.996-.3571-2.1852-.7083-4.3765-1.0226-6.5977-.2907-2.0579-.5514-4.1415-.8063-6.2312q-.3795-3.1182-.7087-6.2794c-.3937-3.8351-.7137-7.73-.9848-11.6623-.0931-1.3556-.2185-2.6816-.2976-4.0457q-.4572-7.9218-.5971-16.0969c-.0193-1.1968.0063-2.4261-.0019-3.6321-.0312-4.3229-.0081-8.6865.0959-13.11.0451-1.8876.1187-3.7952.1888-5.7007q.214-5.8739.5866-11.8574c.1279-2.0612.2533-4.1186.408-6.1987.2329-3.068.5136-6.1678.8075-9.2734.216-2.2886.4215-4.5707.6695-6.8814.3509-3.2392.7638-6.5143,1.18-9.7915.284-2.2367.5453-4.46.8606-6.7157.493-3.531,1.063-7.1047,1.633-10.6785.3283-2.0478.6173-4.0738.9683-6.1357.764-4.479,1.6211-9.0059,2.5036-13.546.2314-1.1879.424-2.3567.664-3.55q1.7463-8.7034,3.79-17.5518c.3721-1.6183.8025-3.2629,1.1906-4.8863,1.0235-4.2882,2.0609-8.5849,3.1876-12.92.5826-2.2358,1.2234-4.4979,1.8325-6.7453,1.0195-3.7643,2.0426-7.5308,3.1393-11.3259.7154-2.4763,1.4815-4.9719,2.2308-7.46,1.0839-3.6093,2.18-7.2216,3.3373-10.8568.7173-2.2588,1.4738-4.5321,2.2194-6.8036q2.5146-7.656,5.239-15.3885c.7393-2.0945,1.4643-4.1851,2.2249-6.2879,2.5563-7.0641,5.1992-14.1552,8.0141-21.2947q4.6141-11.6933,9.59-23.1892c1.0546-2.4523,2.16-4.8687,3.2353-7.3073,2.3044-5.22,4.6388-10.4216,7.0425-15.5775,1.04-2.2343,2.11-4.4482,3.17-6.6687,4.8146-10.0975,9.7633-20.1022,14.9324-29.9208.3111-.5907.642-1.1647.9531-1.7554q7.5669-14.2884,15.6279-28.122c.92-1.5908,1.8266-3.2,2.7577-4.78q8.1395-13.8449,16.7167-27.1977c1.1409-1.7822,2.296-3.5492,3.4483-5.3168,5.86-8.9948,11.8173-17.8577,17.929-26.4864.5391-.7625,1.0948-1.4943,1.6362-2.2534q8.8447-12.3908,18.0193-24.2231c1.0087-1.3067,2.0069-2.6382,3.02-3.9333q9.4246-12.0346,19.143-23.4333c1.31-1.5429,2.6263-3.068,3.9453-4.5924,6.5727-7.608,13.2109-15.0474,19.9422-22.203.7434-.79,1.4985-1.5413,2.2417-2.3238q9.6768-10.1932,19.5363-19.7157c1.107-1.0693,2.2034-2.1753,3.3106-3.2327,5.2351-4.9909,10.4947-9.872,15.787-14.5714.3458-.3044.6936-.5861,1.0383-.8923q7.4343-6.569,14.9276-12.7224c1.73-1.4269,3.4672-2.7837,5.2-4.1742,3.6565-2.9365,7.3207-5.8176,10.9906-8.6037,1.9639-1.4918,3.9307-2.9517,5.8958-4.3986q5.3568-3.94,10.727-7.6555c2.03-1.4077,4.0605-2.8347,6.09-4.1964,2.1894-1.4651,4.3785-2.8722,6.5677-4.2793,2.53-1.63,5.06-3.2442,7.5915-4.7976,2.2007-1.3494,4.3984-2.6489,6.6005-3.9415,2.5135-1.4773,5.029-2.9319,7.542-4.332,2.2113-1.231,4.4209-2.4177,6.63-3.59q3.7518-1.9884,7.4977-3.87,3.3081-1.65,6.6083-3.2039,3.8367-1.81,7.6623-3.4978,2.9827-1.3125,5.9572-2.5526c2.62-1.0864,5.23-2.1067,7.84-3.1,1.9606-.7448,3.9219-1.4925,5.8761-2.1853,2.6413-.9386,5.2722-1.789,7.9021-2.6293,1.8925-.6019,3.7882-1.23,5.6732-1.7815,2.7444-.8027,5.4725-1.4992,8.1982-2.1918,1.7449-.4437,3.4971-.93,5.2342-1.3283,2.6156-.5984,5.2089-1.0652,7.8055-1.5581,1.929-.3673,3.8668-.7905,5.7846-1.0981,2.6983-.433,5.3674-.7184,8.0422-1.0336,1.7787-.21,3.5712-.49,5.3361-.6485,2.955-.2622,5.8752-.3586,8.7983-.4737,1.4536-.055,2.9226-.194,4.3691-.2135,4.3517-.0585,8.6671.0423,12.9373.3271,3.41.2264,6.6675.7317,9.958,1.1736,2.0915.2822,4.23.48,6.2745.8466,2.9062.52,5.6984,1.2451,8.5077,1.9355,1.8441.4539,3.7418.8076,5.5408,1.3326,3.0391.8876,5.9449,1.9918,8.8632,3.0812,1.4466.538,2.9589.9682,4.377,1.5574a123.85,123.85,0,0,1,12.412,5.9614l-143.4446-79.2372a123.5262,123.5262,0,0,0-12.4165-5.9609c-1.41-.5872-2.9136-1.0154-4.3535-1.55-2.9222-1.0918-5.8347-2.1992-8.88-3.0853-1.8019-.5256-3.7017-.8828-5.5476-1.3356-2.81-.6922-5.6-1.4136-8.5077-1.9355-2.0374-.366-4.1683-.5639-6.2531-.843-2.3666-.3193-4.668-.7509-7.0954-.9582q-1.4338-.1218-2.8784-.2177c-4.27-.2848-8.5855-.3856-12.9383-.3288-1.4511.02-2.9292.16-4.389.2162-2.9158.1153-5.8269.211-8.7745.4733-1.7677.1574-3.5613.4364-5.34.6462-2.6765.3163-5.3474.6027-8.0457,1.0357-1.9115.3061-3.84.7285-5.7612,1.0933-2.2118.4191-4.4074.7633-6.6327,1.258-.3954.0876-.7984.2135-1.1945.3038-1.7325.3976-3.4818.8849-5.2233,1.3264-2.7337.6952-5.4647,1.3911-8.2143,2.1969-1.8752.5481-3.76,1.17-5.6411,1.7714-2.6418.84-5.2831,1.6972-7.937,2.6388-1.9514.6935-3.9075,1.4379-5.8653,2.1835-2.6045.99-5.2119,2.0114-7.8266,3.0946q-2.992,1.2388-5.9873,2.5662c-1.2861.5645-2.5652,1.0623-3.8537,1.65-1.2621.5762-2.529,1.2418-3.7918,1.84-2.1981,1.0378-4.3942,2.0984-6.5968,3.1991-2.5071,1.25-5.0143,2.55-7.526,3.8824-2.2022,1.1677-4.4049,2.35-6.61,3.58-2.5158,1.3995-5.03,2.8558-7.5466,4.3325-2.201,1.2943-4.4016,2.5932-6.604,3.9437-2.5263,1.55-5.0508,3.1616-7.5776,4.7889-2.1943,1.41-4.3852,2.8186-6.5771,4.2875-.8182.5476-1.6381,1.0458-2.4566,1.6008-1.2158.8265-2.4287,1.7591-3.6451,2.6q-5.3651,3.7218-10.7189,7.6529c-1.9627,1.443-3.9225,2.8986-5.8806,4.3844-3.6733,2.7883-7.3347,5.67-10.9923,8.6048-1.7415,1.4-3.4874,2.7626-5.2244,4.1938q-7.4459,6.129-14.8352,12.6462c-.3739.329-.7515.6363-1.1261.9681-5.2941,4.7-10.5537,9.5816-15.7923,14.5746-.4079.3909-.8207.7463-1.2286,1.1371-.6906.6612-1.36,1.4-2.0479,2.065q-9.8614,9.5428-19.5558,19.7349c-.7466.7847-1.4982,1.5339-2.2416,2.3238-6.732,7.1584-13.3713,14.5961-19.9474,22.2063-1.3173,1.5233-2.6294,3.0434-3.9378,4.5852q-9.7094,11.4208-19.1488,23.4393c-1.0128,1.2924-2.0041,2.62-3.0139,3.9245q-9.1735,11.869-18.05,24.2663c-.5283.7414-1.07,1.4572-1.5969,2.2-6.1169,8.6319-12.077,17.4987-17.939,26.4974-1.1536,1.7732-2.3081,3.5374-3.4531,5.3246q-8.5573,13.36-16.7113,27.187c-.9348,1.59-1.842,3.2021-2.7662,4.7979q-8.0184,13.8422-15.6121,28.093c-.3159.5985-.6506,1.182-.9654,1.7822-5.1678,9.813-10.11,19.8089-14.9232,29.9007-.5349,1.12-1.13,2.1982-1.6595,3.3226-.5244,1.1139-1.005,2.256-1.5239,3.3712-2.3958,5.1414-4.7216,10.3261-7.02,15.5323-1.0841,2.4513-2.1948,4.8829-3.2556,7.3486q-4.948,11.5026-9.5855,23.1814c-2.8136,7.1338-5.4552,14.2193-8.0108,21.2806-.765,2.1152-1.4926,4.217-2.2364,6.3239q-2.7184,7.7167-5.2313,15.3621c-.4227,1.2866-.9052,2.5933-1.3188,3.8791-.3177.9816-.5906,1.95-.9008,2.9319-1.1525,3.6228-2.2463,7.2238-3.3293,10.823-.7533,2.5045-1.5227,5.0141-2.2432,7.5055-1.0907,3.77-2.106,7.51-3.12,11.2489-.6168,2.2738-1.2647,4.5595-1.8505,6.8213-1.116,4.29-2.1427,8.5417-3.1572,12.786-.3978,1.67-.8382,3.3569-1.222,5.0185q-2.0343,8.8269-3.7826,17.5135c-.0185.0908-.0412.1865-.0587.279-.2434,1.2073-.4319,2.39-.6655,3.5941-.8607,4.4353-1.6976,8.8585-2.4443,13.2331-.3573,2.0946-.6525,4.1533-.9836,6.2317-.5637,3.541-1.1292,7.0831-1.6187,10.5808-.3179,2.2793-.5828,4.5235-.8693,6.7835-.4128,3.2557-.8232,6.5076-1.1715,9.7236-.25,2.3266-.4574,4.6217-.674,6.925-.2919,3.0972-.5726,6.185-.8029,9.2417-.0685.9025-.1742,1.83-.2385,2.7278-.0816,1.1773-.0975,2.3093-.1715,3.4795q-.37,5.9772-.5851,11.8443c-.0707,1.9083-.1467,3.82-.1913,5.712q-.1548,6.6663-.0966,13.1748c.0093,1.1766-.0142,2.3781.0044,3.5465q.1325,8.19.5956,16.1218c.0788,1.36.2055,2.68.2971,4.0292.2732,3.9359.5915,7.8319.9835,11.668.0773.7453.1126,1.5237.1924,2.2651.15,1.3661.3564,2.6831.5211,4.0378.2536,2.0759.5125,4.1487.8,6.1941.3169,2.2292.6667,4.4261,1.0253,6.6176.3308,2.014.6623,4.0252,1.0277,6.0058.3985,2.1549.8358,4.2715,1.2765,6.3859.4044,1.9422.8087,3.8845,1.2483,5.7905.4818,2.08,1.002,4.1162,1.526,6.1552.48,1.8666.9546,3.7393,1.47,5.5725.5651,2.0041,1.171,3.9615,1.7772,5.9234.5523,1.7886,1.0966,3.58,1.6831,5.33.6477,1.9316,1.3421,3.81,2.0316,5.6969.6235,1.7014,1.237,3.4138,1.8948,5.0773.73,1.8471,1.5088,3.64,2.2808,5.4424.6945,1.6216,1.3743,3.2546,2.1048,4.8372.8137,1.7644,1.6772,3.4692,2.5335,5.1857.7636,1.531,1.5105,3.0818,2.3083,4.5748.9016,1.6886,1.86,3.3134,2.8047,4.9513.8234,1.4292,1.6284,2.8793,2.4849,4.2688.994,1.6124,2.0461,3.1554,3.085,4.716.8843,1.3292,1.746,2.6843,2.6624,3.9721C2114.7649,998.5344,2115.9078,999.983,2117.0351,1001.4531Z"/></clipPath><clipPath id="j"><path fill="#5b80e3" stroke="#304063" stroke-linejoin="round" stroke-width="2" d="M1528.0808,2108.371l170.8662-88.1961c118.1,77.6837,190.1692,681.5652,190.1692,681.5652l-274.4946-143.51Z"/></clipPath><clipPath id="k"><path fill="#5b80e3" stroke="#304063" stroke-linejoin="round" stroke-width="2" d="M1700.0323,2259.9685c-6.35,116.8186-19.26,271.6929-45.14,451.6228l-596.4043-38.2835-239.5858-455.26.93-211.9172s411.7513-373.6434,885.7765,19.5187"/></clipPath><clipPath id="l"><polyline fill="#fff" stroke="#304063" stroke-linejoin="round" stroke-width="2" points="1213.316 1851.639 1263.011 1661.545 1404.885 1707.602 1404.885 1867.714 1409.508 1929.081 1390.953 1966.573 1351.985 1960.664 1270.413 1953.491"/></clipPath><clipPath id="m"><path fill="#5b80e3" stroke="#304063" stroke-linejoin="round" stroke-width="2" d="M831.9549,1995.9725c-107.242,81.4523-254.8467,512.9963-156.7151,715.6188l315.6125-136.6308s-26.2238,67.6716-25.81,57.0515c1.9567-50.192,32.836-307.8087,11.1032-425.019"/></clipPath><clipPath id="n"><path fill="#fff" stroke="#304063" stroke-linejoin="round" stroke-width="2" d="M1275.2674,2535.3035s201.6931-22.6169,223.0707-19.8285,103.1884-14.8816,108.4257-17.297c46.2093-21.3115-11.3574,52.9894-82.4008,51.6871,0,0,65.7406,41.4089,66.257,53.4919s-7.8488,12.083-7.8488,12.083,5.5768,13.0125-4.3375,20.4482c-34.08-17.97-78.8563-32.4242-83.8135-26.2278s-100.3042,42.3384-180.2379,26.2278S1275.2674,2535.3035,1275.2674,2535.3035Z"/></clipPath><clipPath id="o"><path fill="#e9effd" stroke="#304063" stroke-linejoin="round" stroke-width="2" d="M2241.83,2711.2986H1551.7719l122.0119-532.925a27.4163,27.4163,0,0,1,26.7248-21.2978H2337.501a24.8778,24.8778,0,0,1,24.25,30.43Z"/></clipPath><clipPath id="p"><path fill="#5b80e3" stroke="#304063" stroke-linejoin="round" stroke-width="2" d="M916.9505,2518.027c190.71-17.8431,417.8024,8.6015,417.8024,8.6015,27.8838,66.9212,22.3071,163.5852,22.3071,163.5852s-619.0366,151.0357-681.82,21.3776c-6.6019-13.634-16.3667-39.7914-18.6889-51.6935"/></clipPath><clipPath id="q"><rect width="1239.515" height="826.343" x="2232.477" y="1248.514" fill="#dbdbf2" stroke="#304063" stroke-linejoin="round" stroke-width="2" rx="94.98"/></clipPath><clipPath id="r"><rect width="1239.515" height="826.343" x="2232.477" y="1261.156" fill="#fff" stroke="#304063" stroke-linejoin="round" stroke-width="2" rx="94.98"/></clipPath><clipPath id="s"><rect width="272.291" height="183.134" x="3094.752" y="1414.243" fill="#0b1753" stroke="#304063" stroke-linejoin="round" stroke-width="2" rx="50.325"/></clipPath><clipPath id="t"><polygon fill="#fff" stroke="#304063" stroke-linejoin="round" stroke-width="2" points="3331.491 2685.561 2442.822 2685.561 2511.433 2088.78 3262.88 2088.78 3331.491 2685.561"/></clipPath><clipPath id="u"><polygon fill="#fff" stroke="#304063" stroke-linejoin="round" stroke-width="2" points="3550.173 2685.561 2793.767 2685.561 2852.167 2177.601 3491.773 2177.601 3550.173 2685.561"/></clipPath></defs><g clip-path="url(#a)"><rect width="2094.083" height="1523.064" x="1154.193" y="1087.753" fill="#fff" rx="70.491"/><g clip-path="url(#b)"><rect width="2330.427" height="270.327" x="1053.644" y="1031.709" fill="#5b80e3"/><g clip-path="url(#c)"><path fill="#5b83e4" d="M963.2312,1315.0154c2210.4214,19.78,2442.8371-127.3927,2329.1017-396.4879s158.2405,269.3612,158.2405,269.3612l-49.45,255.6971-647.7968,19.78-1435.7725-29.67"/></g><rect width="2330.427" height="270.327" x="1053.644" y="1031.709" fill="none" stroke="#304063" stroke-linejoin="round" stroke-width="2"/></g><rect width="2094.083" height="1523.064" x="1154.193" y="1087.753" fill="none" stroke="#304063" stroke-linejoin="round" stroke-width="2" rx="70.491"/><circle cx="1279.23" cy="1187.889" r="38.324" fill="#fff" stroke="#304063" stroke-linejoin="round" stroke-width="2"/><circle cx="1395.187" cy="1187.889" r="38.324" fill="#e9effd" stroke="#304063" stroke-linejoin="round" stroke-width="2"/><circle cx="1511.144" cy="1187.889" r="38.324" fill="#9598ed" stroke="#304063" stroke-linejoin="round" stroke-width="2"/><rect width="1857.666" height="1085.916" x="1272.401" y="1408.379" fill="#fff" rx="93.867"/><g clip-path="url(#d)"><path fill="#dbdbf2" d="M1240.9062,2275.4949c35.6575,273.4706,1019.17,250.3,1019.17,250.3l-778.4518,137.5386L1172.2957,2514.21"/></g><rect width="1857.666" height="1085.916" x="1272.401" y="1408.379" fill="none" stroke="#304063" stroke-linejoin="round" stroke-width="2" rx="93.867"/><rect width="230.012" height="28.042" x="1482.255" y="1582.064" fill="#fff" stroke="#304063" stroke-linejoin="round" stroke-width="2" rx="14.021"/><rect width="102.635" height="28.042" x="1732.428" y="1582.064" fill="#fff" stroke="#304063" stroke-linejoin="round" stroke-width="2" rx="14.021"/><path fill="none" stroke="#304063" stroke-linejoin="round" stroke-width="2" d="M1455.0417,1764.1235c58.9841-61.0906,61.0907,78.9965,149.5667,67.41s58.9841-93.7426,139.0339-90.5827,46.3446,100.3787,132.7141,91.2675,53.7177-207.129,130.6076-206.0758,49.5045,213.2318,117.9681,206.6782,36.865-82.39,142.1937-86.6035"/><circle cx="1481.625" cy="1748.659" r="16.033" fill="#e9effd" stroke="#304063" stroke-linejoin="round" stroke-width="2"/><circle cx="1738.376" cy="1743.848" r="16.033" fill="#e9effd" stroke="#304063" stroke-linejoin="round" stroke-width="2"/><circle cx="1867.607" cy="1829.691" r="16.033" fill="#fff" stroke="#304063" stroke-linejoin="round" stroke-width="2"/><circle cx="2007.694" cy="1626.139" r="16.033" fill="#e9effd" stroke="#304063" stroke-linejoin="round" stroke-width="2"/><circle cx="2131.981" cy="1832.821" r="16.033" fill="#e9effd" stroke="#304063" stroke-linejoin="round" stroke-width="2"/><circle cx="2244.043" cy="1746.218" r="16.033" fill="#e9effd" stroke="#304063" stroke-linejoin="round" stroke-width="2"/><circle cx="1600.922" cy="1829.691" r="16.033" fill="#e9effd" stroke="#304063" stroke-linejoin="round" stroke-width="2"/><rect width="635.976" height="53.722" x="2402.643" y="1668.007" fill="#fff" rx="26.861"/><rect width="386.665" height="53.722" x="2402.643" y="1777.777" fill="#fff" rx="26.861"/><rect width="635.976" height="53.722" x="1472.439" y="2123.309" fill="#fff" rx="26.861"/><rect width="386.665" height="53.722" x="1472.439" y="2233.079" fill="#fff" rx="26.861"/><rect width="43.73" height="313.927" x="2224.369" y="2024.445" fill="#fff" rx="21.865"/><rect width="43.73" height="208.634" x="2224.369" y="2129.738" fill="#9598ed" rx="21.865"/><rect width="43.73" height="313.927" x="2424.221" y="2024.445" fill="#fff" rx="21.865"/><rect width="43.73" height="256.319" x="2424.221" y="2082.053" fill="#9598ed" rx="21.865"/><rect width="43.73" height="313.927" x="2324.295" y="2024.445" fill="#fff" rx="21.865"/><rect width="43.73" height="158.599" x="2324.295" y="2179.773" fill="#9598ed" rx="21.865"/><rect width="43.73" height="313.927" x="2524.148" y="2024.445" fill="#fff" rx="21.865"/><rect width="43.73" height="178.831" x="2524.148" y="2159.541" fill="#9598ed" rx="21.865"/><rect width="43.73" height="313.927" x="2624.074" y="2024.445" fill="#fff" rx="21.865"/><rect width="43.73" height="104.317" x="2624.074" y="2234.055" fill="#9598ed" rx="21.865"/><rect width="43.73" height="313.927" x="2823.926" y="2024.445" fill="#fff" rx="21.865"/><rect width="43.73" height="178.831" x="2823.926" y="2159.541" fill="#9598ed" rx="21.865"/><rect width="43.73" height="313.927" x="2724" y="2024.445" fill="#fff" rx="21.865"/><rect width="43.73" height="129.094" x="2724" y="2209.278" fill="#9598ed" rx="21.865"/><rect width="43.73" height="313.927" x="2923.853" y="2024.445" fill="#fff" rx="21.865"/><rect width="43.73" height="84.91" x="2923.853" y="2253.462" fill="#9598ed" rx="21.865"/><path fill="none" stroke="#304063" stroke-linejoin="round" stroke-width="2" d="M2815.093,1158.7421a190.9718,190.9718,0,0,1,74.2831,32.2364"/><path fill="none" stroke="#304063" stroke-linejoin="round" stroke-width="2" d="M1744.44,2020.8444a122.6238,122.6238,0,0,0,55.8538,31.9852"/><ellipse cx="887.245" cy="1151.315" fill="#e9effd" rx="232.39" ry="441.679" transform="rotate(-29.433 887.245 1151.316)"/><g clip-path="url(#e)"><path fill="#e9effd" d="M543.6,1058.458c54.5346-398.3469,345.6209-273.2252,525.0464-123.7744s-234.171-316.28-234.171-316.28L563.3783,628.8307"/></g><ellipse cx="887.245" cy="1151.315" fill="none" stroke="#304063" stroke-linejoin="round" stroke-width="2" rx="232.39" ry="441.679" transform="rotate(-29.433 887.245 1151.316)"/><path fill="#fff" stroke="#304063" stroke-linejoin="round" stroke-width="2" d="M691.9349,869.7211c62.4876-86.8712,203.9878-37.1761,316.023,110.9866,112.0776,148.2187,152.2494,338.7787,89.7618,425.65-62.511,86.9037-204.01,37.21-316.0875-111.0084C669.597,1147.1864,629.4239,956.6248,691.9349,869.7211Z"/><path fill="#fff" d="M913.05,1631.1339c1.5178-.1572,3.05-.2741,4.5515-.4757,1.82-.2459,3.604-.5886,5.398-.901,1.4553-.254,2.9268-.4657,4.364-.764,1.8141-.3789,3.588-.8587,5.3739-1.31,1.3686-.3447,2.76-.641,4.11-1.03,1.8726-.5382,3.6968-1.1853,5.5331-1.8041,1.2175-.4112,2.4591-.768,3.6625-1.2134,2.0339-.7579,4.0153-1.6327,6.0048-2.4955.9615-.4152,1.9472-.772,2.8966-1.2134q4.3721-2.0258,8.5868-4.3983l140.6436-79.3562q-4.2117,2.3766-8.5869,4.4c-.9574.4435-1.9512.8023-2.9187,1.2215-1.9794.8587-3.9548,1.7315-5.9826,2.4854-1.2074.45-2.4551.8083-3.6807,1.22-1.83.6188-3.65,1.2638-5.5149,1.8-1.3425.385-2.7253.6793-4.0838,1.024-1.796.4535-3.58.9353-5.4061,1.3163-1.4272.2983-2.8886.5059-4.3338.7579-1.802.3164-3.594.6591-5.4222.905-1.5017.2036-3.0357.3205-4.5515.4757-1.8182.1875-3.6242.3971-5.4626.518-1.56.1028-3.15.125-4.7268.1794-1.8383.0645-3.6665.1492-5.527.1492-1.6106,0-3.2473-.0746-4.874-.123-1.8645-.0544-3.727-.0907-5.6117-.21-1.6468-.1008-3.3179-.2741-4.9808-.4233-1.8988-.1713-3.7936-.3306-5.7125-.5624-1.6912-.2056-3.4025-.4777-5.1058-.73-1.921-.2843-3.84-.56-5.777-.9051-1.7355-.3084-3.4851-.6793-5.2328-1.0361-1.9391-.3971-3.8761-.7861-5.8314-1.2416-1.7657-.4112-3.5476-.8809-5.3255-1.3405-1.9693-.5079-3.9366-1.0139-5.92-1.5823-1.7879-.51-3.59-1.0744-5.388-1.6327-1.9935-.6188-3.987-1.24-5.9926-1.917-1.8182-.6127-3.6444-1.2759-5.4727-1.935-2.0116-.7277-4.0253-1.4594-6.0491-2.2435-1.8484-.7176-3.7028-1.4775-5.5593-2.2415-2.0177-.83-4.0374-1.669-6.0632-2.5539-1.8766-.82-3.7593-1.679-5.644-2.5458q-2.8119-1.294-5.6339-2.6527c-3.4206-1.6528-6.8534-3.3984-10.2922-5.2045-1.1852-.6229-2.3624-1.2034-3.5476-1.8424q-6.8815-3.7128-13.8116-7.8229c-1.0139-.6027-2.0318-1.26-3.0477-1.8766-3.6424-2.2092-7.2908-4.485-10.9473-6.8594-1.56-1.0139-3.1223-2.0621-4.6845-3.1062q-4.8165-3.2172-9.6431-6.6236c-1.663-1.1732-3.3239-2.3423-4.9889-3.5477-2.4531-1.7819-4.9082-3.62-7.3613-5.4726-1.8081-1.3646-3.6162-2.7172-5.4263-4.12-2.5357-1.9693-5.0695-4.0092-7.6032-6.0532-1.73-1.3948-3.459-2.7635-5.1884-4.1946-2.7071-2.2395-5.41-4.5656-8.1132-6.8917-1.5481-1.3344-3.0982-2.6245-4.6462-3.9851-3.3622-2.957-6.7163-6.0168-10.0685-9.1049-.8768-.8083-1.7576-1.5743-2.6345-2.3926q-6.3978-5.9655-12.7634-12.2555c-1.1651-1.1489-2.3221-2.36-3.4831-3.5255-3.0679-3.0759-6.1358-6.168-9.19-9.3548-1.5743-1.6448-3.14-3.3521-4.7107-5.0252-2.6305-2.8018-5.261-5.6077-7.8774-8.49-1.7073-1.8807-3.4045-3.8137-5.1037-5.7286-2.4673-2.7757-4.93-5.5634-7.3815-8.4136-1.5239-1.77-3.04-3.58-4.56-5.38q-5.1219-6.0683-10.1994-12.3522c-1.3747-1.7033-2.7535-3.3924-4.1241-5.1179-4.6039-5.7971-9.1856-11.681-13.7189-17.7341q-7.4229-9.9172-14.4929-20.0361c-1.5118-2.1528-2.9671-4.33-4.4567-6.4926-3.1868-4.6321-6.3434-9.28-9.4254-13.9627-1.3365-2.0278-2.6406-4.07-3.9549-6.1076-5.9805-9.26-11.814-18.5848-17.3773-27.9981-.3346-.5664-.645-1.1409-.98-1.7073q-8.073-13.7361-15.5089-27.6514c-.8587-1.5944-1.74-3.1869-2.5841-4.7853q-7.4046-13.9869-14.17-28.0868c-.905-1.8786-1.79-3.7613-2.6768-5.6419-4.5152-9.5666-8.8691-19.1472-12.9469-28.7359-.3608-.8466-.6873-1.6912-1.0441-2.5378q-5.82-13.8267-11.0017-27.6413c-.5745-1.5218-1.1752-3.0477-1.7376-4.5676q-5.2217-14.129-9.758-28.1754c-.6168-1.8968-1.2154-3.79-1.8121-5.6843-2.9832-9.4476-5.7911-18.863-8.3127-28.21-.2782-1.032-.5181-2.054-.79-3.082q-3.5466-13.3882-6.4361-26.5831c-.3246-1.4815-.6854-2.9731-1-4.4486-1.4795-6.9723-2.8543-13.9084-4.06-20.7779-.0766-.4475-.1331-.8849-.2117-1.3324q-1.6659-9.633-2.953-19.1008c-.3024-2.189-.5422-4.3478-.8123-6.5207-.5725-4.5858-1.0945-9.1493-1.534-13.6685-.2358-2.4189-.4434-4.8236-.641-7.22q-.5351-6.5309-.8748-12.9569c-.131-2.4309-.2781-4.872-.3709-7.2787-.0967-2.5942-.1451-5.1582-.1935-7.7222-.0584-2.9651-.1048-5.9221-.0987-8.8489.006-2.5438.0524-5.0594.1068-7.575.0605-2.8724.1411-5.7347.2661-8.5667.1108-2.4914.258-4.9587.4172-7.4178q.2721-4.1755.6309-8.2906.3265-3.6282.73-7.2.4656-4.1544,1.028-8.2361.4415-3.1809.9393-6.3173c.4435-2.7594.9373-5.4766,1.4534-8.18.389-2.03.776-4.0616,1.2053-6.0592.5786-2.701,1.2256-5.3476,1.8807-7.9882.4737-1.8988.9272-3.8137,1.4392-5.68.7458-2.7172,1.5723-5.3658,2.4007-8.01.53-1.6932,1.028-3.4146,1.5924-5.0776.8506-2.5035,1.8-4.92,2.7293-7.3533.6893-1.8081,1.3364-3.6524,2.07-5.42,1.032-2.4874,2.1729-4.874,3.2916-7.2807.7438-1.6005,1.4352-3.2493,2.2153-4.8115,1.3082-2.6144,2.7373-5.1138,4.1523-7.6254.7055-1.2477,1.3485-2.5519,2.08-3.7754q3.3018-5.5211,6.9643-10.6832c1.9532-2.7434,4.0616-5.2147,6.1338-7.7464,1.3182-1.6085,2.59-3.3,3.9548-4.8256,1.9391-2.1689,3.9911-4.1362,6.0229-6.1358,1.3344-1.3122,2.6124-2.7212,3.983-3.9588,2.3161-2.09,4.745-3.9568,7.1679-5.8415,1.1993-.9353,2.3422-1.9814,3.57-2.8663a122.0578,122.0578,0,0,1,11.4189-7.3291L529.6715,845.8123a121.7441,121.7441,0,0,0-11.4209,7.3332c-1.2216.8788-2.3584,1.9189-3.5517,2.85-2.4269,1.8867-4.8619,3.7572-7.18,5.8536-1.3727,1.24-2.6547,2.6486-3.9891,3.9628-2.0339,2-4.0818,3.9669-6.0229,6.1358-1.3606,1.52-2.6285,3.205-3.9407,4.8095-1.4916,1.82-3.0437,3.5275-4.4729,5.4565q-.8434,1.14-1.671,2.3019-3.6705,5.1522-6.9662,10.6832c-.7338,1.2276-1.3808,2.54-2.0883,3.7936-1.411,2.5055-2.8361,4.9969-4.14,7.6052-.7821,1.5642-1.4755,3.2131-2.2193,4.8135-1.1187,2.4088-2.26,4.7974-3.2916,7.2848-.7317,1.7617-1.3747,3.598-2.0621,5.398-.7921,2.0722-1.6387,4.0919-2.3745,6.2144-.131.377-.2338.78-.3628,1.1591-.5624,1.6589-1.0582,3.3783-1.5884,5.0674-.83,2.6527-1.6589,5.3034-2.4047,8.0266-.51,1.8564-.9635,3.7593-1.4311,5.648-.6612,2.6506-1.3082,5.3093-1.8908,8.0225-.4273,1.9955-.8143,4.0213-1.2013,6.0491-.516,2.697-1.0079,5.4121-1.4513,8.1656-.3387,2.1-.6491,4.2168-.9434,6.3495-.1915,1.3706-.4354,2.701-.6087,4.0858-.1693,1.3566-.2661,2.7635-.4173,4.1322-.266,2.38-.512,4.7711-.7276,7.188-.248,2.7494-.4536,5.525-.635,8.3208-.1592,2.4511-.3064,4.91-.4152,7.3956-.127,2.8341-.2056,5.6964-.2681,8.5708-.0524,2.5156-.1008,5.0332-.1068,7.579-.0061,2.9208.04,5.8717.0987,8.8328.0484,2.57.0968,5.136.1956,7.7343.0362.9695.03,1.9149.0725,2.8885.0645,1.4472.22,2.9469.2963,4.4023q.3477,6.425.8769,12.9488c.1955,2.3927.4031,4.7893.6369,7.2.4394,4.5232.9635,9.0848,1.534,13.67.2741,2.185.514,4.3539.8163,6.551q1.291,9.4153,2.9369,18.9839c.0826.4838.1451.9595.23,1.4453,1.2054,6.8715,2.58,13.8075,4.06,20.7839.1169.5442.2016,1.0743.3185,1.6186.1975.9212.4717,1.8645.6732,2.7857q2.9057,13.2069,6.4422,26.6093c.2721,1.032.512,2.05.79,3.082,2.5236,9.3488,5.3295,18.7641,8.3127,28.2158.5967,1.8927,1.1933,3.7794,1.81,5.6742q4.56,14.05,9.76,28.1835c.56,1.5178,1.161,3.0357,1.7335,4.5575q5.2125,13.8329,11.0218,27.69c.3487.8265.6692,1.6509,1.02,2.4773,4.0777,9.5948,8.4337,19.1794,12.9509,28.75.8909,1.8847,1.7738,3.7653,2.6808,5.65q6.782,14.0868,14.1644,28.0767c.8506,1.6065,1.7335,3.2009,2.5942,4.8014,4.9768,9.2561,10.1168,18.4739,15.4927,27.6232.3386.5745.6551,1.157.9957,1.7315,5.5593,9.4093,11.3887,18.7238,17.3653,27.98.6632,1.028,1.26,2.0843,1.929,3.11.6632,1.0159,1.3727,2.01,2.04,3.0215,3.074,4.6684,6.2205,9.3005,9.3992,13.92,1.4957,2.177,2.9611,4.3661,4.4809,6.5309q7.09,10.0987,14.4889,20.028c4.5293,6.0492,9.107,11.929,13.7088,17.7241,1.3787,1.7355,2.7655,3.4327,4.1483,5.1461q5.0675,6.2709,10.1813,12.3321c.8607,1.02,1.7073,2.1,2.5721,3.1122.6591.774,1.33,1.5037,1.9935,2.2717,2.443,2.84,4.8982,5.62,7.3573,8.3893,1.7113,1.9271,3.4186,3.87,5.136,5.7629,2.5983,2.8644,5.2106,5.65,7.823,8.4337,1.5883,1.6932,3.1707,3.4187,4.7651,5.08,3.0215,3.1546,6.0572,6.2144,9.0928,9.26,1.1953,1.1974,2.3826,2.439,3.5779,3.62q6.3525,6.2709,12.7352,12.2293c.0665.0625.135.131.2036.1935.8869.8285,1.7819,1.5985,2.6708,2.4168,3.2755,3.0155,6.553,6.0048,9.8366,8.8933,1.5722,1.3828,3.1465,2.695,4.7188,4.0475,2.6788,2.304,5.3577,4.61,8.0386,6.8292,1.7476,1.4453,3.4932,2.8281,5.2408,4.2371,2.5176,2.03,5.0332,4.0555,7.5508,6.0108,1.8222,1.413,3.64,2.7736,5.4606,4.1463,2.447,1.8464,4.8921,3.6786,7.3371,5.4525.7216.524,1.4453,1.0925,2.1649,1.6105.9453.6773,1.8867,1.2759,2.83,1.9431q4.8227,3.4016,9.6331,6.6156c1.5642,1.0461,3.1283,2.0983,4.6925,3.1142q5.5119,3.5769,11.0017,6.8937c.9917.6007,1.9875,1.2417,2.9772,1.83q6.9392,4.1241,13.8318,7.837c1.1812.637,2.3543,1.2135,3.5335,1.8343,3.4428,1.8061,6.8755,3.5537,10.2962,5.2086.6652.32,1.3364.6934,2,1.01,1.2235.58,2.4349,1.0884,3.6565,1.6508,1.8725.8607,3.7451,1.7154,5.61,2.5317,2.0338.887,4.0576,1.7295,6.0813,2.562,1.8605.764,3.719,1.5259,5.5694,2.2435,2.0137.78,4.0153,1.5077,6.0169,2.2314,1.8383.6651,3.6766,1.33,5.5028,1.9471,1.9936.6713,3.971,1.2881,5.9524,1.9029,1.8141.5623,3.63,1.1328,5.4344,1.6488,1.9733.5624,3.9286,1.0663,5.8878,1.5722,1.7859.4616,3.57.9313,5.3416,1.3445,1.9553.4556,3.89.8446,5.8294,1.2417,1.75.3568,3.5033.7277,5.2388,1.0361,1.9271.3426,3.8339.6168,5.7448.901,1.7194.256,3.4408.53,5.1461.7357,1.9008.23,3.7774.387,5.66.5563,1.6791.1512,3.3662.3266,5.0312.4294,1.8826.1169,3.7411.1532,5.6036.2076,1.6247.0484,3.2574.123,4.8659.123,1.8666,0,3.7049-.0847,5.5513-.1492,1.5722-.0544,3.1545-.0766,4.7086-.1794C909.4278,1631.529,911.2339,1631.3193,913.05,1631.1339Z"/><g clip-path="url(#f)"><path fill="#fdfefe" d="M1127.1786,1591.044c-270.0988,83.55-574.8365-232.0077-574.8365-232.0077l-39.31,251.8524s262.685,176.3167,402.1637,137.4458l139.4787-38.871"/></g><path fill="none" stroke="#304063" stroke-linejoin="round" stroke-width="2" d="M913.05,1631.1339c1.5178-.1572,3.05-.2741,4.5515-.4757,1.82-.2459,3.604-.5886,5.398-.901,1.4553-.254,2.9268-.4657,4.364-.764,1.8141-.3789,3.588-.8587,5.3739-1.31,1.3686-.3447,2.76-.641,4.11-1.03,1.8726-.5382,3.6968-1.1853,5.5331-1.8041,1.2175-.4112,2.4591-.768,3.6625-1.2134,2.0339-.7579,4.0153-1.6327,6.0048-2.4955.9615-.4152,1.9472-.772,2.8966-1.2134q4.3721-2.0258,8.5868-4.3983l140.6436-79.3562q-4.2117,2.3766-8.5869,4.4c-.9574.4435-1.9512.8023-2.9187,1.2215-1.9794.8587-3.9548,1.7315-5.9826,2.4854-1.2074.45-2.4551.8083-3.6807,1.22-1.83.6188-3.65,1.2638-5.5149,1.8-1.3425.385-2.7253.6793-4.0838,1.024-1.796.4535-3.58.9353-5.4061,1.3163-1.4272.2983-2.8886.5059-4.3338.7579-1.802.3164-3.594.6591-5.4222.905-1.5017.2036-3.0357.3205-4.5515.4757-1.8182.1875-3.6242.3971-5.4626.518-1.56.1028-3.15.125-4.7268.1794-1.8383.0645-3.6665.1492-5.527.1492-1.6106,0-3.2473-.0746-4.874-.123-1.8645-.0544-3.727-.0907-5.6117-.21-1.6468-.1008-3.3179-.2741-4.9808-.4233-1.8988-.1713-3.7936-.3306-5.7125-.5624-1.6912-.2056-3.4025-.4777-5.1058-.73-1.921-.2843-3.84-.56-5.777-.9051-1.7355-.3084-3.4851-.6793-5.2328-1.0361-1.9391-.3971-3.8761-.7861-5.8314-1.2416-1.7657-.4112-3.5476-.8809-5.3255-1.3405-1.9693-.5079-3.9366-1.0139-5.92-1.5823-1.7879-.51-3.59-1.0744-5.388-1.6327-1.9935-.6188-3.987-1.24-5.9926-1.917-1.8182-.6127-3.6444-1.2759-5.4727-1.935-2.0116-.7277-4.0253-1.4594-6.0491-2.2435-1.8484-.7176-3.7028-1.4775-5.5593-2.2415-2.0177-.83-4.0374-1.669-6.0632-2.5539-1.8766-.82-3.7593-1.679-5.644-2.5458q-2.8119-1.294-5.6339-2.6527c-3.4206-1.6528-6.8534-3.3984-10.2922-5.2045-1.1852-.6229-2.3624-1.2034-3.5476-1.8424q-6.8815-3.7128-13.8116-7.8229c-1.0139-.6027-2.0318-1.26-3.0477-1.8766-3.6424-2.2092-7.2908-4.485-10.9473-6.8594-1.56-1.0139-3.1223-2.0621-4.6845-3.1062q-4.8165-3.2172-9.6431-6.6236c-1.663-1.1732-3.3239-2.3423-4.9889-3.5477-2.4531-1.7819-4.9082-3.62-7.3613-5.4726-1.8081-1.3646-3.6162-2.7172-5.4263-4.12-2.5357-1.9693-5.0695-4.0092-7.6032-6.0532-1.73-1.3948-3.459-2.7635-5.1884-4.1946-2.7071-2.2395-5.41-4.5656-8.1132-6.8917-1.5481-1.3344-3.0982-2.6245-4.6462-3.9851-3.3622-2.957-6.7163-6.0168-10.0685-9.1049-.8768-.8083-1.7576-1.5743-2.6345-2.3926q-6.3978-5.9655-12.7634-12.2555c-1.1651-1.1489-2.3221-2.36-3.4831-3.5255-3.0679-3.0759-6.1358-6.168-9.19-9.3548-1.5743-1.6448-3.14-3.3521-4.7107-5.0252-2.6305-2.8018-5.261-5.6077-7.8774-8.49-1.7073-1.8807-3.4045-3.8137-5.1037-5.7286-2.4673-2.7757-4.93-5.5634-7.3815-8.4136-1.5239-1.77-3.04-3.58-4.56-5.38q-5.1219-6.0683-10.1994-12.3522c-1.3747-1.7033-2.7535-3.3924-4.1241-5.1179-4.6039-5.7971-9.1856-11.681-13.7189-17.7341q-7.4229-9.9172-14.4929-20.0361c-1.5118-2.1528-2.9671-4.33-4.4567-6.4926-3.1868-4.6321-6.3434-9.28-9.4254-13.9627-1.3365-2.0278-2.6406-4.07-3.9549-6.1076-5.9805-9.26-11.814-18.5848-17.3773-27.9981-.3346-.5664-.645-1.1409-.98-1.7073q-8.073-13.7361-15.5089-27.6514c-.8587-1.5944-1.74-3.1869-2.5841-4.7853q-7.4046-13.9869-14.17-28.0868c-.905-1.8786-1.79-3.7613-2.6768-5.6419-4.5152-9.5666-8.8691-19.1472-12.9469-28.7359-.3608-.8466-.6873-1.6912-1.0441-2.5378q-5.82-13.8267-11.0017-27.6413c-.5745-1.5218-1.1752-3.0477-1.7376-4.5676q-5.2217-14.129-9.758-28.1754c-.6168-1.8968-1.2154-3.79-1.8121-5.6843-2.9832-9.4476-5.7911-18.863-8.3127-28.21-.2782-1.032-.5181-2.054-.79-3.082q-3.5466-13.3882-6.4361-26.5831c-.3246-1.4815-.6854-2.9731-1-4.4486-1.4795-6.9723-2.8543-13.9084-4.06-20.7779-.0766-.4475-.1331-.8849-.2117-1.3324q-1.6659-9.633-2.953-19.1008c-.3024-2.189-.5422-4.3478-.8123-6.5207-.5725-4.5858-1.0945-9.1493-1.534-13.6685-.2358-2.4189-.4434-4.8236-.641-7.22q-.5351-6.5309-.8748-12.9569c-.131-2.4309-.2781-4.872-.3709-7.2787-.0967-2.5942-.1451-5.1582-.1935-7.7222-.0584-2.9651-.1048-5.9221-.0987-8.8489.006-2.5438.0524-5.0594.1068-7.575.0605-2.8724.1411-5.7347.2661-8.5667.1108-2.4914.258-4.9587.4172-7.4178q.2721-4.1755.6309-8.2906.3265-3.6282.73-7.2.4656-4.1544,1.028-8.2361.4415-3.1809.9393-6.3173c.4435-2.7594.9373-5.4766,1.4534-8.18.389-2.03.776-4.0616,1.2053-6.0592.5786-2.701,1.2256-5.3476,1.8807-7.9882.4737-1.8988.9272-3.8137,1.4392-5.68.7458-2.7172,1.5723-5.3658,2.4007-8.01.53-1.6932,1.028-3.4146,1.5924-5.0776.8506-2.5035,1.8-4.92,2.7293-7.3533.6893-1.8081,1.3364-3.6524,2.07-5.42,1.032-2.4874,2.1729-4.874,3.2916-7.2807.7438-1.6005,1.4352-3.2493,2.2153-4.8115,1.3082-2.6144,2.7373-5.1138,4.1523-7.6254.7055-1.2477,1.3485-2.5519,2.08-3.7754q3.3018-5.5211,6.9643-10.6832c1.9532-2.7434,4.0616-5.2147,6.1338-7.7464,1.3182-1.6085,2.59-3.3,3.9548-4.8256,1.9391-2.1689,3.9911-4.1362,6.0229-6.1358,1.3344-1.3122,2.6124-2.7212,3.983-3.9588,2.3161-2.09,4.745-3.9568,7.1679-5.8415,1.1993-.9353,2.3422-1.9814,3.57-2.8663a122.0578,122.0578,0,0,1,11.4189-7.3291L529.6715,845.8123a121.7441,121.7441,0,0,0-11.4209,7.3332c-1.2216.8788-2.3584,1.9189-3.5517,2.85-2.4269,1.8867-4.8619,3.7572-7.18,5.8536-1.3727,1.24-2.6547,2.6486-3.9891,3.9628-2.0339,2-4.0818,3.9669-6.0229,6.1358-1.3606,1.52-2.6285,3.205-3.9407,4.8095-1.4916,1.82-3.0437,3.5275-4.4729,5.4565q-.8434,1.14-1.671,2.3019-3.6705,5.1522-6.9662,10.6832c-.7338,1.2276-1.3808,2.54-2.0883,3.7936-1.411,2.5055-2.8361,4.9969-4.14,7.6052-.7821,1.5642-1.4755,3.2131-2.2193,4.8135-1.1187,2.4088-2.26,4.7974-3.2916,7.2848-.7317,1.7617-1.3747,3.598-2.0621,5.398-.7921,2.0722-1.6387,4.0919-2.3745,6.2144-.131.377-.2338.78-.3628,1.1591-.5624,1.6589-1.0582,3.3783-1.5884,5.0674-.83,2.6527-1.6589,5.3034-2.4047,8.0266-.51,1.8564-.9635,3.7593-1.4311,5.648-.6612,2.6506-1.3082,5.3093-1.8908,8.0225-.4273,1.9955-.8143,4.0213-1.2013,6.0491-.516,2.697-1.0079,5.4121-1.4513,8.1656-.3387,2.1-.6491,4.2168-.9434,6.3495-.1915,1.3706-.4354,2.701-.6087,4.0858-.1693,1.3566-.2661,2.7635-.4173,4.1322-.266,2.38-.512,4.7711-.7276,7.188-.248,2.7494-.4536,5.525-.635,8.3208-.1592,2.4511-.3064,4.91-.4152,7.3956-.127,2.8341-.2056,5.6964-.2681,8.5708-.0524,2.5156-.1008,5.0332-.1068,7.579-.0061,2.9208.04,5.8717.0987,8.8328.0484,2.57.0968,5.136.1956,7.7343.0362.9695.03,1.9149.0725,2.8885.0645,1.4472.22,2.9469.2963,4.4023q.3477,6.425.8769,12.9488c.1955,2.3927.4031,4.7893.6369,7.2.4394,4.5232.9635,9.0848,1.534,13.67.2741,2.185.514,4.3539.8163,6.551q1.291,9.4153,2.9369,18.9839c.0826.4838.1451.9595.23,1.4453,1.2054,6.8715,2.58,13.8075,4.06,20.7839.1169.5442.2016,1.0743.3185,1.6186.1975.9212.4717,1.8645.6732,2.7857q2.9057,13.2069,6.4422,26.6093c.2721,1.032.512,2.05.79,3.082,2.5236,9.3488,5.3295,18.7641,8.3127,28.2158.5967,1.8927,1.1933,3.7794,1.81,5.6742q4.56,14.05,9.76,28.1835c.56,1.5178,1.161,3.0357,1.7335,4.5575q5.2125,13.8329,11.0218,27.69c.3487.8265.6692,1.6509,1.02,2.4773,4.0777,9.5948,8.4337,19.1794,12.9509,28.75.8909,1.8847,1.7738,3.7653,2.6808,5.65q6.782,14.0868,14.1644,28.0767c.8506,1.6065,1.7335,3.2009,2.5942,4.8014,4.9768,9.2561,10.1168,18.4739,15.4927,27.6232.3386.5745.6551,1.157.9957,1.7315,5.5593,9.4093,11.3887,18.7238,17.3653,27.98.6632,1.028,1.26,2.0843,1.929,3.11.6632,1.0159,1.3727,2.01,2.04,3.0215,3.074,4.6684,6.2205,9.3005,9.3992,13.92,1.4957,2.177,2.9611,4.3661,4.4809,6.5309q7.09,10.0987,14.4889,20.028c4.5293,6.0492,9.107,11.929,13.7088,17.7241,1.3787,1.7355,2.7655,3.4327,4.1483,5.1461q5.0675,6.2709,10.1813,12.3321c.8607,1.02,1.7073,2.1,2.5721,3.1122.6591.774,1.33,1.5037,1.9935,2.2717,2.443,2.84,4.8982,5.62,7.3573,8.3893,1.7113,1.9271,3.4186,3.87,5.136,5.7629,2.5983,2.8644,5.2106,5.65,7.823,8.4337,1.5883,1.6932,3.1707,3.4187,4.7651,5.08,3.0215,3.1546,6.0572,6.2144,9.0928,9.26,1.1953,1.1974,2.3826,2.439,3.5779,3.62q6.3525,6.2709,12.7352,12.2293c.0665.0625.135.131.2036.1935.8869.8285,1.7819,1.5985,2.6708,2.4168,3.2755,3.0155,6.553,6.0048,9.8366,8.8933,1.5722,1.3828,3.1465,2.695,4.7188,4.0475,2.6788,2.304,5.3577,4.61,8.0386,6.8292,1.7476,1.4453,3.4932,2.8281,5.2408,4.2371,2.5176,2.03,5.0332,4.0555,7.5508,6.0108,1.8222,1.413,3.64,2.7736,5.4606,4.1463,2.447,1.8464,4.8921,3.6786,7.3371,5.4525.7216.524,1.4453,1.0925,2.1649,1.6105.9453.6773,1.8867,1.2759,2.83,1.9431q4.8227,3.4016,9.6331,6.6156c1.5642,1.0461,3.1283,2.0983,4.6925,3.1142q5.5119,3.5769,11.0017,6.8937c.9917.6007,1.9875,1.2417,2.9772,1.83q6.9392,4.1241,13.8318,7.837c1.1812.637,2.3543,1.2135,3.5335,1.8343,3.4428,1.8061,6.8755,3.5537,10.2962,5.2086.6652.32,1.3364.6934,2,1.01,1.2235.58,2.4349,1.0884,3.6565,1.6508,1.8725.8607,3.7451,1.7154,5.61,2.5317,2.0338.887,4.0576,1.7295,6.0813,2.562,1.8605.764,3.719,1.5259,5.5694,2.2435,2.0137.78,4.0153,1.5077,6.0169,2.2314,1.8383.6651,3.6766,1.33,5.5028,1.9471,1.9936.6713,3.971,1.2881,5.9524,1.9029,1.8141.5623,3.63,1.1328,5.4344,1.6488,1.9733.5624,3.9286,1.0663,5.8878,1.5722,1.7859.4616,3.57.9313,5.3416,1.3445,1.9553.4556,3.89.8446,5.8294,1.2417,1.75.3568,3.5033.7277,5.2388,1.0361,1.9271.3426,3.8339.6168,5.7448.901,1.7194.256,3.4408.53,5.1461.7357,1.9008.23,3.7774.387,5.66.5563,1.6791.1512,3.3662.3266,5.0312.4294,1.8826.1169,3.7411.1532,5.6036.2076,1.6247.0484,3.2574.123,4.8659.123,1.8666,0,3.7049-.0847,5.5513-.1492,1.5722-.0544,3.1545-.0766,4.7086-.1794C909.4278,1631.529,911.2339,1631.3193,913.05,1631.1339Z"/><path fill="none" stroke="#304063" stroke-linejoin="round" stroke-width="2" d="M990.8772,1094.5612a475.6916,475.6916,0,0,1-6.9512,111.2193"/><path fill="none" stroke="#304063" stroke-linejoin="round" stroke-width="2" d="M558.7194,1276.2983l35.1611,41.3629"/><ellipse cx="2517.783" cy="723.651" fill="#e9effd" rx="448.212" ry="235.828" transform="rotate(-61.084 2517.784 723.65)"/><g clip-path="url(#g)"><path fill="#e9effd" d="M2377.7744,386.1166c452.3981-143.3745,474.5009,139.577,467.8838,264.9829S2917.0805,411.6,2917.0805,411.6l-165.6-268.637-103.801,15.2816"/></g><ellipse cx="2517.783" cy="723.651" fill="none" stroke="#304063" stroke-linejoin="round" stroke-width="2" rx="448.212" ry="235.828" transform="rotate(-61.084 2517.784 723.65)"/><path fill="#fdfefe" d="M2657.0314,404.98c108.3189,7.7194,140.741,156.4172,72.4116,332.0973-68.3551,175.7464-211.5775,311.9247-319.8964,304.2053-108.36-7.7224-140.7823-156.4182-72.4272-332.1646C2405.4488,533.4379,2548.6719,397.2575,2657.0314,404.98Z"/><g clip-path="url(#h)"><path fill="#fff" d="M2593.3411,419.9517c108.319,7.7195,140.741,156.4173,72.4117,332.0974-68.3552,175.7464-211.5775,311.9247-319.8965,304.2052-108.3594-7.7223-140.7823-156.4181-72.4271-332.1645C2341.7585,548.41,2484.9817,412.2294,2593.3411,419.9517Z"/></g><path fill="none" stroke="#304063" stroke-linejoin="round" stroke-width="2" d="M2657.0314,404.98c108.3189,7.7194,140.741,156.4172,72.4116,332.0973-68.3551,175.7464-211.5775,311.9247-319.8964,304.2053-108.36-7.7224-140.7823-156.4182-72.4272-332.1646C2405.4488,533.4379,2548.6719,397.2575,2657.0314,404.98Z"/><path fill="#fff" d="M2117.0351,1001.4531c.9441,1.2274,1.8608,2.4885,2.8346,3.6784,1.1817,1.4414,2.4277,2.8,3.6529,4.1833.9944,1.1219,1.9608,2.28,2.9839,3.363,1.2934,1.3653,2.6524,2.6422,3.9934,3.9445,1.0266.9987,2.0232,2.0424,3.0785,3.0019,1.4621,1.331,2.9924,2.5623,4.5048,3.8191,1.0036.8327,1.973,1.7153,2.9986,2.5176,1.7378,1.3534,3.5487,2.5992,5.3533,3.8584.8708.6094,1.7038,1.2709,2.5907,1.856q4.0782,2.698,8.3721,5.0756l143.4464,79.236q-4.2959-2.3727-8.3738-5.0745c-.893-.5909-1.7321-1.2583-2.61-1.8709-1.7959-1.2526-3.6017-2.4943-5.3328-3.8445-1.0313-.8037-2.0056-1.69-3.0135-2.53-1.5092-1.2516-3.0357-2.48-4.4917-3.8056-1.0475-.9546-2.0381-1.9924-3.0593-2.9825-1.3481-1.31-2.7143-2.5944-4.0159-3.9691-1.0176-1.074-1.9752-2.2258-2.9625-3.34-1.2329-1.3882-2.4832-2.7537-3.6692-4.202-.9755-1.1889-1.8934-2.4517-2.8347-3.6785-1.13-1.4708-2.2729-2.9193-3.3564-4.4429-.92-1.293-1.7856-2.6551-2.672-3.9877-1.0347-1.5537-2.0814-3.0879-3.0721-4.6951-.8577-1.3913-1.6648-2.8449-2.4893-4.2759-.9458-1.64-1.9063-3.2678-2.8072-4.9592-.79-1.4763-1.53-3.0121-2.2867-4.5281-.8631-1.7315-1.7345-3.4531-2.5562-5.2342-.7229-1.57-1.3992-3.1936-2.0885-4.7992-.7775-1.8107-1.5608-3.6155-2.2946-5.4724-.6577-1.6634-1.269-3.3723-1.8915-5.072-.6895-1.8865-1.385-3.767-2.0327-5.6987-.5851-1.7443-1.1282-3.5336-1.6779-5.3142-.61-1.9717-1.22-3.9405-1.7857-5.9566-.5116-1.8161-.9836-3.6733-1.4588-5.5239-.527-2.0516-1.0523-4.1043-1.5352-6.1975-.4389-1.8969-.8385-3.8277-1.2427-5.758-.4426-2.1253-.8829-4.2544-1.2832-6.42-.3644-1.9788-.6955-3.9855-1.0241-5.996-.3571-2.1852-.7083-4.3765-1.0226-6.5977-.2907-2.0579-.5514-4.1415-.8063-6.2312q-.3795-3.1182-.7087-6.2794c-.3937-3.8351-.7137-7.73-.9848-11.6623-.0931-1.3556-.2185-2.6816-.2976-4.0457q-.4572-7.9218-.5971-16.0969c-.0193-1.1968.0063-2.4261-.0019-3.6321-.0312-4.3229-.0081-8.6865.0959-13.11.0451-1.8876.1187-3.7952.1888-5.7007q.214-5.8739.5866-11.8574c.1279-2.0612.2533-4.1186.408-6.1987.2329-3.068.5136-6.1678.8075-9.2734.216-2.2886.4215-4.5707.6695-6.8814.3509-3.2392.7638-6.5143,1.18-9.7915.284-2.2367.5453-4.46.8606-6.7157.493-3.531,1.063-7.1047,1.633-10.6785.3283-2.0478.6173-4.0738.9683-6.1357.764-4.479,1.6211-9.0059,2.5036-13.546.2314-1.1879.424-2.3567.664-3.55q1.7463-8.7034,3.79-17.5518c.3721-1.6183.8025-3.2629,1.1906-4.8863,1.0235-4.2882,2.0609-8.5849,3.1876-12.92.5826-2.2358,1.2234-4.4979,1.8325-6.7453,1.0195-3.7643,2.0426-7.5308,3.1393-11.3259.7154-2.4763,1.4815-4.9719,2.2308-7.46,1.0839-3.6093,2.18-7.2216,3.3373-10.8568.7173-2.2588,1.4738-4.5321,2.2194-6.8036q2.5146-7.656,5.239-15.3885c.7393-2.0945,1.4643-4.1851,2.2249-6.2879,2.5563-7.0641,5.1992-14.1552,8.0141-21.2947q4.6141-11.6933,9.59-23.1892c1.0546-2.4523,2.16-4.8687,3.2353-7.3073,2.3044-5.22,4.6388-10.4216,7.0425-15.5775,1.04-2.2343,2.11-4.4482,3.17-6.6687,4.8146-10.0975,9.7633-20.1022,14.9324-29.9208.3111-.5907.642-1.1647.9531-1.7554q7.5669-14.2884,15.6279-28.122c.92-1.5908,1.8266-3.2,2.7577-4.78q8.1395-13.8449,16.7167-27.1977c1.1409-1.7822,2.296-3.5492,3.4483-5.3168,5.86-8.9948,11.8173-17.8577,17.929-26.4864.5391-.7625,1.0948-1.4943,1.6362-2.2534q8.8447-12.3908,18.0193-24.2231c1.0087-1.3067,2.0069-2.6382,3.02-3.9333q9.4246-12.0346,19.143-23.4333c1.31-1.5429,2.6263-3.068,3.9453-4.5924,6.5727-7.608,13.2109-15.0474,19.9422-22.203.7434-.79,1.4985-1.5413,2.2417-2.3238q9.6768-10.1932,19.5363-19.7157c1.107-1.0693,2.2034-2.1753,3.3106-3.2327,5.2351-4.9909,10.4947-9.872,15.787-14.5714.3458-.3044.6936-.5861,1.0383-.8923q7.4343-6.569,14.9276-12.7224c1.73-1.4269,3.4672-2.7837,5.2-4.1742,3.6565-2.9365,7.3207-5.8176,10.9906-8.6037,1.9639-1.4918,3.9307-2.9517,5.8958-4.3986q5.3568-3.94,10.727-7.6555c2.03-1.4077,4.0605-2.8347,6.09-4.1964,2.1894-1.4651,4.3785-2.8722,6.5677-4.2793,2.53-1.63,5.06-3.2442,7.5915-4.7976,2.2007-1.3494,4.3984-2.6489,6.6005-3.9415,2.5135-1.4773,5.029-2.9319,7.542-4.332,2.2113-1.231,4.4209-2.4177,6.63-3.59q3.7518-1.9884,7.4977-3.87,3.3081-1.65,6.6083-3.2039,3.8367-1.81,7.6623-3.4978,2.9827-1.3125,5.9572-2.5526c2.62-1.0864,5.23-2.1067,7.84-3.1,1.9606-.7448,3.9219-1.4925,5.8761-2.1853,2.6413-.9386,5.2722-1.789,7.9021-2.6293,1.8925-.6019,3.7882-1.23,5.6732-1.7815,2.7444-.8027,5.4725-1.4992,8.1982-2.1918,1.7449-.4437,3.4971-.93,5.2342-1.3283,2.6156-.5984,5.2089-1.0652,7.8055-1.5581,1.929-.3673,3.8668-.7905,5.7846-1.0981,2.6983-.433,5.3674-.7184,8.0422-1.0336,1.7787-.21,3.5712-.49,5.3361-.6485,2.955-.2622,5.8752-.3586,8.7983-.4737,1.4536-.055,2.9226-.194,4.3691-.2135,4.3517-.0585,8.6671.0423,12.9373.3271,3.41.2264,6.6675.7317,9.958,1.1736,2.0915.2822,4.23.48,6.2745.8466,2.9062.52,5.6984,1.2451,8.5077,1.9355,1.8441.4539,3.7418.8076,5.5408,1.3326,3.0391.8876,5.9449,1.9918,8.8632,3.0812,1.4466.538,2.9589.9682,4.377,1.5574a123.85,123.85,0,0,1,12.412,5.9614l-143.4446-79.2372a123.5262,123.5262,0,0,0-12.4165-5.9609c-1.41-.5872-2.9136-1.0154-4.3535-1.55-2.9222-1.0918-5.8347-2.1992-8.88-3.0853-1.8019-.5256-3.7017-.8828-5.5476-1.3356-2.81-.6922-5.6-1.4136-8.5077-1.9355-2.0374-.366-4.1683-.5639-6.2531-.843-2.3666-.3193-4.668-.7509-7.0954-.9582q-1.4338-.1218-2.8784-.2177c-4.27-.2848-8.5855-.3856-12.9383-.3288-1.4511.02-2.9292.16-4.389.2162-2.9158.1153-5.8269.211-8.7745.4733-1.7677.1574-3.5613.4364-5.34.6462-2.6765.3163-5.3474.6027-8.0457,1.0357-1.9115.3061-3.84.7285-5.7612,1.0933-2.2118.4191-4.4074.7633-6.6327,1.258-.3954.0876-.7984.2135-1.1945.3038-1.7325.3976-3.4818.8849-5.2233,1.3264-2.7337.6952-5.4647,1.3911-8.2143,2.1969-1.8752.5481-3.76,1.17-5.6411,1.7714-2.6418.84-5.2831,1.6972-7.937,2.6388-1.9514.6935-3.9075,1.4379-5.8653,2.1835-2.6045.99-5.2119,2.0114-7.8266,3.0946q-2.992,1.2388-5.9873,2.5662c-1.2861.5645-2.5652,1.0623-3.8537,1.65-1.2621.5762-2.529,1.2418-3.7918,1.84-2.1981,1.0378-4.3942,2.0984-6.5968,3.1991-2.5071,1.25-5.0143,2.55-7.526,3.8824-2.2022,1.1677-4.4049,2.35-6.61,3.58-2.5158,1.3995-5.03,2.8558-7.5466,4.3325-2.201,1.2943-4.4016,2.5932-6.604,3.9437-2.5263,1.55-5.0508,3.1616-7.5776,4.7889-2.1943,1.41-4.3852,2.8186-6.5771,4.2875-.8182.5476-1.6381,1.0458-2.4566,1.6008-1.2158.8265-2.4287,1.7591-3.6451,2.6q-5.3651,3.7218-10.7189,7.6529c-1.9627,1.443-3.9225,2.8986-5.8806,4.3844-3.6733,2.7883-7.3347,5.67-10.9923,8.6048-1.7415,1.4-3.4874,2.7626-5.2244,4.1938q-7.4459,6.129-14.8352,12.6462c-.3739.329-.7515.6363-1.1261.9681-5.2941,4.7-10.5537,9.5816-15.7923,14.5746-.4079.3909-.8207.7463-1.2286,1.1371-.6906.6612-1.36,1.4-2.0479,2.065q-9.8614,9.5428-19.5558,19.7349c-.7466.7847-1.4982,1.5339-2.2416,2.3238-6.732,7.1584-13.3713,14.5961-19.9474,22.2063-1.3173,1.5233-2.6294,3.0434-3.9378,4.5852q-9.7094,11.4208-19.1488,23.4393c-1.0128,1.2924-2.0041,2.62-3.0139,3.9245q-9.1735,11.869-18.05,24.2663c-.5283.7414-1.07,1.4572-1.5969,2.2-6.1169,8.6319-12.077,17.4987-17.939,26.4974-1.1536,1.7732-2.3081,3.5374-3.4531,5.3246q-8.5573,13.36-16.7113,27.187c-.9348,1.59-1.842,3.2021-2.7662,4.7979q-8.0184,13.8422-15.6121,28.093c-.3159.5985-.6506,1.182-.9654,1.7822-5.1678,9.813-10.11,19.8089-14.9232,29.9007-.5349,1.12-1.13,2.1982-1.6595,3.3226-.5244,1.1139-1.005,2.256-1.5239,3.3712-2.3958,5.1414-4.7216,10.3261-7.02,15.5323-1.0841,2.4513-2.1948,4.8829-3.2556,7.3486q-4.948,11.5026-9.5855,23.1814c-2.8136,7.1338-5.4552,14.2193-8.0108,21.2806-.765,2.1152-1.4926,4.217-2.2364,6.3239q-2.7184,7.7167-5.2313,15.3621c-.4227,1.2866-.9052,2.5933-1.3188,3.8791-.3177.9816-.5906,1.95-.9008,2.9319-1.1525,3.6228-2.2463,7.2238-3.3293,10.823-.7533,2.5045-1.5227,5.0141-2.2432,7.5055-1.0907,3.77-2.106,7.51-3.12,11.2489-.6168,2.2738-1.2647,4.5595-1.8505,6.8213-1.116,4.29-2.1427,8.5417-3.1572,12.786-.3978,1.67-.8382,3.3569-1.222,5.0185q-2.0343,8.8269-3.7826,17.5135c-.0185.0908-.0412.1865-.0587.279-.2434,1.2073-.4319,2.39-.6655,3.5941-.8607,4.4353-1.6976,8.8585-2.4443,13.2331-.3573,2.0946-.6525,4.1533-.9836,6.2317-.5637,3.541-1.1292,7.0831-1.6187,10.5808-.3179,2.2793-.5828,4.5235-.8693,6.7835-.4128,3.2557-.8232,6.5076-1.1715,9.7236-.25,2.3266-.4574,4.6217-.674,6.925-.2919,3.0972-.5726,6.185-.8029,9.2417-.0685.9025-.1742,1.83-.2385,2.7278-.0816,1.1773-.0975,2.3093-.1715,3.4795q-.37,5.9772-.5851,11.8443c-.0707,1.9083-.1467,3.82-.1913,5.712q-.1548,6.6663-.0966,13.1748c.0093,1.1766-.0142,2.3781.0044,3.5465q.1325,8.19.5956,16.1218c.0788,1.36.2055,2.68.2971,4.0292.2732,3.9359.5915,7.8319.9835,11.668.0773.7453.1126,1.5237.1924,2.2651.15,1.3661.3564,2.6831.5211,4.0378.2536,2.0759.5125,4.1487.8,6.1941.3169,2.2292.6667,4.4261,1.0253,6.6176.3308,2.014.6623,4.0252,1.0277,6.0058.3985,2.1549.8358,4.2715,1.2765,6.3859.4044,1.9422.8087,3.8845,1.2483,5.7905.4818,2.08,1.002,4.1162,1.526,6.1552.48,1.8666.9546,3.7393,1.47,5.5725.5651,2.0041,1.171,3.9615,1.7772,5.9234.5523,1.7886,1.0966,3.58,1.6831,5.33.6477,1.9316,1.3421,3.81,2.0316,5.6969.6235,1.7014,1.237,3.4138,1.8948,5.0773.73,1.8471,1.5088,3.64,2.2808,5.4424.6945,1.6216,1.3743,3.2546,2.1048,4.8372.8137,1.7644,1.6772,3.4692,2.5335,5.1857.7636,1.531,1.5105,3.0818,2.3083,4.5748.9016,1.6886,1.86,3.3134,2.8047,4.9513.8234,1.4292,1.6284,2.8793,2.4849,4.2688.994,1.6124,2.0461,3.1554,3.085,4.716.8843,1.3292,1.746,2.6843,2.6624,3.9721C2114.7649,998.5344,2115.9078,999.983,2117.0351,1001.4531Z"/><g clip-path="url(#i)"><path fill="#fdfefe" d="M2356.19,304.4086c-530.2118,436.0392-11.3021,914.8939-11.3021,914.8939l-272.8516-94.6763L1908.4086,639.0808l275.4737-231.05"/></g><path fill="none" stroke="#304063" stroke-linejoin="round" stroke-width="2" d="M2117.0351,1001.4531c.9441,1.2274,1.8608,2.4885,2.8346,3.6784,1.1817,1.4414,2.4277,2.8,3.6529,4.1833.9944,1.1219,1.9608,2.28,2.9839,3.363,1.2934,1.3653,2.6524,2.6422,3.9934,3.9445,1.0266.9987,2.0232,2.0424,3.0785,3.0019,1.4621,1.331,2.9924,2.5623,4.5048,3.8191,1.0036.8327,1.973,1.7153,2.9986,2.5176,1.7378,1.3534,3.5487,2.5992,5.3533,3.8584.8708.6094,1.7038,1.2709,2.5907,1.856q4.0782,2.698,8.3721,5.0756l143.4464,79.236q-4.2959-2.3727-8.3738-5.0745c-.893-.5909-1.7321-1.2583-2.61-1.8709-1.7959-1.2526-3.6017-2.4943-5.3328-3.8445-1.0313-.8037-2.0056-1.69-3.0135-2.53-1.5092-1.2516-3.0357-2.48-4.4917-3.8056-1.0475-.9546-2.0381-1.9924-3.0593-2.9825-1.3481-1.31-2.7143-2.5944-4.0159-3.9691-1.0176-1.074-1.9752-2.2258-2.9625-3.34-1.2329-1.3882-2.4832-2.7537-3.6692-4.202-.9755-1.1889-1.8934-2.4517-2.8347-3.6785-1.13-1.4708-2.2729-2.9193-3.3564-4.4429-.92-1.293-1.7856-2.6551-2.672-3.9877-1.0347-1.5537-2.0814-3.0879-3.0721-4.6951-.8577-1.3913-1.6648-2.8449-2.4893-4.2759-.9458-1.64-1.9063-3.2678-2.8072-4.9592-.79-1.4763-1.53-3.0121-2.2867-4.5281-.8631-1.7315-1.7345-3.4531-2.5562-5.2342-.7229-1.57-1.3992-3.1936-2.0885-4.7992-.7775-1.8107-1.5608-3.6155-2.2946-5.4724-.6577-1.6634-1.269-3.3723-1.8915-5.072-.6895-1.8865-1.385-3.767-2.0327-5.6987-.5851-1.7443-1.1282-3.5336-1.6779-5.3142-.61-1.9717-1.22-3.9405-1.7857-5.9566-.5116-1.8161-.9836-3.6733-1.4588-5.5239-.527-2.0516-1.0523-4.1043-1.5352-6.1975-.4389-1.8969-.8385-3.8277-1.2427-5.758-.4426-2.1253-.8829-4.2544-1.2832-6.42-.3644-1.9788-.6955-3.9855-1.0241-5.996-.3571-2.1852-.7083-4.3765-1.0226-6.5977-.2907-2.0579-.5514-4.1415-.8063-6.2312q-.3795-3.1182-.7087-6.2794c-.3937-3.8351-.7137-7.73-.9848-11.6623-.0931-1.3556-.2185-2.6816-.2976-4.0457q-.4572-7.9218-.5971-16.0969c-.0193-1.1968.0063-2.4261-.0019-3.6321-.0312-4.3229-.0081-8.6865.0959-13.11.0451-1.8876.1187-3.7952.1888-5.7007q.214-5.8739.5866-11.8574c.1279-2.0612.2533-4.1186.408-6.1987.2329-3.068.5136-6.1678.8075-9.2734.216-2.2886.4215-4.5707.6695-6.8814.3509-3.2392.7638-6.5143,1.18-9.7915.284-2.2367.5453-4.46.8606-6.7157.493-3.531,1.063-7.1047,1.633-10.6785.3283-2.0478.6173-4.0738.9683-6.1357.764-4.479,1.6211-9.0059,2.5036-13.546.2314-1.1879.424-2.3567.664-3.55q1.7463-8.7034,3.79-17.5518c.3721-1.6183.8025-3.2629,1.1906-4.8863,1.0235-4.2882,2.0609-8.5849,3.1876-12.92.5826-2.2358,1.2234-4.4979,1.8325-6.7453,1.0195-3.7643,2.0426-7.5308,3.1393-11.3259.7154-2.4763,1.4815-4.9719,2.2308-7.46,1.0839-3.6093,2.18-7.2216,3.3373-10.8568.7173-2.2588,1.4738-4.5321,2.2194-6.8036q2.5146-7.656,5.239-15.3885c.7393-2.0945,1.4643-4.1851,2.2249-6.2879,2.5563-7.0641,5.1992-14.1552,8.0141-21.2947q4.6141-11.6933,9.59-23.1892c1.0546-2.4523,2.16-4.8687,3.2353-7.3073,2.3044-5.22,4.6388-10.4216,7.0425-15.5775,1.04-2.2343,2.11-4.4482,3.17-6.6687,4.8146-10.0975,9.7633-20.1022,14.9324-29.9208.3111-.5907.642-1.1647.9531-1.7554q7.5669-14.2884,15.6279-28.122c.92-1.5908,1.8266-3.2,2.7577-4.78q8.1395-13.8449,16.7167-27.1977c1.1409-1.7822,2.296-3.5492,3.4483-5.3168,5.86-8.9948,11.8173-17.8577,17.929-26.4864.5391-.7625,1.0948-1.4943,1.6362-2.2534q8.8447-12.3908,18.0193-24.2231c1.0087-1.3067,2.0069-2.6382,3.02-3.9333q9.4246-12.0346,19.143-23.4333c1.31-1.5429,2.6263-3.068,3.9453-4.5924,6.5727-7.608,13.2109-15.0474,19.9422-22.203.7434-.79,1.4985-1.5413,2.2417-2.3238q9.6768-10.1932,19.5363-19.7157c1.107-1.0693,2.2034-2.1753,3.3106-3.2327,5.2351-4.9909,10.4947-9.872,15.787-14.5714.3458-.3044.6936-.5861,1.0383-.8923q7.4343-6.569,14.9276-12.7224c1.73-1.4269,3.4672-2.7837,5.2-4.1742,3.6565-2.9365,7.3207-5.8176,10.9906-8.6037,1.9639-1.4918,3.9307-2.9517,5.8958-4.3986q5.3568-3.94,10.727-7.6555c2.03-1.4077,4.0605-2.8347,6.09-4.1964,2.1894-1.4651,4.3785-2.8722,6.5677-4.2793,2.53-1.63,5.06-3.2442,7.5915-4.7976,2.2007-1.3494,4.3984-2.6489,6.6005-3.9415,2.5135-1.4773,5.029-2.9319,7.542-4.332,2.2113-1.231,4.4209-2.4177,6.63-3.59q3.7518-1.9884,7.4977-3.87,3.3081-1.65,6.6083-3.2039,3.8367-1.81,7.6623-3.4978,2.9827-1.3125,5.9572-2.5526c2.62-1.0864,5.23-2.1067,7.84-3.1,1.9606-.7448,3.9219-1.4925,5.8761-2.1853,2.6413-.9386,5.2722-1.789,7.9021-2.6293,1.8925-.6019,3.7882-1.23,5.6732-1.7815,2.7444-.8027,5.4725-1.4992,8.1982-2.1918,1.7449-.4437,3.4971-.93,5.2342-1.3283,2.6156-.5984,5.2089-1.0652,7.8055-1.5581,1.929-.3673,3.8668-.7905,5.7846-1.0981,2.6983-.433,5.3674-.7184,8.0422-1.0336,1.7787-.21,3.5712-.49,5.3361-.6485,2.955-.2622,5.8752-.3586,8.7983-.4737,1.4536-.055,2.9226-.194,4.3691-.2135,4.3517-.0585,8.6671.0423,12.9373.3271,3.41.2264,6.6675.7317,9.958,1.1736,2.0915.2822,4.23.48,6.2745.8466,2.9062.52,5.6984,1.2451,8.5077,1.9355,1.8441.4539,3.7418.8076,5.5408,1.3326,3.0391.8876,5.9449,1.9918,8.8632,3.0812,1.4466.538,2.9589.9682,4.377,1.5574a123.85,123.85,0,0,1,12.412,5.9614l-143.4446-79.2372a123.5262,123.5262,0,0,0-12.4165-5.9609c-1.41-.5872-2.9136-1.0154-4.3535-1.55-2.9222-1.0918-5.8347-2.1992-8.88-3.0853-1.8019-.5256-3.7017-.8828-5.5476-1.3356-2.81-.6922-5.6-1.4136-8.5077-1.9355-2.0374-.366-4.1683-.5639-6.2531-.843-2.3666-.3193-4.668-.7509-7.0954-.9582q-1.4338-.1218-2.8784-.2177c-4.27-.2848-8.5855-.3856-12.9383-.3288-1.4511.02-2.9292.16-4.389.2162-2.9158.1153-5.8269.211-8.7745.4733-1.7677.1574-3.5613.4364-5.34.6462-2.6765.3163-5.3474.6027-8.0457,1.0357-1.9115.3061-3.84.7285-5.7612,1.0933-2.2118.4191-4.4074.7633-6.6327,1.258-.3954.0876-.7984.2135-1.1945.3038-1.7325.3976-3.4818.8849-5.2233,1.3264-2.7337.6952-5.4647,1.3911-8.2143,2.1969-1.8752.5481-3.76,1.17-5.6411,1.7714-2.6418.84-5.2831,1.6972-7.937,2.6388-1.9514.6935-3.9075,1.4379-5.8653,2.1835-2.6045.99-5.2119,2.0114-7.8266,3.0946q-2.992,1.2388-5.9873,2.5662c-1.2861.5645-2.5652,1.0623-3.8537,1.65-1.2621.5762-2.529,1.2418-3.7918,1.84-2.1981,1.0378-4.3942,2.0984-6.5968,3.1991-2.5071,1.25-5.0143,2.55-7.526,3.8824-2.2022,1.1677-4.4049,2.35-6.61,3.58-2.5158,1.3995-5.03,2.8558-7.5466,4.3325-2.201,1.2943-4.4016,2.5932-6.604,3.9437-2.5263,1.55-5.0508,3.1616-7.5776,4.7889-2.1943,1.41-4.3852,2.8186-6.5771,4.2875-.8182.5476-1.6381,1.0458-2.4566,1.6008-1.2158.8265-2.4287,1.7591-3.6451,2.6q-5.3651,3.7218-10.7189,7.6529c-1.9627,1.443-3.9225,2.8986-5.8806,4.3844-3.6733,2.7883-7.3347,5.67-10.9923,8.6048-1.7415,1.4-3.4874,2.7626-5.2244,4.1938q-7.4459,6.129-14.8352,12.6462c-.3739.329-.7515.6363-1.1261.9681-5.2941,4.7-10.5537,9.5816-15.7923,14.5746-.4079.3909-.8207.7463-1.2286,1.1371-.6906.6612-1.36,1.4-2.0479,2.065q-9.8614,9.5428-19.5558,19.7349c-.7466.7847-1.4982,1.5339-2.2416,2.3238-6.732,7.1584-13.3713,14.5961-19.9474,22.2063-1.3173,1.5233-2.6294,3.0434-3.9378,4.5852q-9.7094,11.4208-19.1488,23.4393c-1.0128,1.2924-2.0041,2.62-3.0139,3.9245q-9.1735,11.869-18.05,24.2663c-.5283.7414-1.07,1.4572-1.5969,2.2-6.1169,8.6319-12.077,17.4987-17.939,26.4974-1.1536,1.7732-2.3081,3.5374-3.4531,5.3246q-8.5573,13.36-16.7113,27.187c-.9348,1.59-1.842,3.2021-2.7662,4.7979q-8.0184,13.8422-15.6121,28.093c-.3159.5985-.6506,1.182-.9654,1.7822-5.1678,9.813-10.11,19.8089-14.9232,29.9007-.5349,1.12-1.13,2.1982-1.6595,3.3226-.5244,1.1139-1.005,2.256-1.5239,3.3712-2.3958,5.1414-4.7216,10.3261-7.02,15.5323-1.0841,2.4513-2.1948,4.8829-3.2556,7.3486q-4.948,11.5026-9.5855,23.1814c-2.8136,7.1338-5.4552,14.2193-8.0108,21.2806-.765,2.1152-1.4926,4.217-2.2364,6.3239q-2.7184,7.7167-5.2313,15.3621c-.4227,1.2866-.9052,2.5933-1.3188,3.8791-.3177.9816-.5906,1.95-.9008,2.9319-1.1525,3.6228-2.2463,7.2238-3.3293,10.823-.7533,2.5045-1.5227,5.0141-2.2432,7.5055-1.0907,3.77-2.106,7.51-3.12,11.2489-.6168,2.2738-1.2647,4.5595-1.8505,6.8213-1.116,4.29-2.1427,8.5417-3.1572,12.786-.3978,1.67-.8382,3.3569-1.222,5.0185q-2.0343,8.8269-3.7826,17.5135c-.0185.0908-.0412.1865-.0587.279-.2434,1.2073-.4319,2.39-.6655,3.5941-.8607,4.4353-1.6976,8.8585-2.4443,13.2331-.3573,2.0946-.6525,4.1533-.9836,6.2317-.5637,3.541-1.1292,7.0831-1.6187,10.5808-.3179,2.2793-.5828,4.5235-.8693,6.7835-.4128,3.2557-.8232,6.5076-1.1715,9.7236-.25,2.3266-.4574,4.6217-.674,6.925-.2919,3.0972-.5726,6.185-.8029,9.2417-.0685.9025-.1742,1.83-.2385,2.7278-.0816,1.1773-.0975,2.3093-.1715,3.4795q-.37,5.9772-.5851,11.8443c-.0707,1.9083-.1467,3.82-.1913,5.712q-.1548,6.6663-.0966,13.1748c.0093,1.1766-.0142,2.3781.0044,3.5465q.1325,8.19.5956,16.1218c.0788,1.36.2055,2.68.2971,4.0292.2732,3.9359.5915,7.8319.9835,11.668.0773.7453.1126,1.5237.1924,2.2651.15,1.3661.3564,2.6831.5211,4.0378.2536,2.0759.5125,4.1487.8,6.1941.3169,2.2292.6667,4.4261,1.0253,6.6176.3308,2.014.6623,4.0252,1.0277,6.0058.3985,2.1549.8358,4.2715,1.2765,6.3859.4044,1.9422.8087,3.8845,1.2483,5.7905.4818,2.08,1.002,4.1162,1.526,6.1552.48,1.8666.9546,3.7393,1.47,5.5725.5651,2.0041,1.171,3.9615,1.7772,5.9234.5523,1.7886,1.0966,3.58,1.6831,5.33.6477,1.9316,1.3421,3.81,2.0316,5.6969.6235,1.7014,1.237,3.4138,1.8948,5.0773.73,1.8471,1.5088,3.64,2.2808,5.4424.6945,1.6216,1.3743,3.2546,2.1048,4.8372.8137,1.7644,1.6772,3.4692,2.5335,5.1857.7636,1.531,1.5105,3.0818,2.3083,4.5748.9016,1.6886,1.86,3.3134,2.8047,4.9513.8234,1.4292,1.6284,2.8793,2.4849,4.2688.994,1.6124,2.0461,3.1554,3.085,4.716.8843,1.3292,1.746,2.6843,2.6624,3.9721C2114.7649,998.5344,2115.9078,999.983,2117.0351,1001.4531Z"/><path fill="none" stroke="#304063" stroke-linejoin="round" stroke-width="2" d="M2443.1412,653.5713a54.4935,54.4935,0,0,0-26.5914,43.8921"/><path fill="none" stroke="#304063" stroke-linejoin="round" stroke-width="2" d="M2304.0508,449.8224l-9.7686,6.0218"/><path fill="#5b80e3" d="M1528.0808,2108.371l170.8662-88.1961c118.1,77.6837,190.1692,681.5652,190.1692,681.5652l-274.4946-143.51Z"/><g clip-path="url(#j)"><g opacity=".16"><polygon fill="none" stroke="#304063" stroke-linejoin="round" stroke-width="2" points="1764.158 2906.779 1721.18 2938.633 1079.286 2240.381 1122.264 2208.527 1764.158 2906.779"/><polygon fill="none" stroke="#304063" stroke-linejoin="round" stroke-width="2" points="1846.123 2846.031 1803.145 2877.884 1161.251 2179.632 1204.229 2147.778 1846.123 2846.031"/><polygon fill="none" stroke="#304063" stroke-linejoin="round" stroke-width="2" points="1928.088 2785.282 1885.11 2817.135 1243.216 2118.883 1286.194 2087.029 1928.088 2785.282"/><polygon fill="none" stroke="#304063" stroke-linejoin="round" stroke-width="2" points="2010.053 2724.533 1967.075 2756.386 1325.181 2058.134 1368.159 2026.28 2010.053 2724.533"/><polygon fill="none" stroke="#304063" stroke-linejoin="round" stroke-width="2" points="2092.018 2663.784 2049.04 2695.637 1407.146 1997.385 1450.124 1965.531 2092.018 2663.784"/><polygon fill="none" stroke="#304063" stroke-linejoin="round" stroke-width="2" points="2173.983 2603.035 2131.005 2634.888 1489.111 1936.636 1532.089 1904.783 2173.983 2603.035"/><polygon fill="none" stroke="#304063" stroke-linejoin="round" stroke-width="2" points="2255.948 2542.286 2212.97 2574.139 1571.076 1875.887 1614.054 1844.034 2255.948 2542.286"/><polygon fill="none" stroke="#304063" stroke-linejoin="round" stroke-width="2" points="2337.913 2481.537 2294.935 2513.391 1653.041 1815.138 1696.019 1783.285 2337.913 2481.537"/></g><g opacity=".46"><polygon fill="none" stroke="#304063" stroke-linejoin="round" stroke-width="2" points="1036.378 2365.668 992.68 2318.134 1797.458 1721.667 1841.156 1769.201 1036.378 2365.668"/><polygon fill="none" stroke="#304063" stroke-linejoin="round" stroke-width="2" points="1119.715 2456.322 1076.017 2408.788 1880.795 1812.321 1924.493 1859.855 1119.715 2456.322"/><polygon fill="none" stroke="#304063" stroke-linejoin="round" stroke-width="2" points="1203.052 2546.977 1159.355 2499.442 1964.133 1902.975 2007.83 1950.51 1203.052 2546.977"/><polygon fill="none" stroke="#304063" stroke-linejoin="round" stroke-width="2" points="1286.39 2637.631 1242.692 2590.097 2047.47 1993.63 2091.168 2041.164 1286.39 2637.631"/><polygon fill="none" stroke="#304063" stroke-linejoin="round" stroke-width="2" points="1369.727 2728.285 1326.029 2680.751 2130.807 2084.284 2174.505 2131.818 1369.727 2728.285"/><polygon fill="none" stroke="#304063" stroke-linejoin="round" stroke-width="2" points="1453.064 2818.94 1409.367 2771.405 2214.145 2174.938 2257.842 2222.473 1453.064 2818.94"/><polygon fill="none" stroke="#304063" stroke-linejoin="round" stroke-width="2" points="1536.402 2909.594 1492.704 2862.06 2297.482 2265.593 2341.18 2313.127 1536.402 2909.594"/><polygon fill="none" stroke="#304063" stroke-linejoin="round" stroke-width="2" points="1619.739 3000.248 1576.041 2952.714 2380.819 2356.247 2424.517 2403.781 1619.739 3000.248"/></g></g><path fill="none" stroke="#304063" stroke-linejoin="round" stroke-width="2" d="M1528.0808,2108.371l170.8662-88.1961c118.1,77.6837,190.1692,681.5652,190.1692,681.5652l-274.4946-143.51Z"/><path fill="#5b80e3" d="M1700.0323,2259.9685c-6.35,116.8186-19.26,271.6929-45.14,451.6228l-596.4043-38.2835-239.5858-455.26.93-211.9172s411.7513-373.6434,885.7765,19.5187"/><g clip-path="url(#k)"><path fill="#5b83e4" d="M948.8771,2233.5331c177.3378-106.8384,38.41,296.1085,214.0778,245.1008s196.34,81.0872,196.34,81.0872l-228.6474,246.68L718.6453,2637.7959l137.9076-289.5272"/><g opacity=".16"><polygon fill="none" stroke="#304063" stroke-linejoin="round" stroke-width="2" points="1317.815 2824.469 1274.836 2856.322 632.942 2158.07 675.92 2126.216 1317.815 2824.469"/><polygon fill="none" stroke="#304063" stroke-linejoin="round" stroke-width="2" points="1399.78 2763.72 1356.801 2795.573 714.907 2097.321 757.885 2065.467 1399.78 2763.72"/><polygon fill="none" stroke="#304063" stroke-linejoin="round" stroke-width="2" points="1481.745 2702.971 1438.766 2734.824 796.872 2036.572 839.85 2004.719 1481.745 2702.971"/><polygon fill="none" stroke="#304063" stroke-linejoin="round" stroke-width="2" points="1563.71 2642.222 1520.731 2674.075 878.837 1975.823 921.815 1943.97 1563.71 2642.222"/><polygon fill="none" stroke="#304063" stroke-linejoin="round" stroke-width="2" points="1645.675 2581.473 1602.696 2613.327 960.802 1915.074 1003.78 1883.221 1645.675 2581.473"/><polygon fill="none" stroke="#304063" stroke-linejoin="round" stroke-width="2" points="1727.64 2520.724 1684.661 2552.578 1042.767 1854.325 1085.745 1822.472 1727.64 2520.724"/><polygon fill="none" stroke="#304063" stroke-linejoin="round" stroke-width="2" points="1809.604 2459.975 1766.626 2491.829 1124.732 1793.576 1167.71 1761.723 1809.604 2459.975"/><polygon fill="none" stroke="#304063" stroke-linejoin="round" stroke-width="2" points="1891.569 2399.226 1848.591 2431.08 1206.697 1732.827 1249.675 1700.974 1891.569 2399.226"/></g><g opacity=".46"><polygon fill="none" stroke="#304063" stroke-linejoin="round" stroke-width="2" points="590.034 2283.357 546.336 2235.823 1351.114 1639.356 1394.812 1686.89 590.034 2283.357"/><polygon fill="none" stroke="#304063" stroke-linejoin="round" stroke-width="2" points="673.371 2374.012 629.674 2326.477 1434.452 1730.01 1478.149 1777.545 673.371 2374.012"/><polygon fill="none" stroke="#304063" stroke-linejoin="round" stroke-width="2" points="756.709 2464.666 713.011 2417.132 1517.789 1820.665 1561.487 1868.199 756.709 2464.666"/><polygon fill="none" stroke="#304063" stroke-linejoin="round" stroke-width="2" points="840.046 2555.32 796.348 2507.786 1601.126 1911.319 1644.824 1958.853 840.046 2555.32"/><polygon fill="none" stroke="#304063" stroke-linejoin="round" stroke-width="2" points="923.383 2645.975 879.686 2598.44 1684.464 2001.973 1728.161 2049.508 923.383 2645.975"/><polygon fill="none" stroke="#304063" stroke-linejoin="round" stroke-width="2" points="1006.721 2736.629 963.023 2689.095 1767.801 2092.628 1811.499 2140.162 1006.721 2736.629"/><polygon fill="none" stroke="#304063" stroke-linejoin="round" stroke-width="2" points="1090.058 2827.283 1046.36 2779.749 1851.138 2183.282 1894.836 2230.816 1090.058 2827.283"/><polygon fill="none" stroke="#304063" stroke-linejoin="round" stroke-width="2" points="1173.396 2917.938 1129.698 2870.403 1934.476 2273.936 1978.174 2321.471 1173.396 2917.938"/></g></g><path fill="none" stroke="#304063" stroke-linejoin="round" stroke-width="2" d="M1700.0323,2259.9685c-6.35,116.8186-19.26,271.6929-45.14,451.6228l-596.4043-38.2835-239.5858-455.26.93-211.9172s411.7513-373.6434,885.7765,19.5187"/><polyline fill="#fff" points="1213.316 1851.639 1263.011 1661.545 1404.885 1707.602 1404.885 1867.714 1409.508 1929.081 1390.953 1966.573 1351.985 1960.664 1270.413 1953.491"/><g clip-path="url(#l)"><path fill="#fdfefe" d="M1448.7708,1900.8533c-178.9885-35.0717-23.2394-76.1889-87.0078-106.2088-17.5424-8.2583,10.38-94.0614,10.38-94.0614l48.6322,31.813"/></g><polyline fill="none" stroke="#304063" stroke-linejoin="round" stroke-width="2" points="1213.316 1851.639 1263.011 1661.545 1404.885 1707.602 1404.885 1867.714 1409.508 1929.081 1390.953 1966.573 1351.985 1960.664 1270.413 1953.491"/><path fill="#fff" stroke="#304063" stroke-linejoin="round" stroke-width="2" d="M1296.5587,1655.7542l49.8934-118.2091,140.2365-109.9023c21.0128,126.96,147.2887,483.5036-131.036,346.2592"/><path fill="#0b1753" stroke="#304063" stroke-linejoin="round" stroke-width="2" d="M1277.56,1663.6391c52.6987,20.896,125.4352-83.7319,94.3757-117.4839,0,0,88.7783,35.6625,151.3263-16.1132,212.1654,27.3581,198.1439-233.3383,12.0453-158.7394-96.8783-53.3106-204.6949-.6723-199.9942,58.9812C1262.43,1365.87,1120.5633,1601.387,1277.56,1663.6391Z"/><path fill="#fff" stroke="#304063" stroke-linejoin="round" stroke-width="2" d="M1268.4211,1720.1269c-94.9624-80.1449-23.9009-200.0069,84.5528-55.0506"/><path fill="none" stroke="#304063" stroke-linejoin="round" stroke-width="2" d="M1513.2126,1428.962a84.192,84.192,0,0,1-24.8,38.4935"/><path fill="none" stroke="#304063" stroke-linejoin="round" stroke-width="2" d="M1254.656,1506.6272l-1.2178,1.6247"/><path fill="#fff" stroke="#304063" stroke-linejoin="round" stroke-width="2" d="M1502.59,1599.7032c55.7859,14.7566,54.36,68.9617,18.5542,67.7155"/><ellipse cx="1432.383" cy="1654.326" fill="#fdfefe" opacity=".27" rx="30.06" ry="22.166" transform="rotate(-8.148 1432.384 1654.329)"/><path fill="none" stroke="#304063" stroke-linejoin="round" stroke-width="2" d="M1454.3872,1680.8558c23.59,19.7531,48.24,9.0417,48.24,9.0417"/><path fill="none" stroke="#304063" stroke-linejoin="round" stroke-width="2" d="M1297.0543,1659.2154c-4.6673-5.8656-14.8419-5.9963-19.6582-.2525s-2.9142,15.74,3.6751,19.3133"/><path fill="#bebdff" stroke="#304063" stroke-linejoin="round" stroke-width="2" d="M1420.8772,2047.6112l-68.892-86.9476s56.0709-16.4344,59.9-127.0541l55.1457,46.1708Z"/><path fill="#bebdff" stroke="#304063" stroke-linejoin="round" stroke-width="2" d="M1140.2784,1856.3166c28.8525-49.9623,85.6741-59.4028,85.6741-59.4028s-14.5256,121.7921,126.0327,163.75L1278.15,2061.2474S1149.1879,1938.7961,1140.2784,1856.3166Z"/><path fill="#5b80e3" d="M831.9549,1995.9725c-107.242,81.4523-254.8467,512.9963-156.7151,715.6188l315.6125-136.6308s-26.2238,67.6716-25.81,57.0515c1.9567-50.192,32.836-307.8087,11.1032-425.019"/><g clip-path="url(#m)"><g opacity=".16"><polygon fill="none" stroke="#304063" stroke-linejoin="round" stroke-width="2" points="872.509 2899.604 829.531 2931.457 187.636 2233.205 230.615 2201.352 872.509 2899.604"/><polygon fill="none" stroke="#304063" stroke-linejoin="round" stroke-width="2" points="954.474 2838.855 911.496 2870.708 269.601 2172.456 312.58 2140.603 954.474 2838.855"/><polygon fill="none" stroke="#304063" stroke-linejoin="round" stroke-width="2" points="1036.439 2778.106 993.461 2809.96 351.566 2111.707 394.545 2079.854 1036.439 2778.106"/><polygon fill="none" stroke="#304063" stroke-linejoin="round" stroke-width="2" points="1118.404 2717.357 1075.426 2749.211 433.531 2050.958 476.509 2019.105 1118.404 2717.357"/><polygon fill="none" stroke="#304063" stroke-linejoin="round" stroke-width="2" points="1200.369 2656.608 1157.391 2688.462 515.496 1990.209 558.474 1958.356 1200.369 2656.608"/><polygon fill="none" stroke="#304063" stroke-linejoin="round" stroke-width="2" points="1282.334 2595.859 1239.356 2627.713 597.461 1929.461 640.439 1897.607 1282.334 2595.859"/><polygon fill="none" stroke="#304063" stroke-linejoin="round" stroke-width="2" points="1364.299 2535.11 1321.321 2566.964 679.426 1868.712 722.404 1836.858 1364.299 2535.11"/><polygon fill="none" stroke="#304063" stroke-linejoin="round" stroke-width="2" points="1446.264 2474.361 1403.286 2506.215 761.391 1807.963 804.369 1776.109 1446.264 2474.361"/></g><g opacity=".46"><polygon fill="none" stroke="#304063" stroke-linejoin="round" stroke-width="2" points="144.728 2358.492 101.031 2310.958 905.809 1714.491 949.506 1762.026 144.728 2358.492"/><polygon fill="none" stroke="#304063" stroke-linejoin="round" stroke-width="2" points="228.066 2449.147 184.368 2401.612 989.146 1805.145 1032.844 1852.68 228.066 2449.147"/><polygon fill="none" stroke="#304063" stroke-linejoin="round" stroke-width="2" points="311.403 2539.801 267.705 2492.267 1072.483 1895.8 1116.181 1943.334 311.403 2539.801"/><polygon fill="none" stroke="#304063" stroke-linejoin="round" stroke-width="2" points="394.74 2630.455 351.043 2582.921 1155.821 1986.454 1199.518 2033.988 394.74 2630.455"/><polygon fill="none" stroke="#304063" stroke-linejoin="round" stroke-width="2" points="478.078 2721.11 434.38 2673.575 1239.158 2077.108 1282.856 2124.643 478.078 2721.11"/><polygon fill="none" stroke="#304063" stroke-linejoin="round" stroke-width="2" points="561.415 2811.764 517.717 2764.23 1322.495 2167.763 1366.193 2215.297 561.415 2811.764"/><polygon fill="none" stroke="#304063" stroke-linejoin="round" stroke-width="2" points="644.752 2902.418 601.055 2854.884 1405.833 2258.417 1449.53 2305.951 644.752 2902.418"/><polygon fill="none" stroke="#304063" stroke-linejoin="round" stroke-width="2" points="728.09 2993.073 684.392 2945.538 1489.17 2349.071 1532.868 2396.606 728.09 2993.073"/></g></g><path fill="none" stroke="#304063" stroke-linejoin="round" stroke-width="2" d="M831.9549,1995.9725c-107.242,81.4523-254.8467,512.9963-156.7151,715.6188l315.6125-136.6308s-26.2238,67.6716-25.81,57.0515c1.9567-50.192,32.836-307.8087,11.1032-425.019"/><path fill="#fff" d="M1275.2674,2535.3035s201.6931-22.6169,223.0707-19.8285,103.1884-14.8816,108.4257-17.297c46.2093-21.3115-11.3574,52.9894-82.4008,51.6871,0,0,65.7406,41.4089,66.257,53.4919s-7.8488,12.083-7.8488,12.083,5.5768,13.0125-4.3375,20.4482c-34.08-17.97-78.8563-32.4242-83.8135-26.2278s-100.3042,42.3384-180.2379,26.2278S1275.2674,2535.3035,1275.2674,2535.3035Z"/><g clip-path="url(#n)"><path fill="#fdfefe" d="M1321.2154,2535.3035c36.249-18.5892,61.3444,94.805,67.8506,131.054s-85.51,2.7884-85.51,2.7884"/></g><path fill="none" stroke="#304063" stroke-linejoin="round" stroke-width="2" d="M1275.2674,2535.3035s201.6931-22.6169,223.0707-19.8285,103.1884-14.8816,108.4257-17.297c46.2093-21.3115-11.3574,52.9894-82.4008,51.6871,0,0,65.7406,41.4089,66.257,53.4919s-7.8488,12.083-7.8488,12.083,5.5768,13.0125-4.3375,20.4482c-34.08-17.97-78.8563-32.4242-83.8135-26.2278s-100.3042,42.3384-180.2379,26.2278S1275.2674,2535.3035,1275.2674,2535.3035Z"/><circle cx="1355.15" cy="2077.425" r="16.177" fill="#fff" stroke="#304063" stroke-linejoin="round" stroke-width="2"/><circle cx="1355.15" cy="2205.383" r="16.177" fill="#fff" stroke="#304063" stroke-linejoin="round" stroke-width="2"/><rect width="523.239" height="37.959" x="1088.088" y="2673.308" fill="#e9effd" stroke="#304063" stroke-linejoin="round" stroke-width="2"/><path fill="#fdfefe" stroke="#304063" stroke-linejoin="round" stroke-width="2" d="M2221.857,2711.2986H1531.7987l122.0119-532.925a27.4163,27.4163,0,0,1,26.7248-21.2978h636.9924a24.8778,24.8778,0,0,1,24.25,30.43Z"/><path fill="#e9effd" d="M2241.83,2711.2986H1551.7719l122.0119-532.925a27.4163,27.4163,0,0,1,26.7248-21.2978H2337.501a24.8778,24.8778,0,0,1,24.25,30.43Z"/><g clip-path="url(#o)"><path fill="#e9effd" d="M1590.643,2743.5473c40.8232-108.7469,589.0172,39.0163,706.6881-274.6663s98.1522,257.936,98.1522,257.936l-458.3759,83.6515-405.3087-61.3444"/></g><path fill="none" stroke="#304063" stroke-linejoin="round" stroke-width="2" d="M2241.83,2711.2986H1551.7719l122.0119-532.925a27.4163,27.4163,0,0,1,26.7248-21.2978H2337.501a24.8778,24.8778,0,0,1,24.25,30.43Z"/><path fill="#5b80e3" d="M916.9505,2518.027c190.71-17.8431,417.8024,8.6015,417.8024,8.6015,27.8838,66.9212,22.3071,163.5852,22.3071,163.5852s-619.0366,151.0357-681.82,21.3776c-6.6019-13.634-16.3667-39.7914-18.6889-51.6935"/><g clip-path="url(#p)"><g opacity=".16"><polygon fill="none" stroke="#304063" stroke-linejoin="round" stroke-width="2" points="1062.593 3183.82 1019.615 3215.674 377.72 2517.421 420.698 2485.568 1062.593 3183.82"/><polygon fill="none" stroke="#304063" stroke-linejoin="round" stroke-width="2" points="1144.558 3123.071 1101.58 3154.925 459.685 2456.672 502.663 2424.819 1144.558 3123.071"/><polygon fill="none" stroke="#304063" stroke-linejoin="round" stroke-width="2" points="1226.523 3062.322 1183.545 3094.176 541.65 2395.923 584.628 2364.07 1226.523 3062.322"/><polygon fill="none" stroke="#304063" stroke-linejoin="round" stroke-width="2" points="1308.488 3001.573 1265.51 3033.427 623.615 2335.174 666.593 2303.321 1308.488 3001.573"/><polygon fill="none" stroke="#304063" stroke-linejoin="round" stroke-width="2" points="1390.453 2940.824 1347.475 2972.678 705.58 2274.426 748.558 2242.572 1390.453 2940.824"/><polygon fill="none" stroke="#304063" stroke-linejoin="round" stroke-width="2" points="1472.418 2880.075 1429.439 2911.929 787.545 2213.677 830.523 2181.823 1472.418 2880.075"/><polygon fill="none" stroke="#304063" stroke-linejoin="round" stroke-width="2" points="1554.383 2819.326 1511.404 2851.18 869.51 2152.928 912.488 2121.074 1554.383 2819.326"/><polygon fill="none" stroke="#304063" stroke-linejoin="round" stroke-width="2" points="1636.348 2758.577 1593.369 2790.431 951.475 2092.179 994.453 2060.325 1636.348 2758.577"/></g><g opacity=".46"><polygon fill="none" stroke="#304063" stroke-linejoin="round" stroke-width="2" points="334.812 2642.709 291.114 2595.174 1095.892 1998.707 1139.59 2046.242 334.812 2642.709"/><polygon fill="none" stroke="#304063" stroke-linejoin="round" stroke-width="2" points="418.15 2733.363 374.452 2685.829 1179.23 2089.362 1222.928 2136.896 418.15 2733.363"/><polygon fill="none" stroke="#304063" stroke-linejoin="round" stroke-width="2" points="501.487 2824.017 457.789 2776.483 1262.567 2180.016 1306.265 2227.55 501.487 2824.017"/><polygon fill="none" stroke="#304063" stroke-linejoin="round" stroke-width="2" points="584.824 2914.672 541.127 2867.137 1345.905 2270.67 1389.602 2318.205 584.824 2914.672"/><polygon fill="none" stroke="#304063" stroke-linejoin="round" stroke-width="2" points="668.162 3005.326 624.464 2957.791 1429.242 2361.325 1472.94 2408.859 668.162 3005.326"/><polygon fill="none" stroke="#304063" stroke-linejoin="round" stroke-width="2" points="751.499 3095.98 707.801 3048.446 1512.579 2451.979 1556.277 2499.513 751.499 3095.98"/><polygon fill="none" stroke="#304063" stroke-linejoin="round" stroke-width="2" points="834.836 3186.634 791.139 3139.1 1595.917 2542.633 1639.614 2590.168 834.836 3186.634"/><polygon fill="none" stroke="#304063" stroke-linejoin="round" stroke-width="2" points="918.174 3277.289 874.476 3229.754 1679.254 2633.287 1722.952 2680.822 918.174 3277.289"/></g></g><path fill="none" stroke="#304063" stroke-linejoin="round" stroke-width="2" d="M916.9505,2518.027c190.71-17.8431,417.8024,8.6015,417.8024,8.6015,27.8838,66.9212,22.3071,163.5852,22.3071,163.5852s-619.0366,151.0357-681.82,21.3776c-6.6019-13.634-16.3667-39.7914-18.6889-51.6935"/><path fill="#bebdff" stroke="#304063" stroke-linejoin="round" stroke-width="2" d="M1256.8933,2514.5655s47.6043,104.49,19.62,193.2257l81.3167-11.9333s10.1687-110.0982-23.0767-169.2294Z"/><ellipse cx="1992.4" cy="2406.108" fill="#fff" stroke="#304063" stroke-linejoin="round" stroke-width="2" rx="71.828" ry="56.637" transform="rotate(-43.808 1992.403 2406.11)"/><rect width="152.115" height="30.013" x="1454.211" y="2175.37" fill="#fff" stroke="#304063" stroke-linejoin="round" stroke-width="2"/><path fill="none" stroke="#304063" stroke-linejoin="round" stroke-width="2" d="M837.0084,2013.6386c111.4637,35.4062,133.7565,149.4926,133.7565,149.4926"/><path fill="none" stroke="#304063" stroke-linejoin="round" stroke-width="2" d="M1634.3019,2121.1683c7.868-41.9628,61.6329-82.6142,61.6329-82.6142"/><path fill="none" stroke="#304063" stroke-linejoin="round" stroke-width="2" d="M1167.4133,2275.9216a204.422,204.422,0,0,0,45.4429,80.4768"/><path fill="none" stroke="#304063" stroke-linejoin="round" stroke-width="2" d="M1867.1035,2255.2092l-34.86,31.5918"/><rect width="1239.515" height="826.343" x="2232.477" y="1248.514" fill="#dbdbf2" rx="94.98"/><g clip-path="url(#q)"><rect width="658.112" height="130.177" x="2349.702" y="1749.414" fill="#fff" stroke="#304063" stroke-linejoin="round" stroke-width="2" rx="17.38"/><rect width="245.547" height="130.177" x="3109.22" y="1749.414" fill="#fff" stroke="#304063" stroke-linejoin="round" stroke-width="2" rx="17.38"/></g><rect width="1239.515" height="826.343" x="2232.477" y="1248.514" fill="none" stroke="#304063" stroke-linejoin="round" stroke-width="2" rx="94.98"/><rect width="272.291" height="183.134" x="3094.752" y="1401.6" fill="#0b1753" stroke="#304063" stroke-linejoin="round" stroke-width="2" rx="50.325"/><rect width="10.241" height="90.361" x="3180.596" y="1401.6" fill="#0b1753" stroke="#304063" stroke-linejoin="round" stroke-width="2"/><rect width="10.241" height="90.361" x="3273.218" y="1491.961" fill="#0b1753" stroke="#304063" stroke-linejoin="round" stroke-width="2"/><rect width="272.291" height="8.438" x="3094.752" y="1487.743" fill="#0b1753" stroke="#304063" stroke-linejoin="round" stroke-width="2"/><circle cx="2480.281" cy="1493.167" r="117.489" fill="#fff" stroke="#304063" stroke-linejoin="round" stroke-width="2"/><circle cx="2671.426" cy="1493.167" r="117.489" fill="#0b1753" stroke="#304063" stroke-linejoin="round" stroke-width="2"/><rect width="1239.515" height="826.343" x="2232.477" y="1261.156" fill="#fff" rx="94.98"/><g clip-path="url(#r)"><rect width="658.112" height="130.177" x="2349.702" y="1762.056" fill="#dbdbf2" stroke="#304063" stroke-linejoin="round" stroke-width="2" rx="17.38"/><rect width="245.547" height="130.177" x="3109.22" y="1762.056" fill="#dbdbf2" stroke="#304063" stroke-linejoin="round" stroke-width="2" rx="17.38"/><path fill="#dbdbf2" d="M2193.3694,2046.3262s1133.5,67.0089,1223.1139-9.688c42.1216-36.05,55.5089-361.0993,55.5089-361.0993l31.6833,467.6677-1230.38,24.22"/></g><rect width="1239.515" height="826.343" x="2232.477" y="1261.156" fill="none" stroke="#304063" stroke-linejoin="round" stroke-width="2" rx="94.98"/><rect width="272.291" height="183.134" x="3094.752" y="1414.243" fill="#0b1753" rx="50.325"/><g clip-path="url(#s)"><polygon fill="#e9effd" stroke="#304063" stroke-linejoin="round" stroke-width="2" points="3400.061 1500.567 3181.122 1500.567 3181.122 1393.535 3168.398 1393.535 3168.398 1500.567 3061.735 1500.567 3061.735 1511.052 3283.479 1511.052 3283.479 1618.084 3296.203 1618.084 3296.203 1511.052 3400.061 1511.052 3400.061 1500.567"/></g><rect width="272.291" height="183.134" x="3094.752" y="1414.243" fill="none" stroke="#304063" stroke-linejoin="round" stroke-width="2" rx="50.325"/><circle cx="2480.281" cy="1505.81" r="117.489" fill="#e9effd" stroke="#304063" stroke-linejoin="round" stroke-width="2"/><circle cx="2671.426" cy="1505.81" r="117.489" fill="#fdfefe" stroke="#304063" stroke-linejoin="round" stroke-width="2"/><path fill="none" stroke="#304063" stroke-linejoin="round" stroke-width="2" d="M2572.7222,1313.3506a130.9492,130.9492,0,0,1-43.2842,37.6083"/><path fill="none" stroke="#304063" stroke-linejoin="round" stroke-width="2" d="M3153.2125,1706.7362l-29.2393,41.8591"/><path fill="#fff" stroke="#304063" stroke-linejoin="round" stroke-width="2" d="M2977.4125,2170.3h-11.4677V1838.683c0-75.33-61.2861-136.6157-136.6157-136.6157-75.3351,0-136.6212,61.2861-136.6212,136.6157V2170.3H2681.24V1838.683c0-81.6514,66.432-148.0834,148.0889-148.0834,81.6514,0,148.0834,66.432,148.0834,148.0834Z"/><polygon fill="#fff" stroke="#304063" stroke-linejoin="round" stroke-width="2" points="3273.662 2685.561 2384.993 2685.561 2453.605 2088.78 3205.051 2088.78 3273.662 2685.561"/><polygon fill="#fff" points="3331.491 2685.561 2442.822 2685.561 2511.433 2088.78 3262.88 2088.78 3331.491 2685.561"/><g clip-path="url(#t)"><path fill="#fff" d="M3262.88,2088.78c216.8063,725.4673-820.0579,596.7807-820.0579,596.7807l749.0458,284.3548,321.04-64.2482-137.5886-886.364-101.6565-37.5242"/></g><polygon fill="none" stroke="#304063" stroke-linejoin="round" stroke-width="2" points="3331.491 2685.561 2442.822 2685.561 2511.433 2088.78 3262.88 2088.78 3331.491 2685.561"/><circle cx="2744.805" cy="2170.298" r="12.167" fill="#fff"/><circle cx="3029.508" cy="2170.298" r="12.167" fill="#fff"/><path fill="#fff" stroke="#304063" stroke-linejoin="round" stroke-width="2" d="M3035.2437,2170.3H3023.776V1838.683c0-75.33-61.2861-136.6157-136.6213-136.6157-75.3295,0-136.6156,61.2861-136.6156,136.6157V2170.3h-11.4677V1838.683c0-81.6514,66.432-148.0834,148.0833-148.0834,81.657,0,148.089,66.432,148.089,148.0834Z"/><polygon fill="#fff" stroke="#304063" stroke-linejoin="round" stroke-width="2" points="2883.814 2355.743 2799.746 2535.032 2997.049 2518.193 2883.814 2355.743"/><circle cx="2732.638" cy="2333.907" r="73.233" fill="#0b1753" stroke="#304063" stroke-linejoin="round" stroke-width="2"/><rect width="106.526" height="106.526" x="2964.078" y="2280.644" fill="#fff"/><path fill="none" stroke="#304063" stroke-linejoin="round" stroke-width="2" d="M2616.4447,2145.3863l-20.8468,25.0161"/><path fill="none" stroke="#304063" stroke-linejoin="round" stroke-width="2" d="M3170.9685,2487.2732a332.4218,332.4218,0,0,1-41.6935,62.54"/><path fill="#fff" stroke="#304063" stroke-linejoin="round" stroke-width="2" d="M3248.7929,2246.9878h-9.7609V1964.7266a116.2851,116.2851,0,0,0-232.57,0v282.2612h-9.7609V1964.7266a126.046,126.046,0,0,1,252.0919,0Z"/><polygon fill="#fff" stroke="#304063" stroke-linejoin="round" stroke-width="2" points="3500.951 2685.561 2744.545 2685.561 2802.945 2177.601 3442.551 2177.601 3500.951 2685.561"/><polygon fill="#fff" points="3550.173 2685.561 2793.767 2685.561 2852.167 2177.601 3491.773 2177.601 3550.173 2685.561"/><g clip-path="url(#u)"><path fill="#fff" d="M3442.5512,2177.6009c146.0589,608.0406-698.0059,507.96-698.0059,507.96l482.0858,187.3474,503.9315-23.3879-74.5251-819.4974-164.2644,147.5781"/></g><polygon fill="none" stroke="#304063" stroke-linejoin="round" stroke-width="2" points="3550.173 2685.561 2793.767 2685.561 2852.167 2177.601 3491.773 2177.601 3550.173 2685.561"/><circle cx="3050.805" cy="2246.986" r="10.356" fill="#fff"/><circle cx="3293.135" cy="2246.986" r="10.356" fill="#fff"/><path fill="#fff" stroke="#304063" stroke-linejoin="round" stroke-width="2" d="M3298.017,2246.9878h-9.761V1964.7266a116.2851,116.2851,0,0,0-232.57,0v282.2612h-9.7609V1964.7266a126.046,126.046,0,0,1,252.092,0Z"/><polygon fill="#fff" stroke="#304063" stroke-linejoin="round" stroke-width="2" points="3145.021 2373.644 3073.465 2526.248 3241.402 2511.915 3145.021 2373.644"/><circle cx="3016.345" cy="2355.057" r="62.333" fill="#0b1753" stroke="#304063" stroke-linejoin="round" stroke-width="2"/><rect width="90.672" height="90.672" x="3213.339" y="2309.721" fill="#fff" stroke="#304063" stroke-linejoin="round" stroke-width="2"/><path fill="none" stroke="#304063" stroke-linejoin="round" stroke-width="2" d="M2953.328,2222.2335l-24.8417,17.744"/><path fill="none" stroke="#304063" stroke-linejoin="round" stroke-width="2" d="M3386.3275,2562.9506a80.99,80.99,0,0,1-35.5473,28.3229"/></g></svg>