<svg xmlns="http://www.w3.org/2000/svg" viewBox="0 0 4000 3000"><defs><clipPath id="a"><rect width="4000" height="3000" y="43.468" fill="none"/></clipPath><clipPath id="b"><polygon fill="#0b1753" stroke="#304063" stroke-linejoin="round" stroke-width="2" points="2055.133 756.284 1349.287 1628.069 818.341 1086.754 1415.195 349.585 2055.133 756.284"/></clipPath><clipPath id="c"><polygon fill="#fff" stroke="#304063" stroke-linejoin="round" stroke-width="2" points="1179.339 1020.137 1378.161 1211.996 1550.774 738.24 1179.339 1020.137"/></clipPath><clipPath id="d"><rect width="1395.688" height="2668" x="1419.599" y="209.468" fill="#fff" stroke="#304063" stroke-linejoin="round" stroke-width="2" rx="171.274"/></clipPath><clipPath id="e"><path fill="#5b80e3" stroke="#304063" stroke-linejoin="round" stroke-width="2" d="M2751.1851,763.6619h-34.6032a136.8085,136.8085,0,0,1-136.8085-136.8085V539.5543h308.22v87.2991A136.8084,136.8084,0,0,1,2751.1851,763.6619Z"/></clipPath><clipPath id="f"><path fill="#fff" stroke="#304063" stroke-linejoin="round" stroke-width="2" d="M2879.9137,1009.4214q2.3724-1.4728,4.7706-2.9285,3.6749-2.2371,7.402-4.4427c1.5812-.9353,3.1614-1.8706,4.7559-2.7964q4.1182-2.3938,8.3-4.743c1.2742-.7186,2.5388-1.4448,3.8211-2.1567q6.0987-3.3891,12.3-6.6963c.2818-.15.5694-.2957.8517-.4449q5.753-3.0512,11.5962-6.0186c1.277-.65,2.563-1.2908,3.8457-1.9343q4.5874-2.3055,9.2181-4.5615,1.7772-.8654,3.5572-1.7271,6.2413-3.0012,12.5467-5.9188l.164-.0741q6.2305-2.8686,12.5287-5.6337,1.3808-.6087,2.7621-1.2157,6.1815-2.7,12.408-5.3124.8967-.3749,1.7955-.7471,6.396-2.6619,12.8309-5.2268.7472-.2966,1.4951-.59,6.4581-2.5563,12.9441-5.01.7363-.2781,1.4733-.5541,6.4986-2.4425,13.0148-4.7773c.471-.1692.9415-.3393,1.4129-.5066q6.761-2.41,13.53-4.6993c.2376-.0808.4753-.1635.7129-.2434q6.7167-2.2654,13.4293-4.4018c.4633-.1473.9272-.3,1.39-.4477,4.052-1.286,8.0983-2.5245,12.1418-3.7421q2.197-.6615,4.39-1.307c2.4746-.73,4.9436-1.4343,7.4125-2.1386q4.7457-1.3545,9.4751-2.6415c2.6577-.7233,5.3162-1.4485,7.9644-2.14,3.1732-.8289,6.33-1.6121,9.487-2.3943,1.872-.4648,3.7512-.9487,5.6165-1.3963,3.6956-.8869,7.3674-1.7176,11.0345-2.5388,1.31-.2928,2.6319-.6122,3.9379-.8973,2.0189-.44,4.0145-.8346,6.0234-1.2547,2.6709-.5579,5.35-1.133,8.0023-1.6539.7642-.15,1.519-.2851,2.2813-.4325q5.2011-1.0036,10.3481-1.9133c1.3336-.2358,2.66-.461,3.9884-.6863q4.34-.7386,8.6325-1.4011c1.4543-.2252,2.91-.4552,4.3562-.6691,3.0174-.4458,6.0081-.8526,8.988-1.2452,1.18-.1549,2.3734-.327,3.5482-.4743,2.094-.2614,4.149-.4724,6.2221-.7062,2.3886-.27,4.79-.5551,7.15-.788,1.5184-.15,3.004-.2585,4.5106-.3925,3.1462-.2814,6.2824-.5494,9.3725-.7623,1.5754-.1094,3.1234-.1854,4.6836-.2757q5.0244-.2924,9.9423-.4657,2.4109-.0813,4.7972-.136,5.3838-.1168,10.6106-.0684c1.1853.01,2.3943-.0067,3.5672.0152,4.28.0789,8.4947.2224,12.6076.4667.3754.0228.7309.0637,1.1054.0874,3.5169.2225,6.9786.4972,10.3634.8441,3.4076.35,6.7572.7528,10.0231,1.2309.9667.1416,1.8787.3127,2.8259.4648,2.1709.3479,4.2991.7186,6.3693,1.1207.9049.1758,1.797.3583,2.6828.5436,1.8236.3822,3.601.789,5.3433,1.2138.7927.193,1.5988.3793,2.3744.5808,1.8948.4933,3.7279,1.0171,5.5224,1.5617.4487.135.9235.2585,1.3659.3973q3.2607,1.0266,6.2924,2.1643c.557.2091,1.0755.4363,1.6211.6511,1.4181.557,2.8178,1.1226,4.1589,1.7166.692.3061,1.3507.6293,2.0218.9448,1.1273.53,2.2379,1.0684,3.3073,1.6264.68.3545,1.34.7176,1.9965,1.0835q1.497.8327,2.9147,1.7024c.6212.3811,1.2366.7652,1.8345,1.1568.9472.6206,1.854,1.2584,2.7427,1.9048.5294.3849,1.07.7651,1.5783,1.1587.9662.748,1.8759,1.5208,2.7674,2.3.3631.3175.7528.6245,1.1036.9467q1.8563,1.7081,3.4893,3.5121c.2291.2538.4258.5218.6482.7785.8393.9686,1.642,1.9523,2.3849,2.9608.3036.4116.5788.8355.8668,1.2547q1.001,1.4571,1.8754,2.9646c.2614.4525.5213.9049.7651,1.3631q.9681,1.8249,1.7533,3.7183c.1316.3175.2937.6245.4177.9448l-39.199-101.5019c-.0446-.1141-.0893-.2291-.134-.3431-.0813-.2034-.1982-.3954-.2823-.5979q-.7842-1.8948-1.7542-3.7212c-.105-.1977-.1772-.4088-.2856-.6055-.143-.26-.3317-.5019-.48-.76q-.87-1.507-1.8729-2.9608c-.1882-.2737-.3337-.5646-.5285-.8355-.1046-.1445-.2353-.2794-.3413-.4239-.7423-1.0066-1.5445-1.9894-2.3829-2.958-.1887-.2167-.3426-.4486-.5361-.6654-.0351-.038-.0779-.0741-.1131-.1131q-1.6283-1.805-3.4893-3.5121c-.06-.0561-.1093-.116-.17-.1711-.2909-.2661-.63-.5114-.93-.7737-.8935-.7813-1.805-1.555-2.7726-2.304-.1592-.1236-.2952-.2567-.4558-.3793-.3531-.2671-.7566-.5133-1.1188-.7766-.8887-.6463-1.7955-1.285-2.7422-1.9048-.2694-.1768-.5061-.3678-.78-.5418-.3364-.2138-.7171-.4077-1.06-.6187q-1.4144-.8683-2.91-1.6986c-.38-.212-.7228-.441-1.1111-.6492-.2823-.1511-.6-.2861-.8868-.4363-1.0684-.557-2.1786-1.095-3.3045-1.6244-.4771-.2253-.9129-.4686-1.4-.6891-.2006-.0894-.4249-.1692-.6274-.2586-1.3407-.594-2.74-1.16-4.158-1.7166-.46-.1806-.88-.3792-1.3473-.556-.0865-.0333-.1835-.06-.27-.0932q-3.0363-1.1378-6.2948-2.1652c-.0656-.02-.124-.0447-.1891-.0647-.3755-.1169-.7885-.2157-1.1677-.33-1.7974-.5456-3.6343-1.07-5.532-1.5645-.2581-.0666-.4919-.1464-.7514-.2129-.52-.1322-1.0907-.2386-1.6182-.3669-1.7442-.4249-3.5231-.8327-5.349-1.2148-.4762-.1-.9134-.22-1.3949-.3165-.4134-.0837-.8668-.1454-1.2846-.2262q-3.1066-.6032-6.37-1.1216c-.54-.0865-1.0389-.1958-1.5854-.2785q-.6174-.0942-1.24-.1854-4.6621-.6829-9.5188-1.19c-.1659-.0171-.3432-.0247-.5095-.0418-3.4123-.35-6.9017-.6274-10.4485-.8507-.3265-.021-.6335-.059-.9609-.078l-.049-.0019c-4.1147-.2443-8.3312-.3878-12.6132-.4667-.2985-.0057-.5794-.0275-.8783-.0333-.8745-.0133-1.7984.0248-2.68.0172q-5.244-.04-10.63.0684c-.7319.0162-1.4272-.0057-2.1624.0143-.855.0237-1.7513.0931-2.6115.1226q-4.93.1668-9.9732.4657c-1.0228.06-2.0061.0751-3.035.1426-.5323.0342-1.0864.095-1.6206.1312-3.0982.2138-6.242.4828-9.3967.7642-1.2124.1083-2.3915.1758-3.6124.2946-.2914.0285-.5927.0685-.8845.097-2.3687.2338-4.7782.5209-7.1763.7918-1.7813.2005-3.5345.3659-5.3305.5874-.2832.0351-.5727.0789-.8554.115-1.1863.1483-2.3906.3213-3.5834.479-2.2613.2966-4.5121.58-6.7952.9078-.7158.1036-1.4458.2262-2.1643.3327-1.4524.2148-2.9143.4457-4.3748.672-1.5189.2357-3.0235.45-4.551.6995-1.3393.2187-2.6966.4667-4.042.6949-1.34.2281-2.6795.4552-4.0259.6929-.8441.1483-1.6781.28-2.5241.4334-2.6015.4705-5.2249.9781-7.8474,1.4847-.7456.1445-1.4837.2756-2.2308.422-.1949.038-.3869.0713-.5817.11-2.4961.4923-5.0211,1.0427-7.5338,1.5683-1.9751.4125-3.9365.8-5.9207,1.2328-.1264.0276-.25.05-.3764.078-1.1843.26-2.3858.556-3.5739.8222-3.6642.82-7.3322,1.65-11.0245,2.5359-1.872.45-3.7559.9353-5.6341,1.4011-3.15.78-6.299,1.5626-9.4642,2.3895-.5418.1407-1.0769.2652-1.6192.4088q-1.4115.3706-2.8254.749c-1.171.3136-2.3525.6634-3.5254.9828q-4.7343,1.2889-9.4832,2.6443c-1.1934.34-2.3792.6492-3.574.9961-1.2708.3688-2.5454.76-3.8172,1.1368q-2.2043.65-4.4094,1.3118c-1.0351.3117-2.0674.6083-3.1025.9238q-4.1,1.2519-8.2052,2.5512c-.27.0856-.5418.1749-.8127.26-.4762.1521-.9519.308-1.4282.46-1.9908.6359-3.9816,1.27-5.9729,1.9219q-3.4447,1.1279-6.89,2.2869c-.1815.0609-.3621.1246-.5432.1854-.2381.0808-.4757.1625-.7134.2433q-2.6291.8883-5.2577,1.7917-3.2571,1.125-6.5114,2.2775c-.5894.2081-1.1777.4229-1.767.633q-.7015.2494-1.402.5019c-1.1178.4011-2.2366.7965-3.3539,1.2024q-3.2957,1.1948-6.5866,2.419c-1.03.3821-2.0592.7747-3.0891,1.1615q-.7278.2738-1.4552.5475c-.6773.2566-1.3555.5076-2.0322.7642q-3.285,1.2519-6.5633,2.5293c-1.4609.5694-2.918,1.15-4.3761,1.7271-.4886.1939-.9781.385-1.4667.5789-.4486.1786-.8991.3526-1.3478.5322q-3.7725,1.5086-7.5332,3.0521c-1.3265.5447-2.6486,1.1017-3.9727,1.652-.5922.2471-1.1853.4914-1.7774.74-.5846.2452-1.172.4848-1.7556.73q-4.1733,1.7593-8.326,3.5587c-.7827.3393-1.56.6891-2.3425,1.0313q-1.3674.5975-2.7308,1.2024c-1.288.5684-2.5807,1.1273-3.8648,1.7014q-4.37,1.9533-8.7105,3.9522c-.0437.02-.0874.04-.1311.0589l-.0495.0229q-5.12,2.3582-10.1961,4.7791c-.7775.3717-1.5445.7538-2.3206,1.1273-1.182.5675-2.3578,1.1425-3.5354,1.7157-1.4135.6872-2.8364,1.364-4.2431,2.0588-1.672.826-3.323,1.6719-4.9854,2.5074-1.28.6435-2.5636,1.2823-3.8382,1.93-.6169.3146-1.2428.62-1.8582.9353q-4.926,2.5236-9.7855,5.108c-.2666.1417-.538.2785-.8041.42-.0428.0228-.0865.0446-.1293.0665q-5.5206,2.937-10.9565,5.9445c-.4087.2262-.8075.4591-1.2148.6862-1.2855.7139-2.5521,1.441-3.83,2.1615-1.9514,1.0988-3.918,2.1881-5.8508,3.3021-.8265.4752-1.6316.9647-2.4538,1.4428-1.5868.922-3.16,1.8526-4.7325,2.7831-1.3146.7775-2.65,1.5418-3.9551,2.3259-1.171.7034-2.3116,1.4248-3.4741,2.133q-2.3881,1.4543-4.7554,2.919c-.9182.5693-1.8564,1.1273-2.7688,1.7-1.3911.8725-2.74,1.767-4.1186,2.6462-1.7855,1.1387-3.5711,2.2765-5.3342,3.4275-.6958.4534-1.413.8964-2.1054,1.3526q-4.1384,2.7232-8.1915,5.4873-1.7194,1.1719-3.4114,2.3439c-.4063.2814-.7784.5608-1.1824.8422-3.5958,2.5036-7.1226,5.0054-10.53,7.5-.0742.0541-.1559.1093-.23.1644-1.9167,1.4048-3.7915,2.8078-5.6479,4.2107-.2424.1825-.4952.366-.7366.5485q-3.171,2.4037-6.224,4.7991c-.0693.0542-.1345.1084-.2043.1635q-6.7866,5.3308-12.9887,10.6153c-.0618.0522-.1269.1045-.1882.1568-.2367.2025-.4525.4021-.6882.6036q-3.2535,2.7888-6.337,5.5595c-.6787.6083-1.3469,1.2157-2.0137,1.8221q-2.7181,2.4766-5.3043,4.937c-.3536.3355-.7376.6758-1.0874,1.0113-.1264.1217-.2385.2405-.3645.3621q-3.3227,3.2-6.415,6.3685c-.4881.499-.9562.9951-1.4357,1.4932q-2.5065,2.6034-4.859,5.1812c-.46.5047-.9306,1.01-1.3821,1.5142q-2.8059,3.1252-5.3931,6.2163c-.3251.3888-.6283.7737-.9482,1.1615q-2.1465,2.6078-4.1285,5.1841c-.41.5332-.8227,1.0655-1.2224,1.5959-1.5312,2.0331-3.0064,4.0558-4.3851,6.0595-.1369.1987-.259.3945-.394.5931-1.2452,1.8269-2.4143,3.6367-3.5311,5.4369q-.4962.7985-.9753,1.5931c-1.11,1.844-2.169,3.6746-3.1433,5.4863-.0722.134-.1549.2709-.2262.4049-1.0285,1.93-1.9552,3.8344-2.8287,5.7259-.23.499-.4487.9961-.6682,1.4923q-1.0594,2.3938-1.9543,4.7459c-.1226.3231-.2614.65-.3792.9723-.6692,1.8288-1.2509,3.6329-1.7661,5.42-.1274.4411-.2357.8764-.3536,1.3136q-.59,2.1957-1.0227,4.3448c-.08.3983-.173.7994-.2453,1.1948q-.4719,2.5892-.7147,5.108c-.0338.3555-.0457.7044-.0727,1.058q-.159,2.0844-.1569,4.1166c.0005.4173-.0052.8365.0052,1.25.04,1.6216.1436,3.2232.34,4.7925.0276.2215.0751.4372.1065.6577.1925,1.3745.4529,2.7251.767,4.0578.0951.4049.192.8079.2985,1.209a43.1268,43.1268,0,0,0,1.4163,4.4617l39.1989,101.501a43.0413,43.0413,0,0,1-1.4162-4.4608c-.1065-.4-.2034-.8041-.2985-1.209-.3141-1.3326-.5746-2.6833-.7671-4.0577-.0313-.22-.0788-.4363-.1064-.6578-.1968-1.57-.2994-3.1709-.34-4.7924-.01-.4145-.0047-.8327-.0052-1.25q-.0015-2.0331.1568-4.1166c.0271-.3536.039-.7024.0727-1.0589q.2411-2.5179.7148-5.1071c.0718-.3963.1654-.7974.2452-1.1957q.4335-2.1486,1.0228-4.3438c.1179-.4382.2267-.8735.3536-1.3136.5156-1.787,1.0973-3.5939,1.767-5.4227.1159-.3184.2538-.6425.3749-.9619q.8933-2.3582,1.9595-4.7592c.2186-.4942.4358-.9876.6649-1.4837.873-1.8915,1.8007-3.7973,2.8292-5.7278.0732-.1369.1578-.2775.2319-.4154.9733-1.81,2.0308-3.6385,3.14-5.48q.4763-.79.97-1.5845c1.1216-1.807,2.2955-3.6262,3.5464-5.4607.1307-.1911.2481-.38.38-.5722,1.3777-2.0027,2.8539-4.0245,4.3852-6.0576.4015-.5332.8164-1.07,1.229-1.6054q1.9818-2.5735,4.1223-5.1765c.32-.3887.6245-.7746.95-1.1653q2.5793-3.0882,5.3923-6.2154c.4519-.5037.9229-1.01,1.3839-1.5151q2.3524-2.5777,4.8581-5.18c.479-.4971.9476-.9942,1.4357-1.4932q3.0975-3.1695,6.4155-6.3694c.4733-.4562.9695-.9153,1.45-1.3725q2.5871-2.4609,5.3058-4.9379c.6663-.6064,1.3335-1.2128,2.0117-1.8212q3.0918-2.7731,6.3413-5.5623c.2956-.2529.5751-.5038.8726-.7566q2.9527-2.5165,6.0433-5.0453.3279-.2681.6578-.5371,3.081-2.5122,6.2885-5.0348,3.1532-2.4766,6.4283-4.9617c.2486-.1891.51-.3783.759-.5665q2.8794-2.1729,5.848-4.3514c3.41-2.4989,6.9421-5.0035,10.5421-7.51,1.5237-1.0607,3.0317-2.1215,4.5891-3.1832,3.38-2.305,6.8284-4.5777,10.2968-6.84,1.7632-1.15,3.5492-2.2879,5.3343-3.4266C2875.3108,1012.31,2877.5987,1010.8576,2879.9137,1009.4214Z"/></clipPath><clipPath id="g"><polyline fill="#e9effd" stroke="#304063" stroke-linejoin="round" stroke-width="2" points="3230.94 1098.268 3204.999 1113.459 3177.968 1127.829 3150.062 1141.314 3121.497 1153.85 3092.49 1165.371 3063.256 1175.814 3034.012 1185.113 3004.973 1193.205 2976.357 1200.024 2948.378 1205.507 2921.253 1209.589 2895.199 1212.206 2870.43 1213.292 2847.164 1212.784 2825.616 1210.617 2806.452 1206.824 2790.183 1201.545 2776.792 1194.872 2766.264 1186.901 2758.582 1177.723 2753.732 1167.434 2751.696 1156.127 2752.458 1143.896 2756.004 1130.835 2762.316 1117.037 2771.379 1102.596 2783.177 1087.606 2797.694 1072.161 2814.914 1056.354 2834.821 1040.28 2857.399 1024.032 2882.032 1008.085 2907.973 992.894 2935.004 978.523 2962.91 965.038 2991.475 952.503 3020.482 940.982 3049.716 930.539 3078.96 921.24 3107.998 913.148 3136.615 906.328 3164.594 900.845 3191.719 896.763 3217.773 894.147 3242.542 893.06 3265.808 893.568 3287.356 895.735 3306.52 899.528 3322.789 904.808 3336.18 911.48 3346.708 919.452 3354.39 928.629 3359.24 938.918 3361.276 950.225 3360.514 962.456 3356.968 975.518 3350.656 989.316 3341.592 1003.757 3329.794 1018.746 3315.277 1034.192 3298.058 1049.998 3278.151 1066.072 3255.573 1082.321 3230.94 1098.268"/></clipPath><clipPath id="h"><ellipse cx="1639.933" cy="2096.947" fill="#e9effd" stroke="#304063" stroke-linejoin="round" stroke-width="2" rx="284.222" ry="540.191" transform="rotate(-29.433 1639.933 2096.947)"/></clipPath><clipPath id="i"><path fill="#fdfefe" stroke="#304063" stroke-linejoin="round" stroke-width="2" d="M1401.06,1752.5459c76.4248-106.247,249.4852-45.4678,386.5087,135.7411,137.0753,181.2773,186.207,414.34,109.7821,520.5866-76.4534,106.2867-249.5122,45.51-386.5874-135.7677C1373.74,2091.897,1324.6068,1858.8325,1401.06,1752.5459Z"/></clipPath><clipPath id="j"><path fill="#fff" stroke="#304063" stroke-linejoin="round" stroke-width="2" d="M1671.4927,2683.7839c1.8564-.1923,3.73-.3353,5.5666-.5818,2.2262-.3008,4.408-.72,6.6021-1.102,1.78-.3106,3.58-.5694,5.3373-.9343,2.2188-.4635,4.3882-1.05,6.5725-1.6024,1.6739-.4216,3.3749-.784,5.0267-1.26,2.29-.6582,4.5213-1.45,6.7672-2.2064,1.489-.503,3.0076-.9393,4.4794-1.4841,2.4875-.927,4.9108-1.9969,7.3441-3.0521,1.1759-.5078,2.3814-.9442,3.5426-1.4841q5.3472-2.4775,10.5021-5.3792l172.0127-97.0558q-5.1513,2.9067-10.5021,5.3818c-1.171.5423-2.3864.9811-3.57,1.4939-2.4209,1.05-4.8368,2.1177-7.3169,3.04-1.4767.55-3.0027.9886-4.5016,1.4915-2.2385.7569-4.4647,1.5457-6.745,2.2015-1.6419.4709-3.3331.8308-4.9947,1.2524-2.1966.5547-4.3783,1.1439-6.6119,1.61-1.7454.3649-3.5327.6188-5.3.927-2.2039.387-4.3956.8061-6.6316,1.1069-1.8366.249-3.7127.3919-5.5666.5818-2.2237.2292-4.4326.4856-6.6809.6336-1.9081.1257-3.8532.1528-5.7811.2194-2.2483.0789-4.4843.1824-6.76.1824-1.97,0-3.9716-.0912-5.961-.15-2.28-.0666-4.5584-.1109-6.8634-.2564-2.0141-.1232-4.0579-.3353-6.0917-.5177-2.3223-.2095-4.64-.4043-6.9866-.6878-2.0684-.2515-4.1614-.5843-6.2446-.8924-2.3494-.3476-4.6964-.6854-7.0655-1.1069-2.1226-.3772-4.2625-.8308-6.4-1.2672-2.3716-.4857-4.7407-.9615-7.132-1.5186-2.16-.5029-4.3389-1.0773-6.5133-1.6394-2.4086-.6213-4.8147-1.24-7.2406-1.9353-2.1867-.6237-4.3906-1.314-6.59-1.9969-2.4381-.7568-4.8763-1.5161-7.3292-2.3444-2.2237-.75-4.4573-1.5606-6.6933-2.3667-2.46-.89-4.9232-1.7849-7.3983-2.7439-2.2607-.8776-4.5287-1.807-6.7993-2.7414-2.4677-1.0157-4.9379-2.0412-7.4155-3.1235-2.2952-1.0034-4.5978-2.0536-6.9028-3.1136q-3.439-1.5828-6.89-3.2444c-4.1836-2.0215-8.382-4.1564-12.5877-6.3653-1.45-.7618-2.8893-1.4718-4.3389-2.2533q-8.4165-4.5411-16.8921-9.5677c-1.24-.7372-2.4851-1.5408-3.7276-2.2952-4.4547-2.702-8.9169-5.4853-13.3889-8.3894-1.9081-1.24-3.8187-2.522-5.7293-3.799q-5.8908-3.9345-11.7939-8.1009c-2.0339-1.4348-4.0653-2.8647-6.1016-4.3389-3-2.1793-6.003-4.4277-9.0032-6.6933-2.2114-1.669-4.4228-3.3232-6.6366-5.039-3.1013-2.4086-6.2-4.9034-9.299-7.4032-2.1152-1.706-4.23-3.38-6.3457-5.13-3.3108-2.7389-6.6168-5.5839-9.9227-8.4288-1.8934-1.632-3.7892-3.21-5.6825-4.8739-4.1121-3.6165-8.2143-7.3588-12.3141-11.1356-1.0724-.9886-2.15-1.9254-3.2221-2.9263q-7.8249-7.296-15.61-14.989c-1.4249-1.4052-2.84-2.8868-4.26-4.3117-3.7522-3.7621-7.5043-7.5438-11.2392-11.4414-1.9254-2.0117-3.841-4.1-5.7614-6.146-3.2172-3.4267-6.4344-6.8584-9.6343-10.3838-2.0881-2.3-4.1639-4.6643-6.2421-7.0063-3.0175-3.3947-6.03-6.8042-9.0279-10.29-1.8638-2.1645-3.7177-4.3783-5.5765-6.58q-6.2643-7.4217-12.4743-15.1073c-1.6813-2.0831-3.3676-4.1491-5.044-6.2593-5.6307-7.09-11.2343-14.2864-16.7787-21.69q-9.0785-12.1291-17.7254-24.5049c-1.849-2.6329-3.6289-5.2954-5.4507-7.9407-3.8976-5.6652-7.7583-11.35-11.5277-17.077-1.6345-2.48-3.23-4.9774-4.8369-7.47-7.3145-11.3255-14.449-22.73-21.2532-34.2428-.4092-.6928-.7889-1.3954-1.1981-2.0881q-9.8734-16.8-18.9679-33.8188c-1.05-1.95-2.1276-3.8976-3.16-5.8526q-9.0563-17.1066-17.3309-34.3512c-1.107-2.2977-2.1892-4.6-3.2739-6.9-5.5223-11.7-10.8473-23.4178-15.8346-35.1451-.4412-1.0354-.8406-2.0684-1.277-3.1038q-7.1184-16.9107-13.4555-33.8064c-.7026-1.8613-1.4373-3.7276-2.1251-5.5864q-6.3863-17.28-11.9344-34.46c-.7544-2.32-1.4866-4.6347-2.2163-6.9521-3.6486-11.5548-7.0828-23.07-10.1668-34.5017-.34-1.2622-.6336-2.5121-.9664-3.7694q-4.3377-16.3743-7.8717-32.5121c-.3969-1.812-.8382-3.6363-1.2227-5.4409-1.81-8.5274-3.4909-17.0105-4.9651-25.4122-.0937-.5472-.1627-1.0822-.2589-1.63q-2.0376-11.7816-3.6116-23.361c-.37-2.6773-.6632-5.3177-.9935-7.9752-.7-5.6085-1.3387-11.19-1.8761-16.7171-.2885-2.9584-.5424-5.8994-.784-8.8307q-.6545-7.9875-1.07-15.8468c-.16-2.9731-.34-5.9586-.4536-8.9021-.1184-3.1729-.1775-6.3087-.2367-9.4445-.0715-3.6265-.1282-7.243-.1208-10.8226.0074-3.1112.0641-6.1879.1307-9.2646.0739-3.513.1725-7.0137.3254-10.4774.1356-3.0471.3155-6.0646.51-9.0723q.3329-5.1067.7716-10.14.3995-4.4375.8925-8.806.5694-5.0809,1.2573-10.0731.54-3.89,1.1488-7.7262c.5423-3.375,1.1463-6.6982,1.7775-10.0041.4758-2.4826.9491-4.9676,1.4742-7.4107.7075-3.3035,1.4989-6.54,2.3-9.77.5793-2.3223,1.134-4.6643,1.76-6.9472.9122-3.3232,1.9229-6.5626,2.9362-9.797.6483-2.0708,1.2573-4.1762,1.9475-6.21,1.04-3.0618,2.2015-6.0177,3.338-8.9933.8432-2.2114,1.6345-4.4671,2.5319-6.6292,1.2622-3.0421,2.6576-5.961,4.0258-8.9046.91-1.9574,1.7553-3.974,2.7093-5.8846,1.6-3.1975,3.3479-6.2544,5.0785-9.3262.8629-1.526,1.6493-3.121,2.5442-4.6174q4.0381-6.7524,8.5176-13.066c2.3888-3.3553,4.9675-6.3777,7.5018-9.4741,1.6123-1.9673,3.1679-4.0357,4.8369-5.9019,2.3716-2.6527,4.8813-5.0588,7.3663-7.5043,1.632-1.6049,3.195-3.3282,4.8714-4.8419,2.8326-2.5565,5.8032-4.8393,8.7665-7.1443,1.4669-1.1439,2.8647-2.4234,4.366-3.5057a149.3007,149.3007,0,0,1,13.9659-8.9638l-172.0127,97.0533a148.8793,148.8793,0,0,0-13.9683,8.9687c-1.494,1.0749-2.8844,2.347-4.3439,3.4859-2.9682,2.3075-5.9462,4.5953-8.7813,7.1592-1.6789,1.5162-3.2468,3.2394-4.8788,4.8468-2.4875,2.4455-4.9922,4.8517-7.3663,7.5043-1.664,1.8588-3.2147,3.92-4.82,5.8822-1.8243,2.2261-3.7226,4.3142-5.47,6.6735q-1.0317,1.3941-2.0437,2.8153-4.4892,6.3013-8.52,13.066c-.8974,1.5014-1.6887,3.1063-2.554,4.64-1.7257,3.0644-3.4687,6.1114-5.0637,9.3015-.9566,1.9131-1.8046,3.93-2.7143,5.8871-1.3682,2.946-2.7636,5.8674-4.0258,8.91-.8949,2.1546-1.6813,4.4-2.522,6.602-.9688,2.5343-2.0043,5.0045-2.9041,7.6005-.16.461-.286.954-.4437,1.4175-.6879,2.0289-1.2943,4.1318-1.9427,6.1977-1.0157,3.2443-2.0289,6.4862-2.9411,9.8168-.6237,2.2705-1.1784,4.5977-1.75,6.9077-.8086,3.2418-1.6,6.4936-2.3125,9.8118-.5226,2.4407-.9959,4.9183-1.4693,7.3983-.6311,3.2986-1.2326,6.6193-1.775,9.9869q-.6211,3.8532-1.1537,7.7656c-.2342,1.6764-.5325,3.3035-.7445,4.9972-.2071,1.6591-.3255,3.38-.51,5.0538-.3254,2.9115-.6261,5.8353-.89,8.7912-.3033,3.3627-.5547,6.7574-.7766,10.1767-.1947,2.9978-.3747,6.0054-.5078,9.0451-.1553,3.4662-.2515,6.9669-.3279,10.4824-.0641,3.0767-.1233,6.1558-.1307,9.27-.0074,3.5722.0493,7.1813.1208,10.8028.0592,3.1433.1184,6.2816.2392,9.4593.0443,1.1858.0369,2.3421.0887,3.5328.0789,1.77.2687,3.6042.3624,5.3842q.4253,7.8581,1.0724,15.837c.2391,2.9262.4931,5.8575.779,8.8059.5375,5.5321,1.1784,11.1111,1.8761,16.72.3353,2.6724.6287,5.325.9984,8.0122q1.579,11.5153,3.592,23.218c.101.5917.1775,1.1735.281,1.7676,1.4742,8.4042,3.1556,16.8872,4.9651,25.42.143.6656.2465,1.314.3895,1.98.2416,1.1266.5769,2.28.8234,3.407q3.5536,16.1526,7.8791,32.5442c.3328,1.2622.6261,2.5072.9663,3.7694,3.0866,11.434,6.5183,22.9494,10.1669,34.5091.73,2.3149,1.4594,4.6224,2.2138,6.94q5.5764,17.1843,11.9369,34.47c.6854,1.8564,1.42,3.7128,2.12,5.574q6.3753,16.918,13.48,33.8656c.4265,1.0108.8185,2.0191,1.2474,3.03,4.9873,11.7347,10.3148,23.4571,15.84,35.1623,1.09,2.3051,2.1694,4.6052,3.2788,6.91q8.2946,17.2287,17.3236,34.3389c1.04,1.9649,2.12,3.9149,3.1728,5.8723,6.0868,11.3206,12.3732,22.5944,18.9482,33.7843.4141.7026.8012,1.4151,1.2178,2.1177,6.7993,11.5079,13.9289,22.9,21.2384,34.2206.8111,1.2573,1.5408,2.5491,2.3593,3.8039.8111,1.2425,1.6789,2.4579,2.4949,3.6955,3.7595,5.71,7.6078,11.3748,11.4956,17.0252,1.8292,2.6625,3.6215,5.34,5.48,7.9875q8.6717,12.3511,17.72,24.4951c5.54,7.3983,11.1381,14.5895,16.7664,21.6772,1.6862,2.1226,3.3823,4.1984,5.0735,6.2939q6.1977,7.6695,12.4522,15.0826c1.0526,1.2474,2.0881,2.5688,3.1457,3.8064.8061.9467,1.6271,1.8391,2.4381,2.7784,2.988,3.4735,5.9907,6.8732,8.9983,10.2605,2.093,2.3568,4.1811,4.7333,6.2816,7.0482,3.1777,3.5032,6.3727,6.91,9.5677,10.3148,1.9427,2.0708,3.8779,4.1811,5.828,6.2125,3.6954,3.8581,7.4081,7.6005,11.1208,11.3255,1.462,1.4644,2.914,2.983,4.3759,4.4276q7.7694,7.67,15.5757,14.9569c.0813.0764.1652.16.249.2367,1.0847,1.0132,2.1793,1.955,3.2665,2.9559,4.0061,3.688,8.0146,7.344,12.0306,10.8768,1.9229,1.6912,3.8483,3.2961,5.7712,4.95,3.2764,2.8178,6.5527,5.6381,9.8315,8.3524,2.1374,1.7676,4.2724,3.4588,6.41,5.182,3.0791,2.4825,6.1558,4.96,9.2349,7.3515,2.2287,1.7281,4.4523,3.3922,6.6785,5.0711,2.9928,2.2582,5.9832,4.4991,8.9736,6.6685.8826.641,1.7676,1.3362,2.6477,1.97,1.1563.8283,2.3075,1.5605,3.4613,2.3765q5.8981,4.16,11.7816,8.0911c1.913,1.28,3.8261,2.5664,5.7392,3.8089q6.7413,4.3746,13.4555,8.4312c1.2129.7347,2.4307,1.5186,3.6412,2.2385q8.4867,5.044,16.9168,9.585c1.4446.7791,2.8794,1.4841,4.3216,2.2434,4.2107,2.2089,8.4091,4.3463,12.5927,6.37.8135.392,1.6345.8481,2.4456,1.2351,1.4964.71,2.978,1.3313,4.472,2.0191,2.29,1.0527,4.5805,2.098,6.8609,3.0964,2.4874,1.0847,4.9626,2.1152,7.4377,3.1334,2.2755.9343,4.5485,1.8662,6.8116,2.7438,2.4628.9541,4.9108,1.8441,7.3589,2.7291,2.2483.8135,4.4966,1.6271,6.73,2.3815,2.4382.8209,4.8566,1.5753,7.28,2.3272,2.2187.6878,4.44,1.3855,6.6464,2.0166,2.4135.6878,4.8048,1.3041,7.2011,1.9229,2.1842.5646,4.366,1.139,6.533,1.6444,2.3913.5571,4.758,1.0329,7.13,1.5186,2.14.4363,4.2846.89,6.4072,1.2671,2.3569.4191,4.689.7544,7.0261,1.102,2.1029.3131,4.2082.6484,6.2939.9,2.3247.2811,4.62.4734,6.9225.68,2.0536.1849,4.117.3993,6.1533.5251,2.3026.143,4.5756.1873,6.8535.2539,1.987.0592,3.9839.15,5.9512.15,2.2829,0,4.5312-.1036,6.7894-.1825,1.9229-.0665,3.8582-.0936,5.7589-.2194C1667.0626,2684.2671,1669.2715,2684.0107,1671.4927,2683.7839Z"/></clipPath><clipPath id="k"><polygon fill="#fff" stroke="#304063" stroke-linejoin="round" stroke-width="2" points="3003.002 2400.099 2562.373 1929.705 2912.283 1670.121 3284.873 2067.88 3003.002 2400.099"/></clipPath></defs><g clip-path="url(#a)"><path fill="#fff" stroke="#304063" stroke-linejoin="round" stroke-width="2" d="M1268.4267,694.3777l-9.1084,11.25L934.002,442.2332c-73.8983-59.8322-182.6979-48.3884-242.53,25.51-59.8366,73.9038-48.3928,182.7034,25.5055,242.5356L1042.2936,973.673l-9.1085,11.25L707.8688,721.5285c-80.1-64.8534-92.5047-182.7884-27.6468-262.8939,64.8535-80.1,182.7885-92.5047,262.8885-27.6512Z"/><polygon fill="#0b1753" stroke="#304063" stroke-linejoin="round" stroke-width="2" points="2009.201 813.014 1303.355 1684.799 772.409 1143.484 1369.263 406.315 2009.201 813.014"/><polygon fill="#0b1753" points="2055.133 756.284 1349.287 1628.069 818.341 1086.754 1415.195 349.585 2055.133 756.284"/><g clip-path="url(#b)"><path fill="#0b1753" d="M1331.1633,374.6938c842.5077,512.8566,18.1236,1253.3754,18.1236,1253.3754l853.0037-575.1474,75.0161-318.4609L1481.0386-79.5274,1343.42,140.8474"/></g><polygon fill="none" stroke="#304063" stroke-linejoin="round" stroke-width="2" points="2055.133 756.284 1349.287 1628.069 818.341 1086.754 1415.195 349.585 2055.133 756.284"/><circle cx="1083.671" cy="922.564" r="15.357" fill="#0b1753" stroke="#304063" stroke-linejoin="round" stroke-width="2"/><circle cx="1309.802" cy="643.27" r="15.357" fill="#0b1753" stroke="#304063" stroke-linejoin="round" stroke-width="2"/><path fill="#fff" stroke="#304063" stroke-linejoin="round" stroke-width="2" d="M1314.3605,637.6452l-9.1085,11.25L979.9358,385.5007c-73.8984-59.8322-182.6979-48.3884-242.5346,25.5154-59.8322,73.8983-48.3884,182.6979,25.51,242.53l325.3163,263.3944-9.1085,11.25L753.8026,664.796c-80.1-64.8534-92.5047-182.7884-27.6512-262.8884,64.8579-80.1055,182.7928-92.51,262.8928-27.6567Z"/><polygon fill="#fff" points="1179.339 1020.137 1378.161 1211.996 1550.774 738.24 1179.339 1020.137"/><g clip-path="url(#c)"><polygon fill="#fff" stroke="#304063" stroke-linejoin="round" stroke-width="2" points="1491.497 1221.663 1404.101 1329.606 1082.434 1004.748 1156.184 913.66 1491.497 1221.663"/></g><polygon fill="none" stroke="#304063" stroke-linejoin="round" stroke-width="2" points="1179.339 1020.137 1378.161 1211.996 1550.774 738.24 1179.339 1020.137"/><path fill="none" stroke="#304063" stroke-linejoin="round" stroke-width="2" d="M1009.5283,999.2577a251.1488,251.1488,0,0,1,14.2676,88.686"/><path fill="none" stroke="#304063" stroke-linejoin="round" stroke-width="2" d="M1689.9889,834.6005l5.2529,85.5092"/><rect width="1395.688" height="2668" x="1419.599" y="209.468" fill="#fff" rx="171.274"/><g clip-path="url(#d)"><path fill="#dbdbf2" d="M1106.384,754.5645c313.2151,150.71,66.49-491.7838,647.1677-545.0962S1462.617,98.5314,1462.617,98.5314L1177.3065,209.4683"/><path fill="#dbdbf2" d="M2887.9936,2248.7535c34.5545,768.0972-1386.991,628.7148-1386.991,628.7148l1595.9158,207.927-62.2064-660.52"/></g><rect width="1395.688" height="2668" x="1419.599" y="209.468" fill="none" stroke="#304063" stroke-linejoin="round" stroke-width="2" rx="171.274"/><rect width="1173.323" height="2363.663" x="1530.782" y="370.052" fill="#fff" rx="80.388"/><rect width="1173.323" height="2363.663" x="1530.782" y="370.052" fill="none" stroke="#304063" stroke-linejoin="round" stroke-width="2" rx="80.388"/><rect width="1001.31" height="1198.093" x="1616.788" y="563.851" fill="#fff" rx="82.284"/><rect width="1001.31" height="1198.093" x="1616.788" y="563.851" fill="none" stroke="#304063" stroke-linejoin="round" stroke-width="2" rx="82.284"/><rect width="1001.31" height="788.436" x="1616.788" y="1854.536" fill="#fff" rx="66.75"/><rect width="1001.31" height="788.436" x="1616.788" y="1854.536" fill="none" stroke="#304063" stroke-linejoin="round" stroke-width="2" rx="66.75"/><polygon fill="#5b80e3" stroke="#304063" stroke-linejoin="round" stroke-width="2" points="1655.113 539.554 1346.892 539.554 1551.047 353.453 1777.606 353.453 1655.113 539.554"/><polygon fill="#fff" stroke="#304063" stroke-linejoin="round" stroke-width="2" points="1963.333 539.554 1655.113 539.554 1777.606 353.453 2004.164 353.453 1963.333 539.554"/><polygon fill="#5b80e3" stroke="#304063" stroke-linejoin="round" stroke-width="2" points="2271.553 539.554 1963.333 539.554 2004.164 353.453 2230.722 353.453 2271.553 539.554"/><polygon fill="#fff" stroke="#304063" stroke-linejoin="round" stroke-width="2" points="2579.773 539.554 2271.553 539.554 2230.722 353.453 2457.281 353.453 2579.773 539.554"/><polygon fill="#5b80e3" stroke="#304063" stroke-linejoin="round" stroke-width="2" points="2887.994 539.554 2579.773 539.554 2457.281 353.453 2683.839 353.453 2887.994 539.554"/><path fill="#5b80e3" stroke="#304063" stroke-linejoin="round" stroke-width="2" d="M1346.8925,539.5543h308.22a0,0,0,0,1,0,0v87.2991a136.8085,136.8085,0,0,1-136.8085,136.8085H1483.701a136.8085,136.8085,0,0,1-136.8085-136.8085V539.5543A0,0,0,0,1,1346.8925,539.5543Z"/><path fill="#dbdbf2" stroke="#304063" stroke-linejoin="round" stroke-width="2" d="M1655.1127,539.5543h308.22a0,0,0,0,1,0,0v87.2991a136.8085,136.8085,0,0,1-136.8085,136.8085h-34.6032a136.8085,136.8085,0,0,1-136.8085-136.8085V539.5543A0,0,0,0,1,1655.1127,539.5543Z"/><path fill="#5b80e3" stroke="#304063" stroke-linejoin="round" stroke-width="2" d="M1963.3329,539.5543h308.22a0,0,0,0,1,0,0v87.2991a136.8085,136.8085,0,0,1-136.8085,136.8085h-34.6032a136.8085,136.8085,0,0,1-136.8085-136.8085V539.5543a0,0,0,0,1,0,0Z"/><path fill="#dbdbf2" stroke="#304063" stroke-linejoin="round" stroke-width="2" d="M2271.5532,539.5543h308.22a0,0,0,0,1,0,0v87.2991a136.8085,136.8085,0,0,1-136.8085,136.8085h-34.6032a136.8085,136.8085,0,0,1-136.8085-136.8085V539.5543a0,0,0,0,1,0,0Z"/><path fill="#5b80e3" d="M2751.1851,763.6619h-34.6032a136.8085,136.8085,0,0,1-136.8085-136.8085V539.5543h308.22v87.2991A136.8084,136.8084,0,0,1,2751.1851,763.6619Z"/><g clip-path="url(#e)"><path fill="#5b83e4" d="M2994.6953,571.7413l-106.7017-32.187c-57.3065,249.3871-365.3761,224.1076-365.3761,224.1076l376.7757,120.5816,108.6-241.58"/></g><path fill="none" stroke="#304063" stroke-linejoin="round" stroke-width="2" d="M2751.1851,763.6619h-34.6032a136.8085,136.8085,0,0,1-136.8085-136.8085V539.5543h308.22v87.2991A136.8084,136.8084,0,0,1,2751.1851,763.6619Z"/><path fill="none" stroke="#304063" stroke-linejoin="round" stroke-width="2" d="M2523.7433,1459.02l-31.1566,31.1566"/><path fill="none" stroke="#304063" stroke-linejoin="round" stroke-width="2" d="M1756.9122,2355.797l43.7228-31.01"/><path fill="none" stroke="#304063" stroke-linejoin="round" stroke-width="2" d="M1844.3518,455.5516l-31.328,24.7081"/><path fill="#fff" d="M2879.9137,1009.4214q2.3724-1.4728,4.7706-2.9285,3.6749-2.2371,7.402-4.4427c1.5812-.9353,3.1614-1.8706,4.7559-2.7964q4.1182-2.3938,8.3-4.743c1.2742-.7186,2.5388-1.4448,3.8211-2.1567q6.0987-3.3891,12.3-6.6963c.2818-.15.5694-.2957.8517-.4449q5.753-3.0512,11.5962-6.0186c1.277-.65,2.563-1.2908,3.8457-1.9343q4.5874-2.3055,9.2181-4.5615,1.7772-.8654,3.5572-1.7271,6.2413-3.0012,12.5467-5.9188l.164-.0741q6.2305-2.8686,12.5287-5.6337,1.3808-.6087,2.7621-1.2157,6.1815-2.7,12.408-5.3124.8967-.3749,1.7955-.7471,6.396-2.6619,12.8309-5.2268.7472-.2966,1.4951-.59,6.4581-2.5563,12.9441-5.01.7363-.2781,1.4733-.5541,6.4986-2.4425,13.0148-4.7773c.471-.1692.9415-.3393,1.4129-.5066q6.761-2.41,13.53-4.6993c.2376-.0808.4753-.1635.7129-.2434q6.7167-2.2654,13.4293-4.4018c.4633-.1473.9272-.3,1.39-.4477,4.052-1.286,8.0983-2.5245,12.1418-3.7421q2.197-.6615,4.39-1.307c2.4746-.73,4.9436-1.4343,7.4125-2.1386q4.7457-1.3545,9.4751-2.6415c2.6577-.7233,5.3162-1.4485,7.9644-2.14,3.1732-.8289,6.33-1.6121,9.487-2.3943,1.872-.4648,3.7512-.9487,5.6165-1.3963,3.6956-.8869,7.3674-1.7176,11.0345-2.5388,1.31-.2928,2.6319-.6122,3.9379-.8973,2.0189-.44,4.0145-.8346,6.0234-1.2547,2.6709-.5579,5.35-1.133,8.0023-1.6539.7642-.15,1.519-.2851,2.2813-.4325q5.2011-1.0036,10.3481-1.9133c1.3336-.2358,2.66-.461,3.9884-.6863q4.34-.7386,8.6325-1.4011c1.4543-.2252,2.91-.4552,4.3562-.6691,3.0174-.4458,6.0081-.8526,8.988-1.2452,1.18-.1549,2.3734-.327,3.5482-.4743,2.094-.2614,4.149-.4724,6.2221-.7062,2.3886-.27,4.79-.5551,7.15-.788,1.5184-.15,3.004-.2585,4.5106-.3925,3.1462-.2814,6.2824-.5494,9.3725-.7623,1.5754-.1094,3.1234-.1854,4.6836-.2757q5.0244-.2924,9.9423-.4657,2.4109-.0813,4.7972-.136,5.3838-.1168,10.6106-.0684c1.1853.01,2.3943-.0067,3.5672.0152,4.28.0789,8.4947.2224,12.6076.4667.3754.0228.7309.0637,1.1054.0874,3.5169.2225,6.9786.4972,10.3634.8441,3.4076.35,6.7572.7528,10.0231,1.2309.9667.1416,1.8787.3127,2.8259.4648,2.1709.3479,4.2991.7186,6.3693,1.1207.9049.1758,1.797.3583,2.6828.5436,1.8236.3822,3.601.789,5.3433,1.2138.7927.193,1.5988.3793,2.3744.5808,1.8948.4933,3.7279,1.0171,5.5224,1.5617.4487.135.9235.2585,1.3659.3973q3.2607,1.0266,6.2924,2.1643c.557.2091,1.0755.4363,1.6211.6511,1.4181.557,2.8178,1.1226,4.1589,1.7166.692.3061,1.3507.6293,2.0218.9448,1.1273.53,2.2379,1.0684,3.3073,1.6264.68.3545,1.34.7176,1.9965,1.0835q1.497.8327,2.9147,1.7024c.6212.3811,1.2366.7652,1.8345,1.1568.9472.6206,1.854,1.2584,2.7427,1.9048.5294.3849,1.07.7651,1.5783,1.1587.9662.748,1.8759,1.5208,2.7674,2.3.3631.3175.7528.6245,1.1036.9467q1.8563,1.7081,3.4893,3.5121c.2291.2538.4258.5218.6482.7785.8393.9686,1.642,1.9523,2.3849,2.9608.3036.4116.5788.8355.8668,1.2547q1.001,1.4571,1.8754,2.9646c.2614.4525.5213.9049.7651,1.3631q.9681,1.8249,1.7533,3.7183c.1316.3175.2937.6245.4177.9448l-39.199-101.5019c-.0446-.1141-.0893-.2291-.134-.3431-.0813-.2034-.1982-.3954-.2823-.5979q-.7842-1.8948-1.7542-3.7212c-.105-.1977-.1772-.4088-.2856-.6055-.143-.26-.3317-.5019-.48-.76q-.87-1.507-1.8729-2.9608c-.1882-.2737-.3337-.5646-.5285-.8355-.1046-.1445-.2353-.2794-.3413-.4239-.7423-1.0066-1.5445-1.9894-2.3829-2.958-.1887-.2167-.3426-.4486-.5361-.6654-.0351-.038-.0779-.0741-.1131-.1131q-1.6283-1.805-3.4893-3.5121c-.06-.0561-.1093-.116-.17-.1711-.2909-.2661-.63-.5114-.93-.7737-.8935-.7813-1.805-1.555-2.7726-2.304-.1592-.1236-.2952-.2567-.4558-.3793-.3531-.2671-.7566-.5133-1.1188-.7766-.8887-.6463-1.7955-1.285-2.7422-1.9048-.2694-.1768-.5061-.3678-.78-.5418-.3364-.2138-.7171-.4077-1.06-.6187q-1.4144-.8683-2.91-1.6986c-.38-.212-.7228-.441-1.1111-.6492-.2823-.1511-.6-.2861-.8868-.4363-1.0684-.557-2.1786-1.095-3.3045-1.6244-.4771-.2253-.9129-.4686-1.4-.6891-.2006-.0894-.4249-.1692-.6274-.2586-1.3407-.594-2.74-1.16-4.158-1.7166-.46-.1806-.88-.3792-1.3473-.556-.0865-.0333-.1835-.06-.27-.0932q-3.0363-1.1378-6.2948-2.1652c-.0656-.02-.124-.0447-.1891-.0647-.3755-.1169-.7885-.2157-1.1677-.33-1.7974-.5456-3.6343-1.07-5.532-1.5645-.2581-.0666-.4919-.1464-.7514-.2129-.52-.1322-1.0907-.2386-1.6182-.3669-1.7442-.4249-3.5231-.8327-5.349-1.2148-.4762-.1-.9134-.22-1.3949-.3165-.4134-.0837-.8668-.1454-1.2846-.2262q-3.1066-.6032-6.37-1.1216c-.54-.0865-1.0389-.1958-1.5854-.2785q-.6174-.0942-1.24-.1854-4.6621-.6829-9.5188-1.19c-.1659-.0171-.3432-.0247-.5095-.0418-3.4123-.35-6.9017-.6274-10.4485-.8507-.3265-.021-.6335-.059-.9609-.078l-.049-.0019c-4.1147-.2443-8.3312-.3878-12.6132-.4667-.2985-.0057-.5794-.0275-.8783-.0333-.8745-.0133-1.7984.0248-2.68.0172q-5.244-.04-10.63.0684c-.7319.0162-1.4272-.0057-2.1624.0143-.855.0237-1.7513.0931-2.6115.1226q-4.93.1668-9.9732.4657c-1.0228.06-2.0061.0751-3.035.1426-.5323.0342-1.0864.095-1.6206.1312-3.0982.2138-6.242.4828-9.3967.7642-1.2124.1083-2.3915.1758-3.6124.2946-.2914.0285-.5927.0685-.8845.097-2.3687.2338-4.7782.5209-7.1763.7918-1.7813.2005-3.5345.3659-5.3305.5874-.2832.0351-.5727.0789-.8554.115-1.1863.1483-2.3906.3213-3.5834.479-2.2613.2966-4.5121.58-6.7952.9078-.7158.1036-1.4458.2262-2.1643.3327-1.4524.2148-2.9143.4457-4.3748.672-1.5189.2357-3.0235.45-4.551.6995-1.3393.2187-2.6966.4667-4.042.6949-1.34.2281-2.6795.4552-4.0259.6929-.8441.1483-1.6781.28-2.5241.4334-2.6015.4705-5.2249.9781-7.8474,1.4847-.7456.1445-1.4837.2756-2.2308.422-.1949.038-.3869.0713-.5817.11-2.4961.4923-5.0211,1.0427-7.5338,1.5683-1.9751.4125-3.9365.8-5.9207,1.2328-.1264.0276-.25.05-.3764.078-1.1843.26-2.3858.556-3.5739.8222-3.6642.82-7.3322,1.65-11.0245,2.5359-1.872.45-3.7559.9353-5.6341,1.4011-3.15.78-6.299,1.5626-9.4642,2.3895-.5418.1407-1.0769.2652-1.6192.4088q-1.4115.3706-2.8254.749c-1.171.3136-2.3525.6634-3.5254.9828q-4.7343,1.2889-9.4832,2.6443c-1.1934.34-2.3792.6492-3.574.9961-1.2708.3688-2.5454.76-3.8172,1.1368q-2.2043.65-4.4094,1.3118c-1.0351.3117-2.0674.6083-3.1025.9238q-4.1,1.2519-8.2052,2.5512c-.27.0856-.5418.1749-.8127.26-.4762.1521-.9519.308-1.4282.46-1.9908.6359-3.9816,1.27-5.9729,1.9219q-3.4447,1.1279-6.89,2.2869c-.1815.0609-.3621.1246-.5432.1854-.2381.0808-.4757.1625-.7134.2433q-2.6291.8883-5.2577,1.7917-3.2571,1.125-6.5114,2.2775c-.5894.2081-1.1777.4229-1.767.633q-.7015.2494-1.402.5019c-1.1178.4011-2.2366.7965-3.3539,1.2024q-3.2957,1.1948-6.5866,2.419c-1.03.3821-2.0592.7747-3.0891,1.1615q-.7278.2738-1.4552.5475c-.6773.2566-1.3555.5076-2.0322.7642q-3.285,1.2519-6.5633,2.5293c-1.4609.5694-2.918,1.15-4.3761,1.7271-.4886.1939-.9781.385-1.4667.5789-.4486.1786-.8991.3526-1.3478.5322q-3.7725,1.5086-7.5332,3.0521c-1.3265.5447-2.6486,1.1017-3.9727,1.652-.5922.2471-1.1853.4914-1.7774.74-.5846.2452-1.172.4848-1.7556.73q-4.1733,1.7593-8.326,3.5587c-.7827.3393-1.56.6891-2.3425,1.0313q-1.3674.5975-2.7308,1.2024c-1.288.5684-2.5807,1.1273-3.8648,1.7014q-4.37,1.9533-8.7105,3.9522c-.0437.02-.0874.04-.1311.0589l-.0495.0229q-5.12,2.3582-10.1961,4.7791c-.7775.3717-1.5445.7538-2.3206,1.1273-1.182.5675-2.3578,1.1425-3.5354,1.7157-1.4135.6872-2.8364,1.364-4.2431,2.0588-1.672.826-3.323,1.6719-4.9854,2.5074-1.28.6435-2.5636,1.2823-3.8382,1.93-.6169.3146-1.2428.62-1.8582.9353q-4.926,2.5236-9.7855,5.108c-.2666.1417-.538.2785-.8041.42-.0428.0228-.0865.0446-.1293.0665q-5.5206,2.937-10.9565,5.9445c-.4087.2262-.8075.4591-1.2148.6862-1.2855.7139-2.5521,1.441-3.83,2.1615-1.9514,1.0988-3.918,2.1881-5.8508,3.3021-.8265.4752-1.6316.9647-2.4538,1.4428-1.5868.922-3.16,1.8526-4.7325,2.7831-1.3146.7775-2.65,1.5418-3.9551,2.3259-1.171.7034-2.3116,1.4248-3.4741,2.133q-2.3881,1.4543-4.7554,2.919c-.9182.5693-1.8564,1.1273-2.7688,1.7-1.3911.8725-2.74,1.767-4.1186,2.6462-1.7855,1.1387-3.5711,2.2765-5.3342,3.4275-.6958.4534-1.413.8964-2.1054,1.3526q-4.1384,2.7232-8.1915,5.4873-1.7194,1.1719-3.4114,2.3439c-.4063.2814-.7784.5608-1.1824.8422-3.5958,2.5036-7.1226,5.0054-10.53,7.5-.0742.0541-.1559.1093-.23.1644-1.9167,1.4048-3.7915,2.8078-5.6479,4.2107-.2424.1825-.4952.366-.7366.5485q-3.171,2.4037-6.224,4.7991c-.0693.0542-.1345.1084-.2043.1635q-6.7866,5.3308-12.9887,10.6153c-.0618.0522-.1269.1045-.1882.1568-.2367.2025-.4525.4021-.6882.6036q-3.2535,2.7888-6.337,5.5595c-.6787.6083-1.3469,1.2157-2.0137,1.8221q-2.7181,2.4766-5.3043,4.937c-.3536.3355-.7376.6758-1.0874,1.0113-.1264.1217-.2385.2405-.3645.3621q-3.3227,3.2-6.415,6.3685c-.4881.499-.9562.9951-1.4357,1.4932q-2.5065,2.6034-4.859,5.1812c-.46.5047-.9306,1.01-1.3821,1.5142q-2.8059,3.1252-5.3931,6.2163c-.3251.3888-.6283.7737-.9482,1.1615q-2.1465,2.6078-4.1285,5.1841c-.41.5332-.8227,1.0655-1.2224,1.5959-1.5312,2.0331-3.0064,4.0558-4.3851,6.0595-.1369.1987-.259.3945-.394.5931-1.2452,1.8269-2.4143,3.6367-3.5311,5.4369q-.4962.7985-.9753,1.5931c-1.11,1.844-2.169,3.6746-3.1433,5.4863-.0722.134-.1549.2709-.2262.4049-1.0285,1.93-1.9552,3.8344-2.8287,5.7259-.23.499-.4487.9961-.6682,1.4923q-1.0594,2.3938-1.9543,4.7459c-.1226.3231-.2614.65-.3792.9723-.6692,1.8288-1.2509,3.6329-1.7661,5.42-.1274.4411-.2357.8764-.3536,1.3136q-.59,2.1957-1.0227,4.3448c-.08.3983-.173.7994-.2453,1.1948q-.4719,2.5892-.7147,5.108c-.0338.3555-.0457.7044-.0727,1.058q-.159,2.0844-.1569,4.1166c.0005.4173-.0052.8365.0052,1.25.04,1.6216.1436,3.2232.34,4.7925.0276.2215.0751.4372.1065.6577.1925,1.3745.4529,2.7251.767,4.0578.0951.4049.192.8079.2985,1.209a43.1268,43.1268,0,0,0,1.4163,4.4617l39.1989,101.501a43.0413,43.0413,0,0,1-1.4162-4.4608c-.1065-.4-.2034-.8041-.2985-1.209-.3141-1.3326-.5746-2.6833-.7671-4.0577-.0313-.22-.0788-.4363-.1064-.6578-.1968-1.57-.2994-3.1709-.34-4.7924-.01-.4145-.0047-.8327-.0052-1.25q-.0015-2.0331.1568-4.1166c.0271-.3536.039-.7024.0727-1.0589q.2411-2.5179.7148-5.1071c.0718-.3963.1654-.7974.2452-1.1957q.4335-2.1486,1.0228-4.3438c.1179-.4382.2267-.8735.3536-1.3136.5156-1.787,1.0973-3.5939,1.767-5.4227.1159-.3184.2538-.6425.3749-.9619q.8933-2.3582,1.9595-4.7592c.2186-.4942.4358-.9876.6649-1.4837.873-1.8915,1.8007-3.7973,2.8292-5.7278.0732-.1369.1578-.2775.2319-.4154.9733-1.81,2.0308-3.6385,3.14-5.48q.4763-.79.97-1.5845c1.1216-1.807,2.2955-3.6262,3.5464-5.4607.1307-.1911.2481-.38.38-.5722,1.3777-2.0027,2.8539-4.0245,4.3852-6.0576.4015-.5332.8164-1.07,1.229-1.6054q1.9818-2.5735,4.1223-5.1765c.32-.3887.6245-.7746.95-1.1653q2.5793-3.0882,5.3923-6.2154c.4519-.5037.9229-1.01,1.3839-1.5151q2.3524-2.5777,4.8581-5.18c.479-.4971.9476-.9942,1.4357-1.4932q3.0975-3.1695,6.4155-6.3694c.4733-.4562.9695-.9153,1.45-1.3725q2.5871-2.4609,5.3058-4.9379c.6663-.6064,1.3335-1.2128,2.0117-1.8212q3.0918-2.7731,6.3413-5.5623c.2956-.2529.5751-.5038.8726-.7566q2.9527-2.5165,6.0433-5.0453.3279-.2681.6578-.5371,3.081-2.5122,6.2885-5.0348,3.1532-2.4766,6.4283-4.9617c.2486-.1891.51-.3783.759-.5665q2.8794-2.1729,5.848-4.3514c3.41-2.4989,6.9421-5.0035,10.5421-7.51,1.5237-1.0607,3.0317-2.1215,4.5891-3.1832,3.38-2.305,6.8284-4.5777,10.2968-6.84,1.7632-1.15,3.5492-2.2879,5.3343-3.4266C2875.3108,1012.31,2877.5987,1010.8576,2879.9137,1009.4214Z"/><g clip-path="url(#f)"><path fill="#fdfefe" d="M2753.7316,1167.4343c-68.1645-208.1555,213.914-322.6761,213.914-322.6761l-244.808,35.1067-82.8219,110.1072v63.2041l23.6276,99.0322"/></g><path fill="none" stroke="#304063" stroke-linejoin="round" stroke-width="2" d="M2879.9137,1009.4214q2.3724-1.4728,4.7706-2.9285,3.6749-2.2371,7.402-4.4427c1.5812-.9353,3.1614-1.8706,4.7559-2.7964q4.1182-2.3938,8.3-4.743c1.2742-.7186,2.5388-1.4448,3.8211-2.1567q6.0987-3.3891,12.3-6.6963c.2818-.15.5694-.2957.8517-.4449q5.753-3.0512,11.5962-6.0186c1.277-.65,2.563-1.2908,3.8457-1.9343q4.5874-2.3055,9.2181-4.5615,1.7772-.8654,3.5572-1.7271,6.2413-3.0012,12.5467-5.9188l.164-.0741q6.2305-2.8686,12.5287-5.6337,1.3808-.6087,2.7621-1.2157,6.1815-2.7,12.408-5.3124.8967-.3749,1.7955-.7471,6.396-2.6619,12.8309-5.2268.7472-.2966,1.4951-.59,6.4581-2.5563,12.9441-5.01.7363-.2781,1.4733-.5541,6.4986-2.4425,13.0148-4.7773c.471-.1692.9415-.3393,1.4129-.5066q6.761-2.41,13.53-4.6993c.2376-.0808.4753-.1635.7129-.2434q6.7167-2.2654,13.4293-4.4018c.4633-.1473.9272-.3,1.39-.4477,4.052-1.286,8.0983-2.5245,12.1418-3.7421q2.197-.6615,4.39-1.307c2.4746-.73,4.9436-1.4343,7.4125-2.1386q4.7457-1.3545,9.4751-2.6415c2.6577-.7233,5.3162-1.4485,7.9644-2.14,3.1732-.8289,6.33-1.6121,9.487-2.3943,1.872-.4648,3.7512-.9487,5.6165-1.3963,3.6956-.8869,7.3674-1.7176,11.0345-2.5388,1.31-.2928,2.6319-.6122,3.9379-.8973,2.0189-.44,4.0145-.8346,6.0234-1.2547,2.6709-.5579,5.35-1.133,8.0023-1.6539.7642-.15,1.519-.2851,2.2813-.4325q5.2011-1.0036,10.3481-1.9133c1.3336-.2358,2.66-.461,3.9884-.6863q4.34-.7386,8.6325-1.4011c1.4543-.2252,2.91-.4552,4.3562-.6691,3.0174-.4458,6.0081-.8526,8.988-1.2452,1.18-.1549,2.3734-.327,3.5482-.4743,2.094-.2614,4.149-.4724,6.2221-.7062,2.3886-.27,4.79-.5551,7.15-.788,1.5184-.15,3.004-.2585,4.5106-.3925,3.1462-.2814,6.2824-.5494,9.3725-.7623,1.5754-.1094,3.1234-.1854,4.6836-.2757q5.0244-.2924,9.9423-.4657,2.4109-.0813,4.7972-.136,5.3838-.1168,10.6106-.0684c1.1853.01,2.3943-.0067,3.5672.0152,4.28.0789,8.4947.2224,12.6076.4667.3754.0228.7309.0637,1.1054.0874,3.5169.2225,6.9786.4972,10.3634.8441,3.4076.35,6.7572.7528,10.0231,1.2309.9667.1416,1.8787.3127,2.8259.4648,2.1709.3479,4.2991.7186,6.3693,1.1207.9049.1758,1.797.3583,2.6828.5436,1.8236.3822,3.601.789,5.3433,1.2138.7927.193,1.5988.3793,2.3744.5808,1.8948.4933,3.7279,1.0171,5.5224,1.5617.4487.135.9235.2585,1.3659.3973q3.2607,1.0266,6.2924,2.1643c.557.2091,1.0755.4363,1.6211.6511,1.4181.557,2.8178,1.1226,4.1589,1.7166.692.3061,1.3507.6293,2.0218.9448,1.1273.53,2.2379,1.0684,3.3073,1.6264.68.3545,1.34.7176,1.9965,1.0835q1.497.8327,2.9147,1.7024c.6212.3811,1.2366.7652,1.8345,1.1568.9472.6206,1.854,1.2584,2.7427,1.9048.5294.3849,1.07.7651,1.5783,1.1587.9662.748,1.8759,1.5208,2.7674,2.3.3631.3175.7528.6245,1.1036.9467q1.8563,1.7081,3.4893,3.5121c.2291.2538.4258.5218.6482.7785.8393.9686,1.642,1.9523,2.3849,2.9608.3036.4116.5788.8355.8668,1.2547q1.001,1.4571,1.8754,2.9646c.2614.4525.5213.9049.7651,1.3631q.9681,1.8249,1.7533,3.7183c.1316.3175.2937.6245.4177.9448l-39.199-101.5019c-.0446-.1141-.0893-.2291-.134-.3431-.0813-.2034-.1982-.3954-.2823-.5979q-.7842-1.8948-1.7542-3.7212c-.105-.1977-.1772-.4088-.2856-.6055-.143-.26-.3317-.5019-.48-.76q-.87-1.507-1.8729-2.9608c-.1882-.2737-.3337-.5646-.5285-.8355-.1046-.1445-.2353-.2794-.3413-.4239-.7423-1.0066-1.5445-1.9894-2.3829-2.958-.1887-.2167-.3426-.4486-.5361-.6654-.0351-.038-.0779-.0741-.1131-.1131q-1.6283-1.805-3.4893-3.5121c-.06-.0561-.1093-.116-.17-.1711-.2909-.2661-.63-.5114-.93-.7737-.8935-.7813-1.805-1.555-2.7726-2.304-.1592-.1236-.2952-.2567-.4558-.3793-.3531-.2671-.7566-.5133-1.1188-.7766-.8887-.6463-1.7955-1.285-2.7422-1.9048-.2694-.1768-.5061-.3678-.78-.5418-.3364-.2138-.7171-.4077-1.06-.6187q-1.4144-.8683-2.91-1.6986c-.38-.212-.7228-.441-1.1111-.6492-.2823-.1511-.6-.2861-.8868-.4363-1.0684-.557-2.1786-1.095-3.3045-1.6244-.4771-.2253-.9129-.4686-1.4-.6891-.2006-.0894-.4249-.1692-.6274-.2586-1.3407-.594-2.74-1.16-4.158-1.7166-.46-.1806-.88-.3792-1.3473-.556-.0865-.0333-.1835-.06-.27-.0932q-3.0363-1.1378-6.2948-2.1652c-.0656-.02-.124-.0447-.1891-.0647-.3755-.1169-.7885-.2157-1.1677-.33-1.7974-.5456-3.6343-1.07-5.532-1.5645-.2581-.0666-.4919-.1464-.7514-.2129-.52-.1322-1.0907-.2386-1.6182-.3669-1.7442-.4249-3.5231-.8327-5.349-1.2148-.4762-.1-.9134-.22-1.3949-.3165-.4134-.0837-.8668-.1454-1.2846-.2262q-3.1066-.6032-6.37-1.1216c-.54-.0865-1.0389-.1958-1.5854-.2785q-.6174-.0942-1.24-.1854-4.6621-.6829-9.5188-1.19c-.1659-.0171-.3432-.0247-.5095-.0418-3.4123-.35-6.9017-.6274-10.4485-.8507-.3265-.021-.6335-.059-.9609-.078l-.049-.0019c-4.1147-.2443-8.3312-.3878-12.6132-.4667-.2985-.0057-.5794-.0275-.8783-.0333-.8745-.0133-1.7984.0248-2.68.0172q-5.244-.04-10.63.0684c-.7319.0162-1.4272-.0057-2.1624.0143-.855.0237-1.7513.0931-2.6115.1226q-4.93.1668-9.9732.4657c-1.0228.06-2.0061.0751-3.035.1426-.5323.0342-1.0864.095-1.6206.1312-3.0982.2138-6.242.4828-9.3967.7642-1.2124.1083-2.3915.1758-3.6124.2946-.2914.0285-.5927.0685-.8845.097-2.3687.2338-4.7782.5209-7.1763.7918-1.7813.2005-3.5345.3659-5.3305.5874-.2832.0351-.5727.0789-.8554.115-1.1863.1483-2.3906.3213-3.5834.479-2.2613.2966-4.5121.58-6.7952.9078-.7158.1036-1.4458.2262-2.1643.3327-1.4524.2148-2.9143.4457-4.3748.672-1.5189.2357-3.0235.45-4.551.6995-1.3393.2187-2.6966.4667-4.042.6949-1.34.2281-2.6795.4552-4.0259.6929-.8441.1483-1.6781.28-2.5241.4334-2.6015.4705-5.2249.9781-7.8474,1.4847-.7456.1445-1.4837.2756-2.2308.422-.1949.038-.3869.0713-.5817.11-2.4961.4923-5.0211,1.0427-7.5338,1.5683-1.9751.4125-3.9365.8-5.9207,1.2328-.1264.0276-.25.05-.3764.078-1.1843.26-2.3858.556-3.5739.8222-3.6642.82-7.3322,1.65-11.0245,2.5359-1.872.45-3.7559.9353-5.6341,1.4011-3.15.78-6.299,1.5626-9.4642,2.3895-.5418.1407-1.0769.2652-1.6192.4088q-1.4115.3706-2.8254.749c-1.171.3136-2.3525.6634-3.5254.9828q-4.7343,1.2889-9.4832,2.6443c-1.1934.34-2.3792.6492-3.574.9961-1.2708.3688-2.5454.76-3.8172,1.1368q-2.2043.65-4.4094,1.3118c-1.0351.3117-2.0674.6083-3.1025.9238q-4.1,1.2519-8.2052,2.5512c-.27.0856-.5418.1749-.8127.26-.4762.1521-.9519.308-1.4282.46-1.9908.6359-3.9816,1.27-5.9729,1.9219q-3.4447,1.1279-6.89,2.2869c-.1815.0609-.3621.1246-.5432.1854-.2381.0808-.4757.1625-.7134.2433q-2.6291.8883-5.2577,1.7917-3.2571,1.125-6.5114,2.2775c-.5894.2081-1.1777.4229-1.767.633q-.7015.2494-1.402.5019c-1.1178.4011-2.2366.7965-3.3539,1.2024q-3.2957,1.1948-6.5866,2.419c-1.03.3821-2.0592.7747-3.0891,1.1615q-.7278.2738-1.4552.5475c-.6773.2566-1.3555.5076-2.0322.7642q-3.285,1.2519-6.5633,2.5293c-1.4609.5694-2.918,1.15-4.3761,1.7271-.4886.1939-.9781.385-1.4667.5789-.4486.1786-.8991.3526-1.3478.5322q-3.7725,1.5086-7.5332,3.0521c-1.3265.5447-2.6486,1.1017-3.9727,1.652-.5922.2471-1.1853.4914-1.7774.74-.5846.2452-1.172.4848-1.7556.73q-4.1733,1.7593-8.326,3.5587c-.7827.3393-1.56.6891-2.3425,1.0313q-1.3674.5975-2.7308,1.2024c-1.288.5684-2.5807,1.1273-3.8648,1.7014q-4.37,1.9533-8.7105,3.9522c-.0437.02-.0874.04-.1311.0589l-.0495.0229q-5.12,2.3582-10.1961,4.7791c-.7775.3717-1.5445.7538-2.3206,1.1273-1.182.5675-2.3578,1.1425-3.5354,1.7157-1.4135.6872-2.8364,1.364-4.2431,2.0588-1.672.826-3.323,1.6719-4.9854,2.5074-1.28.6435-2.5636,1.2823-3.8382,1.93-.6169.3146-1.2428.62-1.8582.9353q-4.926,2.5236-9.7855,5.108c-.2666.1417-.538.2785-.8041.42-.0428.0228-.0865.0446-.1293.0665q-5.5206,2.937-10.9565,5.9445c-.4087.2262-.8075.4591-1.2148.6862-1.2855.7139-2.5521,1.441-3.83,2.1615-1.9514,1.0988-3.918,2.1881-5.8508,3.3021-.8265.4752-1.6316.9647-2.4538,1.4428-1.5868.922-3.16,1.8526-4.7325,2.7831-1.3146.7775-2.65,1.5418-3.9551,2.3259-1.171.7034-2.3116,1.4248-3.4741,2.133q-2.3881,1.4543-4.7554,2.919c-.9182.5693-1.8564,1.1273-2.7688,1.7-1.3911.8725-2.74,1.767-4.1186,2.6462-1.7855,1.1387-3.5711,2.2765-5.3342,3.4275-.6958.4534-1.413.8964-2.1054,1.3526q-4.1384,2.7232-8.1915,5.4873-1.7194,1.1719-3.4114,2.3439c-.4063.2814-.7784.5608-1.1824.8422-3.5958,2.5036-7.1226,5.0054-10.53,7.5-.0742.0541-.1559.1093-.23.1644-1.9167,1.4048-3.7915,2.8078-5.6479,4.2107-.2424.1825-.4952.366-.7366.5485q-3.171,2.4037-6.224,4.7991c-.0693.0542-.1345.1084-.2043.1635q-6.7866,5.3308-12.9887,10.6153c-.0618.0522-.1269.1045-.1882.1568-.2367.2025-.4525.4021-.6882.6036q-3.2535,2.7888-6.337,5.5595c-.6787.6083-1.3469,1.2157-2.0137,1.8221q-2.7181,2.4766-5.3043,4.937c-.3536.3355-.7376.6758-1.0874,1.0113-.1264.1217-.2385.2405-.3645.3621q-3.3227,3.2-6.415,6.3685c-.4881.499-.9562.9951-1.4357,1.4932q-2.5065,2.6034-4.859,5.1812c-.46.5047-.9306,1.01-1.3821,1.5142q-2.8059,3.1252-5.3931,6.2163c-.3251.3888-.6283.7737-.9482,1.1615q-2.1465,2.6078-4.1285,5.1841c-.41.5332-.8227,1.0655-1.2224,1.5959-1.5312,2.0331-3.0064,4.0558-4.3851,6.0595-.1369.1987-.259.3945-.394.5931-1.2452,1.8269-2.4143,3.6367-3.5311,5.4369q-.4962.7985-.9753,1.5931c-1.11,1.844-2.169,3.6746-3.1433,5.4863-.0722.134-.1549.2709-.2262.4049-1.0285,1.93-1.9552,3.8344-2.8287,5.7259-.23.499-.4487.9961-.6682,1.4923q-1.0594,2.3938-1.9543,4.7459c-.1226.3231-.2614.65-.3792.9723-.6692,1.8288-1.2509,3.6329-1.7661,5.42-.1274.4411-.2357.8764-.3536,1.3136q-.59,2.1957-1.0227,4.3448c-.08.3983-.173.7994-.2453,1.1948q-.4719,2.5892-.7147,5.108c-.0338.3555-.0457.7044-.0727,1.058q-.159,2.0844-.1569,4.1166c.0005.4173-.0052.8365.0052,1.25.04,1.6216.1436,3.2232.34,4.7925.0276.2215.0751.4372.1065.6577.1925,1.3745.4529,2.7251.767,4.0578.0951.4049.192.8079.2985,1.209a43.1268,43.1268,0,0,0,1.4163,4.4617l39.1989,101.501a43.0413,43.0413,0,0,1-1.4162-4.4608c-.1065-.4-.2034-.8041-.2985-1.209-.3141-1.3326-.5746-2.6833-.7671-4.0577-.0313-.22-.0788-.4363-.1064-.6578-.1968-1.57-.2994-3.1709-.34-4.7924-.01-.4145-.0047-.8327-.0052-1.25q-.0015-2.0331.1568-4.1166c.0271-.3536.039-.7024.0727-1.0589q.2411-2.5179.7148-5.1071c.0718-.3963.1654-.7974.2452-1.1957q.4335-2.1486,1.0228-4.3438c.1179-.4382.2267-.8735.3536-1.3136.5156-1.787,1.0973-3.5939,1.767-5.4227.1159-.3184.2538-.6425.3749-.9619q.8933-2.3582,1.9595-4.7592c.2186-.4942.4358-.9876.6649-1.4837.873-1.8915,1.8007-3.7973,2.8292-5.7278.0732-.1369.1578-.2775.2319-.4154.9733-1.81,2.0308-3.6385,3.14-5.48q.4763-.79.97-1.5845c1.1216-1.807,2.2955-3.6262,3.5464-5.4607.1307-.1911.2481-.38.38-.5722,1.3777-2.0027,2.8539-4.0245,4.3852-6.0576.4015-.5332.8164-1.07,1.229-1.6054q1.9818-2.5735,4.1223-5.1765c.32-.3887.6245-.7746.95-1.1653q2.5793-3.0882,5.3923-6.2154c.4519-.5037.9229-1.01,1.3839-1.5151q2.3524-2.5777,4.8581-5.18c.479-.4971.9476-.9942,1.4357-1.4932q3.0975-3.1695,6.4155-6.3694c.4733-.4562.9695-.9153,1.45-1.3725q2.5871-2.4609,5.3058-4.9379c.6663-.6064,1.3335-1.2128,2.0117-1.8212q3.0918-2.7731,6.3413-5.5623c.2956-.2529.5751-.5038.8726-.7566q2.9527-2.5165,6.0433-5.0453.3279-.2681.6578-.5371,3.081-2.5122,6.2885-5.0348,3.1532-2.4766,6.4283-4.9617c.2486-.1891.51-.3783.759-.5665q2.8794-2.1729,5.848-4.3514c3.41-2.4989,6.9421-5.0035,10.5421-7.51,1.5237-1.0607,3.0317-2.1215,4.5891-3.1832,3.38-2.305,6.8284-4.5777,10.2968-6.84,1.7632-1.15,3.5492-2.2879,5.3343-3.4266C2875.3108,1012.31,2877.5987,1010.8576,2879.9137,1009.4214Z"/><path fill="#fff" stroke="#304063" stroke-linejoin="round" stroke-width="2" d="M3287.3559,895.7353c109.9554,16.0963,95.7257,99.6313-31.7827,186.5852s-320.0017,144.393-429.9571,128.2966-95.7267-99.6307,31.7827-186.5852S3177.401,879.639,3287.3559,895.7353Zm-142.1384,156.8889-39.047-5.5295,157.3512-66.9522-40.5986-5.7571-142.7267,63.5858,59.4148-75.3887-41.8928-5.9461-58.7236,80.9349-39.047-5.53-35.2687,24.1768,54.1238,7.6747-20.3113,13.9229-54.1238-7.6751-35.29,24.1736,54.1454,7.6779-49.0282,33.6134,37.2107,5.2815,49.0276-33.6127,54.1459,7.6779,35.27-24.1774-54.1247-7.6744,20.3359-13.94,53.8626,7.6568,35.2947-24.1938"/><path fill="#fff" stroke="#304063" stroke-linejoin="round" stroke-width="2" d="M3287.3559,895.7353c109.9554,16.0963,95.7257,99.6313-31.7827,186.5852s-320.0017,144.393-429.9571,128.2966-95.7267-99.6307,31.7827-186.5852S3177.401,879.639,3287.3559,895.7353Zm-142.1384,156.8889-39.047-5.5295,157.3512-66.9522-40.5986-5.7571-142.7267,63.5858,59.4148-75.3887-41.8928-5.9461-58.7236,80.9349-39.047-5.53-35.2687,24.1768,54.1238,7.6747-20.3113,13.9229-54.1238-7.6751-35.29,24.1736,54.1454,7.6779-49.0282,33.6134,37.2107,5.2815,49.0276-33.6127,54.1459,7.6779,35.27-24.1774-54.1247-7.6744,20.3359-13.94,53.8626,7.6568,35.2947-24.1938"/><polyline fill="#e9effd" points="3230.94 1098.268 3204.999 1113.459 3177.968 1127.829 3150.062 1141.314 3121.497 1153.85 3092.49 1165.371 3063.256 1175.814 3034.012 1185.113 3004.973 1193.205 2976.357 1200.024 2948.378 1205.507 2921.253 1209.589 2895.199 1212.206 2870.43 1213.292 2847.164 1212.784 2825.616 1210.617 2806.452 1206.824 2790.183 1201.545 2776.792 1194.872 2766.264 1186.901 2758.582 1177.723 2753.732 1167.434 2751.696 1156.127 2752.458 1143.896 2756.004 1130.835 2762.316 1117.037 2771.379 1102.596 2783.177 1087.606 2797.694 1072.161 2814.914 1056.354 2834.821 1040.28 2857.399 1024.032 2882.032 1008.085 2907.973 992.894 2935.004 978.523 2962.91 965.038 2991.475 952.503 3020.482 940.982 3049.716 930.539 3078.96 921.24 3107.998 913.148 3136.615 906.328 3164.594 900.845 3191.719 896.763 3217.773 894.147 3242.542 893.06 3265.808 893.568 3287.356 895.735 3306.52 899.528 3322.789 904.808 3336.18 911.48 3346.708 919.452 3354.39 928.629 3359.24 938.918 3361.276 950.225 3360.514 962.456 3356.968 975.518 3350.656 989.316 3341.592 1003.757 3329.794 1018.746 3315.277 1034.192 3298.058 1049.998 3278.151 1066.072 3255.573 1082.321 3230.94 1098.268"/><g clip-path="url(#g)"><path fill="#e9effd" d="M3263.5215,872.0089c119.26,45.1929,85.3973,226.8756-66.9861,287.36s266.6709-125.875,266.6709-125.875l-25.3972-161.4845-149.0709-66.4145"/></g><polyline fill="none" stroke="#304063" stroke-linejoin="round" stroke-width="2" points="3230.94 1098.268 3204.999 1113.459 3177.968 1127.829 3150.062 1141.314 3121.497 1153.85 3092.49 1165.371 3063.256 1175.814 3034.012 1185.113 3004.973 1193.205 2976.357 1200.024 2948.378 1205.507 2921.253 1209.589 2895.199 1212.206 2870.43 1213.292 2847.164 1212.784 2825.616 1210.617 2806.452 1206.824 2790.183 1201.545 2776.792 1194.872 2766.264 1186.901 2758.582 1177.723 2753.732 1167.434 2751.696 1156.127 2752.458 1143.896 2756.004 1130.835 2762.316 1117.037 2771.379 1102.596 2783.177 1087.606 2797.694 1072.161 2814.914 1056.354 2834.821 1040.28 2857.399 1024.032 2882.032 1008.085 2907.973 992.894 2935.004 978.523 2962.91 965.038 2991.475 952.503 3020.482 940.982 3049.716 930.539 3078.96 921.24 3107.998 913.148 3136.615 906.328 3164.594 900.845 3191.719 896.763 3217.773 894.147 3242.542 893.06 3265.808 893.568 3287.356 895.735 3306.52 899.528 3322.789 904.808 3336.18 911.48 3346.708 919.452 3354.39 928.629 3359.24 938.918 3361.276 950.225 3360.514 962.456 3356.968 975.518 3350.656 989.316 3341.592 1003.757 3329.794 1018.746 3315.277 1034.192 3298.058 1049.998 3278.151 1066.072 3255.573 1082.321 3230.94 1098.268"/><polyline fill="#fff" stroke="#304063" stroke-linejoin="round" stroke-width="2" points="3197.982 1090.737 3176.943 1102.928 3155.018 1114.46 3132.384 1125.282 3109.215 1135.342 3085.688 1144.587 3061.977 1152.967 3038.258 1160.43 3014.705 1166.923 2991.495 1172.396 2968.801 1176.796 2946.801 1180.072 2925.669 1182.172 2905.579 1183.044 2886.708 1182.636 2869.231 1180.897 2853.688 1177.853 2840.492 1173.616 2829.631 1168.262 2821.092 1161.864 2814.861 1154.5 2810.927 1146.243 2809.276 1137.169 2809.894 1127.354 2812.77 1116.872 2817.89 1105.799 2825.241 1094.211 2834.81 1082.182 2846.584 1069.787 2860.551 1057.102 2876.697 1044.203 2895.01 1031.164 2914.989 1018.366 2936.029 1006.175 2957.954 994.643 2980.588 983.822 3003.756 973.762 3027.284 964.517 3050.995 956.137 3074.714 948.674 3098.267 942.18 3121.477 936.707 3144.171 932.307 3166.171 929.032 3187.303 926.932 3207.393 926.06 3226.264 926.468 3243.741 928.207 3259.284 931.25 3272.48 935.487 3283.341 940.842 3291.88 947.239 3298.111 954.604 3302.045 962.861 3303.696 971.934 3303.077 981.75 3300.202 992.231 3295.082 1003.304 3287.731 1014.893 3278.162 1026.922 3266.387 1039.317 3252.421 1052.001 3236.275 1064.901 3217.962 1077.94 3197.982 1090.737"/><path fill="none" stroke="#304063" stroke-linejoin="round" stroke-width="2" d="M2936.0063,929.581a712.8829,712.8829,0,0,1,89.5933-49.4"/><path fill="none" stroke="#304063" stroke-linejoin="round" stroke-width="2" d="M3181.7582,1065.4073l-25.1271,17.3234"/><ellipse cx="1639.933" cy="2096.947" fill="#e9effd" rx="284.222" ry="540.191" transform="rotate(-29.433 1639.933 2096.947)"/><g clip-path="url(#h)"><path fill="#e9effd" d="M1205.0946,2027.1176c139.02-554.81,443.2908-398.5367,567.7651-312.4364s-200.542-224.7437-200.542-224.7437H1191.9794l-49.97,116.1585"/></g><ellipse cx="1639.933" cy="2096.947" fill="none" stroke="#304063" stroke-linejoin="round" stroke-width="2" rx="284.222" ry="540.191" transform="rotate(-29.433 1639.933 2096.947)"/><path fill="#fdfefe" d="M1401.06,1752.5459c76.4248-106.247,249.4852-45.4678,386.5087,135.7411,137.0753,181.2773,186.207,414.34,109.7821,520.5866-76.4534,106.2867-249.5122,45.51-386.5874-135.7677C1373.74,2091.897,1324.6068,1858.8325,1401.06,1752.5459Z"/><g clip-path="url(#i)"><path fill="#fff" d="M1376.14,1827.3572c76.4249-106.2469,249.4853-45.4678,386.5088,135.7411,137.0752,181.2774,186.2069,414.34,109.7821,520.5866-76.4534,106.2867-249.5122,45.51-386.5875-135.7677C1348.82,2166.7083,1299.6868,1933.6439,1376.14,1827.3572Z"/></g><path fill="none" stroke="#304063" stroke-linejoin="round" stroke-width="2" d="M1401.06,1752.5459c76.4248-106.247,249.4852-45.4678,386.5087,135.7411,137.0753,181.2773,186.207,414.34,109.7821,520.5866-76.4534,106.2867-249.5122,45.51-386.5874-135.7677C1373.74,2091.897,1324.6068,1858.8325,1401.06,1752.5459Z"/><path fill="#fff" d="M1671.4927,2683.7839c1.8564-.1923,3.73-.3353,5.5666-.5818,2.2262-.3008,4.408-.72,6.6021-1.102,1.78-.3106,3.58-.5694,5.3373-.9343,2.2188-.4635,4.3882-1.05,6.5725-1.6024,1.6739-.4216,3.3749-.784,5.0267-1.26,2.29-.6582,4.5213-1.45,6.7672-2.2064,1.489-.503,3.0076-.9393,4.4794-1.4841,2.4875-.927,4.9108-1.9969,7.3441-3.0521,1.1759-.5078,2.3814-.9442,3.5426-1.4841q5.3472-2.4775,10.5021-5.3792l172.0127-97.0558q-5.1513,2.9067-10.5021,5.3818c-1.171.5423-2.3864.9811-3.57,1.4939-2.4209,1.05-4.8368,2.1177-7.3169,3.04-1.4767.55-3.0027.9886-4.5016,1.4915-2.2385.7569-4.4647,1.5457-6.745,2.2015-1.6419.4709-3.3331.8308-4.9947,1.2524-2.1966.5547-4.3783,1.1439-6.6119,1.61-1.7454.3649-3.5327.6188-5.3.927-2.2039.387-4.3956.8061-6.6316,1.1069-1.8366.249-3.7127.3919-5.5666.5818-2.2237.2292-4.4326.4856-6.6809.6336-1.9081.1257-3.8532.1528-5.7811.2194-2.2483.0789-4.4843.1824-6.76.1824-1.97,0-3.9716-.0912-5.961-.15-2.28-.0666-4.5584-.1109-6.8634-.2564-2.0141-.1232-4.0579-.3353-6.0917-.5177-2.3223-.2095-4.64-.4043-6.9866-.6878-2.0684-.2515-4.1614-.5843-6.2446-.8924-2.3494-.3476-4.6964-.6854-7.0655-1.1069-2.1226-.3772-4.2625-.8308-6.4-1.2672-2.3716-.4857-4.7407-.9615-7.132-1.5186-2.16-.5029-4.3389-1.0773-6.5133-1.6394-2.4086-.6213-4.8147-1.24-7.2406-1.9353-2.1867-.6237-4.3906-1.314-6.59-1.9969-2.4381-.7568-4.8763-1.5161-7.3292-2.3444-2.2237-.75-4.4573-1.5606-6.6933-2.3667-2.46-.89-4.9232-1.7849-7.3983-2.7439-2.2607-.8776-4.5287-1.807-6.7993-2.7414-2.4677-1.0157-4.9379-2.0412-7.4155-3.1235-2.2952-1.0034-4.5978-2.0536-6.9028-3.1136q-3.439-1.5828-6.89-3.2444c-4.1836-2.0215-8.382-4.1564-12.5877-6.3653-1.45-.7618-2.8893-1.4718-4.3389-2.2533q-8.4165-4.5411-16.8921-9.5677c-1.24-.7372-2.4851-1.5408-3.7276-2.2952-4.4547-2.702-8.9169-5.4853-13.3889-8.3894-1.9081-1.24-3.8187-2.522-5.7293-3.799q-5.8908-3.9345-11.7939-8.1009c-2.0339-1.4348-4.0653-2.8647-6.1016-4.3389-3-2.1793-6.003-4.4277-9.0032-6.6933-2.2114-1.669-4.4228-3.3232-6.6366-5.039-3.1013-2.4086-6.2-4.9034-9.299-7.4032-2.1152-1.706-4.23-3.38-6.3457-5.13-3.3108-2.7389-6.6168-5.5839-9.9227-8.4288-1.8934-1.632-3.7892-3.21-5.6825-4.8739-4.1121-3.6165-8.2143-7.3588-12.3141-11.1356-1.0724-.9886-2.15-1.9254-3.2221-2.9263q-7.8249-7.296-15.61-14.989c-1.4249-1.4052-2.84-2.8868-4.26-4.3117-3.7522-3.7621-7.5043-7.5438-11.2392-11.4414-1.9254-2.0117-3.841-4.1-5.7614-6.146-3.2172-3.4267-6.4344-6.8584-9.6343-10.3838-2.0881-2.3-4.1639-4.6643-6.2421-7.0063-3.0175-3.3947-6.03-6.8042-9.0279-10.29-1.8638-2.1645-3.7177-4.3783-5.5765-6.58q-6.2643-7.4217-12.4743-15.1073c-1.6813-2.0831-3.3676-4.1491-5.044-6.2593-5.6307-7.09-11.2343-14.2864-16.7787-21.69q-9.0785-12.1291-17.7254-24.5049c-1.849-2.6329-3.6289-5.2954-5.4507-7.9407-3.8976-5.6652-7.7583-11.35-11.5277-17.077-1.6345-2.48-3.23-4.9774-4.8369-7.47-7.3145-11.3255-14.449-22.73-21.2532-34.2428-.4092-.6928-.7889-1.3954-1.1981-2.0881q-9.8734-16.8-18.9679-33.8188c-1.05-1.95-2.1276-3.8976-3.16-5.8526q-9.0563-17.1066-17.3309-34.3512c-1.107-2.2977-2.1892-4.6-3.2739-6.9-5.5223-11.7-10.8473-23.4178-15.8346-35.1451-.4412-1.0354-.8406-2.0684-1.277-3.1038q-7.1184-16.9107-13.4555-33.8064c-.7026-1.8613-1.4373-3.7276-2.1251-5.5864q-6.3863-17.28-11.9344-34.46c-.7544-2.32-1.4866-4.6347-2.2163-6.9521-3.6486-11.5548-7.0828-23.07-10.1668-34.5017-.34-1.2622-.6336-2.5121-.9664-3.7694q-4.3377-16.3743-7.8717-32.5121c-.3969-1.812-.8382-3.6363-1.2227-5.4409-1.81-8.5274-3.4909-17.0105-4.9651-25.4122-.0937-.5472-.1627-1.0822-.2589-1.63q-2.0376-11.7816-3.6116-23.361c-.37-2.6773-.6632-5.3177-.9935-7.9752-.7-5.6085-1.3387-11.19-1.8761-16.7171-.2885-2.9584-.5424-5.8994-.784-8.8307q-.6545-7.9875-1.07-15.8468c-.16-2.9731-.34-5.9586-.4536-8.9021-.1184-3.1729-.1775-6.3087-.2367-9.4445-.0715-3.6265-.1282-7.243-.1208-10.8226.0074-3.1112.0641-6.1879.1307-9.2646.0739-3.513.1725-7.0137.3254-10.4774.1356-3.0471.3155-6.0646.51-9.0723q.3329-5.1067.7716-10.14.3995-4.4375.8925-8.806.5694-5.0809,1.2573-10.0731.54-3.89,1.1488-7.7262c.5423-3.375,1.1463-6.6982,1.7775-10.0041.4758-2.4826.9491-4.9676,1.4742-7.4107.7075-3.3035,1.4989-6.54,2.3-9.77.5793-2.3223,1.134-4.6643,1.76-6.9472.9122-3.3232,1.9229-6.5626,2.9362-9.797.6483-2.0708,1.2573-4.1762,1.9475-6.21,1.04-3.0618,2.2015-6.0177,3.338-8.9933.8432-2.2114,1.6345-4.4671,2.5319-6.6292,1.2622-3.0421,2.6576-5.961,4.0258-8.9046.91-1.9574,1.7553-3.974,2.7093-5.8846,1.6-3.1975,3.3479-6.2544,5.0785-9.3262.8629-1.526,1.6493-3.121,2.5442-4.6174q4.0381-6.7524,8.5176-13.066c2.3888-3.3553,4.9675-6.3777,7.5018-9.4741,1.6123-1.9673,3.1679-4.0357,4.8369-5.9019,2.3716-2.6527,4.8813-5.0588,7.3663-7.5043,1.632-1.6049,3.195-3.3282,4.8714-4.8419,2.8326-2.5565,5.8032-4.8393,8.7665-7.1443,1.4669-1.1439,2.8647-2.4234,4.366-3.5057a149.3007,149.3007,0,0,1,13.9659-8.9638l-172.0127,97.0533a148.8793,148.8793,0,0,0-13.9683,8.9687c-1.494,1.0749-2.8844,2.347-4.3439,3.4859-2.9682,2.3075-5.9462,4.5953-8.7813,7.1592-1.6789,1.5162-3.2468,3.2394-4.8788,4.8468-2.4875,2.4455-4.9922,4.8517-7.3663,7.5043-1.664,1.8588-3.2147,3.92-4.82,5.8822-1.8243,2.2261-3.7226,4.3142-5.47,6.6735q-1.0317,1.3941-2.0437,2.8153-4.4892,6.3013-8.52,13.066c-.8974,1.5014-1.6887,3.1063-2.554,4.64-1.7257,3.0644-3.4687,6.1114-5.0637,9.3015-.9566,1.9131-1.8046,3.93-2.7143,5.8871-1.3682,2.946-2.7636,5.8674-4.0258,8.91-.8949,2.1546-1.6813,4.4-2.522,6.602-.9688,2.5343-2.0043,5.0045-2.9041,7.6005-.16.461-.286.954-.4437,1.4175-.6879,2.0289-1.2943,4.1318-1.9427,6.1977-1.0157,3.2443-2.0289,6.4862-2.9411,9.8168-.6237,2.2705-1.1784,4.5977-1.75,6.9077-.8086,3.2418-1.6,6.4936-2.3125,9.8118-.5226,2.4407-.9959,4.9183-1.4693,7.3983-.6311,3.2986-1.2326,6.6193-1.775,9.9869q-.6211,3.8532-1.1537,7.7656c-.2342,1.6764-.5325,3.3035-.7445,4.9972-.2071,1.6591-.3255,3.38-.51,5.0538-.3254,2.9115-.6261,5.8353-.89,8.7912-.3033,3.3627-.5547,6.7574-.7766,10.1767-.1947,2.9978-.3747,6.0054-.5078,9.0451-.1553,3.4662-.2515,6.9669-.3279,10.4824-.0641,3.0767-.1233,6.1558-.1307,9.27-.0074,3.5722.0493,7.1813.1208,10.8028.0592,3.1433.1184,6.2816.2392,9.4593.0443,1.1858.0369,2.3421.0887,3.5328.0789,1.77.2687,3.6042.3624,5.3842q.4253,7.8581,1.0724,15.837c.2391,2.9262.4931,5.8575.779,8.8059.5375,5.5321,1.1784,11.1111,1.8761,16.72.3353,2.6724.6287,5.325.9984,8.0122q1.579,11.5153,3.592,23.218c.101.5917.1775,1.1735.281,1.7676,1.4742,8.4042,3.1556,16.8872,4.9651,25.42.143.6656.2465,1.314.3895,1.98.2416,1.1266.5769,2.28.8234,3.407q3.5536,16.1526,7.8791,32.5442c.3328,1.2622.6261,2.5072.9663,3.7694,3.0866,11.434,6.5183,22.9494,10.1669,34.5091.73,2.3149,1.4594,4.6224,2.2138,6.94q5.5764,17.1843,11.9369,34.47c.6854,1.8564,1.42,3.7128,2.12,5.574q6.3753,16.918,13.48,33.8656c.4265,1.0108.8185,2.0191,1.2474,3.03,4.9873,11.7347,10.3148,23.4571,15.84,35.1623,1.09,2.3051,2.1694,4.6052,3.2788,6.91q8.2946,17.2287,17.3236,34.3389c1.04,1.9649,2.12,3.9149,3.1728,5.8723,6.0868,11.3206,12.3732,22.5944,18.9482,33.7843.4141.7026.8012,1.4151,1.2178,2.1177,6.7993,11.5079,13.9289,22.9,21.2384,34.2206.8111,1.2573,1.5408,2.5491,2.3593,3.8039.8111,1.2425,1.6789,2.4579,2.4949,3.6955,3.7595,5.71,7.6078,11.3748,11.4956,17.0252,1.8292,2.6625,3.6215,5.34,5.48,7.9875q8.6717,12.3511,17.72,24.4951c5.54,7.3983,11.1381,14.5895,16.7664,21.6772,1.6862,2.1226,3.3823,4.1984,5.0735,6.2939q6.1977,7.6695,12.4522,15.0826c1.0526,1.2474,2.0881,2.5688,3.1457,3.8064.8061.9467,1.6271,1.8391,2.4381,2.7784,2.988,3.4735,5.9907,6.8732,8.9983,10.2605,2.093,2.3568,4.1811,4.7333,6.2816,7.0482,3.1777,3.5032,6.3727,6.91,9.5677,10.3148,1.9427,2.0708,3.8779,4.1811,5.828,6.2125,3.6954,3.8581,7.4081,7.6005,11.1208,11.3255,1.462,1.4644,2.914,2.983,4.3759,4.4276q7.7694,7.67,15.5757,14.9569c.0813.0764.1652.16.249.2367,1.0847,1.0132,2.1793,1.955,3.2665,2.9559,4.0061,3.688,8.0146,7.344,12.0306,10.8768,1.9229,1.6912,3.8483,3.2961,5.7712,4.95,3.2764,2.8178,6.5527,5.6381,9.8315,8.3524,2.1374,1.7676,4.2724,3.4588,6.41,5.182,3.0791,2.4825,6.1558,4.96,9.2349,7.3515,2.2287,1.7281,4.4523,3.3922,6.6785,5.0711,2.9928,2.2582,5.9832,4.4991,8.9736,6.6685.8826.641,1.7676,1.3362,2.6477,1.97,1.1563.8283,2.3075,1.5605,3.4613,2.3765q5.8981,4.16,11.7816,8.0911c1.913,1.28,3.8261,2.5664,5.7392,3.8089q6.7413,4.3746,13.4555,8.4312c1.2129.7347,2.4307,1.5186,3.6412,2.2385q8.4867,5.044,16.9168,9.585c1.4446.7791,2.8794,1.4841,4.3216,2.2434,4.2107,2.2089,8.4091,4.3463,12.5927,6.37.8135.392,1.6345.8481,2.4456,1.2351,1.4964.71,2.978,1.3313,4.472,2.0191,2.29,1.0527,4.5805,2.098,6.8609,3.0964,2.4874,1.0847,4.9626,2.1152,7.4377,3.1334,2.2755.9343,4.5485,1.8662,6.8116,2.7438,2.4628.9541,4.9108,1.8441,7.3589,2.7291,2.2483.8135,4.4966,1.6271,6.73,2.3815,2.4382.8209,4.8566,1.5753,7.28,2.3272,2.2187.6878,4.44,1.3855,6.6464,2.0166,2.4135.6878,4.8048,1.3041,7.2011,1.9229,2.1842.5646,4.366,1.139,6.533,1.6444,2.3913.5571,4.758,1.0329,7.13,1.5186,2.14.4363,4.2846.89,6.4072,1.2671,2.3569.4191,4.689.7544,7.0261,1.102,2.1029.3131,4.2082.6484,6.2939.9,2.3247.2811,4.62.4734,6.9225.68,2.0536.1849,4.117.3993,6.1533.5251,2.3026.143,4.5756.1873,6.8535.2539,1.987.0592,3.9839.15,5.9512.15,2.2829,0,4.5312-.1036,6.7894-.1825,1.9229-.0665,3.8582-.0936,5.7589-.2194C1667.0626,2684.2671,1669.2715,2684.0107,1671.4927,2683.7839Z"/><g clip-path="url(#j)"><path fill="#fdfefe" d="M1107.6158,1997.587c112.0246,819.7351,931.4807,590.21,931.4807,590.21L1769.4021,2807.85l-601.626-139.2056-62.8234-428.745"/></g><path fill="none" stroke="#304063" stroke-linejoin="round" stroke-width="2" d="M1671.4927,2683.7839c1.8564-.1923,3.73-.3353,5.5666-.5818,2.2262-.3008,4.408-.72,6.6021-1.102,1.78-.3106,3.58-.5694,5.3373-.9343,2.2188-.4635,4.3882-1.05,6.5725-1.6024,1.6739-.4216,3.3749-.784,5.0267-1.26,2.29-.6582,4.5213-1.45,6.7672-2.2064,1.489-.503,3.0076-.9393,4.4794-1.4841,2.4875-.927,4.9108-1.9969,7.3441-3.0521,1.1759-.5078,2.3814-.9442,3.5426-1.4841q5.3472-2.4775,10.5021-5.3792l172.0127-97.0558q-5.1513,2.9067-10.5021,5.3818c-1.171.5423-2.3864.9811-3.57,1.4939-2.4209,1.05-4.8368,2.1177-7.3169,3.04-1.4767.55-3.0027.9886-4.5016,1.4915-2.2385.7569-4.4647,1.5457-6.745,2.2015-1.6419.4709-3.3331.8308-4.9947,1.2524-2.1966.5547-4.3783,1.1439-6.6119,1.61-1.7454.3649-3.5327.6188-5.3.927-2.2039.387-4.3956.8061-6.6316,1.1069-1.8366.249-3.7127.3919-5.5666.5818-2.2237.2292-4.4326.4856-6.6809.6336-1.9081.1257-3.8532.1528-5.7811.2194-2.2483.0789-4.4843.1824-6.76.1824-1.97,0-3.9716-.0912-5.961-.15-2.28-.0666-4.5584-.1109-6.8634-.2564-2.0141-.1232-4.0579-.3353-6.0917-.5177-2.3223-.2095-4.64-.4043-6.9866-.6878-2.0684-.2515-4.1614-.5843-6.2446-.8924-2.3494-.3476-4.6964-.6854-7.0655-1.1069-2.1226-.3772-4.2625-.8308-6.4-1.2672-2.3716-.4857-4.7407-.9615-7.132-1.5186-2.16-.5029-4.3389-1.0773-6.5133-1.6394-2.4086-.6213-4.8147-1.24-7.2406-1.9353-2.1867-.6237-4.3906-1.314-6.59-1.9969-2.4381-.7568-4.8763-1.5161-7.3292-2.3444-2.2237-.75-4.4573-1.5606-6.6933-2.3667-2.46-.89-4.9232-1.7849-7.3983-2.7439-2.2607-.8776-4.5287-1.807-6.7993-2.7414-2.4677-1.0157-4.9379-2.0412-7.4155-3.1235-2.2952-1.0034-4.5978-2.0536-6.9028-3.1136q-3.439-1.5828-6.89-3.2444c-4.1836-2.0215-8.382-4.1564-12.5877-6.3653-1.45-.7618-2.8893-1.4718-4.3389-2.2533q-8.4165-4.5411-16.8921-9.5677c-1.24-.7372-2.4851-1.5408-3.7276-2.2952-4.4547-2.702-8.9169-5.4853-13.3889-8.3894-1.9081-1.24-3.8187-2.522-5.7293-3.799q-5.8908-3.9345-11.7939-8.1009c-2.0339-1.4348-4.0653-2.8647-6.1016-4.3389-3-2.1793-6.003-4.4277-9.0032-6.6933-2.2114-1.669-4.4228-3.3232-6.6366-5.039-3.1013-2.4086-6.2-4.9034-9.299-7.4032-2.1152-1.706-4.23-3.38-6.3457-5.13-3.3108-2.7389-6.6168-5.5839-9.9227-8.4288-1.8934-1.632-3.7892-3.21-5.6825-4.8739-4.1121-3.6165-8.2143-7.3588-12.3141-11.1356-1.0724-.9886-2.15-1.9254-3.2221-2.9263q-7.8249-7.296-15.61-14.989c-1.4249-1.4052-2.84-2.8868-4.26-4.3117-3.7522-3.7621-7.5043-7.5438-11.2392-11.4414-1.9254-2.0117-3.841-4.1-5.7614-6.146-3.2172-3.4267-6.4344-6.8584-9.6343-10.3838-2.0881-2.3-4.1639-4.6643-6.2421-7.0063-3.0175-3.3947-6.03-6.8042-9.0279-10.29-1.8638-2.1645-3.7177-4.3783-5.5765-6.58q-6.2643-7.4217-12.4743-15.1073c-1.6813-2.0831-3.3676-4.1491-5.044-6.2593-5.6307-7.09-11.2343-14.2864-16.7787-21.69q-9.0785-12.1291-17.7254-24.5049c-1.849-2.6329-3.6289-5.2954-5.4507-7.9407-3.8976-5.6652-7.7583-11.35-11.5277-17.077-1.6345-2.48-3.23-4.9774-4.8369-7.47-7.3145-11.3255-14.449-22.73-21.2532-34.2428-.4092-.6928-.7889-1.3954-1.1981-2.0881q-9.8734-16.8-18.9679-33.8188c-1.05-1.95-2.1276-3.8976-3.16-5.8526q-9.0563-17.1066-17.3309-34.3512c-1.107-2.2977-2.1892-4.6-3.2739-6.9-5.5223-11.7-10.8473-23.4178-15.8346-35.1451-.4412-1.0354-.8406-2.0684-1.277-3.1038q-7.1184-16.9107-13.4555-33.8064c-.7026-1.8613-1.4373-3.7276-2.1251-5.5864q-6.3863-17.28-11.9344-34.46c-.7544-2.32-1.4866-4.6347-2.2163-6.9521-3.6486-11.5548-7.0828-23.07-10.1668-34.5017-.34-1.2622-.6336-2.5121-.9664-3.7694q-4.3377-16.3743-7.8717-32.5121c-.3969-1.812-.8382-3.6363-1.2227-5.4409-1.81-8.5274-3.4909-17.0105-4.9651-25.4122-.0937-.5472-.1627-1.0822-.2589-1.63q-2.0376-11.7816-3.6116-23.361c-.37-2.6773-.6632-5.3177-.9935-7.9752-.7-5.6085-1.3387-11.19-1.8761-16.7171-.2885-2.9584-.5424-5.8994-.784-8.8307q-.6545-7.9875-1.07-15.8468c-.16-2.9731-.34-5.9586-.4536-8.9021-.1184-3.1729-.1775-6.3087-.2367-9.4445-.0715-3.6265-.1282-7.243-.1208-10.8226.0074-3.1112.0641-6.1879.1307-9.2646.0739-3.513.1725-7.0137.3254-10.4774.1356-3.0471.3155-6.0646.51-9.0723q.3329-5.1067.7716-10.14.3995-4.4375.8925-8.806.5694-5.0809,1.2573-10.0731.54-3.89,1.1488-7.7262c.5423-3.375,1.1463-6.6982,1.7775-10.0041.4758-2.4826.9491-4.9676,1.4742-7.4107.7075-3.3035,1.4989-6.54,2.3-9.77.5793-2.3223,1.134-4.6643,1.76-6.9472.9122-3.3232,1.9229-6.5626,2.9362-9.797.6483-2.0708,1.2573-4.1762,1.9475-6.21,1.04-3.0618,2.2015-6.0177,3.338-8.9933.8432-2.2114,1.6345-4.4671,2.5319-6.6292,1.2622-3.0421,2.6576-5.961,4.0258-8.9046.91-1.9574,1.7553-3.974,2.7093-5.8846,1.6-3.1975,3.3479-6.2544,5.0785-9.3262.8629-1.526,1.6493-3.121,2.5442-4.6174q4.0381-6.7524,8.5176-13.066c2.3888-3.3553,4.9675-6.3777,7.5018-9.4741,1.6123-1.9673,3.1679-4.0357,4.8369-5.9019,2.3716-2.6527,4.8813-5.0588,7.3663-7.5043,1.632-1.6049,3.195-3.3282,4.8714-4.8419,2.8326-2.5565,5.8032-4.8393,8.7665-7.1443,1.4669-1.1439,2.8647-2.4234,4.366-3.5057a149.3007,149.3007,0,0,1,13.9659-8.9638l-172.0127,97.0533a148.8793,148.8793,0,0,0-13.9683,8.9687c-1.494,1.0749-2.8844,2.347-4.3439,3.4859-2.9682,2.3075-5.9462,4.5953-8.7813,7.1592-1.6789,1.5162-3.2468,3.2394-4.8788,4.8468-2.4875,2.4455-4.9922,4.8517-7.3663,7.5043-1.664,1.8588-3.2147,3.92-4.82,5.8822-1.8243,2.2261-3.7226,4.3142-5.47,6.6735q-1.0317,1.3941-2.0437,2.8153-4.4892,6.3013-8.52,13.066c-.8974,1.5014-1.6887,3.1063-2.554,4.64-1.7257,3.0644-3.4687,6.1114-5.0637,9.3015-.9566,1.9131-1.8046,3.93-2.7143,5.8871-1.3682,2.946-2.7636,5.8674-4.0258,8.91-.8949,2.1546-1.6813,4.4-2.522,6.602-.9688,2.5343-2.0043,5.0045-2.9041,7.6005-.16.461-.286.954-.4437,1.4175-.6879,2.0289-1.2943,4.1318-1.9427,6.1977-1.0157,3.2443-2.0289,6.4862-2.9411,9.8168-.6237,2.2705-1.1784,4.5977-1.75,6.9077-.8086,3.2418-1.6,6.4936-2.3125,9.8118-.5226,2.4407-.9959,4.9183-1.4693,7.3983-.6311,3.2986-1.2326,6.6193-1.775,9.9869q-.6211,3.8532-1.1537,7.7656c-.2342,1.6764-.5325,3.3035-.7445,4.9972-.2071,1.6591-.3255,3.38-.51,5.0538-.3254,2.9115-.6261,5.8353-.89,8.7912-.3033,3.3627-.5547,6.7574-.7766,10.1767-.1947,2.9978-.3747,6.0054-.5078,9.0451-.1553,3.4662-.2515,6.9669-.3279,10.4824-.0641,3.0767-.1233,6.1558-.1307,9.27-.0074,3.5722.0493,7.1813.1208,10.8028.0592,3.1433.1184,6.2816.2392,9.4593.0443,1.1858.0369,2.3421.0887,3.5328.0789,1.77.2687,3.6042.3624,5.3842q.4253,7.8581,1.0724,15.837c.2391,2.9262.4931,5.8575.779,8.8059.5375,5.5321,1.1784,11.1111,1.8761,16.72.3353,2.6724.6287,5.325.9984,8.0122q1.579,11.5153,3.592,23.218c.101.5917.1775,1.1735.281,1.7676,1.4742,8.4042,3.1556,16.8872,4.9651,25.42.143.6656.2465,1.314.3895,1.98.2416,1.1266.5769,2.28.8234,3.407q3.5536,16.1526,7.8791,32.5442c.3328,1.2622.6261,2.5072.9663,3.7694,3.0866,11.434,6.5183,22.9494,10.1669,34.5091.73,2.3149,1.4594,4.6224,2.2138,6.94q5.5764,17.1843,11.9369,34.47c.6854,1.8564,1.42,3.7128,2.12,5.574q6.3753,16.918,13.48,33.8656c.4265,1.0108.8185,2.0191,1.2474,3.03,4.9873,11.7347,10.3148,23.4571,15.84,35.1623,1.09,2.3051,2.1694,4.6052,3.2788,6.91q8.2946,17.2287,17.3236,34.3389c1.04,1.9649,2.12,3.9149,3.1728,5.8723,6.0868,11.3206,12.3732,22.5944,18.9482,33.7843.4141.7026.8012,1.4151,1.2178,2.1177,6.7993,11.5079,13.9289,22.9,21.2384,34.2206.8111,1.2573,1.5408,2.5491,2.3593,3.8039.8111,1.2425,1.6789,2.4579,2.4949,3.6955,3.7595,5.71,7.6078,11.3748,11.4956,17.0252,1.8292,2.6625,3.6215,5.34,5.48,7.9875q8.6717,12.3511,17.72,24.4951c5.54,7.3983,11.1381,14.5895,16.7664,21.6772,1.6862,2.1226,3.3823,4.1984,5.0735,6.2939q6.1977,7.6695,12.4522,15.0826c1.0526,1.2474,2.0881,2.5688,3.1457,3.8064.8061.9467,1.6271,1.8391,2.4381,2.7784,2.988,3.4735,5.9907,6.8732,8.9983,10.2605,2.093,2.3568,4.1811,4.7333,6.2816,7.0482,3.1777,3.5032,6.3727,6.91,9.5677,10.3148,1.9427,2.0708,3.8779,4.1811,5.828,6.2125,3.6954,3.8581,7.4081,7.6005,11.1208,11.3255,1.462,1.4644,2.914,2.983,4.3759,4.4276q7.7694,7.67,15.5757,14.9569c.0813.0764.1652.16.249.2367,1.0847,1.0132,2.1793,1.955,3.2665,2.9559,4.0061,3.688,8.0146,7.344,12.0306,10.8768,1.9229,1.6912,3.8483,3.2961,5.7712,4.95,3.2764,2.8178,6.5527,5.6381,9.8315,8.3524,2.1374,1.7676,4.2724,3.4588,6.41,5.182,3.0791,2.4825,6.1558,4.96,9.2349,7.3515,2.2287,1.7281,4.4523,3.3922,6.6785,5.0711,2.9928,2.2582,5.9832,4.4991,8.9736,6.6685.8826.641,1.7676,1.3362,2.6477,1.97,1.1563.8283,2.3075,1.5605,3.4613,2.3765q5.8981,4.16,11.7816,8.0911c1.913,1.28,3.8261,2.5664,5.7392,3.8089q6.7413,4.3746,13.4555,8.4312c1.2129.7347,2.4307,1.5186,3.6412,2.2385q8.4867,5.044,16.9168,9.585c1.4446.7791,2.8794,1.4841,4.3216,2.2434,4.2107,2.2089,8.4091,4.3463,12.5927,6.37.8135.392,1.6345.8481,2.4456,1.2351,1.4964.71,2.978,1.3313,4.472,2.0191,2.29,1.0527,4.5805,2.098,6.8609,3.0964,2.4874,1.0847,4.9626,2.1152,7.4377,3.1334,2.2755.9343,4.5485,1.8662,6.8116,2.7438,2.4628.9541,4.9108,1.8441,7.3589,2.7291,2.2483.8135,4.4966,1.6271,6.73,2.3815,2.4382.8209,4.8566,1.5753,7.28,2.3272,2.2187.6878,4.44,1.3855,6.6464,2.0166,2.4135.6878,4.8048,1.3041,7.2011,1.9229,2.1842.5646,4.366,1.139,6.533,1.6444,2.3913.5571,4.758,1.0329,7.13,1.5186,2.14.4363,4.2846.89,6.4072,1.2671,2.3569.4191,4.689.7544,7.0261,1.102,2.1029.3131,4.2082.6484,6.2939.9,2.3247.2811,4.62.4734,6.9225.68,2.0536.1849,4.117.3993,6.1533.5251,2.3026.143,4.5756.1873,6.8535.2539,1.987.0592,3.9839.15,5.9512.15,2.2829,0,4.5312-.1036,6.7894-.1825,1.9229-.0665,3.8582-.0936,5.7589-.2194C1667.0626,2684.2671,1669.2715,2684.0107,1671.4927,2683.7839Z"/><path fill="none" stroke="#304063" stroke-linejoin="round" stroke-width="2" d="M1665.7946,2039.3231a95.5573,95.5573,0,0,1-7.0342,69.1878"/><path fill="none" stroke="#304063" stroke-linejoin="round" stroke-width="2" d="M1236.576,2101.6032a107.3562,107.3562,0,0,0,34.93,76.057"/><path fill="#fff" stroke="#304063" stroke-linejoin="round" stroke-width="2" d="M3100.1791,1957.1947l-5.6861-6.07,175.533-164.4257a99.0868,99.0868,0,0,0-135.4792-144.631l-175.5329,164.4257-5.686-6.07,175.5329-164.4257A107.404,107.404,0,0,1,3275.712,1792.769Z"/><polygon fill="#fff" stroke="#304063" stroke-linejoin="round" stroke-width="2" points="2974.329 2369.489 2533.699 1899.095 2883.61 1639.51 3256.2 2037.269 2974.329 2369.489"/><polygon fill="#fff" points="3003.002 2400.099 2562.373 1929.705 2912.283 1670.121 3284.873 2067.88 3003.002 2400.099"/><g clip-path="url(#k)"><path fill="#fff" d="M3256.2,2037.2694c-293.0453,445.0333-722.5-138.1748-722.5-138.1748L2698.0211,2308.03l308.1,299.7613,466.2168-523.7278-187.465-16.1842"/></g><polygon fill="none" stroke="#304063" stroke-linejoin="round" stroke-width="2" points="3003.002 2400.099 2562.373 1929.705 2912.283 1670.121 3284.873 2067.88 3003.002 2400.099"/><circle cx="2984.847" cy="1834.069" r="8.824" fill="#fff"/><circle cx="3126.011" cy="1984.769" r="8.824" fill="#fff"/><path fill="#fff" stroke="#304063" stroke-linejoin="round" stroke-width="2" d="M3128.8536,1987.8062l-5.6861-6.07,175.533-164.4257a99.0868,99.0868,0,0,0-135.4792-144.631l-175.5329,164.4257-5.6861-6.07,175.533-164.4257a107.404,107.404,0,0,1,146.8512,156.7712Z"/><polygon fill="#fff" stroke="#304063" stroke-linejoin="round" stroke-width="2" points="2960.964 1966.442 2824.379 2010.839 2931.121 2106.927 2960.964 1966.442"/><circle cx="2897.565" cy="1875.594" r="53.114" fill="#0b1753" stroke="#304063" stroke-linejoin="round" stroke-width="2"/><rect width="77.262" height="77.262" x="3000.098" y="1987.663" fill="#fff" stroke="#304063" stroke-linejoin="round" stroke-width="2" transform="rotate(46.871 3038.73 2026.295)"/><path fill="none" stroke="#304063" stroke-linejoin="round" stroke-width="2" d="M2943.456,1759.0305l-25.5057-5.1121"/><path fill="none" stroke="#304063" stroke-linejoin="round" stroke-width="2" d="M2983.8058,2226.7828a69.0116,69.0116,0,0,1-38.3208-5.6073"/></g></svg>